<svg xmlns="http://www.w3.org/2000/svg" viewBox="0 0 32 52" width="32" height="52">
  <ellipse cx="16.00" cy="49.40" rx="12.80" ry="2.86" fill="#0c0c0c" opacity="0.30"/>
  <rect x="9.60" y="30.16" width="12.80" height="17.16" rx="2.56" fill="#a4a4a4"/>
  <rect x="9.60" y="30.16" width="3.84" height="17.16" rx="2.56" fill="#f2f2f2" opacity="0.28"/>
  <rect x="18.43" y="30.16" width="3.97" height="17.16" rx="2.56" fill="#363636" opacity="0.35"/>
  <rect x="9.60" y="42.52" width="12.80" height="4.80" rx="2.56" fill="#363636" opacity="0.28"/>
  <ellipse cx="16.00" cy="26.16" rx="12.67" ry="6.49" fill="#1c1c1c" opacity="0.48"/>
  <ellipse cx="16.00" cy="18.72" rx="14.08" ry="13.52" fill="#686868"/>
  <ellipse cx="13.47" cy="16.02" rx="8.73" ry="7.84" fill="#c2c2c2" opacity="0.50"/>
  <ellipse cx="12.06" cy="14.66" rx="3.10" ry="2.70" fill="#f2f2f2" opacity="0.42"/>
  <ellipse cx="12.34" cy="17.64" rx="2.01" ry="1.56" fill="#dedede" opacity="0.26"/>
  <ellipse cx="12.34" cy="17.64" rx="1.55" ry="1.22" fill="#c2c2c2" opacity="0.58"/>
  <ellipse cx="12.62" cy="17.86" rx="0.65" ry="0.51" fill="#686868" opacity="0.34"/>
  <ellipse cx="19.10" cy="16.56" rx="1.46" ry="1.14" fill="#dedede" opacity="0.26"/>
  <ellipse cx="19.10" cy="16.56" rx="1.13" ry="0.89" fill="#c2c2c2" opacity="0.58"/>
  <ellipse cx="19.30" cy="16.72" rx="0.47" ry="0.37" fill="#686868" opacity="0.34"/>
  <ellipse cx="16.84" cy="20.07" rx="1.10" ry="0.85" fill="#dedede" opacity="0.26"/>
  <ellipse cx="16.84" cy="20.07" rx="0.84" ry="0.67" fill="#c2c2c2" opacity="0.58"/>
  <ellipse cx="17.00" cy="20.19" rx="0.35" ry="0.28" fill="#686868" opacity="0.34"/>
  <ellipse cx="16.00" cy="18.72" rx="14.08" ry="13.52" fill="none" stroke="#1c1c1c" stroke-width="1.3" opacity="0.42"/>
</svg>