<svg xmlns="http://www.w3.org/2000/svg" viewBox="0 0 46 56" width="46" height="56">
  <ellipse cx="23.00" cy="53.20" rx="17.48" ry="4.48" fill="#0c0c0c" opacity="0.35"/>
  <polygon points="10.00,25.00 37.00,25.00 39.00,33.00 36.00,42.00 28.00,48.00 18.00,48.00 10.00,42.00 7.00,33.00" fill="#4e4e4e"/>
  <polygon points="10.00,25.00 37.00,25.00 37.56,34.20 9.48,34.20" fill="#686868" opacity="0.50"/>
  <polygon points="10.20,39.26 35.80,39.26 39.00,33.00 7.00,33.00" fill="#1c1c1c" opacity="0.38"/>
  <ellipse cx="23.50" cy="26.20" rx="14.04" ry="2.70" fill="#1c1c1c" opacity="0.42"/>
  <polygon points="8.00,18.00 16.00,10.00 24.00,8.00 33.00,11.00 40.00,18.00 37.00,25.00 23.00,28.00 10.00,25.00" fill="#868686"/>
  <polygon points="13.79,17.04 18.19,12.64 22.59,11.54 27.54,13.19 31.39,17.04 29.74,20.89 22.04,22.54 14.89,20.89" fill="#c2c2c2" opacity="0.45"/>
  <polygon points="16.55,16.11 18.79,13.87 21.03,13.31 23.55,14.15 25.51,16.11 24.67,18.07 20.75,18.91 17.11,18.07" fill="#f2f2f2" opacity="0.33"/>
  <line x1="18.00" y1="12.00" x2="25.00" y2="22.00" stroke="#1c1c1c" stroke-width="0.9" opacity="0.55"/>
  <line x1="28.00" y1="11.00" x2="34.00" y2="20.00" stroke="#1c1c1c" stroke-width="0.9" opacity="0.55"/>
  <line x1="16.00" y1="30.00" x2="22.00" y2="42.00" stroke="#1c1c1c" stroke-width="0.9" opacity="0.55"/>
  <polygon points="8.00,18.00 16.00,10.00 24.00,8.00 33.00,11.00 40.00,18.00 37.00,25.00 23.00,28.00 10.00,25.00"   fill="none" stroke="#1c1c1c" stroke-width="0.9" stroke-linejoin="round" opacity="0.38"/>
  <polygon points="10.00,25.00 37.00,25.00 39.00,33.00 36.00,42.00 28.00,48.00 18.00,48.00 10.00,42.00 7.00,33.00" fill="none" stroke="#1c1c1c" stroke-width="0.9" stroke-linejoin="round" opacity="0.32"/>
</svg>