<svg xmlns="http://www.w3.org/2000/svg" viewBox="0 0 1280 720" width="1280" height="720">
  <!-- Base ground fill -->
  <rect width="1280" height="720" fill="#081410"/>

  <!-- Ground texture blobs -->
  <ellipse cx="636.9" cy="213.0" rx="139.9" ry="21.8" transform="rotate(58,636.9,213.0)" fill="#0e1c18" opacity="0.3"/>
  <ellipse cx="582.1" cy="95.7" rx="81.6" ry="69.3" transform="rotate(107,582.1,95.7)" fill="#0b1814" opacity="0.2"/>
  <ellipse cx="387.9" cy="215.1" rx="108.8" ry="54.6" transform="rotate(357,387.9,215.1)" fill="#0e1c18" opacity="0.3"/>
  <ellipse cx="845.1" cy="499.6" rx="83.3" ry="77.1" transform="rotate(331,845.1,499.6)" fill="#091612" opacity="0.3"/>
  <ellipse cx="226.6" cy="229.1" rx="81.0" ry="54.7" transform="rotate(189,226.6,229.1)" fill="#0e1c18" opacity="0.2"/>
  <ellipse cx="753.3" cy="566.3" rx="80.5" ry="84.4" transform="rotate(292,753.3,566.3)" fill="#0e1c18" opacity="0.3"/>
  <ellipse cx="474.6" cy="451.8" rx="137.4" ry="67.4" transform="rotate(147,474.6,451.8)" fill="#0c1915" opacity="0.1"/>
  <ellipse cx="600.9" cy="450.5" rx="140.2" ry="82.7" transform="rotate(158,600.9,450.5)" fill="#0e1c18" opacity="0.2"/>
  <ellipse cx="409.2" cy="520.1" rx="64.8" ry="74.3" transform="rotate(331,409.2,520.1)" fill="#0e1c18" opacity="0.1"/>
  <ellipse cx="1064.9" cy="238.1" rx="62.5" ry="24.4" transform="rotate(289,1064.9,238.1)" fill="#0e1c18" opacity="0.2"/>
  <ellipse cx="909.3" cy="602.7" rx="129.0" ry="49.7" transform="rotate(270,909.3,602.7)" fill="#081511" opacity="0.3"/>
  <ellipse cx="663.9" cy="558.3" rx="142.6" ry="46.1" transform="rotate(272,663.9,558.3)" fill="#0e1c18" opacity="0.2"/>
  <ellipse cx="1174.1" cy="624.7" rx="146.7" ry="83.1" transform="rotate(127,1174.1,624.7)" fill="#0c1a16" opacity="0.2"/>
  <ellipse cx="962.5" cy="655.0" rx="74.0" ry="65.7" transform="rotate(42,962.5,655.0)" fill="#0e1c18" opacity="0.3"/>
  <ellipse cx="1205.2" cy="409.7" rx="116.6" ry="73.1" transform="rotate(29,1205.2,409.7)" fill="#0e1c18" opacity="0.2"/>
  <ellipse cx="932.8" cy="292.9" rx="93.1" ry="27.6" transform="rotate(146,932.8,292.9)" fill="#0c1915" opacity="0.2"/>
  <ellipse cx="890.7" cy="67.1" rx="117.5" ry="46.9" transform="rotate(116,890.7,67.1)" fill="#0b1814" opacity="0.2"/>
  <ellipse cx="167.2" cy="650.8" rx="116.1" ry="40.0" transform="rotate(105,167.2,650.8)" fill="#0c1915" opacity="0.2"/>
  <ellipse cx="323.5" cy="613.2" rx="93.9" ry="26.7" transform="rotate(336,323.5,613.2)" fill="#0e1c18" opacity="0.2"/>
  <ellipse cx="1133.7" cy="573.9" rx="95.9" ry="63.8" transform="rotate(263,1133.7,573.9)" fill="#0e1c18" opacity="0.3"/>
  <ellipse cx="434.7" cy="418.4" rx="71.1" ry="51.4" transform="rotate(326,434.7,418.4)" fill="#0e1c18" opacity="0.2"/>
  <ellipse cx="499.0" cy="215.2" rx="96.4" ry="20.6" transform="rotate(165,499.0,215.2)" fill="#0c1915" opacity="0.2"/>
  <ellipse cx="578.5" cy="691.1" rx="119.9" ry="53.1" transform="rotate(22,578.5,691.1)" fill="#0e1c18" opacity="0.3"/>
  <ellipse cx="943.0" cy="205.8" rx="84.1" ry="61.1" transform="rotate(256,943.0,205.8)" fill="#0b1915" opacity="0.2"/>
  <ellipse cx="433.3" cy="409.5" rx="86.2" ry="74.8" transform="rotate(153,433.3,409.5)" fill="#0a1713" opacity="0.3"/>
  <ellipse cx="340.4" cy="607.1" rx="43.6" ry="31.5" transform="rotate(71,340.4,607.1)" fill="#0d1a16" opacity="0.2"/>
  <ellipse cx="23.7" cy="15.1" rx="48.9" ry="60.5" transform="rotate(334,23.7,15.1)" fill="#0e1c18" opacity="0.2"/>
  <ellipse cx="905.3" cy="59.1" rx="153.9" ry="48.4" transform="rotate(266,905.3,59.1)" fill="#091612" opacity="0.2"/>
  <ellipse cx="1159.4" cy="641.0" rx="43.1" ry="81.1" transform="rotate(178,1159.4,641.0)" fill="#091511" opacity="0.3"/>
  <ellipse cx="1140.1" cy="624.6" rx="123.0" ry="64.7" transform="rotate(72,1140.1,624.6)" fill="#0e1c18" opacity="0.2"/>
  <ellipse cx="320.2" cy="478.1" rx="112.8" ry="67.7" transform="rotate(168,320.2,478.1)" fill="#081511" opacity="0.2"/>
  <ellipse cx="82.8" cy="564.9" rx="119.3" ry="56.4" transform="rotate(70,82.8,564.9)" fill="#0e1c18" opacity="0.2"/>
  <ellipse cx="760.5" cy="37.6" rx="87.5" ry="87.6" transform="rotate(49,760.5,37.6)" fill="#0e1c18" opacity="0.1"/>
  <ellipse cx="331.8" cy="129.9" rx="143.3" ry="73.5" transform="rotate(10,331.8,129.9)" fill="#0a1612" opacity="0.2"/>
  <ellipse cx="965.2" cy="330.1" rx="136.6" ry="47.8" transform="rotate(23,965.2,330.1)" fill="#0e1c18" opacity="0.3"/>
  <ellipse cx="604.8" cy="54.7" rx="114.1" ry="43.0" transform="rotate(179,604.8,54.7)" fill="#081511" opacity="0.2"/>

  <!-- Fine surface stipple -->
  <circle cx="289.4" cy="193.0" r="1.3" fill="#26302d" opacity="0.3"/>
  <circle cx="953.7" cy="628.4" r="1.5" fill="#07110e" opacity="0.4"/>
  <circle cx="658.5" cy="91.7" r="1.3" fill="#07110e" opacity="0.2"/>
  <circle cx="620.7" cy="469.7" r="1.4" fill="#07110e" opacity="0.2"/>
  <circle cx="231.2" cy="582.8" r="1.7" fill="#26302d" opacity="0.2"/>
  <circle cx="428.4" cy="397.8" r="1.3" fill="#07110e" opacity="0.2"/>
  <circle cx="470.1" cy="364.3" r="1.4" fill="#07110e" opacity="0.2"/>
  <circle cx="620.4" cy="495.1" r="1.9" fill="#07110e" opacity="0.2"/>
  <circle cx="602.1" cy="627.1" r="1.8" fill="#07110e" opacity="0.2"/>
  <circle cx="923.5" cy="111.6" r="1.5" fill="#07110e" opacity="0.4"/>
  <circle cx="105.6" cy="274.4" r="0.9" fill="#07110e" opacity="0.2"/>
  <circle cx="743.2" cy="248.3" r="0.8" fill="#07110e" opacity="0.4"/>
  <circle cx="253.9" cy="380.3" r="2.0" fill="#26302d" opacity="0.3"/>
  <circle cx="597.7" cy="101.6" r="0.9" fill="#07110e" opacity="0.3"/>
  <circle cx="32.5" cy="206.1" r="0.8" fill="#07110e" opacity="0.4"/>
  <circle cx="1172.9" cy="248.0" r="0.6" fill="#07110e" opacity="0.4"/>
  <circle cx="463.4" cy="534.2" r="1.9" fill="#07110e" opacity="0.4"/>
  <circle cx="678.2" cy="83.5" r="1.7" fill="#07110e" opacity="0.3"/>
  <circle cx="525.7" cy="21.6" r="1.3" fill="#26302d" opacity="0.2"/>
  <circle cx="676.5" cy="308.6" r="1.3" fill="#07110e" opacity="0.3"/>
  <circle cx="1273.3" cy="640.5" r="1.3" fill="#07110e" opacity="0.4"/>
  <circle cx="656.7" cy="461.2" r="1.0" fill="#07110e" opacity="0.3"/>
  <circle cx="547.9" cy="373.2" r="1.7" fill="#07110e" opacity="0.3"/>
  <circle cx="1235.3" cy="624.4" r="1.0" fill="#26302d" opacity="0.4"/>
  <circle cx="943.2" cy="184.4" r="0.9" fill="#07110e" opacity="0.2"/>
  <circle cx="867.1" cy="569.4" r="0.6" fill="#26302d" opacity="0.3"/>
  <circle cx="631.7" cy="312.1" r="1.1" fill="#07110e" opacity="0.2"/>
  <circle cx="946.1" cy="458.8" r="1.0" fill="#07110e" opacity="0.3"/>
  <circle cx="498.5" cy="407.1" r="1.4" fill="#07110e" opacity="0.3"/>
  <circle cx="198.5" cy="497.4" r="1.4" fill="#07110e" opacity="0.4"/>
  <circle cx="1257.4" cy="135.6" r="0.8" fill="#07110e" opacity="0.3"/>
  <circle cx="1069.8" cy="444.6" r="1.8" fill="#07110e" opacity="0.3"/>
  <circle cx="1169.4" cy="332.7" r="1.3" fill="#26302d" opacity="0.4"/>
  <circle cx="682.7" cy="281.9" r="1.2" fill="#26302d" opacity="0.4"/>
  <circle cx="952.5" cy="712.0" r="0.8" fill="#07110e" opacity="0.4"/>
  <circle cx="638.8" cy="176.0" r="0.6" fill="#07110e" opacity="0.2"/>
  <circle cx="1005.2" cy="88.9" r="1.6" fill="#07110e" opacity="0.3"/>
  <circle cx="363.5" cy="312.5" r="1.1" fill="#26302d" opacity="0.2"/>
  <circle cx="420.9" cy="136.2" r="0.7" fill="#26302d" opacity="0.4"/>
  <circle cx="899.5" cy="351.9" r="1.1" fill="#26302d" opacity="0.3"/>
  <circle cx="785.4" cy="486.2" r="1.3" fill="#07110e" opacity="0.2"/>
  <circle cx="68.6" cy="116.8" r="1.3" fill="#07110e" opacity="0.2"/>
  <circle cx="905.5" cy="513.4" r="0.8" fill="#26302d" opacity="0.2"/>
  <circle cx="332.8" cy="15.6" r="1.4" fill="#07110e" opacity="0.3"/>
  <circle cx="1086.6" cy="285.3" r="1.1" fill="#07110e" opacity="0.4"/>
  <circle cx="460.5" cy="99.5" r="1.6" fill="#07110e" opacity="0.2"/>
  <circle cx="480.5" cy="434.6" r="1.7" fill="#26302d" opacity="0.3"/>
  <circle cx="537.3" cy="608.8" r="1.3" fill="#07110e" opacity="0.4"/>
  <circle cx="660.1" cy="337.8" r="1.9" fill="#07110e" opacity="0.3"/>
  <circle cx="75.8" cy="441.6" r="0.7" fill="#26302d" opacity="0.2"/>
  <circle cx="615.4" cy="495.3" r="0.8" fill="#07110e" opacity="0.3"/>
  <circle cx="773.7" cy="125.8" r="1.3" fill="#26302d" opacity="0.2"/>
  <circle cx="22.7" cy="69.1" r="0.8" fill="#07110e" opacity="0.3"/>
  <circle cx="1198.4" cy="359.7" r="1.8" fill="#07110e" opacity="0.3"/>
  <circle cx="430.1" cy="73.3" r="1.6" fill="#26302d" opacity="0.2"/>
  <circle cx="231.5" cy="188.2" r="0.8" fill="#07110e" opacity="0.3"/>
  <circle cx="462.7" cy="308.0" r="1.4" fill="#07110e" opacity="0.4"/>
  <circle cx="1271.1" cy="471.7" r="1.6" fill="#07110e" opacity="0.3"/>
  <circle cx="177.0" cy="320.3" r="1.4" fill="#26302d" opacity="0.3"/>
  <circle cx="29.4" cy="264.0" r="1.3" fill="#07110e" opacity="0.4"/>
  <circle cx="972.0" cy="281.6" r="1.7" fill="#26302d" opacity="0.3"/>
  <circle cx="126.2" cy="520.4" r="1.1" fill="#26302d" opacity="0.3"/>
  <circle cx="350.4" cy="512.7" r="1.7" fill="#26302d" opacity="0.2"/>
  <circle cx="529.8" cy="563.4" r="1.6" fill="#07110e" opacity="0.4"/>
  <circle cx="869.4" cy="399.5" r="1.5" fill="#26302d" opacity="0.2"/>
  <circle cx="994.0" cy="259.8" r="0.7" fill="#26302d" opacity="0.3"/>
  <circle cx="838.7" cy="31.1" r="0.8" fill="#07110e" opacity="0.3"/>
  <circle cx="656.2" cy="220.9" r="0.6" fill="#07110e" opacity="0.3"/>
  <circle cx="568.9" cy="698.4" r="0.7" fill="#26302d" opacity="0.3"/>
  <circle cx="106.9" cy="694.4" r="0.9" fill="#26302d" opacity="0.4"/>
  <circle cx="548.2" cy="582.2" r="1.4" fill="#07110e" opacity="0.3"/>
  <circle cx="1155.1" cy="0.5" r="0.9" fill="#26302d" opacity="0.3"/>
  <circle cx="35.7" cy="604.3" r="1.6" fill="#07110e" opacity="0.3"/>
  <circle cx="342.6" cy="451.9" r="1.8" fill="#26302d" opacity="0.3"/>
  <circle cx="466.8" cy="128.5" r="1.6" fill="#26302d" opacity="0.2"/>
  <circle cx="518.9" cy="653.3" r="1.3" fill="#07110e" opacity="0.3"/>
  <circle cx="285.5" cy="397.5" r="0.8" fill="#07110e" opacity="0.2"/>
  <circle cx="1187.8" cy="403.2" r="0.7" fill="#07110e" opacity="0.3"/>
  <circle cx="240.3" cy="373.7" r="1.3" fill="#07110e" opacity="0.3"/>
  <circle cx="712.0" cy="467.7" r="1.0" fill="#07110e" opacity="0.2"/>
  <circle cx="601.8" cy="499.3" r="1.2" fill="#07110e" opacity="0.2"/>
  <circle cx="136.8" cy="35.5" r="0.7" fill="#07110e" opacity="0.2"/>
  <circle cx="975.5" cy="443.2" r="1.1" fill="#07110e" opacity="0.2"/>
  <circle cx="676.1" cy="211.7" r="0.7" fill="#26302d" opacity="0.4"/>
  <circle cx="421.5" cy="649.4" r="0.6" fill="#07110e" opacity="0.3"/>
  <circle cx="938.0" cy="24.4" r="0.8" fill="#26302d" opacity="0.2"/>
  <circle cx="776.4" cy="14.5" r="0.8" fill="#26302d" opacity="0.2"/>
  <circle cx="299.3" cy="572.1" r="1.4" fill="#07110e" opacity="0.3"/>
  <circle cx="1228.5" cy="6.0" r="0.6" fill="#26302d" opacity="0.2"/>
  <circle cx="790.5" cy="254.0" r="0.9" fill="#26302d" opacity="0.3"/>
  <circle cx="911.9" cy="219.7" r="1.5" fill="#07110e" opacity="0.2"/>
  <circle cx="1109.4" cy="384.0" r="0.9" fill="#07110e" opacity="0.2"/>
  <circle cx="493.6" cy="339.1" r="1.4" fill="#26302d" opacity="0.3"/>
  <circle cx="1161.5" cy="126.0" r="1.5" fill="#26302d" opacity="0.4"/>
  <circle cx="1139.4" cy="443.1" r="1.2" fill="#07110e" opacity="0.3"/>
  <circle cx="741.9" cy="368.8" r="1.9" fill="#26302d" opacity="0.3"/>
  <circle cx="1277.8" cy="197.7" r="1.7" fill="#07110e" opacity="0.2"/>
  <circle cx="59.0" cy="354.0" r="0.7" fill="#26302d" opacity="0.2"/>
  <circle cx="112.4" cy="671.5" r="0.8" fill="#07110e" opacity="0.3"/>
  <circle cx="271.3" cy="410.3" r="0.8" fill="#07110e" opacity="0.3"/>
  <circle cx="704.5" cy="7.1" r="1.3" fill="#26302d" opacity="0.3"/>
  <circle cx="548.6" cy="422.1" r="1.6" fill="#26302d" opacity="0.2"/>
  <circle cx="330.3" cy="478.5" r="0.9" fill="#26302d" opacity="0.2"/>
  <circle cx="1245.8" cy="80.8" r="1.2" fill="#07110e" opacity="0.2"/>
  <circle cx="194.3" cy="64.0" r="1.0" fill="#07110e" opacity="0.2"/>
  <circle cx="839.8" cy="226.0" r="1.3" fill="#07110e" opacity="0.3"/>
  <circle cx="1231.8" cy="603.9" r="1.3" fill="#07110e" opacity="0.3"/>
  <circle cx="1093.0" cy="106.9" r="1.3" fill="#07110e" opacity="0.3"/>
  <circle cx="233.4" cy="150.9" r="1.9" fill="#07110e" opacity="0.3"/>
  <circle cx="1167.2" cy="143.6" r="1.2" fill="#07110e" opacity="0.2"/>
  <circle cx="796.8" cy="370.3" r="1.2" fill="#26302d" opacity="0.2"/>
  <circle cx="207.2" cy="203.6" r="1.3" fill="#26302d" opacity="0.4"/>
  <circle cx="363.6" cy="611.8" r="1.4" fill="#26302d" opacity="0.3"/>
  <circle cx="1028.2" cy="42.5" r="1.9" fill="#07110e" opacity="0.4"/>
  <circle cx="874.9" cy="146.4" r="0.6" fill="#07110e" opacity="0.3"/>
  <circle cx="64.5" cy="23.9" r="1.8" fill="#07110e" opacity="0.3"/>
  <circle cx="728.1" cy="145.6" r="0.9" fill="#07110e" opacity="0.3"/>
  <circle cx="154.1" cy="236.0" r="0.9" fill="#07110e" opacity="0.2"/>
  <circle cx="266.6" cy="452.6" r="1.8" fill="#07110e" opacity="0.4"/>
  <circle cx="1177.2" cy="153.7" r="1.6" fill="#26302d" opacity="0.2"/>
  <circle cx="818.8" cy="420.6" r="1.4" fill="#07110e" opacity="0.3"/>
  <circle cx="802.3" cy="358.4" r="1.6" fill="#26302d" opacity="0.2"/>
  <circle cx="877.5" cy="401.4" r="0.9" fill="#07110e" opacity="0.3"/>
  <circle cx="1007.0" cy="261.7" r="0.8" fill="#26302d" opacity="0.2"/>
  <circle cx="800.3" cy="312.6" r="1.6" fill="#07110e" opacity="0.3"/>
  <circle cx="657.7" cy="321.7" r="0.8" fill="#26302d" opacity="0.2"/>
  <circle cx="502.8" cy="510.2" r="0.8" fill="#07110e" opacity="0.3"/>
  <circle cx="209.3" cy="443.2" r="2.0" fill="#26302d" opacity="0.3"/>
  <circle cx="716.4" cy="109.9" r="1.2" fill="#26302d" opacity="0.3"/>

  <!-- Cracks and fissures -->
  <path d="M186.8,241.4 Q221.1,281.4 253.2,311.9" stroke="#040c08" stroke-width="2.1" fill="none" opacity="0.4" stroke-linecap="round"/><path d="M221.1,281.4 Q263.2,280.8 279.2,285.3" stroke="#040c08" stroke-width="1.3" fill="none" opacity="0.4" stroke-linecap="round"/><path d="M263.2,280.8 Q280.5,294.8 288.0,311.8" stroke="#040c08" stroke-width="1.1" fill="none" opacity="0.5" stroke-linecap="round"/><path d="M253.2,311.9 Q295.1,329.3 318.7,353.5" stroke="#040c08" stroke-width="1.1" fill="none" opacity="0.4" stroke-linecap="round"/><path d="M295.1,329.3 Q316.0,329.1 335.6,339.5" stroke="#040c08" stroke-width="1.1" fill="none" opacity="0.3" stroke-linecap="round"/><path d="M318.7,353.5 Q339.5,376.8 369.3,390.3" stroke="#040c08" stroke-width="0.7" fill="none" opacity="0.5" stroke-linecap="round"/><path d="M339.5,376.8 Q350.2,374.1 375.9,382.2" stroke="#040c08" stroke-width="0.7" fill="none" opacity="0.5" stroke-linecap="round"/><path d="M369.3,390.3 Q390.3,404.5 396.6,420.0" stroke="#040c08" stroke-width="1.3" fill="none" opacity="0.3" stroke-linecap="round"/>
  <path d="M910.3,609.7 Q959.5,627.8 1030.7,656.5" stroke="#040c08" stroke-width="1.5" fill="none" opacity="0.5" stroke-linecap="round"/>
  <path d="M435.2,563.2 Q470.4,583.8 494.6,596.8" stroke="#040c08" stroke-width="1.6" fill="none" opacity="0.4" stroke-linecap="round"/><path d="M494.6,596.8 Q520.9,610.7 532.3,616.0" stroke="#040c08" stroke-width="1.8" fill="none" opacity="0.5" stroke-linecap="round"/>
  <path d="M125.1,482.9 Q71.5,450.5 63.1,427.2" stroke="#040c08" stroke-width="2.0" fill="none" opacity="0.3" stroke-linecap="round"/><path d="M63.1,427.2 Q51.6,416.8 26.8,395.7" stroke="#040c08" stroke-width="1.1" fill="none" opacity="0.5" stroke-linecap="round"/><path d="M26.8,395.7 Q18.3,387.3 5.9,379.8" stroke="#040c08" stroke-width="1.4" fill="none" opacity="0.4" stroke-linecap="round"/><path d="M18.3,387.3 Q16.7,380.7 17.6,374.3" stroke="#040c08" stroke-width="1.2" fill="none" opacity="0.4" stroke-linecap="round"/><path d="M5.9,379.8 Q-8.7,373.6 -12.8,372.0" stroke="#040c08" stroke-width="0.5" fill="none" opacity="0.4" stroke-linecap="round"/>
  <path d="M221.8,645.9 Q210.0,695.7 170.2,722.4" stroke="#040c08" stroke-width="1.4" fill="none" opacity="0.4" stroke-linecap="round"/><path d="M210.0,695.7 Q192.5,727.3 192.2,758.5" stroke="#040c08" stroke-width="1.3" fill="none" opacity="0.5" stroke-linecap="round"/><path d="M192.2,758.5 Q169.3,774.3 174.1,801.4" stroke="#040c08" stroke-width="1.5" fill="none" opacity="0.4" stroke-linecap="round"/><path d="M174.1,801.4 Q161.8,821.6 163.3,836.3" stroke="#040c08" stroke-width="0.9" fill="none" opacity="0.4" stroke-linecap="round"/><path d="M170.2,722.4 Q158.0,751.5 149.6,778.9" stroke="#040c08" stroke-width="1.5" fill="none" opacity="0.4" stroke-linecap="round"/><path d="M149.6,778.9 Q138.2,796.3 141.1,808.0" stroke="#040c08" stroke-width="1.5" fill="none" opacity="0.3" stroke-linecap="round"/><path d="M138.2,796.3 Q144.3,803.0 145.3,809.9" stroke="#040c08" stroke-width="1.2" fill="none" opacity="0.4" stroke-linecap="round"/><path d="M141.1,808.0 Q144.4,819.1 141.0,826.8" stroke="#040c08" stroke-width="0.7" fill="none" opacity="0.5" stroke-linecap="round"/>
  <path d="M899.5,350.2 Q1002.4,336.5 1039.6,352.2" stroke="#040c08" stroke-width="2.0" fill="none" opacity="0.5" stroke-linecap="round"/>
  <path d="M1191.8,331.9 Q1198.3,280.6 1247.6,243.0" stroke="#040c08" stroke-width="1.4" fill="none" opacity="0.5" stroke-linecap="round"/><path d="M1198.3,280.6 Q1201.7,243.8 1231.0,224.0" stroke="#040c08" stroke-width="1.6" fill="none" opacity="0.6" stroke-linecap="round"/><path d="M1231.0,224.0 Q1251.9,209.5 1268.0,184.1" stroke="#040c08" stroke-width="0.9" fill="none" opacity="0.4" stroke-linecap="round"/><path d="M1251.9,209.5 Q1258.4,190.7 1261.3,176.3" stroke="#040c08" stroke-width="0.6" fill="none" opacity="0.4" stroke-linecap="round"/><path d="M1268.0,184.1 Q1271.7,178.4 1292.1,166.1" stroke="#040c08" stroke-width="0.5" fill="none" opacity="0.3" stroke-linecap="round"/><path d="M1247.6,243.0 Q1299.4,212.8 1308.3,179.3" stroke="#040c08" stroke-width="1.1" fill="none" opacity="0.3" stroke-linecap="round"/><path d="M1299.4,212.8 Q1301.9,181.1 1327.6,163.4" stroke="#040c08" stroke-width="1.1" fill="none" opacity="0.3" stroke-linecap="round"/><path d="M1301.9,181.1 Q1309.1,168.2 1325.9,146.4" stroke="#040c08" stroke-width="1.1" fill="none" opacity="0.3" stroke-linecap="round"/><path d="M1327.6,163.4 Q1338.3,150.6 1346.9,142.5" stroke="#040c08" stroke-width="0.5" fill="none" opacity="0.4" stroke-linecap="round"/>
  <path d="M355.3,636.6 Q396.4,656.2 414.6,675.1" stroke="#040c08" stroke-width="1.9" fill="none" opacity="0.5" stroke-linecap="round"/><path d="M396.4,656.2 Q419.3,662.5 434.0,657.9" stroke="#040c08" stroke-width="1.4" fill="none" opacity="0.4" stroke-linecap="round"/>

  <!-- Liquid pools -->
  <g transform="translate(1241.4,680.4)"><g transform="rotate(264)">
<ellipse rx="58.8" ry="16.5" fill="#030d06" opacity="0.4"/>
<ellipse rx="55.4" ry="15.6" fill="#041008" opacity="0.75"/>
<ellipse cx="-10.0" cy="-3.1" rx="21.1" ry="4.4" fill="#5c645e" opacity="0.18"/>
</g></g>
  <g transform="translate(1128.1,591.1)"><g transform="rotate(72)">
<ellipse rx="25.2" ry="11.3" fill="#030d06" opacity="0.4"/>
<ellipse rx="23.8" ry="10.7" fill="#041008" opacity="0.75"/>
<ellipse cx="-4.3" cy="-2.1" rx="9.0" ry="3.0" fill="#5c645e" opacity="0.18"/>
</g></g>

  <!-- Craters -->
  <g transform="translate(113.7,700.8)"><circle r="23.3" fill="#394841" opacity="0.45"/>
<circle r="21.5" fill="#162820" opacity="0.6"/>
<circle r="19.7" fill="#040c08" opacity="0.95"/>
<ellipse cx="4.3" cy="5.5" rx="14.2" ry="10.3" fill="#030806" opacity="0.45"/></g>
  <g transform="translate(447.0,611.5)"><circle r="70.3" fill="#394841" opacity="0.45"/>
<circle r="64.9" fill="#162820" opacity="0.6"/>
<circle r="59.6" fill="#040c08" opacity="0.95"/>
<ellipse cx="13.1" cy="16.7" rx="42.9" ry="31.0" fill="#030806" opacity="0.45"/></g>

  <!-- Lichen / moss patches -->
  <g transform="translate(272.7,302.5)"><g transform="rotate(43)"><ellipse cx="8.6" cy="0.0" rx="8.7" ry="5.4" fill="#182e20" opacity="0.6"/><ellipse cx="4.0" cy="3.6" rx="5.7" ry="5.3" fill="#182e20" opacity="0.5"/><ellipse cx="-2.0" cy="4.6" rx="6.4" ry="3.7" fill="#182e20" opacity="0.5"/><ellipse cx="-6.9" cy="1.8" rx="6.5" ry="4.5" fill="#182e20" opacity="0.5"/><ellipse cx="-8.4" cy="-1.3" rx="4.5" ry="4.8" fill="#182e20" opacity="0.6"/><ellipse cx="-1.2" cy="-5.4" rx="5.0" ry="3.8" fill="#182e20" opacity="0.4"/><ellipse cx="5.2" cy="-4.3" rx="4.1" ry="5.1" fill="#182e20" opacity="0.4"/></g></g>
  <g transform="translate(972.6,50.4)"><g transform="rotate(241)"><ellipse cx="12.9" cy="0.0" rx="8.0" ry="3.5" fill="#182e20" opacity="0.4"/><ellipse cx="0.0" cy="4.8" rx="5.6" ry="3.6" fill="#182e20" opacity="0.6"/><ellipse cx="-11.6" cy="0.0" rx="8.2" ry="3.7" fill="#182e20" opacity="0.4"/><ellipse cx="-0.0" cy="-4.9" rx="3.6" ry="5.1" fill="#182e20" opacity="0.6"/></g></g>
  <g transform="translate(597.0,227.1)"><g transform="rotate(7)"><ellipse cx="14.6" cy="0.0" rx="12.0" ry="9.0" fill="#182e20" opacity="0.4"/><ellipse cx="0.0" cy="13.2" rx="9.6" ry="7.8" fill="#182e20" opacity="0.5"/><ellipse cx="-9.7" cy="0.0" rx="4.9" ry="11.9" fill="#182e20" opacity="0.6"/><ellipse cx="-0.0" cy="-15.7" rx="4.9" ry="3.6" fill="#182e20" opacity="0.6"/></g></g>
  <g transform="translate(1170.9,474.6)"><g transform="rotate(235)"><ellipse cx="16.2" cy="0.0" rx="8.3" ry="3.5" fill="#182e20" opacity="0.6"/><ellipse cx="9.1" cy="3.9" rx="13.6" ry="3.2" fill="#182e20" opacity="0.4"/><ellipse cx="-2.5" cy="3.3" rx="12.2" ry="7.2" fill="#182e20" opacity="0.6"/><ellipse cx="-13.3" cy="3.3" rx="6.1" ry="7.3" fill="#182e20" opacity="0.6"/><ellipse cx="-12.2" cy="-2.9" rx="11.6" ry="3.6" fill="#182e20" opacity="0.6"/><ellipse cx="-3.9" cy="-6.0" rx="5.4" ry="3.2" fill="#182e20" opacity="0.4"/><ellipse cx="9.8" cy="-2.7" rx="12.2" ry="6.8" fill="#182e20" opacity="0.6"/></g></g>
  <g transform="translate(84.6,581.6)"><g transform="rotate(121)"><ellipse cx="17.5" cy="0.0" rx="8.3" ry="6.5" fill="#182e20" opacity="0.4"/><ellipse cx="5.4" cy="10.0" rx="9.2" ry="8.4" fill="#182e20" opacity="0.4"/><ellipse cx="-11.1" cy="5.1" rx="11.7" ry="6.8" fill="#182e20" opacity="0.5"/><ellipse cx="-11.9" cy="-7.0" rx="6.2" ry="3.4" fill="#182e20" opacity="0.5"/><ellipse cx="5.7" cy="-5.4" rx="8.6" ry="8.9" fill="#182e20" opacity="0.4"/></g></g>
  <g transform="translate(788.6,643.0)"><g transform="rotate(282)"><ellipse cx="8.6" cy="0.0" rx="6.6" ry="5.1" fill="#182e20" opacity="0.6"/><ellipse cx="0.0" cy="7.5" rx="5.0" ry="2.0" fill="#182e20" opacity="0.6"/><ellipse cx="-7.5" cy="0.0" rx="4.7" ry="2.3" fill="#182e20" opacity="0.6"/><ellipse cx="-0.0" cy="-9.7" rx="6.4" ry="2.0" fill="#182e20" opacity="0.5"/></g></g>
  <g transform="translate(381.5,8.0)"><g transform="rotate(113)"><ellipse cx="14.2" cy="0.0" rx="7.9" ry="13.3" fill="#182e20" opacity="0.4"/><ellipse cx="5.7" cy="13.7" rx="22.7" ry="6.2" fill="#182e20" opacity="0.5"/><ellipse cx="-18.8" cy="6.2" rx="5.9" ry="5.7" fill="#182e20" opacity="0.4"/><ellipse cx="-16.6" cy="-7.1" rx="21.9" ry="8.1" fill="#182e20" opacity="0.6"/><ellipse cx="6.7" cy="-10.0" rx="8.5" ry="8.1" fill="#182e20" opacity="0.5"/></g></g>
  <g transform="translate(200.1,324.3)"><g transform="rotate(220)"><ellipse cx="17.2" cy="0.0" rx="6.2" ry="11.5" fill="#182e20" opacity="0.4"/><ellipse cx="10.8" cy="7.8" rx="9.1" ry="6.4" fill="#182e20" opacity="0.6"/><ellipse cx="-4.4" cy="13.9" rx="12.6" ry="7.2" fill="#182e20" opacity="0.6"/><ellipse cx="-16.1" cy="5.4" rx="17.1" ry="10.5" fill="#182e20" opacity="0.5"/><ellipse cx="-20.0" cy="-3.5" rx="7.5" ry="11.2" fill="#182e20" opacity="0.5"/><ellipse cx="-5.4" cy="-7.6" rx="19.3" ry="3.4" fill="#182e20" opacity="0.6"/><ellipse cx="12.9" cy="-8.0" rx="21.7" ry="3.6" fill="#182e20" opacity="0.6"/></g></g>
  <g transform="translate(1209.9,531.2)"><g transform="rotate(345)"><ellipse cx="17.3" cy="0.0" rx="21.8" ry="29.2" fill="#182e20" opacity="0.4"/><ellipse cx="9.3" cy="14.9" rx="18.3" ry="11.6" fill="#182e20" opacity="0.5"/><ellipse cx="-4.5" cy="22.1" rx="18.1" ry="30.4" fill="#182e20" opacity="0.5"/><ellipse cx="-10.9" cy="6.3" rx="7.4" ry="19.3" fill="#182e20" opacity="0.5"/><ellipse cx="-19.3" cy="-10.7" rx="14.3" ry="24.2" fill="#182e20" opacity="0.6"/><ellipse cx="-4.6" cy="-20.0" rx="31.3" ry="22.6" fill="#182e20" opacity="0.4"/><ellipse cx="9.9" cy="-17.1" rx="29.1" ry="20.3" fill="#182e20" opacity="0.5"/></g></g>
  <g transform="translate(507.4,220.7)"><g transform="rotate(289)"><ellipse cx="17.3" cy="0.0" rx="23.7" ry="10.6" fill="#182e20" opacity="0.5"/><ellipse cx="11.0" cy="7.2" rx="33.5" ry="14.4" fill="#182e20" opacity="0.5"/><ellipse cx="-6.1" cy="8.9" rx="8.7" ry="16.8" fill="#182e20" opacity="0.4"/><ellipse cx="-15.0" cy="4.4" rx="8.8" ry="10.6" fill="#182e20" opacity="0.5"/><ellipse cx="-24.0" cy="-5.1" rx="20.5" ry="8.7" fill="#182e20" opacity="0.4"/><ellipse cx="-4.7" cy="-9.2" rx="14.4" ry="16.2" fill="#182e20" opacity="0.6"/><ellipse cx="13.8" cy="-7.0" rx="18.1" ry="11.1" fill="#182e20" opacity="0.4"/></g></g>

  <!-- Crystal formations -->
  <g transform="translate(28.6,152.3)"><polygon points="12.5,-23.9 13.3,-6.9 30.1,-9.5 15.9,-0.3 26.5,13.0 11.3,5.3 5.1,21.1 4.3,4.1 -12.5,6.7 1.7,-2.6 -8.9,-15.8 6.3,-8.1" fill="#14241a" opacity="0.35"/><polygon points="9.5,-28.1 10.3,-11.1 27.1,-13.7 12.9,-4.5 23.5,8.8 8.3,1.1 2.1,16.9 1.3,-0.1 -15.5,2.5 -1.3,-6.8 -11.9,-20.0 3.3,-12.3" fill="#1e3828" opacity="0.82"/><polygon points="9.5,-28.1 10.3,-11.1 27.1,-13.7 12.9,-4.5 23.5,8.8 8.3,1.1 2.1,16.9 1.3,-0.1 -15.5,2.5 -1.3,-6.8 -11.9,-20.0 3.3,-12.3" fill="#78887e" transform="scale(0.38) translate(15.3,-14.8)" opacity="0.45"/><polygon points="11.8,3.1 7.1,8.1 5.8,14.9 0.7,10.2 -6.1,8.8 -1.4,3.7 0.0,-3.0 5.1,1.7" fill="#14241a" opacity="0.35"/><polygon points="8.8,-1.1 4.1,3.9 2.8,10.7 -2.3,6.0 -9.1,4.6 -4.4,-0.5 -3.0,-7.2 2.1,-2.5" fill="#1e3828" opacity="0.82"/><polygon points="8.8,-1.1 4.1,3.9 2.8,10.7 -2.3,6.0 -9.1,4.6 -4.4,-0.5 -3.0,-7.2 2.1,-2.5" fill="#78887e" transform="scale(0.38) translate(-0.3,4.5)" opacity="0.45"/><polygon points="-12.9,16.1 -10.8,6.2 -16.6,-2.1 -6.7,-0.1 1.6,-5.8 -0.4,4.1 5.4,12.4 -4.5,10.4" fill="#14241a" opacity="0.35"/><polygon points="-15.9,11.9 -13.8,2.0 -19.6,-6.3 -9.7,-4.3 -1.4,-10.0 -3.4,-0.1 2.4,8.2 -7.5,6.2" fill="#1e3828" opacity="0.82"/><polygon points="-15.9,11.9 -13.8,2.0 -19.6,-6.3 -9.7,-4.3 -1.4,-10.0 -3.4,-0.1 2.4,8.2 -7.5,6.2" fill="#78887e" transform="scale(0.38) translate(-22.6,2.5)" opacity="0.45"/><polygon points="1.5,28.0 -4.7,13.5 -19.7,8.7 -7.8,-1.6 -7.9,-17.4 5.6,-9.3 20.5,-14.2 17.0,1.1 26.3,13.8 10.7,15.2" fill="#14241a" opacity="0.35"/><polygon points="-1.5,23.8 -7.7,9.3 -22.7,4.5 -10.8,-5.8 -10.9,-21.6 2.6,-13.5 17.5,-18.4 14.0,-3.1 23.3,9.6 7.7,11.0" fill="#1e3828" opacity="0.82"/><polygon points="-1.5,23.8 -7.7,9.3 -22.7,4.5 -10.8,-5.8 -10.9,-21.6 2.6,-13.5 17.5,-18.4 14.0,-3.1 23.3,9.6 7.7,11.0" fill="#78887e" transform="scale(0.38) translate(3.0,-1.1)" opacity="0.45"/></g>
  <g transform="translate(170.2,681.0)"><polygon points="17.2,-2.6 1.9,4.9 -1.6,21.6 -9.0,6.3 -25.7,2.8 -10.4,-4.7 -6.9,-21.3 0.6,-6.0" fill="#14241a" opacity="0.35"/><polygon points="14.2,-6.8 -1.1,0.7 -4.6,17.4 -12.0,2.1 -28.7,-1.4 -13.4,-8.9 -9.9,-25.5 -2.4,-10.2" fill="#1e3828" opacity="0.82"/><polygon points="14.2,-6.8 -1.1,0.7 -4.6,17.4 -12.0,2.1 -28.7,-1.4 -13.4,-8.9 -9.9,-25.5 -2.4,-10.2" fill="#78887e" transform="scale(0.38) translate(-19.0,-10.7)" opacity="0.45"/><polygon points="-6.8,-16.8 -0.8,-4.3 9.8,-13.2 3.8,-0.7 17.4,2.1 3.9,5.1 10.1,17.5 -0.7,8.8 -6.4,21.4 -6.4,7.6 -19.8,11.0 -9.0,2.3 -20.0,-6.1 -6.5,-3.0" fill="#14241a" opacity="0.35"/><polygon points="-9.8,-21.0 -3.8,-8.5 6.8,-17.4 0.8,-4.9 14.4,-2.1 0.9,0.9 7.1,13.3 -3.7,4.6 -9.4,17.2 -9.4,3.4 -22.8,6.8 -12.0,-1.9 -23.0,-10.3 -9.5,-7.2" fill="#1e3828" opacity="0.82"/><polygon points="-9.8,-21.0 -3.8,-8.5 6.8,-17.4 0.8,-4.9 14.4,-2.1 0.9,0.9 7.1,13.3 -3.7,4.6 -9.4,17.2 -9.4,3.4 -22.8,6.8 -12.0,-1.9 -23.0,-10.3 -9.5,-7.2" fill="#78887e" transform="scale(0.38) translate(-13.7,-5.1)" opacity="0.45"/></g>
  <g transform="translate(614.9,570.4)"><polygon points="-20.2,13.1 -10.2,-2.3 -14.9,-20.1 2.9,-15.4 18.3,-25.4 19.3,-7.0 33.6,4.6 16.4,11.2 9.8,28.4 -1.8,14.1" fill="#14241a" opacity="0.35"/><polygon points="-23.2,8.9 -13.2,-6.5 -17.9,-24.3 -0.1,-19.6 15.3,-29.6 16.3,-11.2 30.6,0.4 13.4,7.0 6.8,24.2 -4.8,9.9" fill="#1e3828" opacity="0.82"/><polygon points="-23.2,8.9 -13.2,-6.5 -17.9,-24.3 -0.1,-19.6 15.3,-29.6 16.3,-11.2 30.6,0.4 13.4,7.0 6.8,24.2 -4.8,9.9" fill="#78887e" transform="scale(0.38) translate(6.1,-10.7)" opacity="0.45"/><polygon points="-20.2,8.2 -9.0,0.8 -5.3,-12.0 2.1,-0.9 15.0,2.9 3.8,10.3 0.1,23.2 -7.3,12.0" fill="#14241a" opacity="0.35"/><polygon points="-23.2,4.0 -12.0,-3.4 -8.3,-16.2 -0.9,-5.1 12.0,-1.3 0.8,6.1 -2.9,19.0 -10.3,7.8" fill="#1e3828" opacity="0.82"/><polygon points="-23.2,4.0 -12.0,-3.4 -8.3,-16.2 -0.9,-5.1 12.0,-1.3 0.8,6.1 -2.9,19.0 -10.3,7.8" fill="#78887e" transform="scale(0.38) translate(-14.7,3.6)" opacity="0.45"/></g>
  <g transform="translate(479.7,716.0)"><polygon points="-3.0,21.8 -6.1,13.5 -14.3,10.4 -7.5,4.9 -7.0,-3.9 0.4,0.9 8.8,-1.3 6.5,7.2 11.3,14.5 2.5,15.0" fill="#14241a" opacity="0.35"/><polygon points="-6.0,17.6 -9.1,9.3 -17.3,6.2 -10.5,0.7 -10.0,-8.1 -2.6,-3.3 5.8,-5.5 3.5,3.0 8.3,10.3 -0.5,10.8" fill="#1e3828" opacity="0.82"/><polygon points="-6.0,17.6 -9.1,9.3 -17.3,6.2 -10.5,0.7 -10.0,-8.1 -2.6,-3.3 5.8,-5.5 3.5,3.0 8.3,10.3 -0.5,10.8" fill="#78887e" transform="scale(0.38) translate(-10.1,10.8)" opacity="0.45"/><polygon points="26.3,7.7 14.8,13.1 11.5,25.4 2.8,16.1 -10.0,16.8 -3.8,5.6 -8.4,-6.3 4.1,-3.9 14.1,-11.9 15.6,0.7" fill="#14241a" opacity="0.35"/><polygon points="23.3,3.5 11.8,8.9 8.5,21.2 -0.2,11.9 -13.0,12.6 -6.8,1.4 -11.4,-10.5 1.1,-8.1 11.1,-16.1 12.6,-3.5" fill="#1e3828" opacity="0.82"/><polygon points="23.3,3.5 11.8,8.9 8.5,21.2 -0.2,11.9 -13.0,12.6 -6.8,1.4 -11.4,-10.5 1.1,-8.1 11.1,-16.1 12.6,-3.5" fill="#78887e" transform="scale(0.38) translate(9.7,5.6)" opacity="0.45"/></g>
  <g transform="translate(1251.5,250.5)"><polygon points="12.2,-7.9 7.8,-1.4 14.9,1.8 7.1,2.4 9.0,9.9 3.7,4.2 -1.1,10.4 0.2,2.7 -7.7,2.8 -0.9,-1.0 -5.9,-7.0 1.4,-4.1 3.0,-11.8 5.2,-4.3" fill="#14241a" opacity="0.35"/><polygon points="9.2,-12.1 4.8,-5.6 11.9,-2.4 4.1,-1.8 6.0,5.7 0.7,-0.0 -4.1,6.2 -2.8,-1.5 -10.7,-1.4 -3.9,-5.2 -8.9,-11.2 -1.6,-8.3 -0.0,-16.0 2.2,-8.5" fill="#1e3828" opacity="0.82"/><polygon points="9.2,-12.1 4.8,-5.6 11.9,-2.4 4.1,-1.8 6.0,5.7 0.7,-0.0 -4.1,6.2 -2.8,-1.5 -10.7,-1.4 -3.9,-5.2 -8.9,-11.2 -1.6,-8.3 -0.0,-16.0 2.2,-8.5" fill="#78887e" transform="scale(0.38) translate(1.3,-11.7)" opacity="0.45"/><polygon points="-6.5,-10.6 10.2,-2.8 25.2,-13.5 22.9,4.7 37.7,15.7 19.7,19.2 13.9,36.7 4.9,20.6 -13.5,20.4 -1.0,7.0" fill="#14241a" opacity="0.35"/><polygon points="-9.5,-14.8 7.2,-7.0 22.2,-17.7 19.9,0.5 34.7,11.5 16.7,15.0 10.9,32.5 1.9,16.4 -16.5,16.2 -4.0,2.8" fill="#1e3828" opacity="0.82"/><polygon points="-9.5,-14.8 7.2,-7.0 22.2,-17.7 19.9,0.5 34.7,11.5 16.7,15.0 10.9,32.5 1.9,16.4 -16.5,16.2 -4.0,2.8" fill="#78887e" transform="scale(0.38) translate(22.0,14.6)" opacity="0.45"/></g>

  <!-- Rocks and pebbles -->
  <g transform="translate(547.9,668.1)"><circle cx="6.7" cy="5.2" r="5.1" fill="#0a130e" opacity="0.35"/><circle cx="4.2" cy="1.7" r="4.9" fill="#0e1d16" opacity="0.88"/><circle cx="0.3" cy="-1.8" r="4.9" fill="#0a130e" opacity="0.35"/><circle cx="-2.2" cy="-5.3" r="4.6" fill="#28362f" opacity="0.88"/><circle cx="10.2" cy="8.0" r="2.3" fill="#0a130e" opacity="0.35"/><circle cx="7.7" cy="4.5" r="2.2" fill="#28362f" opacity="0.88"/><circle cx="-7.2" cy="6.2" r="1.6" fill="#0a130e" opacity="0.35"/><circle cx="-9.7" cy="2.7" r="1.5" fill="#28362f" opacity="0.88"/><circle cx="-4.7" cy="-1.6" r="1.7" fill="#0a130e" opacity="0.35"/><circle cx="-7.2" cy="-5.1" r="1.6" fill="#28362f" opacity="0.88"/></g>
  <g transform="translate(1109.8,71.2)"><g transform="rotate(342)">
<ellipse cx="5.0" cy="7.0" rx="14.7" ry="14.3" fill="#09120d" opacity="0.45"/>
<ellipse rx="13.6" ry="15.9" fill="#102018" opacity="0.92"/>
<ellipse cx="-3.0" cy="-4.5" rx="5.2" ry="4.5" fill="#45514b" opacity="0.28"/>
</g></g>
  <g transform="translate(339.1,575.5)"><g transform="rotate(295)">
<ellipse cx="5.0" cy="7.0" rx="27.6" ry="11.6" fill="#09120d" opacity="0.45"/>
<ellipse rx="25.5" ry="12.9" fill="#102018" opacity="0.92"/>
<ellipse cx="-5.6" cy="-3.6" rx="9.7" ry="3.6" fill="#45514b" opacity="0.28"/>
</g></g>
  <g transform="translate(710.3,183.8)"><g transform="rotate(319)">
<ellipse cx="5.0" cy="7.0" rx="10.9" ry="5.9" fill="#09120d" opacity="0.45"/>
<ellipse rx="10.1" ry="6.6" fill="#102018" opacity="0.92"/>
<ellipse cx="-2.2" cy="-1.8" rx="3.8" ry="1.8" fill="#45514b" opacity="0.28"/>
</g></g>
  <g transform="translate(1150.1,306.9)"><g transform="rotate(152)">
<ellipse cx="5.0" cy="7.0" rx="23.0" ry="24.2" fill="#09120d" opacity="0.45"/>
<ellipse rx="21.3" ry="26.9" fill="#102018" opacity="0.92"/>
<ellipse cx="-4.7" cy="-7.5" rx="8.1" ry="7.5" fill="#45514b" opacity="0.28"/>
</g></g>
  <g transform="translate(966.9,587.7)"><g transform="rotate(303)">
<ellipse cx="5.0" cy="7.0" rx="31.7" ry="24.0" fill="#09120d" opacity="0.45"/>
<ellipse rx="29.4" ry="26.7" fill="#102018" opacity="0.92"/>
<ellipse cx="-6.5" cy="-7.5" rx="11.2" ry="7.5" fill="#45514b" opacity="0.28"/>
</g></g>
  <g transform="translate(125.6,75.5)"><circle cx="6.1" cy="4.7" r="4.5" fill="#0a130e" opacity="0.35"/><circle cx="3.6" cy="1.2" r="4.3" fill="#28362f" opacity="0.88"/><circle cx="11.1" cy="0.1" r="3.5" fill="#0a130e" opacity="0.35"/><circle cx="8.6" cy="-3.4" r="3.3" fill="#28362f" opacity="0.88"/><circle cx="10.5" cy="1.8" r="4.6" fill="#0a130e" opacity="0.35"/><circle cx="8.0" cy="-1.7" r="4.4" fill="#0e1d16" opacity="0.88"/><circle cx="-1.6" cy="-1.6" r="3.3" fill="#0a130e" opacity="0.35"/><circle cx="-4.1" cy="-5.1" r="3.1" fill="#28362f" opacity="0.88"/><circle cx="-4.4" cy="-0.8" r="6.1" fill="#0a130e" opacity="0.35"/><circle cx="-6.9" cy="-4.3" r="5.8" fill="#0e1d16" opacity="0.88"/><circle cx="11.8" cy="-3.2" r="3.3" fill="#0a130e" opacity="0.35"/><circle cx="9.3" cy="-6.7" r="3.1" fill="#28362f" opacity="0.88"/><circle cx="-3.6" cy="-0.1" r="3.7" fill="#0a130e" opacity="0.35"/><circle cx="-6.1" cy="-3.6" r="3.6" fill="#0e1d16" opacity="0.88"/></g>
  <g transform="translate(671.5,580.3)"><circle cx="2.4" cy="3.7" r="1.7" fill="#0a130e" opacity="0.35"/><circle cx="-0.1" cy="0.2" r="1.6" fill="#28362f" opacity="0.88"/><circle cx="-1.0" cy="-0.3" r="3.8" fill="#0a130e" opacity="0.35"/><circle cx="-3.5" cy="-3.8" r="3.6" fill="#0e1d16" opacity="0.88"/><circle cx="8.6" cy="3.0" r="1.9" fill="#0a130e" opacity="0.35"/><circle cx="6.1" cy="-0.5" r="1.8" fill="#28362f" opacity="0.88"/><circle cx="-2.9" cy="0.1" r="1.3" fill="#0a130e" opacity="0.35"/><circle cx="-5.4" cy="-3.4" r="1.2" fill="#0e1d16" opacity="0.88"/><circle cx="10.1" cy="7.4" r="3.8" fill="#0a130e" opacity="0.35"/><circle cx="7.6" cy="3.9" r="3.6" fill="#0e1d16" opacity="0.88"/><circle cx="9.4" cy="0.5" r="2.5" fill="#0a130e" opacity="0.35"/><circle cx="6.9" cy="-3.0" r="2.3" fill="#0e1d16" opacity="0.88"/><circle cx="-3.4" cy="1.1" r="3.4" fill="#0a130e" opacity="0.35"/><circle cx="-5.9" cy="-2.4" r="3.3" fill="#28362f" opacity="0.88"/></g>
  <g transform="translate(1263.3,189.5)"><g transform="rotate(5)">
<ellipse cx="5.0" cy="7.0" rx="29.9" ry="19.4" fill="#09120d" opacity="0.45"/>
<ellipse rx="27.7" ry="21.6" fill="#102018" opacity="0.92"/>
<ellipse cx="-6.1" cy="-6.0" rx="10.5" ry="6.0" fill="#45514b" opacity="0.28"/>
</g></g>
  <g transform="translate(157.5,601.9)"><circle cx="8.4" cy="-1.3" r="2.0" fill="#0a130e" opacity="0.35"/><circle cx="5.9" cy="-4.8" r="1.9" fill="#28362f" opacity="0.88"/><circle cx="4.3" cy="5.3" r="1.7" fill="#0a130e" opacity="0.35"/><circle cx="1.8" cy="1.8" r="1.6" fill="#0e1d16" opacity="0.88"/><circle cx="9.9" cy="8.9" r="1.4" fill="#0a130e" opacity="0.35"/><circle cx="7.4" cy="5.4" r="1.3" fill="#0e1d16" opacity="0.88"/><circle cx="2.7" cy="8.2" r="2.7" fill="#0a130e" opacity="0.35"/><circle cx="0.2" cy="4.7" r="2.5" fill="#0e1d16" opacity="0.88"/><circle cx="-3.8" cy="-2.0" r="3.8" fill="#0a130e" opacity="0.35"/><circle cx="-6.3" cy="-5.5" r="3.6" fill="#0e1d16" opacity="0.88"/><circle cx="7.3" cy="2.9" r="1.6" fill="#0a130e" opacity="0.35"/><circle cx="4.8" cy="-0.6" r="1.5" fill="#0e1d16" opacity="0.88"/><circle cx="-4.4" cy="8.7" r="2.5" fill="#0a130e" opacity="0.35"/><circle cx="-6.9" cy="5.2" r="2.4" fill="#28362f" opacity="0.88"/></g>
  <g transform="translate(627.9,83.4)"><g transform="rotate(120)">
<ellipse cx="5.0" cy="7.0" rx="16.3" ry="7.8" fill="#09120d" opacity="0.45"/>
<ellipse rx="15.1" ry="8.7" fill="#102018" opacity="0.92"/>
<ellipse cx="-3.3" cy="-2.4" rx="5.7" ry="2.4" fill="#45514b" opacity="0.28"/>
</g></g>
  <g transform="translate(953.2,508.8)"><circle cx="-1.2" cy="-3.6" r="4.2" fill="#0a130e" opacity="0.35"/><circle cx="-3.7" cy="-7.1" r="4.0" fill="#0e1d16" opacity="0.88"/><circle cx="-4.7" cy="-1.4" r="4.3" fill="#0a130e" opacity="0.35"/><circle cx="-7.2" cy="-4.9" r="4.1" fill="#28362f" opacity="0.88"/><circle cx="-4.9" cy="-2.3" r="2.6" fill="#0a130e" opacity="0.35"/><circle cx="-7.4" cy="-5.8" r="2.5" fill="#0e1d16" opacity="0.88"/></g>
  <g transform="translate(1071.5,705.9)"><g transform="rotate(62)">
<ellipse cx="5.0" cy="7.0" rx="39.7" ry="15.8" fill="#09120d" opacity="0.45"/>
<ellipse rx="36.7" ry="17.6" fill="#102018" opacity="0.92"/>
<ellipse cx="-8.1" cy="-4.9" rx="14.0" ry="4.9" fill="#45514b" opacity="0.28"/>
</g></g>
  <g transform="translate(121.7,514.9)"><g transform="rotate(181)">
<ellipse cx="5.0" cy="7.0" rx="41.4" ry="10.6" fill="#09120d" opacity="0.45"/>
<ellipse rx="38.3" ry="11.8" fill="#102018" opacity="0.92"/>
<ellipse cx="-8.4" cy="-3.3" rx="14.6" ry="3.3" fill="#45514b" opacity="0.28"/>
</g></g>
  <g transform="translate(1101.0,457.8)"><g transform="rotate(223)">
<ellipse cx="5.0" cy="7.0" rx="20.9" ry="11.3" fill="#09120d" opacity="0.45"/>
<ellipse rx="19.3" ry="12.6" fill="#102018" opacity="0.92"/>
<ellipse cx="-4.3" cy="-3.5" rx="7.3" ry="3.5" fill="#45514b" opacity="0.28"/>
</g></g>

  <!-- Alien rosette flora -->
  <g transform="translate(482.6,304.7)" opacity="0.9"><ellipse cx="7.2" cy="0.0" rx="10.3" ry="4.6" transform="rotate(0.0,7.2,0.0)" fill="#182e20" opacity="0.8"/><ellipse cx="5.5" cy="4.6" rx="10.3" ry="4.6" transform="rotate(40.0,5.5,4.6)" fill="#182e20" opacity="0.9"/><ellipse cx="1.3" cy="7.1" rx="10.3" ry="4.6" transform="rotate(80.0,1.3,7.1)" fill="#182e20" opacity="0.8"/><ellipse cx="-3.6" cy="6.2" rx="10.3" ry="4.6" transform="rotate(120.0,-3.6,6.2)" fill="#182e20" opacity="0.8"/><ellipse cx="-6.8" cy="2.5" rx="10.3" ry="4.6" transform="rotate(160.0,-6.8,2.5)" fill="#182e20" opacity="0.9"/><ellipse cx="-6.8" cy="-2.5" rx="10.3" ry="4.6" transform="rotate(200.0,-6.8,-2.5)" fill="#182e20" opacity="0.8"/><ellipse cx="-3.6" cy="-6.2" rx="10.3" ry="4.6" transform="rotate(240.0,-3.6,-6.2)" fill="#182e20" opacity="0.9"/><ellipse cx="1.3" cy="-7.1" rx="10.3" ry="4.6" transform="rotate(280.0,1.3,-7.1)" fill="#182e20" opacity="0.7"/><ellipse cx="5.5" cy="-4.6" rx="10.3" ry="4.6" transform="rotate(320.0,5.5,-4.6)" fill="#182e20" opacity="0.9"/><circle cx="0" cy="0" r="6.0" fill="#526258" opacity="0.8"/></g>
  <g transform="translate(357.1,376.8)" opacity="0.9"><ellipse cx="6.4" cy="0.0" rx="9.2" ry="3.3" transform="rotate(0.0,6.4,0.0)" fill="#182e20" opacity="0.8"/><ellipse cx="4.9" cy="4.1" rx="9.2" ry="3.3" transform="rotate(40.0,4.9,4.1)" fill="#182e20" opacity="0.9"/><ellipse cx="1.1" cy="6.3" rx="9.2" ry="3.3" transform="rotate(80.0,1.1,6.3)" fill="#182e20" opacity="0.9"/><ellipse cx="-3.2" cy="5.6" rx="9.2" ry="3.3" transform="rotate(120.0,-3.2,5.6)" fill="#182e20" opacity="0.9"/><ellipse cx="-6.0" cy="2.2" rx="9.2" ry="3.3" transform="rotate(160.0,-6.0,2.2)" fill="#182e20" opacity="0.7"/><ellipse cx="-6.0" cy="-2.2" rx="9.2" ry="3.3" transform="rotate(200.0,-6.0,-2.2)" fill="#182e20" opacity="0.8"/><ellipse cx="-3.2" cy="-5.6" rx="9.2" ry="3.3" transform="rotate(240.0,-3.2,-5.6)" fill="#182e20" opacity="0.9"/><ellipse cx="1.1" cy="-6.3" rx="9.2" ry="3.3" transform="rotate(280.0,1.1,-6.3)" fill="#182e20" opacity="0.9"/><ellipse cx="4.9" cy="-4.1" rx="9.2" ry="3.3" transform="rotate(320.0,4.9,-4.1)" fill="#182e20" opacity="0.9"/><circle cx="0" cy="0" r="4.3" fill="#526258" opacity="0.8"/></g>
  <g transform="translate(663.2,594.3)" opacity="0.7"><ellipse cx="7.5" cy="0.0" rx="10.7" ry="5.7" transform="rotate(0.0,7.5,0.0)" fill="#182e20" opacity="0.8"/><ellipse cx="4.7" cy="5.9" rx="10.7" ry="5.7" transform="rotate(51.4,4.7,5.9)" fill="#182e20" opacity="0.8"/><ellipse cx="-1.7" cy="7.3" rx="10.7" ry="5.7" transform="rotate(102.9,-1.7,7.3)" fill="#182e20" opacity="0.7"/><ellipse cx="-6.8" cy="3.3" rx="10.7" ry="5.7" transform="rotate(154.3,-6.8,3.3)" fill="#182e20" opacity="0.8"/><ellipse cx="-6.8" cy="-3.3" rx="10.7" ry="5.7" transform="rotate(205.7,-6.8,-3.3)" fill="#182e20" opacity="0.7"/><ellipse cx="-1.7" cy="-7.3" rx="10.7" ry="5.7" transform="rotate(257.1,-1.7,-7.3)" fill="#182e20" opacity="0.7"/><ellipse cx="4.7" cy="-5.9" rx="10.7" ry="5.7" transform="rotate(308.6,4.7,-5.9)" fill="#182e20" opacity="0.8"/><circle cx="0" cy="0" r="7.4" fill="#526258" opacity="0.8"/></g>
  <g transform="translate(1071.1,184.9)" opacity="0.6"><ellipse cx="4.1" cy="0.0" rx="5.9" ry="4.3" transform="rotate(0.0,4.1,0.0)" fill="#182e20" opacity="0.9"/><ellipse cx="1.3" cy="3.9" rx="5.9" ry="4.3" transform="rotate(72.0,1.3,3.9)" fill="#182e20" opacity="0.9"/><ellipse cx="-3.4" cy="2.4" rx="5.9" ry="4.3" transform="rotate(144.0,-3.4,2.4)" fill="#182e20" opacity="0.9"/><ellipse cx="-3.4" cy="-2.4" rx="5.9" ry="4.3" transform="rotate(216.0,-3.4,-2.4)" fill="#182e20" opacity="0.7"/><ellipse cx="1.3" cy="-3.9" rx="5.9" ry="4.3" transform="rotate(288.0,1.3,-3.9)" fill="#182e20" opacity="0.9"/><circle cx="0" cy="0" r="5.6" fill="#526258" opacity="0.8"/></g>
  <g transform="translate(762.7,233.6)" opacity="0.8"><ellipse cx="13.0" cy="0.0" rx="18.5" ry="4.8" transform="rotate(0.0,13.0,0.0)" fill="#182e20" opacity="0.9"/><ellipse cx="9.2" cy="9.2" rx="18.5" ry="4.8" transform="rotate(45.0,9.2,9.2)" fill="#182e20" opacity="0.7"/><ellipse cx="0.0" cy="13.0" rx="18.5" ry="4.8" transform="rotate(90.0,0.0,13.0)" fill="#182e20" opacity="0.8"/><ellipse cx="-9.2" cy="9.2" rx="18.5" ry="4.8" transform="rotate(135.0,-9.2,9.2)" fill="#182e20" opacity="0.9"/><ellipse cx="-13.0" cy="0.0" rx="18.5" ry="4.8" transform="rotate(180.0,-13.0,0.0)" fill="#182e20" opacity="0.8"/><ellipse cx="-9.2" cy="-9.2" rx="18.5" ry="4.8" transform="rotate(225.0,-9.2,-9.2)" fill="#182e20" opacity="0.9"/><ellipse cx="-0.0" cy="-13.0" rx="18.5" ry="4.8" transform="rotate(270.0,-0.0,-13.0)" fill="#182e20" opacity="0.8"/><ellipse cx="9.2" cy="-9.2" rx="18.5" ry="4.8" transform="rotate(315.0,9.2,-9.2)" fill="#182e20" opacity="0.7"/><circle cx="0" cy="0" r="6.3" fill="#526258" opacity="0.8"/></g>
  <g transform="translate(1063.3,554.3)" opacity="0.8"><ellipse cx="5.5" cy="0.0" rx="7.9" ry="3.1" transform="rotate(0.0,5.5,0.0)" fill="#182e20" opacity="0.9"/><ellipse cx="1.7" cy="5.3" rx="7.9" ry="3.1" transform="rotate(72.0,1.7,5.3)" fill="#182e20" opacity="0.8"/><ellipse cx="-4.5" cy="3.3" rx="7.9" ry="3.1" transform="rotate(144.0,-4.5,3.3)" fill="#182e20" opacity="0.9"/><ellipse cx="-4.5" cy="-3.3" rx="7.9" ry="3.1" transform="rotate(216.0,-4.5,-3.3)" fill="#182e20" opacity="0.8"/><ellipse cx="1.7" cy="-5.3" rx="7.9" ry="3.1" transform="rotate(288.0,1.7,-5.3)" fill="#182e20" opacity="0.7"/><circle cx="0" cy="0" r="4.1" fill="#526258" opacity="0.8"/></g>
  <g transform="translate(989.5,412.2)" opacity="0.7"><ellipse cx="9.6" cy="0.0" rx="13.8" ry="8.3" transform="rotate(0.0,9.6,0.0)" fill="#182e20" opacity="0.9"/><ellipse cx="7.4" cy="6.2" rx="13.8" ry="8.3" transform="rotate(40.0,7.4,6.2)" fill="#182e20" opacity="0.8"/><ellipse cx="1.7" cy="9.5" rx="13.8" ry="8.3" transform="rotate(80.0,1.7,9.5)" fill="#182e20" opacity="0.9"/><ellipse cx="-4.8" cy="8.4" rx="13.8" ry="8.3" transform="rotate(120.0,-4.8,8.4)" fill="#182e20" opacity="0.9"/><ellipse cx="-9.1" cy="3.3" rx="13.8" ry="8.3" transform="rotate(160.0,-9.1,3.3)" fill="#182e20" opacity="0.8"/><ellipse cx="-9.1" cy="-3.3" rx="13.8" ry="8.3" transform="rotate(200.0,-9.1,-3.3)" fill="#182e20" opacity="0.9"/><ellipse cx="-4.8" cy="-8.4" rx="13.8" ry="8.3" transform="rotate(240.0,-4.8,-8.4)" fill="#182e20" opacity="0.7"/><ellipse cx="1.7" cy="-9.5" rx="13.8" ry="8.3" transform="rotate(280.0,1.7,-9.5)" fill="#182e20" opacity="0.9"/><ellipse cx="7.4" cy="-6.2" rx="13.8" ry="8.3" transform="rotate(320.0,7.4,-6.2)" fill="#182e20" opacity="0.9"/><circle cx="0" cy="0" r="10.8" fill="#526258" opacity="0.8"/></g>
  <g transform="translate(173.8,188.5)" opacity="0.7"><ellipse cx="8.2" cy="0.0" rx="11.7" ry="3.1" transform="rotate(0.0,8.2,0.0)" fill="#182e20" opacity="0.7"/><ellipse cx="4.1" cy="7.1" rx="11.7" ry="3.1" transform="rotate(60.0,4.1,7.1)" fill="#182e20" opacity="0.9"/><ellipse cx="-4.1" cy="7.1" rx="11.7" ry="3.1" transform="rotate(120.0,-4.1,7.1)" fill="#182e20" opacity="0.9"/><ellipse cx="-8.2" cy="0.0" rx="11.7" ry="3.1" transform="rotate(180.0,-8.2,0.0)" fill="#182e20" opacity="0.8"/><ellipse cx="-4.1" cy="-7.1" rx="11.7" ry="3.1" transform="rotate(240.0,-4.1,-7.1)" fill="#182e20" opacity="0.9"/><ellipse cx="4.1" cy="-7.1" rx="11.7" ry="3.1" transform="rotate(300.0,4.1,-7.1)" fill="#182e20" opacity="0.9"/><circle cx="0" cy="0" r="4.1" fill="#526258" opacity="0.8"/></g>
</svg>