<svg xmlns="http://www.w3.org/2000/svg" viewBox="0 0 1280 720" width="1280" height="720">
  <defs>
    <linearGradient id="sky3" x1="0" y1="0" x2="0" y2="1">
      <stop offset="0%" stop-color="#020408"/>
      <stop offset="85%" stop-color="#0e1626"/>
      <stop offset="100%" stop-color="#121a2b"/>
    </linearGradient>
    <linearGradient id="fog3" x1="0" y1="0" x2="0" y2="1">
      <stop offset="0%" stop-color="#161e30" stop-opacity="0"/>
      <stop offset="100%" stop-color="#161e30" stop-opacity="0.5"/>
    </linearGradient>
    <linearGradient id="ground3" x1="0" y1="0" x2="0" y2="1">
      <stop offset="0%" stop-color="#0c1018"/>
      <stop offset="100%" stop-color="#05070e"/>
    </linearGradient>
    <filter id="sfar3"><feGaussianBlur stdDeviation="2.5"/></filter>
  </defs>

  <!-- Sky gradient -->
  <rect width="1280" height="720" fill="url(#sky3)"/>

  <!-- Celestial body -->
  <circle cx="943.2" cy="36.9" r="51.6" fill="#3050a0" opacity="0.08"/>
  <circle cx="943.2" cy="36.9" r="29.5" fill="#3050a0" opacity="0.11"/>
  <circle cx="943.2" cy="36.9" r="18.4" fill="#3050a0" opacity="0.44"/>
  

  <!-- Atmospheric haze at horizon -->
  <rect x="0" y="275" width="1280" height="140" fill="url(#fog3)"/>

  <!-- Far terrain silhouette (blurred) -->
  <polygon points="0,720 0.0,328.9 58.2,344.0 116.4,354.0 174.5,360.7 232.7,363.9 290.9,364.9 349.1,366.9 407.3,370.0 465.5,372.4 523.6,373.9 581.8,374.3 640.0,371.9 698.2,365.4 756.4,357.3 814.5,351.7 872.7,350.5 930.9,354.0 989.1,359.6 1047.3,364.1 1105.5,367.3 1163.6,372.4 1221.8,382.6 1280.0,396.8 1280,720" fill="#0c1018" filter="url(#sfar3)" opacity="0.88"/>

  <!-- Near terrain -->
  <polygon points="0,720 0.0,408.3 71.1,408.5 142.2,416.7 213.3,424.7 284.4,429.6 355.6,426.7 426.7,419.2 497.8,415.6 568.9,409.3 640.0,398.2 711.1,396.3 782.2,405.9 853.3,416.0 924.4,413.4 995.6,400.9 1066.7,396.7 1137.8,403.3 1208.9,402.0 1280.0,390.2 1280,720" fill="#060810" opacity="0.96"/>

  <!-- Ground base fill -->
  <rect x="0" y="415" width="1280" height="305" fill="url(#ground3)"/>

  <!-- Ground texture patches -->
  <ellipse cx="581.5" cy="493.5" rx="18.5" ry="11.6" fill="#04060b" opacity="0.40"/>
  <ellipse cx="354.8" cy="477.9" rx="42.9" ry="9.8" fill="#1e2027" opacity="0.33"/>
  <ellipse cx="674.8" cy="437.6" rx="18.9" ry="12.7" fill="#14161e" opacity="0.46"/>
  <ellipse cx="603.7" cy="680.5" rx="39.6" ry="11.9" fill="#04060b" opacity="0.26"/>
  <ellipse cx="743.4" cy="556.4" rx="62.8" ry="4.4" fill="#15171e" opacity="0.43"/>
  <ellipse cx="494.7" cy="612.9" rx="47.1" ry="9.3" fill="#04050a" opacity="0.37"/>
  <ellipse cx="915.2" cy="494.8" rx="55.5" ry="11.5" fill="#05060c" opacity="0.40"/>
  <ellipse cx="734.6" cy="439.4" rx="62.3" ry="13.3" fill="#202229" opacity="0.43"/>
  <ellipse cx="214.5" cy="545.3" rx="44.3" ry="13.3" fill="#05060d" opacity="0.35"/>
  <ellipse cx="35.5" cy="467.8" rx="45.4" ry="8.8" fill="#05060d" opacity="0.26"/>
  <ellipse cx="182.7" cy="465.2" rx="50.4" ry="8.9" fill="#13151d" opacity="0.26"/>
  <ellipse cx="1019.5" cy="478.5" rx="38.8" ry="13.1" fill="#21222a" opacity="0.31"/>
  <ellipse cx="446.3" cy="638.6" rx="22.8" ry="5.6" fill="#04060b" opacity="0.54"/>
  <ellipse cx="133.3" cy="493.5" rx="34.6" ry="6.0" fill="#05060c" opacity="0.27"/>
  <ellipse cx="131.6" cy="434.4" rx="54.0" ry="12.6" fill="#04060c" opacity="0.34"/>
  <ellipse cx="407.8" cy="565.5" rx="63.6" ry="5.7" fill="#05060c" opacity="0.54"/>
  <ellipse cx="206.7" cy="441.3" rx="33.0" ry="6.1" fill="#15161e" opacity="0.31"/>
  <ellipse cx="879.0" cy="599.5" rx="37.5" ry="9.5" fill="#05060d" opacity="0.29"/>
  <ellipse cx="872.1" cy="574.8" rx="35.3" ry="6.1" fill="#04050a" opacity="0.25"/>
  <ellipse cx="773.8" cy="697.3" rx="54.0" ry="9.5" fill="#05060c" opacity="0.48"/>
  <ellipse cx="1169.7" cy="520.8" rx="18.8" ry="8.2" fill="#14161d" opacity="0.31"/>
  <ellipse cx="1021.3" cy="543.6" rx="23.9" ry="5.9" fill="#04050a" opacity="0.30"/>
  <ellipse cx="1110.3" cy="622.5" rx="34.7" ry="5.2" fill="#05060c" opacity="0.29"/>
  <ellipse cx="569.7" cy="677.6" rx="61.3" ry="8.6" fill="#26272e" opacity="0.44"/>
  <ellipse cx="448.2" cy="516.4" rx="41.4" ry="6.4" fill="#05060c" opacity="0.35"/>
  <ellipse cx="1191.3" cy="526.4" rx="37.9" ry="10.5" fill="#191b23" opacity="0.48"/>

  <!-- Ground cracks -->
  <path d="M1097.8,612.3 Q1096.2,618.9 1076.9,632.0" stroke="#04050a" stroke-width="0.7" fill="none" opacity="0.28"/>
  <path d="M558.9,592.3 Q573.2,591.7 588.9,602.4" stroke="#04050a" stroke-width="1.1" fill="none" opacity="0.31"/>
  <path d="M981.4,563.3 Q965.1,567.3 941.3,569.2" stroke="#04050a" stroke-width="1.1" fill="none" opacity="0.56"/>
  <path d="M208.4,639.4 Q204.1,645.8 166.0,647.1" stroke="#04050a" stroke-width="1.2" fill="none" opacity="0.56"/>
  <path d="M60.4,458.0 Q22.0,466.3 15.0,474.5" stroke="#04050a" stroke-width="1.3" fill="none" opacity="0.55"/>
  <path d="M530.6,624.2 Q556.2,629.0 561.6,626.1" stroke="#04050a" stroke-width="0.8" fill="none" opacity="0.51"/>
  <path d="M87.1,427.2 Q128.6,429.3 152.3,444.0" stroke="#04050a" stroke-width="0.7" fill="none" opacity="0.34"/>
  <path d="M1268.0,497.7 Q1242.7,504.9 1234.4,522.1" stroke="#04050a" stroke-width="0.5" fill="none" opacity="0.41"/>

  <!-- Flora -->
  <g transform="translate(8.7,422.3)" opacity="0.67"><rect x="-1.6" y="-34.7" width="3.2" height="34.7" fill="#141e2e"/>
<ellipse cx="0" cy="-34.7" rx="22.2" ry="6.1" fill="#202e44"/>
<circle cx="3.1" cy="-34.2" r="3.0" fill="#586273" opacity="0.7"/><circle cx="13.2" cy="-35.4" r="1.9" fill="#586273" opacity="0.7"/></g>
  <g transform="translate(861.2,459.7)" opacity="0.64"><polygon points="-6.0,-31.0 2.0,0 -12.7,0" fill="#202e44" opacity="0.80"/><line x1="-6.0" y1="-31.0" x2="-3.2" y2="0" stroke="#586273" stroke-width="0.8" opacity="0.5"/><polygon points="12.6,-27.8 10.4,0 3.4,0" fill="#202e44" opacity="0.85"/><line x1="12.6" y1="-27.8" x2="7.9" y2="0" stroke="#586273" stroke-width="0.8" opacity="0.5"/><polygon points="1.9,-36.7 11.0,0 0.1,0" fill="#202e44" opacity="0.89"/><line x1="1.9" y1="-36.7" x2="7.1" y2="0" stroke="#586273" stroke-width="0.8" opacity="0.5"/></g>
  <g transform="translate(1030.5,396.9)" opacity="0.68"><line x1="0" y1="0" x2="0" y2="-24.9" stroke="#141e2e" stroke-width="2.2" stroke-linecap="round"/><line x1="0" y1="-5.0" x2="12.7" y2="-13.4" stroke="#434b58" stroke-width="1.6" stroke-linecap="round" opacity="0.85"/><line x1="0" y1="-10.0" x2="6.7" y2="-17.5" stroke="#434b58" stroke-width="1.6" stroke-linecap="round" opacity="0.85"/><line x1="0" y1="-15.0" x2="11.2" y2="-20.9" stroke="#434b58" stroke-width="1.6" stroke-linecap="round" opacity="0.85"/><line x1="0" y1="-19.9" x2="7.8" y2="-26.7" stroke="#434b58" stroke-width="1.6" stroke-linecap="round" opacity="0.85"/></g>
  <g transform="translate(798.6,413.3)" opacity="0.70"><polygon points="-5.5,-30.9 6.7,0 -3.7,0" fill="#202e44" opacity="0.94"/><line x1="-5.5" y1="-30.9" x2="3.1" y2="0" stroke="#586273" stroke-width="0.8" opacity="0.5"/><polygon points="-8.8,-24.6 -5.7,0 -11.3,0" fill="#202e44" opacity="0.94"/><line x1="-8.8" y1="-24.6" x2="-7.7" y2="0" stroke="#586273" stroke-width="0.8" opacity="0.5"/><polygon points="0.9,-25.4 8.3,0 0.0,0" fill="#202e44" opacity="0.93"/><line x1="0.9" y1="-25.4" x2="5.4" y2="0" stroke="#586273" stroke-width="0.8" opacity="0.5"/></g>
  <g transform="translate(734.7,459.8)" opacity="0.75"><ellipse cx="0" cy="-12.8" rx="25.7" ry="18.3" fill="#141e2e" opacity="0.9"/>
<ellipse cx="5.1" cy="-20.1" rx="9.0" ry="7.3" fill="#101825" opacity="0.35"/></g>
  <g transform="translate(637.8,407.5)" opacity="0.86"><rect x="-4.2" y="-43.7" width="8.5" height="43.7" fill="#141e2e" rx="2.5"/><rect x="4.2" y="-31.4" width="18.8" height="8.5" fill="#141e2e" rx="2.5"/><circle cx="23.0" cy="-27.1" r="5.1" fill="#37404d"/><rect x="-13.3" y="-27.2" width="17.6" height="8.5" fill="#141e2e" rx="2.5"/><circle cx="-13.3" cy="-23.0" r="5.1" fill="#37404d"/><rect x="4.2" y="-32.6" width="23.9" height="8.5" fill="#141e2e" rx="2.5"/><circle cx="28.2" cy="-28.4" r="5.1" fill="#37404d"/></g>
  <g transform="translate(1193.5,403.5)" opacity="0.65"><rect x="-2.5" y="-31.4" width="4.9" height="31.4" fill="#141e2e" rx="1.5"/><rect x="2.5" y="-18.4" width="19.0" height="4.9" fill="#141e2e" rx="1.5"/><circle cx="21.4" cy="-15.9" r="2.9" fill="#37404d"/><rect x="-13.8" y="-19.0" width="16.2" height="4.9" fill="#141e2e" rx="1.5"/><circle cx="-13.8" cy="-16.6" r="2.9" fill="#37404d"/></g>
  <g transform="translate(294.9,397.5)" opacity="0.51"><ellipse cx="0" cy="-6.6" rx="11.1" ry="9.4" fill="#141e2e" opacity="0.9"/>
<ellipse cx="2.2" cy="-10.3" rx="3.9" ry="3.8" fill="#101825" opacity="0.35"/></g>
  <g transform="translate(638.1,420.3)" opacity="0.90"><line x1="0" y1="0" x2="0" y2="-37.6" stroke="#141e2e" stroke-width="2.5" stroke-linecap="round"/><line x1="0" y1="-5.4" x2="13.7" y2="-12.0" stroke="#434b58" stroke-width="1.9" stroke-linecap="round" opacity="0.85"/><line x1="0" y1="-10.7" x2="13.5" y2="-25.0" stroke="#434b58" stroke-width="1.9" stroke-linecap="round" opacity="0.85"/><line x1="0" y1="-16.1" x2="8.0" y2="-24.1" stroke="#434b58" stroke-width="1.9" stroke-linecap="round" opacity="0.85"/><line x1="0" y1="-21.5" x2="12.3" y2="-33.1" stroke="#434b58" stroke-width="1.9" stroke-linecap="round" opacity="0.85"/><line x1="0" y1="-26.8" x2="12.3" y2="-36.2" stroke="#434b58" stroke-width="1.9" stroke-linecap="round" opacity="0.85"/><line x1="0" y1="-32.2" x2="10.8" y2="-39.7" stroke="#434b58" stroke-width="1.9" stroke-linecap="round" opacity="0.85"/></g>
  <g transform="translate(12.8,420.5)" opacity="0.69"><polygon points="-8.5,-32.6 -4.0,0 -14.3,0" fill="#202e44" opacity="0.82"/><line x1="-8.5" y1="-32.6" x2="-7.6" y2="0" stroke="#586273" stroke-width="0.8" opacity="0.5"/><polygon points="-4.9,-18.5 -0.2,0 -7.2,0" fill="#202e44" opacity="0.88"/><line x1="-4.9" y1="-18.5" x2="-2.7" y2="0" stroke="#586273" stroke-width="0.8" opacity="0.5"/><polygon points="11.8,-25.6 12.3,0 2.4,0" fill="#202e44" opacity="0.91"/><line x1="11.8" y1="-25.6" x2="8.9" y2="0" stroke="#586273" stroke-width="0.8" opacity="0.5"/></g>
  <g transform="translate(705.7,434.1)" opacity="0.95"><line x1="0" y1="0" x2="0" y2="-20.0" stroke="#141e2e" stroke-width="1.3" stroke-linecap="round"/><line x1="0" y1="-2.9" x2="11.5" y2="-8.4" stroke="#434b58" stroke-width="1.0" stroke-linecap="round" opacity="0.85"/><line x1="0" y1="-5.7" x2="7.2" y2="-15.8" stroke="#434b58" stroke-width="1.0" stroke-linecap="round" opacity="0.85"/><line x1="0" y1="-8.6" x2="8.0" y2="-14.1" stroke="#434b58" stroke-width="1.0" stroke-linecap="round" opacity="0.85"/><line x1="0" y1="-11.4" x2="5.3" y2="-17.2" stroke="#434b58" stroke-width="1.0" stroke-linecap="round" opacity="0.85"/><line x1="0" y1="-14.3" x2="6.6" y2="-22.8" stroke="#434b58" stroke-width="1.0" stroke-linecap="round" opacity="0.85"/><line x1="0" y1="-17.1" x2="7.1" y2="-25.4" stroke="#434b58" stroke-width="1.0" stroke-linecap="round" opacity="0.85"/></g>
  <g transform="translate(1112.7,429.7)" opacity="0.59"><rect x="-5.0" y="-44.3" width="10.0" height="44.3" fill="#141e2e" rx="3.0"/><rect x="5.0" y="-20.8" width="28.8" height="10.0" fill="#141e2e" rx="3.0"/><circle cx="33.8" cy="-15.8" r="6.0" fill="#37404d"/></g>
  <g transform="translate(1016.4,409.8)" opacity="0.61"><polygon points="5.2,-37.7 19.4,0 5.0,0" fill="#202e44" opacity="0.92"/><line x1="5.2" y1="-37.7" x2="14.4" y2="0" stroke="#586273" stroke-width="0.8" opacity="0.5"/><polygon points="-2.4,-38.1 11.1,0 -2.4,0" fill="#202e44" opacity="0.86"/><line x1="-2.4" y1="-38.1" x2="6.4" y2="0" stroke="#586273" stroke-width="0.8" opacity="0.5"/><polygon points="-4.5,-16.2 0.1,0 -16.5,0" fill="#202e44" opacity="0.93"/><line x1="-4.5" y1="-16.2" x2="-5.7" y2="0" stroke="#586273" stroke-width="0.8" opacity="0.5"/><polygon points="8.6,-25.3 21.0,0 4.4,0" fill="#202e44" opacity="0.85"/><line x1="8.6" y1="-25.3" x2="15.2" y2="0" stroke="#586273" stroke-width="0.8" opacity="0.5"/><polygon points="-19.2,-26.4 -7.6,0 -19.4,0" fill="#202e44" opacity="0.89"/><line x1="-19.2" y1="-26.4" x2="-11.7" y2="0" stroke="#586273" stroke-width="0.8" opacity="0.5"/></g>
  <g transform="translate(935.4,446.4)" opacity="0.78"><polygon points="1.8,-34.2 5.7,0 -10.3,0" fill="#202e44" opacity="0.91"/><line x1="1.8" y1="-34.2" x2="0.1" y2="0" stroke="#586273" stroke-width="0.8" opacity="0.5"/><polygon points="-3.0,-34.3 6.0,0 -4.0,0" fill="#202e44" opacity="0.95"/><line x1="-3.0" y1="-34.3" x2="2.5" y2="0" stroke="#586273" stroke-width="0.8" opacity="0.5"/><polygon points="-14.3,-33.9 -9.5,0 -17.6,0" fill="#202e44" opacity="0.88"/><line x1="-14.3" y1="-33.9" x2="-12.4" y2="0" stroke="#586273" stroke-width="0.8" opacity="0.5"/><polygon points="-14.1,-47.6 -3.0,0 -10.6,0" fill="#202e44" opacity="0.93"/><line x1="-14.1" y1="-47.6" x2="-5.6" y2="0" stroke="#586273" stroke-width="0.8" opacity="0.5"/><polygon points="-9.7,-30.5 -0.3,0 -11.8,0" fill="#202e44" opacity="0.83"/><line x1="-9.7" y1="-30.5" x2="-4.3" y2="0" stroke="#586273" stroke-width="0.8" opacity="0.5"/><polygon points="-5.1,-28.9 9.2,0 -6.5,0" fill="#202e44" opacity="0.88"/><line x1="-5.1" y1="-28.9" x2="3.7" y2="0" stroke="#586273" stroke-width="0.8" opacity="0.5"/></g>

  <!-- Rocks -->
  <g transform="translate(417.7,430.1)"><rect x="-12.3" y="-5.6" width="35.1" height="5.6" fill="#0a0e18" opacity="0.92" rx="1"/><rect x="-15.9" y="-11.5" width="33.3" height="5.9" fill="#23262f" opacity="0.92" rx="1"/></g>
  <g transform="translate(763.5,630.8)"><rect x="-30.6" y="-16.5" width="65.0" height="16.5" fill="#0a0e18" opacity="0.92" rx="1"/><rect x="-27.6" y="-29.1" width="55.7" height="12.7" fill="#23262f" opacity="0.92" rx="1"/><rect x="-2.0" y="-47.2" width="18.4" height="18.1" fill="#0a0e18" opacity="0.92" rx="1"/></g>
  <g transform="translate(537.2,388.3)"><polygon points="-5.7,-76.1 16.2,0 -16.2,0" fill="#0a0e18" opacity="0.9"/></g>
  <g transform="translate(800.9,549.9)"><polygon points="-9.5,-43.4 6.0,0 -6.0,0" fill="#0a0e18" opacity="0.9"/></g>
  <g transform="translate(648.7,631.2)"><ellipse cx="0" cy="-12.7" rx="26.8" ry="18.1" fill="#0a0e18" opacity="0.92"/>
<ellipse cx="6.7" cy="-18.1" rx="9.4" ry="3.6" fill="#080b12" opacity="0.3"/>
<ellipse cx="-5.4" cy="-10.9" rx="5.4" ry="2.7" fill="#2f323b" opacity="0.2"/></g>
  <g transform="translate(599.4,547.7)"><rect x="-9.3" y="-8.4" width="25.3" height="8.4" fill="#0a0e18" opacity="0.92" rx="1"/><rect x="-5.5" y="-13.6" width="12.8" height="5.2" fill="#23262f" opacity="0.92" rx="1"/></g>
  <g transform="translate(1186.1,401.6)"><ellipse cx="0" cy="-5.4" rx="11.5" ry="7.7" fill="#0a0e18" opacity="0.92"/>
<ellipse cx="2.9" cy="-7.7" rx="4.0" ry="1.5" fill="#080b12" opacity="0.3"/>
<ellipse cx="-2.3" cy="-4.6" rx="2.3" ry="1.2" fill="#2f323b" opacity="0.2"/></g>
  <g transform="translate(156.7,500.9)"><polygon points="6.0,-60.0 10.4,0 -10.4,0" fill="#0a0e18" opacity="0.9"/></g>
  <g transform="translate(984.1,498.5)"><polygon points="2.4,-34.9 18.6,0 -18.6,0" fill="#0a0e18" opacity="0.9"/></g>
  <g transform="translate(1163.8,442.1)"><ellipse cx="0" cy="-19.7" rx="44.6" ry="28.1" fill="#0a0e18" opacity="0.92"/>
<ellipse cx="11.1" cy="-28.1" rx="15.6" ry="5.6" fill="#080b12" opacity="0.3"/>
<ellipse cx="-8.9" cy="-16.9" rx="8.9" ry="4.2" fill="#2f323b" opacity="0.2"/></g>

  <!-- Foreground elements -->
  <g transform="translate(791.5,671.8)" opacity="0.60"><rect x="-40.1" y="-25.4" width="67.6" height="25.4" fill="#0a0e18" opacity="0.92" rx="1"/><rect x="-23.3" y="-36.5" width="38.9" height="11.1" fill="#23262f" opacity="0.92" rx="1"/><rect x="-5.2" y="-48.9" width="23.9" height="12.4" fill="#0a0e18" opacity="0.92" rx="1"/><rect x="-27.7" y="-63.7" width="53.9" height="14.7" fill="#23262f" opacity="0.92" rx="1"/></g>
  <g transform="translate(953.3,663.7)" opacity="0.79"><rect x="-39.2" y="-19.7" width="82.3" height="19.7" fill="#0a0e18" opacity="0.92" rx="1"/><rect x="-29.0" y="-50.5" width="40.5" height="30.8" fill="#23262f" opacity="0.92" rx="1"/><rect x="-26.9" y="-72.0" width="55.0" height="21.5" fill="#0a0e18" opacity="0.92" rx="1"/><rect x="-34.4" y="-99.6" width="64.1" height="27.6" fill="#23262f" opacity="0.92" rx="1"/></g>
  <g transform="translate(417.5,674.2)" opacity="0.85"><rect x="-24.1" y="-15.1" width="50.1" height="15.1" fill="#0a0e18" opacity="0.92" rx="1"/><rect x="-8.4" y="-26.7" width="25.9" height="11.7" fill="#23262f" opacity="0.92" rx="1"/><rect x="-16.3" y="-34.6" width="37.2" height="7.8" fill="#0a0e18" opacity="0.92" rx="1"/></g>

  <!-- Atmospheric dust -->
  <circle cx="179.6" cy="401.6" r="2.3" fill="#161e30" opacity="0.20"/>
  <circle cx="363.5" cy="412.8" r="1.8" fill="#161e30" opacity="0.13"/>
  <circle cx="348.9" cy="358.6" r="2.0" fill="#161e30" opacity="0.25"/>
  <circle cx="922.8" cy="437.8" r="2.2" fill="#161e30" opacity="0.24"/>
  <circle cx="587.2" cy="371.6" r="2.6" fill="#161e30" opacity="0.17"/>
  <circle cx="1234.1" cy="418.4" r="1.6" fill="#161e30" opacity="0.22"/>
  <circle cx="1021.3" cy="347.4" r="2.3" fill="#161e30" opacity="0.14"/>
  <circle cx="807.6" cy="426.3" r="1.3" fill="#161e30" opacity="0.09"/>
  <circle cx="202.4" cy="410.2" r="1.3" fill="#161e30" opacity="0.21"/>
  <circle cx="558.8" cy="417.6" r="1.8" fill="#161e30" opacity="0.10"/>
  <circle cx="1237.5" cy="395.9" r="2.1" fill="#161e30" opacity="0.17"/>
  <circle cx="219.2" cy="345.5" r="1.8" fill="#161e30" opacity="0.14"/>
  <circle cx="745.0" cy="358.5" r="1.7" fill="#161e30" opacity="0.14"/>
  <circle cx="87.5" cy="375.6" r="2.5" fill="#161e30" opacity="0.24"/>
  <circle cx="99.7" cy="435.0" r="2.2" fill="#161e30" opacity="0.11"/>
  <circle cx="621.7" cy="430.7" r="2.5" fill="#161e30" opacity="0.18"/>
  <circle cx="156.2" cy="438.9" r="1.8" fill="#161e30" opacity="0.22"/>
  <circle cx="957.6" cy="369.0" r="1.5" fill="#161e30" opacity="0.19"/>
  <circle cx="61.7" cy="431.0" r="0.9" fill="#161e30" opacity="0.13"/>
  <circle cx="10.1" cy="411.4" r="1.7" fill="#161e30" opacity="0.14"/>
  <circle cx="1074.6" cy="419.6" r="0.9" fill="#161e30" opacity="0.10"/>
  <circle cx="758.2" cy="416.7" r="1.8" fill="#161e30" opacity="0.21"/>
  <circle cx="445.1" cy="415.0" r="2.6" fill="#161e30" opacity="0.23"/>
  <circle cx="937.4" cy="370.8" r="1.4" fill="#161e30" opacity="0.18"/>
  <circle cx="584.6" cy="366.4" r="1.0" fill="#161e30" opacity="0.12"/>
  <circle cx="854.6" cy="346.1" r="2.3" fill="#161e30" opacity="0.12"/>
  <circle cx="515.1" cy="428.9" r="2.0" fill="#161e30" opacity="0.21"/>
  <circle cx="6.3" cy="410.1" r="2.3" fill="#161e30" opacity="0.16"/>
  <circle cx="483.0" cy="420.8" r="1.2" fill="#161e30" opacity="0.11"/>
  <circle cx="631.7" cy="424.6" r="1.9" fill="#161e30" opacity="0.19"/>
  <circle cx="537.9" cy="434.2" r="2.2" fill="#161e30" opacity="0.19"/>
  <circle cx="770.9" cy="387.1" r="1.9" fill="#161e30" opacity="0.10"/>
</svg>