<svg xmlns="http://www.w3.org/2000/svg" viewBox="0 0 1280 720" width="1280" height="720">
  <defs>
    <linearGradient id="sky6" x1="0" y1="0" x2="0" y2="1">
      <stop offset="0%" stop-color="#0c0c0e"/>
      <stop offset="85%" stop-color="#26262c"/>
      <stop offset="100%" stop-color="#2f2f36"/>
    </linearGradient>
    <linearGradient id="fog6" x1="0" y1="0" x2="0" y2="1">
      <stop offset="0%" stop-color="#383840" stop-opacity="0"/>
      <stop offset="100%" stop-color="#383840" stop-opacity="0.5"/>
    </linearGradient>
    <linearGradient id="ground6" x1="0" y1="0" x2="0" y2="1">
      <stop offset="0%" stop-color="#1e1e22"/>
      <stop offset="100%" stop-color="#0f0f11"/>
    </linearGradient>
    <filter id="sfar6"><feGaussianBlur stdDeviation="2.5"/></filter>
  </defs>

  <!-- Sky gradient -->
  <rect width="1280" height="720" fill="url(#sky6)"/>

  <!-- Celestial body -->
  <circle cx="1000.4" cy="64.7" r="84.8" fill="#909098" opacity="0.09"/>
  <circle cx="1000.4" cy="64.7" r="48.4" fill="#909098" opacity="0.13"/>
  <circle cx="1000.4" cy="64.7" r="30.3" fill="#909098" opacity="0.52"/>
  

  <!-- Atmospheric haze at horizon -->
  <rect x="0" y="279" width="1280" height="140" fill="url(#fog6)"/>

  <!-- Far terrain silhouette (blurred) -->
  <polygon points="0,720 0.0,365.8 58.2,364.6 116.4,369.1 174.5,374.2 232.7,375.3 290.9,371.9 349.1,367.1 407.3,364.0 465.5,363.3 523.6,364.0 581.8,363.3 640.0,359.0 698.2,352.1 756.4,346.5 814.5,344.8 872.7,346.9 930.9,350.6 989.1,354.6 1047.3,357.5 1105.5,356.6 1163.6,350.4 1221.8,339.3 1280.0,325.8 1280,720" fill="#1e1e22" filter="url(#sfar6)" opacity="0.88"/>

  <!-- Near terrain -->
  <polygon points="0,720 0.0,371.4 71.1,388.5 142.2,390.4 213.3,392.7 284.4,401.6 355.6,412.5 426.7,415.4 497.8,409.0 568.9,395.4 640.0,387.6 711.1,395.8 782.2,412.8 853.3,419.0 924.4,413.9 995.6,406.9 1066.7,402.5 1137.8,403.2 1208.9,413.5 1280.0,429.3 1280,720" fill="#121214" opacity="0.96"/>

  <!-- Ground base fill -->
  <rect x="0" y="419" width="1280" height="301" fill="url(#ground6)"/>

  <!-- Ground texture patches -->
  <ellipse cx="178.1" cy="414.8" rx="35.9" ry="6.2" fill="#29292b" opacity="0.27"/>
  <ellipse cx="776.6" cy="527.3" rx="45.2" ry="7.6" fill="#0c0c0e" opacity="0.38"/>
  <ellipse cx="518.7" cy="515.8" rx="63.5" ry="6.2" fill="#1e1e20" opacity="0.44"/>
  <ellipse cx="42.4" cy="527.0" rx="54.3" ry="4.3" fill="#262628" opacity="0.40"/>
  <ellipse cx="1233.1" cy="575.2" rx="33.0" ry="4.6" fill="#0b0b0d" opacity="0.31"/>
  <ellipse cx="204.0" cy="478.6" rx="60.1" ry="6.0" fill="#28282a" opacity="0.28"/>
  <ellipse cx="389.7" cy="618.9" rx="72.9" ry="10.2" fill="#2f2f30" opacity="0.28"/>
  <ellipse cx="401.2" cy="489.8" rx="29.4" ry="11.8" fill="#0f0f10" opacity="0.45"/>
  <ellipse cx="940.6" cy="550.6" rx="25.2" ry="6.7" fill="#2a2a2c" opacity="0.43"/>
  <ellipse cx="1170.9" cy="653.4" rx="55.5" ry="5.8" fill="#202022" opacity="0.35"/>
  <ellipse cx="132.0" cy="441.5" rx="55.3" ry="4.6" fill="#1f1f20" opacity="0.26"/>
  <ellipse cx="1088.0" cy="525.0" rx="23.7" ry="12.2" fill="#0d0d0e" opacity="0.33"/>
  <ellipse cx="129.1" cy="498.3" rx="18.1" ry="11.7" fill="#0b0b0d" opacity="0.46"/>
  <ellipse cx="196.5" cy="680.4" rx="65.7" ry="8.4" fill="#303032" opacity="0.44"/>
  <ellipse cx="597.4" cy="456.4" rx="67.4" ry="7.6" fill="#28282a" opacity="0.42"/>
  <ellipse cx="1142.5" cy="457.6" rx="23.3" ry="11.2" fill="#0c0c0d" opacity="0.37"/>
  <ellipse cx="772.6" cy="699.4" rx="20.2" ry="9.0" fill="#2c2c2e" opacity="0.29"/>
  <ellipse cx="960.1" cy="559.4" rx="40.0" ry="4.9" fill="#0e0e10" opacity="0.43"/>
  <ellipse cx="1234.7" cy="671.9" rx="46.1" ry="11.3" fill="#0d0d0f" opacity="0.47"/>
  <ellipse cx="25.0" cy="604.1" rx="68.6" ry="11.8" fill="#0c0c0d" opacity="0.28"/>
  <ellipse cx="1046.5" cy="650.6" rx="32.6" ry="13.8" fill="#232325" opacity="0.39"/>
  <ellipse cx="1271.0" cy="514.8" rx="58.1" ry="12.1" fill="#0f0f10" opacity="0.50"/>
  <ellipse cx="309.7" cy="549.6" rx="34.3" ry="12.1" fill="#0d0d0e" opacity="0.41"/>
  <ellipse cx="1101.3" cy="498.2" rx="65.7" ry="12.8" fill="#313132" opacity="0.44"/>
  <ellipse cx="134.9" cy="417.7" rx="59.0" ry="5.9" fill="#28282a" opacity="0.38"/>
  <ellipse cx="922.0" cy="579.8" rx="33.6" ry="8.5" fill="#0d0d0f" opacity="0.31"/>
  <ellipse cx="1029.0" cy="466.4" rx="23.6" ry="6.2" fill="#232325" opacity="0.50"/>
  <ellipse cx="865.9" cy="646.8" rx="39.2" ry="8.2" fill="#1f1f21" opacity="0.27"/>
  <ellipse cx="156.3" cy="594.0" rx="23.0" ry="13.3" fill="#0c0c0d" opacity="0.37"/>
  <ellipse cx="637.6" cy="427.8" rx="31.6" ry="9.0" fill="#28282a" opacity="0.42"/>
  <ellipse cx="722.7" cy="635.1" rx="42.0" ry="8.4" fill="#0b0b0d" opacity="0.45"/>
  <ellipse cx="73.5" cy="575.0" rx="36.8" ry="12.2" fill="#0f0f10" opacity="0.50"/>

  <!-- Ground cracks -->
  <path d="M366.1,604.5 Q322.0,611.6 297.9,613.9" stroke="#0c0c0d" stroke-width="0.5" fill="none" opacity="0.58"/>
  <path d="M214.5,651.6 Q207.5,658.4 184.8,653.9" stroke="#0c0c0d" stroke-width="0.5" fill="none" opacity="0.56"/>
  <path d="M1108.0,615.2 Q1065.3,617.9 1044.3,622.1" stroke="#0c0c0d" stroke-width="1.2" fill="none" opacity="0.36"/>
  <path d="M157.8,650.0 Q140.6,659.3 117.8,661.8" stroke="#0c0c0d" stroke-width="0.9" fill="none" opacity="0.36"/>
  <path d="M739.1,464.6 Q709.1,460.0 698.6,468.0" stroke="#0c0c0d" stroke-width="1.1" fill="none" opacity="0.57"/>
  <path d="M846.8,683.4 Q840.6,690.9 857.8,696.2" stroke="#0c0c0d" stroke-width="1.2" fill="none" opacity="0.29"/>
  <path d="M1228.4,462.5 Q1212.4,468.8 1174.5,484.4" stroke="#0c0c0d" stroke-width="0.7" fill="none" opacity="0.42"/>
  <path d="M1007.0,538.9 Q1014.2,551.4 1003.5,564.4" stroke="#0c0c0d" stroke-width="0.7" fill="none" opacity="0.29"/>
  <path d="M431.0,488.2 Q428.2,496.6 460.0,491.2" stroke="#0c0c0d" stroke-width="1.0" fill="none" opacity="0.27"/>
  <path d="M602.9,659.6 Q577.2,664.6 580.6,666.7" stroke="#0c0c0d" stroke-width="0.8" fill="none" opacity="0.52"/>

  <!-- Flora -->
  <g transform="translate(49.4,429.1)" opacity="0.85"><polygon points="4.3,-31.8 5.1,0 -5.7,0" fill="#424248" opacity="0.94"/><line x1="4.3" y1="-31.8" x2="1.3" y2="0" stroke="#717176" stroke-width="0.8" opacity="0.5"/><polygon points="0.3,-36.1 3.6,0 -6.9,0" fill="#424248" opacity="0.89"/><line x1="0.3" y1="-36.1" x2="-0.1" y2="0" stroke="#717176" stroke-width="0.8" opacity="0.5"/><polygon points="-1.4,-15.9 7.2,0 -2.8,0" fill="#424248" opacity="0.79"/><line x1="-1.4" y1="-15.9" x2="3.7" y2="0" stroke="#717176" stroke-width="0.8" opacity="0.5"/><polygon points="-0.9,-27.1 8.7,0 -2.8,0" fill="#424248" opacity="0.77"/><line x1="-0.9" y1="-27.1" x2="4.7" y2="0" stroke="#717176" stroke-width="0.8" opacity="0.5"/></g>
  <g transform="translate(1276.0,422.4)" opacity="0.89"><rect x="-1.6" y="-43.2" width="3.3" height="43.2" fill="#2e2e32"/>
<ellipse cx="0" cy="-43.2" rx="24.1" ry="9.2" fill="#424248"/>
<circle cx="-8.8" cy="-48.7" r="3.1" fill="#717176" opacity="0.7"/><circle cx="1.4" cy="-47.0" r="2.5" fill="#717176" opacity="0.7"/></g>
  <g transform="translate(135.0,400.7)" opacity="0.56"><rect x="-1.4" y="-24.3" width="2.8" height="24.3" fill="#2e2e32"/>
<ellipse cx="0" cy="-24.3" rx="9.3" ry="5.6" fill="#424248"/>
<circle cx="-4.0" cy="-25.8" r="1.6" fill="#717176" opacity="0.7"/><circle cx="0.4" cy="-24.5" r="1.3" fill="#717176" opacity="0.7"/><circle cx="0.7" cy="-26.0" r="1.1" fill="#717176" opacity="0.7"/></g>
  <g transform="translate(648.7,453.8)" opacity="0.67"><rect x="-2.7" y="-30.1" width="5.3" height="30.1" fill="#2e2e32"/>
<ellipse cx="0" cy="-30.1" rx="22.4" ry="8.5" fill="#424248"/>
<circle cx="-9.2" cy="-35.8" r="1.8" fill="#717176" opacity="0.7"/><circle cx="7.8" cy="-36.0" r="3.3" fill="#717176" opacity="0.7"/><circle cx="9.1" cy="-33.7" r="3.6" fill="#717176" opacity="0.7"/></g>
  <g transform="translate(564.4,460.5)" opacity="0.75"><rect x="-5.1" y="-36.3" width="10.2" height="36.3" fill="#2e2e32" rx="3.1"/><rect x="5.1" y="-25.3" width="27.2" height="10.2" fill="#2e2e32" rx="3.1"/><circle cx="32.3" cy="-20.2" r="6.1" fill="#4d4d51"/></g>
  <g transform="translate(28.3,442.7)" opacity="0.56"><line x1="0" y1="0" x2="0" y2="-25.4" stroke="#2e2e32" stroke-width="3.1" stroke-linecap="round"/><line x1="0" y1="-5.1" x2="14.6" y2="-12.7" stroke="#58585b" stroke-width="2.3" stroke-linecap="round" opacity="0.85"/><line x1="0" y1="-10.2" x2="10.5" y2="-20.5" stroke="#58585b" stroke-width="2.3" stroke-linecap="round" opacity="0.85"/><line x1="0" y1="-15.2" x2="4.6" y2="-21.5" stroke="#58585b" stroke-width="2.3" stroke-linecap="round" opacity="0.85"/><line x1="0" y1="-20.3" x2="11.6" y2="-36.2" stroke="#58585b" stroke-width="2.3" stroke-linecap="round" opacity="0.85"/></g>
  <g transform="translate(444.0,413.9)" opacity="0.72"><line x1="0" y1="0" x2="0" y2="-17.3" stroke="#2e2e32" stroke-width="1.0" stroke-linecap="round"/><line x1="0" y1="-2.5" x2="5.1" y2="-6.8" stroke="#58585b" stroke-width="0.8" stroke-linecap="round" opacity="0.85"/><line x1="0" y1="-4.9" x2="5.4" y2="-10.8" stroke="#58585b" stroke-width="0.8" stroke-linecap="round" opacity="0.85"/><line x1="0" y1="-7.4" x2="5.3" y2="-14.0" stroke="#58585b" stroke-width="0.8" stroke-linecap="round" opacity="0.85"/><line x1="0" y1="-9.9" x2="8.9" y2="-15.3" stroke="#58585b" stroke-width="0.8" stroke-linecap="round" opacity="0.85"/><line x1="0" y1="-12.3" x2="5.4" y2="-16.9" stroke="#58585b" stroke-width="0.8" stroke-linecap="round" opacity="0.85"/><line x1="0" y1="-14.8" x2="7.8" y2="-20.0" stroke="#58585b" stroke-width="0.8" stroke-linecap="round" opacity="0.85"/></g>
  <g transform="translate(57.8,457.3)" opacity="0.55"><line x1="0" y1="0" x2="0" y2="-44.5" stroke="#2e2e32" stroke-width="2.5" stroke-linecap="round"/><path d="M0,-38.6 C7.0,-38.6 23.4,-29.3 23.4,-29.3" stroke="#4d4d51" stroke-width="1.2" fill="none" stroke-linecap="round" opacity="0.8"/><path d="M0,-29.6 C-5.2,-29.6 -17.4,-22.7 -17.4,-22.7" stroke="#4d4d51" stroke-width="1.2" fill="none" stroke-linecap="round" opacity="0.8"/><path d="M0,-31.8 C-4.0,-31.8 -13.3,-26.5 -13.3,-26.5" stroke="#4d4d51" stroke-width="1.2" fill="none" stroke-linecap="round" opacity="0.8"/></g>
  <g transform="translate(1095.1,422.1)" opacity="0.77"><rect x="-1.7" y="-32.8" width="3.4" height="32.8" fill="#2e2e32" rx="1.0"/><rect x="1.7" y="-22.6" width="18.2" height="3.4" fill="#2e2e32" rx="1.0"/><circle cx="19.9" cy="-20.9" r="2.0" fill="#4d4d51"/><rect x="-6.9" y="-17.7" width="8.6" height="3.4" fill="#2e2e32" rx="1.0"/><circle cx="-6.9" cy="-16.0" r="2.0" fill="#4d4d51"/><rect x="1.7" y="-17.5" width="10.5" height="3.4" fill="#2e2e32" rx="1.0"/><circle cx="12.2" cy="-15.8" r="2.0" fill="#4d4d51"/></g>
  <g transform="translate(446.2,463.3)" opacity="0.70"><rect x="-2.6" y="-31.2" width="5.2" height="31.2" fill="#2e2e32" rx="1.6"/><rect x="2.6" y="-15.2" width="16.0" height="5.2" fill="#2e2e32" rx="1.6"/><circle cx="18.6" cy="-12.6" r="3.1" fill="#4d4d51"/></g>
  <g transform="translate(347.2,435.6)" opacity="0.78"><line x1="0" y1="0" x2="0" y2="-15.6" stroke="#2e2e32" stroke-width="1.0" stroke-linecap="round"/><line x1="0" y1="-2.6" x2="5.4" y2="-6.2" stroke="#58585b" stroke-width="0.7" stroke-linecap="round" opacity="0.85"/><line x1="0" y1="-5.2" x2="4.3" y2="-11.0" stroke="#58585b" stroke-width="0.7" stroke-linecap="round" opacity="0.85"/><line x1="0" y1="-7.8" x2="5.3" y2="-13.6" stroke="#58585b" stroke-width="0.7" stroke-linecap="round" opacity="0.85"/><line x1="0" y1="-10.4" x2="4.6" y2="-14.5" stroke="#58585b" stroke-width="0.7" stroke-linecap="round" opacity="0.85"/><line x1="0" y1="-13.0" x2="8.5" y2="-18.9" stroke="#58585b" stroke-width="0.7" stroke-linecap="round" opacity="0.85"/></g>
  <g transform="translate(347.8,406.0)" opacity="0.61"><rect x="-2.7" y="-30.1" width="5.4" height="30.1" fill="#2e2e32" rx="1.6"/><rect x="2.7" y="-17.0" width="9.6" height="5.4" fill="#2e2e32" rx="1.6"/><circle cx="12.3" cy="-14.3" r="3.3" fill="#4d4d51"/></g>
  <g transform="translate(108.1,460.8)" opacity="0.90"><polygon points="-2.8,-17.3 7.6,0 -6.2,0" fill="#424248" opacity="0.82"/><line x1="-2.8" y1="-17.3" x2="2.8" y2="0" stroke="#717176" stroke-width="0.8" opacity="0.5"/><polygon points="13.8,-36.1 13.8,0 -3.4,0" fill="#424248" opacity="0.85"/><line x1="13.8" y1="-36.1" x2="7.8" y2="0" stroke="#717176" stroke-width="0.8" opacity="0.5"/><polygon points="-12.7,-47.7 -1.7,0 -11.4,0" fill="#424248" opacity="0.75"/><line x1="-12.7" y1="-47.7" x2="-5.1" y2="0" stroke="#717176" stroke-width="0.8" opacity="0.5"/><polygon points="10.7,-48.8 17.7,0 6.6,0" fill="#424248" opacity="0.83"/><line x1="10.7" y1="-48.8" x2="13.8" y2="0" stroke="#717176" stroke-width="0.8" opacity="0.5"/></g>
  <g transform="translate(1081.7,408.3)" opacity="0.63"><rect x="-2.8" y="-27.4" width="5.6" height="27.4" fill="#2e2e32"/>
<ellipse cx="0" cy="-27.4" rx="25.1" ry="8.3" fill="#424248"/>
</g>
  <g transform="translate(166.4,448.3)" opacity="0.76"><ellipse cx="0" cy="-6.4" rx="17.4" ry="9.2" fill="#2e2e32" opacity="0.9"/>
<ellipse cx="3.5" cy="-10.1" rx="6.1" ry="3.7" fill="#252528" opacity="0.35"/></g>

  <!-- Rocks -->
  <g transform="translate(294.4,547.4)"><ellipse cx="0" cy="-18.7" rx="34.5" ry="26.7" fill="#0c0c0e" opacity="0.92"/>
<ellipse cx="8.6" cy="-26.7" rx="12.1" ry="5.3" fill="#09090b" opacity="0.3"/>
<ellipse cx="-6.9" cy="-16.0" rx="6.9" ry="4.0" fill="#303032" opacity="0.2"/></g>
  <g transform="translate(194.8,475.3)"><rect x="-7.2" y="-4.9" width="20.2" height="4.9" fill="#0c0c0e" opacity="0.92" rx="1"/><rect x="-4.7" y="-9.1" width="11.1" height="4.1" fill="#242426" opacity="0.92" rx="1"/></g>
  <g transform="translate(102.2,654.6)"><polygon points="-3.8,-41.7 7.3,0 -7.3,0" fill="#0c0c0e" opacity="0.9"/><polygon points="-3.8,-41.7 0.7,0 7.3,0" fill="#08080a" opacity="0.4"/></g>
  <g transform="translate(1267.1,421.8)"><rect x="-19.6" y="-10.8" width="47.6" height="10.8" fill="#0c0c0e" opacity="0.92" rx="1"/><rect x="-15.7" y="-20.1" width="33.4" height="9.3" fill="#242426" opacity="0.92" rx="1"/><rect x="-7.4" y="-31.1" width="20.2" height="11.0" fill="#0c0c0e" opacity="0.92" rx="1"/><rect x="-10.4" y="-46.2" width="15.7" height="15.1" fill="#242426" opacity="0.92" rx="1"/></g>
  <g transform="translate(194.0,577.8)"><rect x="-14.9" y="-4.8" width="29.1" height="4.8" fill="#0c0c0e" opacity="0.92" rx="1"/><rect x="-6.9" y="-11.0" width="11.1" height="6.2" fill="#242426" opacity="0.92" rx="1"/></g>
  <g transform="translate(1242.9,641.9)"><rect x="-16.3" y="-14.6" width="41.3" height="14.6" fill="#0c0c0e" opacity="0.92" rx="1"/><rect x="-14.1" y="-30.2" width="29.5" height="15.6" fill="#242426" opacity="0.92" rx="1"/><rect x="-10.0" y="-43.2" width="13.5" height="13.0" fill="#0c0c0e" opacity="0.92" rx="1"/></g>
  <g transform="translate(397.5,528.2)"><rect x="-23.6" y="-6.3" width="42.9" height="6.3" fill="#0c0c0e" opacity="0.92" rx="1"/><rect x="-14.8" y="-15.0" width="27.7" height="8.7" fill="#242426" opacity="0.92" rx="1"/><rect x="-17.0" y="-21.3" width="25.2" height="6.3" fill="#0c0c0e" opacity="0.92" rx="1"/></g>
  <g transform="translate(595.6,452.6)"><polygon points="12.3,-43.2 11.8,0 -11.8,0" fill="#0c0c0e" opacity="0.9"/><polygon points="12.3,-43.2 1.2,0 11.8,0" fill="#08080a" opacity="0.4"/></g>

  <!-- Foreground elements -->
  <g transform="translate(279.6,682.8)" opacity="0.62"><ellipse cx="0" cy="-23.6" rx="44.8" ry="33.8" fill="#0c0c0e" opacity="0.92"/>
<ellipse cx="11.2" cy="-33.8" rx="15.7" ry="6.8" fill="#09090b" opacity="0.3"/>
<ellipse cx="-9.0" cy="-20.3" rx="9.0" ry="5.1" fill="#303032" opacity="0.2"/></g>
  <g transform="translate(927.2,678.0)" opacity="0.75"><polygon points="-8.8,-61.5 16.6,0 -16.6,0" fill="#0c0c0e" opacity="0.9"/><polygon points="-8.8,-61.5 1.7,0 16.6,0" fill="#08080a" opacity="0.4"/></g>
  <g transform="translate(86.4,694.8)" opacity="0.60"><rect x="-4.8" y="-52.3" width="9.5" height="52.3" fill="#2e2e32" rx="2.9"/><rect x="4.8" y="-24.0" width="27.8" height="9.5" fill="#2e2e32" rx="2.9"/><circle cx="32.5" cy="-19.2" r="5.7" fill="#4d4d51"/><rect x="-18.8" y="-32.7" width="23.6" height="9.5" fill="#2e2e32" rx="2.9"/><circle cx="-18.8" cy="-27.9" r="5.7" fill="#4d4d51"/></g>

  <!-- Atmospheric dust -->
  <circle cx="1275.6" cy="438.9" r="2.1" fill="#383840" opacity="0.12"/>
  <circle cx="1202.9" cy="420.2" r="2.3" fill="#383840" opacity="0.11"/>
  <circle cx="1010.9" cy="354.4" r="2.4" fill="#383840" opacity="0.13"/>
  <circle cx="21.8" cy="406.2" r="1.4" fill="#383840" opacity="0.17"/>
  <circle cx="1039.5" cy="401.5" r="1.3" fill="#383840" opacity="0.11"/>
  <circle cx="402.5" cy="427.7" r="1.6" fill="#383840" opacity="0.16"/>
  <circle cx="1000.4" cy="428.7" r="1.2" fill="#383840" opacity="0.20"/>
  <circle cx="817.1" cy="359.8" r="1.5" fill="#383840" opacity="0.22"/>
  <circle cx="945.2" cy="404.8" r="0.9" fill="#383840" opacity="0.23"/>
  <circle cx="357.2" cy="362.6" r="2.3" fill="#383840" opacity="0.20"/>
  <circle cx="47.3" cy="365.5" r="1.4" fill="#383840" opacity="0.22"/>
  <circle cx="889.3" cy="435.3" r="1.7" fill="#383840" opacity="0.17"/>
  <circle cx="899.6" cy="439.2" r="2.2" fill="#383840" opacity="0.19"/>
  <circle cx="158.7" cy="431.1" r="0.8" fill="#383840" opacity="0.22"/>
  <circle cx="261.9" cy="374.5" r="0.9" fill="#383840" opacity="0.11"/>
  <circle cx="392.3" cy="432.5" r="2.2" fill="#383840" opacity="0.22"/>
  <circle cx="957.8" cy="407.9" r="1.8" fill="#383840" opacity="0.13"/>
  <circle cx="966.2" cy="424.9" r="1.4" fill="#383840" opacity="0.23"/>
  <circle cx="475.5" cy="432.4" r="2.6" fill="#383840" opacity="0.15"/>
  <circle cx="161.1" cy="434.2" r="1.0" fill="#383840" opacity="0.18"/>
  <circle cx="934.7" cy="405.2" r="1.4" fill="#383840" opacity="0.13"/>
  <circle cx="1086.6" cy="354.9" r="1.2" fill="#383840" opacity="0.20"/>
  <circle cx="43.3" cy="425.8" r="2.5" fill="#383840" opacity="0.25"/>
  <circle cx="949.7" cy="414.1" r="1.5" fill="#383840" opacity="0.12"/>
  <circle cx="143.1" cy="354.3" r="1.5" fill="#383840" opacity="0.25"/>
  <circle cx="1236.0" cy="360.6" r="1.8" fill="#383840" opacity="0.17"/>
  <circle cx="690.1" cy="410.0" r="2.5" fill="#383840" opacity="0.18"/>
  <circle cx="565.9" cy="430.2" r="2.6" fill="#383840" opacity="0.17"/>
  <circle cx="751.7" cy="370.5" r="2.2" fill="#383840" opacity="0.20"/>
  <circle cx="1129.9" cy="364.6" r="0.9" fill="#383840" opacity="0.24"/>
  <circle cx="323.7" cy="424.4" r="2.5" fill="#383840" opacity="0.10"/>
  <circle cx="1200.4" cy="398.4" r="2.6" fill="#383840" opacity="0.22"/>
  <circle cx="636.8" cy="399.7" r="1.2" fill="#383840" opacity="0.08"/>
  <circle cx="161.5" cy="353.2" r="1.3" fill="#383840" opacity="0.25"/>
  <circle cx="205.8" cy="375.2" r="0.9" fill="#383840" opacity="0.23"/>
  <circle cx="1262.9" cy="355.9" r="0.9" fill="#383840" opacity="0.22"/>
  <circle cx="468.7" cy="443.1" r="2.3" fill="#383840" opacity="0.26"/>
  <circle cx="830.7" cy="408.6" r="2.1" fill="#383840" opacity="0.19"/>
  <circle cx="1105.9" cy="427.2" r="1.9" fill="#383840" opacity="0.09"/>
</svg>