<svg xmlns="http://www.w3.org/2000/svg" viewBox="0 0 1280 720" width="1280" height="720">
  <!-- Base ground fill -->
  <rect width="1280" height="720" fill="#1e1e08"/>

  <!-- Ground texture blobs -->
  <ellipse cx="142.5" cy="610.4" rx="136.3" ry="60.0" transform="rotate(348,142.5,610.4)" fill="#1f1f08" opacity="0.2"/>
  <ellipse cx="789.1" cy="475.6" rx="136.5" ry="85.1" transform="rotate(105,789.1,475.6)" fill="#2a2a0c" opacity="0.2"/>
  <ellipse cx="716.5" cy="369.7" rx="136.4" ry="71.7" transform="rotate(287,716.5,369.7)" fill="#2a2a0c" opacity="0.1"/>
  <ellipse cx="1055.4" cy="618.7" rx="70.2" ry="89.8" transform="rotate(162,1055.4,618.7)" fill="#2a2a0c" opacity="0.2"/>
  <ellipse cx="703.9" cy="221.3" rx="156.6" ry="76.5" transform="rotate(99,703.9,221.3)" fill="#23230a" opacity="0.3"/>
  <ellipse cx="974.5" cy="68.6" rx="65.7" ry="74.3" transform="rotate(355,974.5,68.6)" fill="#27270b" opacity="0.2"/>
  <ellipse cx="395.7" cy="492.1" rx="86.8" ry="21.8" transform="rotate(202,395.7,492.1)" fill="#2a2a0c" opacity="0.2"/>
  <ellipse cx="225.8" cy="656.9" rx="116.4" ry="47.0" transform="rotate(135,225.8,656.9)" fill="#2a2a0c" opacity="0.1"/>
  <ellipse cx="370.4" cy="489.3" rx="72.9" ry="80.4" transform="rotate(330,370.4,489.3)" fill="#212109" opacity="0.2"/>
  <ellipse cx="853.5" cy="631.1" rx="101.5" ry="82.5" transform="rotate(346,853.5,631.1)" fill="#26260b" opacity="0.2"/>
  <ellipse cx="113.5" cy="595.8" rx="78.3" ry="64.6" transform="rotate(197,113.5,595.8)" fill="#2a2a0c" opacity="0.2"/>
  <ellipse cx="829.0" cy="150.9" rx="150.6" ry="88.7" transform="rotate(340,829.0,150.9)" fill="#202009" opacity="0.2"/>
  <ellipse cx="1224.1" cy="127.3" rx="82.8" ry="78.7" transform="rotate(87,1224.1,127.3)" fill="#222209" opacity="0.2"/>
  <ellipse cx="940.1" cy="185.9" rx="64.9" ry="24.3" transform="rotate(306,940.1,185.9)" fill="#27270b" opacity="0.3"/>
  <ellipse cx="1199.7" cy="39.2" rx="103.9" ry="84.6" transform="rotate(154,1199.7,39.2)" fill="#25250a" opacity="0.2"/>
  <ellipse cx="103.1" cy="101.3" rx="155.5" ry="47.4" transform="rotate(191,103.1,101.3)" fill="#2a2a0c" opacity="0.3"/>
  <ellipse cx="443.5" cy="482.6" rx="79.2" ry="61.1" transform="rotate(211,443.5,482.6)" fill="#27270b" opacity="0.3"/>
  <ellipse cx="583.5" cy="331.7" rx="145.8" ry="85.5" transform="rotate(265,583.5,331.7)" fill="#2a2a0c" opacity="0.2"/>
  <ellipse cx="488.5" cy="380.7" rx="92.4" ry="28.8" transform="rotate(121,488.5,380.7)" fill="#2a2a0c" opacity="0.3"/>
  <ellipse cx="286.4" cy="444.5" rx="100.6" ry="65.4" transform="rotate(91,286.4,444.5)" fill="#1f1f08" opacity="0.3"/>
  <ellipse cx="770.7" cy="548.3" rx="158.8" ry="23.4" transform="rotate(172,770.7,548.3)" fill="#25250a" opacity="0.2"/>
  <ellipse cx="485.9" cy="391.3" rx="114.9" ry="55.4" transform="rotate(64,485.9,391.3)" fill="#222209" opacity="0.2"/>
  <ellipse cx="290.9" cy="314.0" rx="105.0" ry="66.4" transform="rotate(311,290.9,314.0)" fill="#2a2a0c" opacity="0.3"/>
  <ellipse cx="509.9" cy="90.1" rx="108.8" ry="43.3" transform="rotate(31,509.9,90.1)" fill="#25250a" opacity="0.3"/>
  <ellipse cx="1044.9" cy="102.9" rx="137.4" ry="28.5" transform="rotate(64,1044.9,102.9)" fill="#29290c" opacity="0.2"/>
  <ellipse cx="539.3" cy="108.1" rx="79.8" ry="42.7" transform="rotate(25,539.3,108.1)" fill="#2a2a0c" opacity="0.3"/>
  <ellipse cx="283.6" cy="639.8" rx="150.3" ry="40.1" transform="rotate(111,283.6,639.8)" fill="#212109" opacity="0.3"/>
  <ellipse cx="685.0" cy="584.3" rx="106.6" ry="62.1" transform="rotate(105,685.0,584.3)" fill="#23230a" opacity="0.3"/>
  <ellipse cx="842.0" cy="611.7" rx="145.2" ry="39.6" transform="rotate(36,842.0,611.7)" fill="#29290c" opacity="0.3"/>
  <ellipse cx="1.3" cy="717.1" rx="92.9" ry="40.5" transform="rotate(208,1.3,717.1)" fill="#2a2a0c" opacity="0.3"/>
  <ellipse cx="908.8" cy="250.3" rx="89.8" ry="41.2" transform="rotate(147,908.8,250.3)" fill="#2a2a0c" opacity="0.2"/>
  <ellipse cx="232.3" cy="122.5" rx="80.0" ry="80.2" transform="rotate(109,232.3,122.5)" fill="#2a2a0c" opacity="0.3"/>
  <ellipse cx="640.2" cy="457.1" rx="75.9" ry="41.9" transform="rotate(240,640.2,457.1)" fill="#2a2a0c" opacity="0.2"/>
  <ellipse cx="1100.6" cy="224.4" rx="53.3" ry="64.9" transform="rotate(211,1100.6,224.4)" fill="#2a2a0c" opacity="0.2"/>
  <ellipse cx="838.2" cy="261.5" rx="150.2" ry="69.7" transform="rotate(122,838.2,261.5)" fill="#2a2a0c" opacity="0.3"/>
  <ellipse cx="1224.2" cy="247.5" rx="85.3" ry="61.1" transform="rotate(156,1224.2,247.5)" fill="#26260b" opacity="0.3"/>
  <ellipse cx="390.4" cy="650.9" rx="107.6" ry="40.9" transform="rotate(14,390.4,650.9)" fill="#26260b" opacity="0.2"/>
  <ellipse cx="1005.5" cy="658.7" rx="60.6" ry="40.2" transform="rotate(296,1005.5,658.7)" fill="#2a2a0c" opacity="0.3"/>
  <ellipse cx="523.2" cy="682.2" rx="143.0" ry="32.4" transform="rotate(147,523.2,682.2)" fill="#26260b" opacity="0.3"/>
  <ellipse cx="744.8" cy="553.8" rx="115.7" ry="75.2" transform="rotate(9,744.8,553.8)" fill="#2a2a0c" opacity="0.3"/>
  <ellipse cx="1068.5" cy="594.4" rx="137.1" ry="87.1" transform="rotate(245,1068.5,594.4)" fill="#2a2a0c" opacity="0.3"/>
  <ellipse cx="872.0" cy="538.7" rx="159.5" ry="85.3" transform="rotate(241,872.0,538.7)" fill="#2a2a0c" opacity="0.3"/>
  <ellipse cx="615.1" cy="136.7" rx="158.0" ry="62.1" transform="rotate(48,615.1,136.7)" fill="#2a2a0c" opacity="0.2"/>
  <ellipse cx="1248.1" cy="575.4" rx="153.5" ry="84.0" transform="rotate(100,1248.1,575.4)" fill="#2a2a0c" opacity="0.3"/>
  <ellipse cx="1037.5" cy="706.4" rx="85.7" ry="23.6" transform="rotate(134,1037.5,706.4)" fill="#29290c" opacity="0.3"/>

  <!-- Fine surface stipple -->
  <circle cx="1141.4" cy="343.3" r="0.8" fill="#393926" opacity="0.2"/>
  <circle cx="252.6" cy="205.2" r="0.9" fill="#1a1a07" opacity="0.4"/>
  <circle cx="283.8" cy="526.4" r="0.7" fill="#1a1a07" opacity="0.2"/>
  <circle cx="803.5" cy="634.1" r="0.9" fill="#1a1a07" opacity="0.4"/>
  <circle cx="321.1" cy="423.6" r="1.6" fill="#1a1a07" opacity="0.2"/>
  <circle cx="9.8" cy="316.0" r="1.5" fill="#1a1a07" opacity="0.2"/>
  <circle cx="88.0" cy="39.2" r="1.9" fill="#393926" opacity="0.2"/>
  <circle cx="1112.6" cy="99.0" r="1.9" fill="#393926" opacity="0.3"/>
  <circle cx="369.7" cy="494.4" r="0.6" fill="#393926" opacity="0.3"/>
  <circle cx="164.2" cy="713.4" r="1.5" fill="#393926" opacity="0.2"/>
  <circle cx="992.4" cy="657.0" r="1.5" fill="#1a1a07" opacity="0.2"/>
  <circle cx="671.0" cy="717.3" r="1.7" fill="#1a1a07" opacity="0.2"/>
  <circle cx="869.9" cy="669.6" r="1.2" fill="#393926" opacity="0.3"/>
  <circle cx="875.4" cy="192.9" r="1.5" fill="#393926" opacity="0.2"/>
  <circle cx="973.2" cy="233.6" r="0.8" fill="#1a1a07" opacity="0.2"/>
  <circle cx="769.3" cy="465.8" r="0.8" fill="#393926" opacity="0.3"/>
  <circle cx="1260.0" cy="523.7" r="1.1" fill="#1a1a07" opacity="0.2"/>
  <circle cx="463.3" cy="388.2" r="2.0" fill="#393926" opacity="0.2"/>
  <circle cx="24.9" cy="71.4" r="1.8" fill="#1a1a07" opacity="0.2"/>
  <circle cx="249.4" cy="703.9" r="2.0" fill="#393926" opacity="0.2"/>
  <circle cx="509.1" cy="67.5" r="1.4" fill="#393926" opacity="0.3"/>
  <circle cx="351.2" cy="248.9" r="1.8" fill="#1a1a07" opacity="0.3"/>
  <circle cx="420.0" cy="247.9" r="1.0" fill="#393926" opacity="0.4"/>
  <circle cx="244.1" cy="148.9" r="1.6" fill="#393926" opacity="0.3"/>
  <circle cx="167.9" cy="376.0" r="1.1" fill="#1a1a07" opacity="0.3"/>
  <circle cx="797.7" cy="87.0" r="1.8" fill="#393926" opacity="0.4"/>
  <circle cx="1248.5" cy="537.8" r="2.0" fill="#1a1a07" opacity="0.3"/>
  <circle cx="872.7" cy="440.1" r="1.8" fill="#393926" opacity="0.4"/>
  <circle cx="403.1" cy="483.1" r="1.5" fill="#393926" opacity="0.3"/>
  <circle cx="354.5" cy="144.2" r="1.7" fill="#1a1a07" opacity="0.2"/>
  <circle cx="628.0" cy="713.7" r="0.9" fill="#1a1a07" opacity="0.3"/>
  <circle cx="257.5" cy="473.3" r="1.1" fill="#393926" opacity="0.3"/>
  <circle cx="265.9" cy="298.6" r="1.5" fill="#1a1a07" opacity="0.2"/>
  <circle cx="1267.7" cy="330.3" r="1.1" fill="#1a1a07" opacity="0.4"/>
  <circle cx="594.7" cy="657.1" r="1.6" fill="#1a1a07" opacity="0.2"/>
  <circle cx="1188.7" cy="556.9" r="1.1" fill="#1a1a07" opacity="0.4"/>
  <circle cx="8.0" cy="414.9" r="1.9" fill="#393926" opacity="0.2"/>
  <circle cx="1039.3" cy="549.5" r="1.6" fill="#393926" opacity="0.3"/>
  <circle cx="824.9" cy="401.9" r="1.3" fill="#1a1a07" opacity="0.2"/>
  <circle cx="450.8" cy="307.2" r="1.5" fill="#1a1a07" opacity="0.4"/>
  <circle cx="350.2" cy="173.0" r="1.1" fill="#1a1a07" opacity="0.2"/>
  <circle cx="758.9" cy="387.5" r="1.6" fill="#393926" opacity="0.3"/>
  <circle cx="578.7" cy="490.9" r="1.1" fill="#393926" opacity="0.2"/>
  <circle cx="240.6" cy="603.8" r="0.9" fill="#393926" opacity="0.2"/>
  <circle cx="699.0" cy="47.4" r="0.8" fill="#1a1a07" opacity="0.3"/>
  <circle cx="333.8" cy="507.6" r="1.0" fill="#1a1a07" opacity="0.2"/>
  <circle cx="1152.1" cy="510.7" r="1.5" fill="#1a1a07" opacity="0.2"/>
  <circle cx="652.4" cy="691.0" r="1.3" fill="#393926" opacity="0.2"/>
  <circle cx="171.3" cy="684.8" r="0.7" fill="#393926" opacity="0.3"/>
  <circle cx="485.0" cy="671.3" r="0.8" fill="#1a1a07" opacity="0.3"/>
  <circle cx="262.0" cy="183.5" r="1.7" fill="#1a1a07" opacity="0.2"/>
  <circle cx="198.7" cy="449.0" r="0.7" fill="#1a1a07" opacity="0.2"/>
  <circle cx="1248.6" cy="685.0" r="1.6" fill="#1a1a07" opacity="0.2"/>
  <circle cx="618.5" cy="70.9" r="1.0" fill="#1a1a07" opacity="0.2"/>
  <circle cx="327.6" cy="475.9" r="1.2" fill="#393926" opacity="0.2"/>
  <circle cx="1217.3" cy="513.9" r="0.9" fill="#1a1a07" opacity="0.3"/>
  <circle cx="372.2" cy="8.1" r="1.1" fill="#1a1a07" opacity="0.4"/>
  <circle cx="149.2" cy="317.2" r="0.7" fill="#1a1a07" opacity="0.2"/>
  <circle cx="764.7" cy="305.0" r="1.5" fill="#1a1a07" opacity="0.4"/>
  <circle cx="531.4" cy="75.0" r="1.1" fill="#393926" opacity="0.4"/>
  <circle cx="587.9" cy="160.4" r="1.3" fill="#1a1a07" opacity="0.3"/>
  <circle cx="603.7" cy="86.2" r="1.9" fill="#1a1a07" opacity="0.3"/>
  <circle cx="224.5" cy="620.5" r="1.4" fill="#393926" opacity="0.3"/>
  <circle cx="556.4" cy="700.9" r="1.3" fill="#393926" opacity="0.2"/>
  <circle cx="1238.7" cy="34.4" r="1.6" fill="#393926" opacity="0.4"/>
  <circle cx="839.8" cy="698.4" r="1.0" fill="#1a1a07" opacity="0.2"/>
  <circle cx="107.2" cy="43.7" r="1.8" fill="#1a1a07" opacity="0.4"/>
  <circle cx="755.3" cy="197.9" r="1.4" fill="#1a1a07" opacity="0.3"/>
  <circle cx="922.2" cy="470.8" r="0.9" fill="#393926" opacity="0.2"/>
  <circle cx="333.3" cy="635.0" r="2.0" fill="#1a1a07" opacity="0.4"/>
  <circle cx="817.9" cy="667.4" r="1.5" fill="#393926" opacity="0.4"/>
  <circle cx="1045.8" cy="429.9" r="1.8" fill="#393926" opacity="0.3"/>
  <circle cx="1054.6" cy="138.0" r="0.9" fill="#1a1a07" opacity="0.3"/>
  <circle cx="75.3" cy="328.2" r="0.6" fill="#1a1a07" opacity="0.2"/>
  <circle cx="151.4" cy="297.8" r="0.8" fill="#1a1a07" opacity="0.2"/>
  <circle cx="796.2" cy="368.4" r="1.2" fill="#1a1a07" opacity="0.3"/>
  <circle cx="267.6" cy="644.4" r="1.9" fill="#1a1a07" opacity="0.2"/>
  <circle cx="1197.0" cy="617.5" r="1.9" fill="#1a1a07" opacity="0.2"/>
  <circle cx="269.0" cy="577.8" r="0.8" fill="#1a1a07" opacity="0.3"/>
  <circle cx="493.3" cy="499.0" r="1.6" fill="#1a1a07" opacity="0.3"/>
  <circle cx="704.4" cy="504.7" r="1.0" fill="#393926" opacity="0.2"/>
  <circle cx="357.6" cy="89.0" r="0.7" fill="#393926" opacity="0.3"/>
  <circle cx="455.4" cy="181.8" r="1.4" fill="#1a1a07" opacity="0.3"/>
  <circle cx="520.0" cy="208.6" r="1.3" fill="#393926" opacity="0.4"/>
  <circle cx="457.5" cy="587.6" r="1.1" fill="#393926" opacity="0.2"/>
  <circle cx="142.3" cy="146.5" r="1.8" fill="#393926" opacity="0.3"/>
  <circle cx="388.4" cy="494.8" r="0.8" fill="#1a1a07" opacity="0.2"/>
  <circle cx="493.0" cy="664.5" r="1.2" fill="#1a1a07" opacity="0.3"/>
  <circle cx="751.4" cy="203.2" r="1.3" fill="#1a1a07" opacity="0.3"/>
  <circle cx="279.1" cy="63.6" r="0.6" fill="#393926" opacity="0.3"/>
  <circle cx="324.8" cy="281.0" r="1.1" fill="#1a1a07" opacity="0.3"/>
  <circle cx="1204.4" cy="23.0" r="0.6" fill="#393926" opacity="0.3"/>
  <circle cx="1105.6" cy="523.4" r="1.4" fill="#393926" opacity="0.3"/>
  <circle cx="474.6" cy="542.2" r="2.0" fill="#1a1a07" opacity="0.2"/>

  <!-- Cracks and fissures -->
  <path d="M737.4,645.8 Q677.3,678.5 682.6,744.0" stroke="#101004" stroke-width="1.4" fill="none" opacity="0.5" stroke-linecap="round"/><path d="M677.3,678.5 Q650.1,727.1 662.0,761.2" stroke="#101004" stroke-width="1.4" fill="none" opacity="0.3" stroke-linecap="round"/><path d="M662.0,761.2 Q647.2,790.4 633.6,810.5" stroke="#101004" stroke-width="1.2" fill="none" opacity="0.3" stroke-linecap="round"/><path d="M647.2,790.4 Q634.0,812.5 641.8,825.5" stroke="#101004" stroke-width="0.4" fill="none" opacity="0.4" stroke-linecap="round"/><path d="M633.6,810.5 Q626.4,823.3 616.8,842.1" stroke="#101004" stroke-width="1.2" fill="none" opacity="0.5" stroke-linecap="round"/><path d="M682.6,744.0 Q682.3,778.4 641.6,818.8" stroke="#101004" stroke-width="1.6" fill="none" opacity="0.5" stroke-linecap="round"/><path d="M641.6,818.8 Q621.7,837.8 622.7,871.1" stroke="#101004" stroke-width="0.9" fill="none" opacity="0.5" stroke-linecap="round"/><path d="M621.7,837.8 Q607.4,851.7 598.8,864.7" stroke="#101004" stroke-width="0.8" fill="none" opacity="0.4" stroke-linecap="round"/><path d="M622.7,871.1 Q599.3,889.9 600.8,909.6" stroke="#101004" stroke-width="0.5" fill="none" opacity="0.3" stroke-linecap="round"/>
  <path d="M1221.2,283.5 Q1170.4,287.7 1146.5,276.2" stroke="#101004" stroke-width="1.4" fill="none" opacity="0.4" stroke-linecap="round"/><path d="M1146.5,276.2 Q1124.0,268.7 1096.2,259.6" stroke="#101004" stroke-width="1.8" fill="none" opacity="0.5" stroke-linecap="round"/><path d="M1096.2,259.6 Q1089.0,254.7 1064.8,253.8" stroke="#101004" stroke-width="0.8" fill="none" opacity="0.5" stroke-linecap="round"/><path d="M1064.8,253.8 Q1061.3,254.1 1048.1,251.4" stroke="#101004" stroke-width="0.9" fill="none" opacity="0.6" stroke-linecap="round"/>
  <path d="M337.7,312.1 Q381.2,347.9 434.4,402.1" stroke="#101004" stroke-width="1.7" fill="none" opacity="0.4" stroke-linecap="round"/><path d="M381.2,347.9 Q416.3,351.4 457.7,364.8" stroke="#101004" stroke-width="1.3" fill="none" opacity="0.5" stroke-linecap="round"/><path d="M416.3,351.4 Q419.8,361.0 450.4,382.4" stroke="#101004" stroke-width="1.4" fill="none" opacity="0.6" stroke-linecap="round"/><path d="M450.4,382.4 Q453.0,394.6 470.8,400.2" stroke="#101004" stroke-width="0.6" fill="none" opacity="0.4" stroke-linecap="round"/><path d="M457.7,364.8 Q481.2,371.8 507.9,379.2" stroke="#101004" stroke-width="1.6" fill="none" opacity="0.4" stroke-linecap="round"/><path d="M507.9,379.2 Q523.2,387.8 543.7,394.0" stroke="#101004" stroke-width="1.2" fill="none" opacity="0.3" stroke-linecap="round"/><path d="M434.4,402.1 Q473.3,454.2 504.0,475.9" stroke="#101004" stroke-width="1.0" fill="none" opacity="0.5" stroke-linecap="round"/>
  <path d="M349.5,653.0 Q314.7,661.0 236.1,653.7" stroke="#101004" stroke-width="1.5" fill="none" opacity="0.4" stroke-linecap="round"/><path d="M314.7,661.0 Q279.9,631.7 253.5,623.2" stroke="#101004" stroke-width="1.8" fill="none" opacity="0.5" stroke-linecap="round"/><path d="M279.9,631.7 Q260.9,630.5 234.3,632.6" stroke="#101004" stroke-width="0.8" fill="none" opacity="0.3" stroke-linecap="round"/>
  <path d="M417.7,35.0 Q469.5,-32.4 554.9,-77.4" stroke="#101004" stroke-width="1.6" fill="none" opacity="0.3" stroke-linecap="round"/><path d="M554.9,-77.4 Q597.8,-129.8 674.2,-161.9" stroke="#101004" stroke-width="1.4" fill="none" opacity="0.6" stroke-linecap="round"/>
  <path d="M526.7,587.8 Q622.4,597.8 662.1,582.4" stroke="#101004" stroke-width="2.1" fill="none" opacity="0.3" stroke-linecap="round"/><path d="M662.1,582.4 Q694.3,605.5 753.9,601.3" stroke="#101004" stroke-width="1.2" fill="none" opacity="0.4" stroke-linecap="round"/><path d="M694.3,605.5 Q727.4,578.4 739.9,568.3" stroke="#101004" stroke-width="1.2" fill="none" opacity="0.3" stroke-linecap="round"/><path d="M727.4,578.4 Q748.3,567.4 752.8,548.0" stroke="#101004" stroke-width="0.9" fill="none" opacity="0.3" stroke-linecap="round"/><path d="M739.9,568.3 Q747.7,554.4 774.3,532.4" stroke="#101004" stroke-width="1.0" fill="none" opacity="0.5" stroke-linecap="round"/>
  <path d="M478.5,437.5 Q415.1,484.3 366.8,535.2" stroke="#101004" stroke-width="1.3" fill="none" opacity="0.5" stroke-linecap="round"/><path d="M366.8,535.2 Q313.7,556.2 300.7,582.3" stroke="#101004" stroke-width="1.4" fill="none" opacity="0.5" stroke-linecap="round"/><path d="M313.7,556.2 Q297.0,566.1 265.4,578.6" stroke="#101004" stroke-width="1.2" fill="none" opacity="0.4" stroke-linecap="round"/><path d="M297.0,566.1 Q298.4,580.5 285.1,596.0" stroke="#101004" stroke-width="0.4" fill="none" opacity="0.3" stroke-linecap="round"/><path d="M265.4,578.6 Q260.5,584.5 237.5,594.4" stroke="#101004" stroke-width="0.4" fill="none" opacity="0.3" stroke-linecap="round"/><path d="M300.7,582.3 Q264.5,595.0 246.3,605.6" stroke="#101004" stroke-width="1.2" fill="none" opacity="0.5" stroke-linecap="round"/><path d="M264.5,595.0 Q248.7,592.1 233.8,584.2" stroke="#101004" stroke-width="0.5" fill="none" opacity="0.3" stroke-linecap="round"/><path d="M246.3,605.6 Q234.6,615.8 200.2,620.6" stroke="#101004" stroke-width="0.6" fill="none" opacity="0.5" stroke-linecap="round"/>

  <!-- Liquid pools -->
  <g transform="translate(796.0,693.8)"><g transform="rotate(185)">
<ellipse rx="34.4" ry="41.9" fill="#101002" opacity="0.4"/>
<ellipse rx="32.4" ry="39.6" fill="#141402" opacity="0.75"/>
<ellipse cx="-5.8" cy="-7.9" rx="12.3" ry="11.1" fill="#66665b" opacity="0.18"/>
</g></g>

  <!-- Craters -->
  <g transform="translate(437.0,24.7)"><circle r="87.0" fill="#656537" opacity="0.45"/>
<circle r="80.3" fill="#4a4a14" opacity="0.6"/>
<circle r="73.7" fill="#0e0e04" opacity="0.95"/>
<ellipse cx="16.2" cy="20.6" rx="53.1" ry="38.3" fill="#0a0a03" opacity="0.45"/></g>
  <g transform="translate(163.7,348.6)"><circle r="19.8" fill="#656537" opacity="0.45"/>
<circle r="18.3" fill="#4a4a14" opacity="0.6"/>
<circle r="16.7" fill="#0e0e04" opacity="0.95"/>
<ellipse cx="3.7" cy="4.7" rx="12.1" ry="8.7" fill="#0a0a03" opacity="0.45"/></g>
  <g transform="translate(62.3,332.7)"><circle r="92.5" fill="#656537" opacity="0.45"/>
<circle r="85.5" fill="#4a4a14" opacity="0.6"/>
<circle r="78.4" fill="#0e0e04" opacity="0.95"/>
<ellipse cx="17.2" cy="22.0" rx="56.4" ry="40.8" fill="#0a0a03" opacity="0.45"/></g>

  <!-- Lichen / moss patches -->
  <g transform="translate(237.4,239.5)"><g transform="rotate(296)"><ellipse cx="25.3" cy="0.0" rx="16.0" ry="9.5" fill="#484818" opacity="0.5"/><ellipse cx="8.7" cy="9.6" rx="21.1" ry="5.8" fill="#484818" opacity="0.6"/><ellipse cx="-24.6" cy="4.0" rx="20.6" ry="4.4" fill="#484818" opacity="0.5"/><ellipse cx="-16.2" cy="-6.8" rx="15.2" ry="6.2" fill="#484818" opacity="0.5"/><ellipse cx="8.8" cy="-6.0" rx="24.4" ry="9.5" fill="#484818" opacity="0.4"/></g></g>
  <g transform="translate(276.9,525.9)"><g transform="rotate(114)"><ellipse cx="23.4" cy="0.0" rx="24.7" ry="14.6" fill="#484818" opacity="0.5"/><ellipse cx="8.1" cy="9.3" rx="18.2" ry="5.9" fill="#484818" opacity="0.5"/><ellipse cx="-17.2" cy="6.3" rx="9.0" ry="18.0" fill="#484818" opacity="0.4"/><ellipse cx="-14.9" cy="-5.2" rx="20.1" ry="6.1" fill="#484818" opacity="0.4"/><ellipse cx="7.3" cy="-11.1" rx="23.3" ry="7.1" fill="#484818" opacity="0.6"/></g></g>
  <g transform="translate(227.1,442.1)"><g transform="rotate(253)"><ellipse cx="24.7" cy="0.0" rx="26.3" ry="5.8" fill="#484818" opacity="0.5"/><ellipse cx="8.2" cy="14.2" rx="26.9" ry="10.2" fill="#484818" opacity="0.4"/><ellipse cx="-11.3" cy="9.8" rx="6.4" ry="14.9" fill="#484818" opacity="0.6"/><ellipse cx="-20.3" cy="0.0" rx="10.8" ry="10.4" fill="#484818" opacity="0.4"/><ellipse cx="-9.3" cy="-13.2" rx="8.4" ry="10.5" fill="#484818" opacity="0.4"/><ellipse cx="10.9" cy="-9.1" rx="10.1" ry="4.9" fill="#484818" opacity="0.5"/></g></g>
  <g transform="translate(1191.5,617.4)"><g transform="rotate(278)"><ellipse cx="16.8" cy="0.0" rx="19.3" ry="8.1" fill="#484818" opacity="0.5"/><ellipse cx="5.0" cy="14.3" rx="17.6" ry="15.9" fill="#484818" opacity="0.5"/><ellipse cx="-11.0" cy="10.3" rx="9.7" ry="28.1" fill="#484818" opacity="0.5"/><ellipse cx="-15.1" cy="-9.8" rx="11.2" ry="18.4" fill="#484818" opacity="0.4"/><ellipse cx="5.6" cy="-23.0" rx="9.4" ry="18.6" fill="#484818" opacity="0.4"/></g></g>
  <g transform="translate(1270.9,6.1)"><g transform="rotate(6)"><ellipse cx="17.0" cy="0.0" rx="10.4" ry="5.9" fill="#484818" opacity="0.4"/><ellipse cx="0.0" cy="9.9" rx="12.7" ry="4.2" fill="#484818" opacity="0.5"/><ellipse cx="-11.3" cy="0.0" rx="12.5" ry="9.3" fill="#484818" opacity="0.6"/><ellipse cx="-0.0" cy="-11.3" rx="9.8" ry="11.2" fill="#484818" opacity="0.6"/></g></g>
  <g transform="translate(773.7,431.1)"><g transform="rotate(313)"><ellipse cx="12.5" cy="0.0" rx="5.3" ry="2.5" fill="#484818" opacity="0.6"/><ellipse cx="3.8" cy="3.8" rx="5.7" ry="2.0" fill="#484818" opacity="0.4"/><ellipse cx="-10.1" cy="2.0" rx="6.4" ry="2.7" fill="#484818" opacity="0.4"/><ellipse cx="-10.1" cy="-1.5" rx="7.4" ry="2.2" fill="#484818" opacity="0.6"/><ellipse cx="3.5" cy="-3.4" rx="5.4" ry="2.9" fill="#484818" opacity="0.4"/></g></g>
  <g transform="translate(1236.3,507.4)"><g transform="rotate(183)"><ellipse cx="16.3" cy="0.0" rx="18.9" ry="7.5" fill="#484818" opacity="0.4"/><ellipse cx="12.7" cy="11.9" rx="24.4" ry="12.9" fill="#484818" opacity="0.5"/><ellipse cx="-10.5" cy="16.1" rx="5.1" ry="5.8" fill="#484818" opacity="0.4"/><ellipse cx="-16.2" cy="0.0" rx="18.8" ry="12.5" fill="#484818" opacity="0.6"/><ellipse cx="-11.1" cy="-9.0" rx="17.7" ry="17.0" fill="#484818" opacity="0.6"/><ellipse cx="8.5" cy="-16.0" rx="8.6" ry="6.6" fill="#484818" opacity="0.6"/></g></g>
  <g transform="translate(567.1,260.4)"><g transform="rotate(180)"><ellipse cx="20.9" cy="0.0" rx="7.5" ry="8.2" fill="#484818" opacity="0.4"/><ellipse cx="5.1" cy="10.0" rx="13.6" ry="8.0" fill="#484818" opacity="0.4"/><ellipse cx="-16.7" cy="4.3" rx="7.0" ry="7.0" fill="#484818" opacity="0.5"/><ellipse cx="-14.0" cy="-6.7" rx="12.5" ry="9.0" fill="#484818" opacity="0.5"/><ellipse cx="4.7" cy="-12.9" rx="10.7" ry="5.1" fill="#484818" opacity="0.6"/></g></g>
  <g transform="translate(975.6,13.5)"><g transform="rotate(102)"><ellipse cx="37.8" cy="0.0" rx="40.0" ry="12.3" fill="#484818" opacity="0.5"/><ellipse cx="0.0" cy="11.1" rx="32.0" ry="22.5" fill="#484818" opacity="0.5"/><ellipse cx="-26.7" cy="0.0" rx="13.2" ry="10.4" fill="#484818" opacity="0.4"/><ellipse cx="-0.0" cy="-14.8" rx="20.8" ry="12.9" fill="#484818" opacity="0.5"/></g></g>

  <!-- Crystal formations -->
  <g transform="translate(708.6,397.9)"><polygon points="-4.2,-4.0 1.0,-0.3 5.7,-4.7 6.0,1.7 12.3,2.7 7.6,6.9 10.7,12.5 4.5,11.4 2.1,17.3 -1.0,11.8 -7.1,13.6 -4.6,7.7 -9.9,4.1 -3.8,2.3" fill="#3e3e1a" opacity="0.35"/><polygon points="-7.2,-8.2 -2.0,-4.5 2.7,-8.9 3.0,-2.5 9.3,-1.5 4.6,2.7 7.7,8.3 1.5,7.2 -0.9,13.1 -4.0,7.6 -10.1,9.4 -7.6,3.5 -12.9,-0.1 -6.8,-1.9" fill="#606028" opacity="0.82"/><polygon points="-7.2,-8.2 -2.0,-4.5 2.7,-8.9 3.0,-2.5 9.3,-1.5 4.6,2.7 7.7,8.3 1.5,7.2 -0.9,13.1 -4.0,7.6 -10.1,9.4 -7.6,3.5 -12.9,-0.1 -6.8,-1.9" fill="#a0a07e" transform="scale(0.38) translate(-4.3,4.6)" opacity="0.45"/><polygon points="15.6,8.6 8.7,5.5 5.8,12.6 4.9,5.0 -2.6,6.0 3.5,1.5 -1.2,-4.5 5.8,-1.5 8.7,-8.5 9.6,-1.0 17.1,-2.0 11.0,2.5" fill="#3e3e1a" opacity="0.35"/><polygon points="12.6,4.4 5.7,1.3 2.8,8.4 1.9,0.8 -5.6,1.8 0.5,-2.7 -4.2,-8.7 2.8,-5.7 5.7,-12.7 6.6,-5.2 14.1,-6.2 8.0,-1.7" fill="#606028" opacity="0.82"/><polygon points="12.6,4.4 5.7,1.3 2.8,8.4 1.9,0.8 -5.6,1.8 0.5,-2.7 -4.2,-8.7 2.8,-5.7 5.7,-12.7 6.6,-5.2 14.1,-6.2 8.0,-1.7" fill="#a0a07e" transform="scale(0.38) translate(11.2,-5.8)" opacity="0.45"/></g>
  <g transform="translate(1179.3,127.7)"><polygon points="7.4,2.9 1.9,8.3 0.8,15.9 -4.6,10.5 -12.1,9.3 -6.7,3.9 -5.6,-3.6 -0.2,1.8" fill="#3e3e1a" opacity="0.35"/><polygon points="4.4,-1.3 -1.1,4.1 -2.2,11.7 -7.6,6.3 -15.1,5.1 -9.7,-0.3 -8.6,-7.8 -3.2,-2.4" fill="#606028" opacity="0.82"/><polygon points="4.4,-1.3 -1.1,4.1 -2.2,11.7 -7.6,6.3 -15.1,5.1 -9.7,-0.3 -8.6,-7.8 -3.2,-2.4" fill="#a0a07e" transform="scale(0.38) translate(-14.2,5.1)" opacity="0.45"/><polygon points="-6.7,-12.8 4.6,-1.4 15.0,-13.7 10.7,1.9 26.5,4.7 11.0,8.7 16.4,23.9 5.1,12.4 -5.3,24.8 -1.0,9.2 -16.9,6.4 -1.3,2.3" fill="#3e3e1a" opacity="0.35"/><polygon points="-9.7,-17.0 1.6,-5.6 12.0,-17.9 7.7,-2.3 23.5,0.5 8.0,4.5 13.4,19.7 2.1,8.2 -8.3,20.6 -4.0,5.0 -19.9,2.2 -4.3,-1.9" fill="#606028" opacity="0.82"/><polygon points="-9.7,-17.0 1.6,-5.6 12.0,-17.9 7.7,-2.3 23.5,0.5 8.0,4.5 13.4,19.7 2.1,8.2 -8.3,20.6 -4.0,5.0 -19.9,2.2 -4.3,-1.9" fill="#a0a07e" transform="scale(0.38) translate(4.9,3.5)" opacity="0.45"/><polygon points="21.5,-7.8 10.6,1.1 7.4,14.8 -1.5,3.9 -15.3,0.7 -4.3,-8.2 -1.1,-22.0 7.8,-11.0" fill="#3e3e1a" opacity="0.35"/><polygon points="18.5,-12.0 7.6,-3.1 4.4,10.6 -4.5,-0.3 -18.3,-3.5 -7.3,-12.4 -4.1,-26.2 4.8,-15.2" fill="#606028" opacity="0.82"/><polygon points="18.5,-12.0 7.6,-3.1 4.4,10.6 -4.5,-0.3 -18.3,-3.5 -7.3,-12.4 -4.1,-26.2 4.8,-15.2" fill="#a0a07e" transform="scale(0.38) translate(0.3,-20.5)" opacity="0.45"/><polygon points="-0.6,26.1 0.8,15.9 -8.7,12.1 0.8,8.3 -0.6,-1.9 7.5,4.4 15.6,-1.9 14.2,8.3 23.6,12.1 14.1,16.0 15.5,26.1 7.5,19.8" fill="#3e3e1a" opacity="0.35"/><polygon points="-3.6,21.9 -2.2,11.7 -11.7,7.9 -2.2,4.1 -3.6,-6.1 4.5,0.2 12.6,-6.1 11.2,4.1 20.6,7.9 11.1,11.8 12.5,21.9 4.5,15.6" fill="#606028" opacity="0.82"/><polygon points="-3.6,21.9 -2.2,11.7 -11.7,7.9 -2.2,4.1 -3.6,-6.1 4.5,0.2 12.6,-6.1 11.2,4.1 20.6,7.9 11.1,11.8 12.5,21.9 4.5,15.6" fill="#a0a07e" transform="scale(0.38) translate(11.8,20.8)" opacity="0.45"/></g>
  <g transform="translate(898.7,551.0)"><polygon points="-1.8,20.6 0.2,12.0 -7.8,8.4 0.1,4.6 -2.1,-3.9 5.8,-0.0 11.1,-7.0 13.1,1.5 21.8,1.3 16.3,8.1 22.0,14.9 13.2,14.8 11.5,23.4 6.0,16.6" fill="#3e3e1a" opacity="0.35"/><polygon points="-4.8,16.4 -2.8,7.8 -10.8,4.2 -2.9,0.4 -5.1,-8.1 2.8,-4.2 8.1,-11.2 10.1,-2.7 18.8,-2.9 13.3,3.9 19.0,10.7 10.2,10.6 8.5,19.2 3.0,12.4" fill="#606028" opacity="0.82"/><polygon points="-4.8,16.4 -2.8,7.8 -10.8,4.2 -2.9,0.4 -5.1,-8.1 2.8,-4.2 8.1,-11.2 10.1,-2.7 18.8,-2.9 13.3,3.9 19.0,10.7 10.2,10.6 8.5,19.2 3.0,12.4" fill="#a0a07e" transform="scale(0.38) translate(12.7,10.6)" opacity="0.45"/><polygon points="23.1,12.4 12.9,11.8 14.4,21.9 8.5,13.6 1.6,21.1 4.4,11.3 -5.8,10.5 3.6,6.6 -2.1,-1.9 6.8,3.1 9.8,-6.7 11.6,3.4 21.1,-0.3 14.3,7.3" fill="#3e3e1a" opacity="0.35"/><polygon points="20.1,8.2 9.9,7.6 11.4,17.7 5.5,9.4 -1.4,16.9 1.4,7.1 -8.8,6.3 0.6,2.4 -5.1,-6.1 3.8,-1.1 6.8,-10.9 8.6,-0.8 18.1,-4.5 11.3,3.1" fill="#606028" opacity="0.82"/><polygon points="20.1,8.2 9.9,7.6 11.4,17.7 5.5,9.4 -1.4,16.9 1.4,7.1 -8.8,6.3 0.6,2.4 -5.1,-6.1 3.8,-1.1 6.8,-10.9 8.6,-0.8 18.1,-4.5 11.3,3.1" fill="#a0a07e" transform="scale(0.38) translate(15.4,10.4)" opacity="0.45"/><polygon points="14.6,-6.8 9.8,4.9 19.7,12.8 7.1,11.9 2.6,23.8 -0.5,11.5 -13.1,10.9 -2.4,4.2 -5.7,-8.0 4.0,0.1" fill="#3e3e1a" opacity="0.35"/><polygon points="11.6,-11.0 6.8,0.7 16.7,8.6 4.1,7.7 -0.4,19.6 -3.5,7.3 -16.1,6.7 -5.4,-0.0 -8.7,-12.2 1.0,-4.1" fill="#606028" opacity="0.82"/><polygon points="11.6,-11.0 6.8,0.7 16.7,8.6 4.1,7.7 -0.4,19.6 -3.5,7.3 -16.1,6.7 -5.4,-0.0 -8.7,-12.2 1.0,-4.1" fill="#a0a07e" transform="scale(0.38) translate(1.6,6.1)" opacity="0.45"/></g>
  <g transform="translate(713.6,563.5)"><polygon points="12.2,-10.1 5.5,0.3 15.6,7.3 3.3,6.7 2.2,19.0 -3.4,8.0 -14.6,13.2 -7.9,2.9 -18.0,-4.2 -5.7,-3.6 -4.6,-15.8 1.0,-4.9" fill="#3e3e1a" opacity="0.35"/><polygon points="9.2,-14.3 2.5,-3.9 12.6,3.1 0.3,2.5 -0.8,14.8 -6.4,3.8 -17.6,9.0 -10.9,-1.3 -21.0,-8.4 -8.7,-7.8 -7.6,-20.0 -2.0,-9.1" fill="#606028" opacity="0.82"/><polygon points="9.2,-14.3 2.5,-3.9 12.6,3.1 0.3,2.5 -0.8,14.8 -6.4,3.8 -17.6,9.0 -10.9,-1.3 -21.0,-8.4 -8.7,-7.8 -7.6,-20.0 -2.0,-9.1" fill="#a0a07e" transform="scale(0.38) translate(-11.1,-6.9)" opacity="0.45"/><polygon points="12.5,11.5 4.6,9.7 -1.0,15.7 0.8,7.8 -5.1,2.2 2.8,4.0 8.3,-1.9 6.5,6.0" fill="#3e3e1a" opacity="0.35"/><polygon points="9.5,7.3 1.6,5.5 -4.0,11.5 -2.2,3.6 -8.1,-2.0 -0.2,-0.2 5.3,-6.1 3.5,1.8" fill="#606028" opacity="0.82"/><polygon points="9.5,7.3 1.6,5.5 -4.0,11.5 -2.2,3.6 -8.1,-2.0 -0.2,-0.2 5.3,-6.1 3.5,1.8" fill="#a0a07e" transform="scale(0.38) translate(1.8,7.0)" opacity="0.45"/><polygon points="10.8,-14.3 8.8,-2.0 21.3,-0.7 10.4,5.4 17.2,15.9 5.6,11.2 1.6,23.1 -1.9,11.1 -13.7,15.4 -6.6,5.1 -17.2,-1.4 -4.8,-2.2 -6.3,-14.6 2.1,-5.4" fill="#3e3e1a" opacity="0.35"/><polygon points="7.8,-18.5 5.8,-6.2 18.3,-4.9 7.4,1.2 14.2,11.7 2.6,7.0 -1.4,18.9 -4.9,6.9 -16.7,11.2 -9.6,0.9 -20.2,-5.6 -7.8,-6.4 -9.3,-18.8 -0.9,-9.6" fill="#606028" opacity="0.82"/><polygon points="7.8,-18.5 5.8,-6.2 18.3,-4.9 7.4,1.2 14.2,11.7 2.6,7.0 -1.4,18.9 -4.9,6.9 -16.7,11.2 -9.6,0.9 -20.2,-5.6 -7.8,-6.4 -9.3,-18.8 -0.9,-9.6" fill="#a0a07e" transform="scale(0.38) translate(-2.7,-2.3)" opacity="0.45"/></g>
  <g transform="translate(923.6,555.0)"><polygon points="-13.4,3.2 -0.7,-3.1 -9.6,-14.0 3.2,-8.0 6.1,-21.8 9.4,-8.0 22.0,-14.3 13.3,-3.2 26.1,2.8 12.0,2.9 15.3,16.6 6.4,5.7 -2.3,16.8 0.8,3.0" fill="#3e3e1a" opacity="0.35"/><polygon points="-16.4,-1.0 -3.7,-7.3 -12.6,-18.2 0.2,-12.2 3.1,-26.0 6.4,-12.2 19.0,-18.5 10.3,-7.4 23.1,-1.4 9.0,-1.3 12.3,12.4 3.4,1.5 -5.3,12.6 -2.2,-1.2" fill="#606028" opacity="0.82"/><polygon points="-16.4,-1.0 -3.7,-7.3 -12.6,-18.2 0.2,-12.2 3.1,-26.0 6.4,-12.2 19.0,-18.5 10.3,-7.4 23.1,-1.4 9.0,-1.3 12.3,12.4 3.4,1.5 -5.3,12.6 -2.2,-1.2" fill="#a0a07e" transform="scale(0.38) translate(8.8,-15.1)" opacity="0.45"/><polygon points="-13.9,0.5 0.0,0.7 -1.4,-13.1 5.4,-1.0 16.6,-9.1 9.5,2.8 22.1,8.5 8.3,8.3 9.7,22.1 2.9,10.0 -8.3,18.1 -1.2,6.2" fill="#3e3e1a" opacity="0.35"/><polygon points="-16.9,-3.7 -3.0,-3.5 -4.4,-17.3 2.4,-5.2 13.6,-13.3 6.5,-1.4 19.1,4.3 5.3,4.1 6.7,17.9 -0.1,5.8 -11.3,13.9 -4.2,2.0" fill="#606028" opacity="0.82"/><polygon points="-16.9,-3.7 -3.0,-3.5 -4.4,-17.3 2.4,-5.2 13.6,-13.3 6.5,-1.4 19.1,4.3 5.3,4.1 6.7,17.9 -0.1,5.8 -11.3,13.9 -4.2,2.0" fill="#a0a07e" transform="scale(0.38) translate(3.0,0.8)" opacity="0.45"/><polygon points="16.3,23.4 6.7,15.5 -5.0,20.0 -0.5,8.4 -8.3,-1.2 4.1,-0.5 10.9,-11.0 14.0,1.0 26.1,4.2 15.6,11.0" fill="#3e3e1a" opacity="0.35"/><polygon points="13.3,19.2 3.7,11.3 -8.0,15.8 -3.5,4.2 -11.3,-5.4 1.1,-4.7 7.9,-15.2 11.0,-3.2 23.1,0.0 12.6,6.8" fill="#606028" opacity="0.82"/><polygon points="13.3,19.2 3.7,11.3 -8.0,15.8 -3.5,4.2 -11.3,-5.4 1.1,-4.7 7.9,-15.2 11.0,-3.2 23.1,0.0 12.6,6.8" fill="#a0a07e" transform="scale(0.38) translate(13.1,7.6)" opacity="0.45"/><polygon points="2.5,2.1 10.2,5.1 14.3,-2.1 13.8,6.2 21.9,7.9 13.9,10.0 14.8,18.3 10.3,11.3 2.7,14.7 8.0,8.3" fill="#3e3e1a" opacity="0.35"/><polygon points="-0.5,-2.1 7.2,0.9 11.3,-6.3 10.8,2.0 18.9,3.7 10.9,5.8 11.8,14.1 7.3,7.1 -0.3,10.5 5.0,4.1" fill="#606028" opacity="0.82"/><polygon points="-0.5,-2.1 7.2,0.9 11.3,-6.3 10.8,2.0 18.9,3.7 10.9,5.8 11.8,14.1 7.3,7.1 -0.3,10.5 5.0,4.1" fill="#a0a07e" transform="scale(0.38) translate(21.7,10.5)" opacity="0.45"/></g>
  <g transform="translate(405.1,677.6)"><polygon points="-4.9,-17.8 9.2,-11.5 19.4,-23.1 17.8,-7.7 31.9,-1.6 16.8,1.6 15.3,16.9 7.6,3.6 -7.4,6.9 2.9,-4.5" fill="#3e3e1a" opacity="0.35"/><polygon points="-7.9,-22.0 6.2,-15.7 16.4,-27.3 14.8,-11.9 28.9,-5.8 13.8,-2.6 12.3,12.7 4.6,-0.6 -10.4,2.7 -0.1,-8.7" fill="#606028" opacity="0.82"/><polygon points="-7.9,-22.0 6.2,-15.7 16.4,-27.3 14.8,-11.9 28.9,-5.8 13.8,-2.6 12.3,12.7 4.6,-0.6 -10.4,2.7 -0.1,-8.7" fill="#a0a07e" transform="scale(0.38) translate(20.6,-20.9)" opacity="0.45"/><polygon points="-10.5,-14.8 3.5,-10.8 15.0,-19.8 15.6,-5.2 27.7,2.9 14.0,8.0 10.0,22.0 1.0,10.5 -13.6,11.0 -5.5,-1.1" fill="#3e3e1a" opacity="0.35"/><polygon points="-13.5,-19.0 0.5,-15.0 12.0,-24.0 12.6,-9.4 24.7,-1.3 11.0,3.8 7.0,17.8 -2.0,6.3 -16.6,6.8 -8.5,-5.3" fill="#606028" opacity="0.82"/><polygon points="-13.5,-19.0 0.5,-15.0 12.0,-24.0 12.6,-9.4 24.7,-1.3 11.0,3.8 7.0,17.8 -2.0,6.3 -16.6,6.8 -8.5,-5.3" fill="#a0a07e" transform="scale(0.38) translate(7.1,-10.3)" opacity="0.45"/><polygon points="-12.6,26.3 -4.1,12.3 -10.7,-2.8 3.4,5.8 18.4,-0.9 9.9,13.2 16.5,28.3 2.5,19.7" fill="#3e3e1a" opacity="0.35"/><polygon points="-15.6,22.1 -7.1,8.1 -13.7,-7.0 0.4,1.6 15.4,-5.1 6.9,9.0 13.5,24.1 -0.5,15.5" fill="#606028" opacity="0.82"/><polygon points="-15.6,22.1 -7.1,8.1 -13.7,-7.0 0.4,1.6 15.4,-5.1 6.9,9.0 13.5,24.1 -0.5,15.5" fill="#a0a07e" transform="scale(0.38) translate(-0.2,22.5)" opacity="0.45"/></g>

  <!-- Rocks and pebbles -->
  <g transform="translate(174.3,285.7)"><g transform="rotate(206)">
<ellipse cx="5.0" cy="7.0" rx="21.0" ry="12.6" fill="#1f1f09" opacity="0.45"/>
<ellipse rx="19.4" ry="14.0" fill="#383810" opacity="0.92"/>
<ellipse cx="-4.3" cy="-3.9" rx="7.4" ry="3.9" fill="#646445" opacity="0.28"/>
</g></g>
  <g transform="translate(495.2,40.1)"><g transform="rotate(271)">
<ellipse cx="5.0" cy="7.0" rx="26.9" ry="13.5" fill="#1f1f09" opacity="0.45"/>
<ellipse rx="24.9" ry="14.9" fill="#383810" opacity="0.92"/>
<ellipse cx="-5.5" cy="-4.2" rx="9.5" ry="4.2" fill="#646445" opacity="0.28"/>
</g></g>
  <g transform="translate(1255.2,559.9)"><circle cx="-3.6" cy="-4.3" r="5.6" fill="#22220a" opacity="0.35"/><circle cx="-6.1" cy="-7.8" r="5.3" fill="#32320e" opacity="0.88"/><circle cx="-2.3" cy="4.0" r="6.0" fill="#22220a" opacity="0.35"/><circle cx="-4.8" cy="0.5" r="5.7" fill="#4c4c28" opacity="0.88"/><circle cx="8.6" cy="10.9" r="2.1" fill="#22220a" opacity="0.35"/><circle cx="6.1" cy="7.4" r="2.0" fill="#4c4c28" opacity="0.88"/><circle cx="-6.3" cy="7.4" r="4.3" fill="#22220a" opacity="0.35"/><circle cx="-8.8" cy="3.9" r="4.1" fill="#32320e" opacity="0.88"/><circle cx="-2.1" cy="8.7" r="3.3" fill="#22220a" opacity="0.35"/><circle cx="-4.6" cy="5.2" r="3.2" fill="#32320e" opacity="0.88"/><circle cx="12.9" cy="-2.6" r="4.8" fill="#22220a" opacity="0.35"/><circle cx="10.4" cy="-6.1" r="4.5" fill="#32320e" opacity="0.88"/><circle cx="-4.9" cy="4.0" r="2.4" fill="#22220a" opacity="0.35"/><circle cx="-7.4" cy="0.5" r="2.3" fill="#4c4c28" opacity="0.88"/></g>
  <g transform="translate(862.1,426.5)"><circle cx="-0.7" cy="5.4" r="3.4" fill="#22220a" opacity="0.35"/><circle cx="-3.2" cy="1.9" r="3.3" fill="#32320e" opacity="0.88"/><circle cx="-1.5" cy="7.6" r="1.6" fill="#22220a" opacity="0.35"/><circle cx="-4.0" cy="4.1" r="1.5" fill="#32320e" opacity="0.88"/><circle cx="-3.2" cy="0.3" r="3.3" fill="#22220a" opacity="0.35"/><circle cx="-5.7" cy="-3.2" r="3.2" fill="#32320e" opacity="0.88"/><circle cx="2.6" cy="1.9" r="2.3" fill="#22220a" opacity="0.35"/><circle cx="0.1" cy="-1.6" r="2.2" fill="#32320e" opacity="0.88"/><circle cx="-3.0" cy="5.8" r="3.2" fill="#22220a" opacity="0.35"/><circle cx="-5.5" cy="2.3" r="3.0" fill="#32320e" opacity="0.88"/><circle cx="-0.4" cy="7.3" r="2.6" fill="#22220a" opacity="0.35"/><circle cx="-2.9" cy="3.8" r="2.5" fill="#32320e" opacity="0.88"/></g>
  <g transform="translate(921.4,571.7)"><g transform="rotate(278)">
<ellipse cx="5.0" cy="7.0" rx="16.8" ry="6.1" fill="#1f1f09" opacity="0.45"/>
<ellipse rx="15.6" ry="6.8" fill="#383810" opacity="0.92"/>
<ellipse cx="-3.4" cy="-1.9" rx="5.9" ry="1.9" fill="#646445" opacity="0.28"/>
</g></g>
  <g transform="translate(367.3,251.1)"><g transform="rotate(299)">
<ellipse cx="5.0" cy="7.0" rx="17.7" ry="15.9" fill="#1f1f09" opacity="0.45"/>
<ellipse rx="16.4" ry="17.6" fill="#383810" opacity="0.92"/>
<ellipse cx="-3.6" cy="-4.9" rx="6.2" ry="4.9" fill="#646445" opacity="0.28"/>
</g></g>
  <g transform="translate(667.0,327.4)"><circle cx="2.1" cy="-6.0" r="7.1" fill="#22220a" opacity="0.35"/><circle cx="-0.4" cy="-9.5" r="6.8" fill="#32320e" opacity="0.88"/><circle cx="7.6" cy="2.0" r="6.3" fill="#22220a" opacity="0.35"/><circle cx="5.1" cy="-1.5" r="6.0" fill="#32320e" opacity="0.88"/><circle cx="17.6" cy="-8.0" r="7.6" fill="#22220a" opacity="0.35"/><circle cx="15.1" cy="-11.5" r="7.2" fill="#4c4c28" opacity="0.88"/><circle cx="16.6" cy="6.1" r="8.9" fill="#22220a" opacity="0.35"/><circle cx="14.1" cy="2.6" r="8.5" fill="#32320e" opacity="0.88"/><circle cx="1.1" cy="2.1" r="5.2" fill="#22220a" opacity="0.35"/><circle cx="-1.4" cy="-1.4" r="5.0" fill="#4c4c28" opacity="0.88"/><circle cx="5.6" cy="-4.0" r="5.6" fill="#22220a" opacity="0.35"/><circle cx="3.1" cy="-7.5" r="5.3" fill="#32320e" opacity="0.88"/></g>
  <g transform="translate(949.5,368.4)"><g transform="rotate(20)">
<ellipse cx="5.0" cy="7.0" rx="33.9" ry="13.8" fill="#1f1f09" opacity="0.45"/>
<ellipse rx="31.4" ry="15.3" fill="#383810" opacity="0.92"/>
<ellipse cx="-6.9" cy="-4.3" rx="11.9" ry="4.3" fill="#646445" opacity="0.28"/>
</g></g>
  <g transform="translate(870.4,324.9)"><g transform="rotate(353)">
<ellipse cx="5.0" cy="7.0" rx="12.3" ry="10.9" fill="#1f1f09" opacity="0.45"/>
<ellipse rx="11.4" ry="12.1" fill="#383810" opacity="0.92"/>
<ellipse cx="-2.5" cy="-3.4" rx="4.3" ry="3.4" fill="#646445" opacity="0.28"/>
</g></g>
  <g transform="translate(1272.6,142.3)"><circle cx="-1.0" cy="5.0" r="4.6" fill="#22220a" opacity="0.35"/><circle cx="-3.5" cy="1.5" r="4.3" fill="#4c4c28" opacity="0.88"/><circle cx="-1.5" cy="7.7" r="4.7" fill="#22220a" opacity="0.35"/><circle cx="-4.0" cy="4.2" r="4.5" fill="#32320e" opacity="0.88"/><circle cx="-0.8" cy="-0.2" r="2.0" fill="#22220a" opacity="0.35"/><circle cx="-3.3" cy="-3.7" r="1.9" fill="#32320e" opacity="0.88"/></g>
  <g transform="translate(904.8,226.8)"><circle cx="5.4" cy="-4.8" r="7.7" fill="#22220a" opacity="0.35"/><circle cx="2.9" cy="-8.3" r="7.4" fill="#32320e" opacity="0.88"/><circle cx="-10.1" cy="12.0" r="6.8" fill="#22220a" opacity="0.35"/><circle cx="-12.6" cy="8.5" r="6.5" fill="#4c4c28" opacity="0.88"/><circle cx="1.0" cy="10.9" r="2.9" fill="#22220a" opacity="0.35"/><circle cx="-1.5" cy="7.4" r="2.8" fill="#32320e" opacity="0.88"/><circle cx="14.1" cy="10.6" r="6.0" fill="#22220a" opacity="0.35"/><circle cx="11.6" cy="7.1" r="5.7" fill="#4c4c28" opacity="0.88"/><circle cx="-12.4" cy="1.4" r="6.6" fill="#22220a" opacity="0.35"/><circle cx="-14.9" cy="-2.1" r="6.3" fill="#4c4c28" opacity="0.88"/></g>

  <!-- Alien rosette flora -->
  <g transform="translate(498.7,604.6)" opacity="0.7"><ellipse cx="9.4" cy="0.0" rx="13.4" ry="6.1" transform="rotate(0.0,9.4,0.0)" fill="#484818" opacity="0.9"/><ellipse cx="2.9" cy="8.9" rx="13.4" ry="6.1" transform="rotate(72.0,2.9,8.9)" fill="#484818" opacity="0.9"/><ellipse cx="-7.6" cy="5.5" rx="13.4" ry="6.1" transform="rotate(144.0,-7.6,5.5)" fill="#484818" opacity="0.7"/><ellipse cx="-7.6" cy="-5.5" rx="13.4" ry="6.1" transform="rotate(216.0,-7.6,-5.5)" fill="#484818" opacity="0.8"/><ellipse cx="2.9" cy="-8.9" rx="13.4" ry="6.1" transform="rotate(288.0,2.9,-8.9)" fill="#484818" opacity="0.7"/><circle cx="0" cy="0" r="7.9" fill="#767652" opacity="0.8"/></g>
  <g transform="translate(104.9,418.6)" opacity="0.9"><ellipse cx="6.8" cy="0.0" rx="9.7" ry="5.9" transform="rotate(0.0,6.8,0.0)" fill="#484818" opacity="0.9"/><ellipse cx="2.1" cy="6.4" rx="9.7" ry="5.9" transform="rotate(72.0,2.1,6.4)" fill="#484818" opacity="0.7"/><ellipse cx="-5.5" cy="4.0" rx="9.7" ry="5.9" transform="rotate(144.0,-5.5,4.0)" fill="#484818" opacity="0.9"/><ellipse cx="-5.5" cy="-4.0" rx="9.7" ry="5.9" transform="rotate(216.0,-5.5,-4.0)" fill="#484818" opacity="0.8"/><ellipse cx="2.1" cy="-6.4" rx="9.7" ry="5.9" transform="rotate(288.0,2.1,-6.4)" fill="#484818" opacity="0.7"/><circle cx="0" cy="0" r="7.6" fill="#767652" opacity="0.8"/></g>
  <g transform="translate(1086.4,484.4)" opacity="0.6"><ellipse cx="6.9" cy="0.0" rx="9.8" ry="3.9" transform="rotate(0.0,6.9,0.0)" fill="#484818" opacity="0.7"/><ellipse cx="4.9" cy="4.9" rx="9.8" ry="3.9" transform="rotate(45.0,4.9,4.9)" fill="#484818" opacity="0.8"/><ellipse cx="0.0" cy="6.9" rx="9.8" ry="3.9" transform="rotate(90.0,0.0,6.9)" fill="#484818" opacity="0.9"/><ellipse cx="-4.9" cy="4.9" rx="9.8" ry="3.9" transform="rotate(135.0,-4.9,4.9)" fill="#484818" opacity="0.7"/><ellipse cx="-6.9" cy="0.0" rx="9.8" ry="3.9" transform="rotate(180.0,-6.9,0.0)" fill="#484818" opacity="0.9"/><ellipse cx="-4.9" cy="-4.9" rx="9.8" ry="3.9" transform="rotate(225.0,-4.9,-4.9)" fill="#484818" opacity="0.8"/><ellipse cx="-0.0" cy="-6.9" rx="9.8" ry="3.9" transform="rotate(270.0,-0.0,-6.9)" fill="#484818" opacity="0.9"/><ellipse cx="4.9" cy="-4.9" rx="9.8" ry="3.9" transform="rotate(315.0,4.9,-4.9)" fill="#484818" opacity="0.7"/><circle cx="0" cy="0" r="5.1" fill="#767652" opacity="0.8"/></g>
  <g transform="translate(949.3,682.5)" opacity="0.6"><ellipse cx="8.6" cy="0.0" rx="12.3" ry="3.2" transform="rotate(0.0,8.6,0.0)" fill="#484818" opacity="0.8"/><ellipse cx="2.7" cy="8.2" rx="12.3" ry="3.2" transform="rotate(72.0,2.7,8.2)" fill="#484818" opacity="0.7"/><ellipse cx="-7.0" cy="5.1" rx="12.3" ry="3.2" transform="rotate(144.0,-7.0,5.1)" fill="#484818" opacity="0.8"/><ellipse cx="-7.0" cy="-5.1" rx="12.3" ry="3.2" transform="rotate(216.0,-7.0,-5.1)" fill="#484818" opacity="0.8"/><ellipse cx="2.7" cy="-8.2" rx="12.3" ry="3.2" transform="rotate(288.0,2.7,-8.2)" fill="#484818" opacity="0.8"/><circle cx="0" cy="0" r="4.2" fill="#767652" opacity="0.8"/></g>
  <g transform="translate(876.7,446.6)" opacity="0.8"><ellipse cx="9.2" cy="0.0" rx="13.1" ry="4.8" transform="rotate(0.0,9.2,0.0)" fill="#484818" opacity="0.8"/><ellipse cx="4.6" cy="7.9" rx="13.1" ry="4.8" transform="rotate(60.0,4.6,7.9)" fill="#484818" opacity="0.8"/><ellipse cx="-4.6" cy="7.9" rx="13.1" ry="4.8" transform="rotate(120.0,-4.6,7.9)" fill="#484818" opacity="0.9"/><ellipse cx="-9.2" cy="0.0" rx="13.1" ry="4.8" transform="rotate(180.0,-9.2,0.0)" fill="#484818" opacity="0.9"/><ellipse cx="-4.6" cy="-7.9" rx="13.1" ry="4.8" transform="rotate(240.0,-4.6,-7.9)" fill="#484818" opacity="0.8"/><ellipse cx="4.6" cy="-7.9" rx="13.1" ry="4.8" transform="rotate(300.0,4.6,-7.9)" fill="#484818" opacity="0.9"/><circle cx="0" cy="0" r="6.2" fill="#767652" opacity="0.8"/></g>
  <g transform="translate(889.3,467.8)" opacity="0.8"><ellipse cx="11.4" cy="0.0" rx="16.2" ry="6.3" transform="rotate(0.0,11.4,0.0)" fill="#484818" opacity="0.7"/><ellipse cx="5.7" cy="9.8" rx="16.2" ry="6.3" transform="rotate(60.0,5.7,9.8)" fill="#484818" opacity="0.8"/><ellipse cx="-5.7" cy="9.8" rx="16.2" ry="6.3" transform="rotate(120.0,-5.7,9.8)" fill="#484818" opacity="0.9"/><ellipse cx="-11.4" cy="0.0" rx="16.2" ry="6.3" transform="rotate(180.0,-11.4,0.0)" fill="#484818" opacity="0.9"/><ellipse cx="-5.7" cy="-9.8" rx="16.2" ry="6.3" transform="rotate(240.0,-5.7,-9.8)" fill="#484818" opacity="0.9"/><ellipse cx="5.7" cy="-9.8" rx="16.2" ry="6.3" transform="rotate(300.0,5.7,-9.8)" fill="#484818" opacity="0.9"/><circle cx="0" cy="0" r="8.2" fill="#767652" opacity="0.8"/></g>
  <g transform="translate(551.9,526.8)" opacity="0.9"><ellipse cx="4.8" cy="0.0" rx="6.8" ry="2.8" transform="rotate(0.0,4.8,0.0)" fill="#484818" opacity="0.8"/><ellipse cx="2.4" cy="4.1" rx="6.8" ry="2.8" transform="rotate(60.0,2.4,4.1)" fill="#484818" opacity="0.9"/><ellipse cx="-2.4" cy="4.1" rx="6.8" ry="2.8" transform="rotate(120.0,-2.4,4.1)" fill="#484818" opacity="0.8"/><ellipse cx="-4.8" cy="0.0" rx="6.8" ry="2.8" transform="rotate(180.0,-4.8,0.0)" fill="#484818" opacity="0.9"/><ellipse cx="-2.4" cy="-4.1" rx="6.8" ry="2.8" transform="rotate(240.0,-2.4,-4.1)" fill="#484818" opacity="0.9"/><ellipse cx="2.4" cy="-4.1" rx="6.8" ry="2.8" transform="rotate(300.0,2.4,-4.1)" fill="#484818" opacity="0.9"/><circle cx="0" cy="0" r="3.6" fill="#767652" opacity="0.8"/></g>
  <g transform="translate(589.7,656.2)" opacity="0.8"><ellipse cx="9.2" cy="0.0" rx="13.2" ry="3.2" transform="rotate(0.0,9.2,0.0)" fill="#484818" opacity="0.9"/><ellipse cx="7.1" cy="5.9" rx="13.2" ry="3.2" transform="rotate(40.0,7.1,5.9)" fill="#484818" opacity="0.7"/><ellipse cx="1.6" cy="9.1" rx="13.2" ry="3.2" transform="rotate(80.0,1.6,9.1)" fill="#484818" opacity="0.9"/><ellipse cx="-4.6" cy="8.0" rx="13.2" ry="3.2" transform="rotate(120.0,-4.6,8.0)" fill="#484818" opacity="0.8"/><ellipse cx="-8.7" cy="3.2" rx="13.2" ry="3.2" transform="rotate(160.0,-8.7,3.2)" fill="#484818" opacity="0.8"/><ellipse cx="-8.7" cy="-3.2" rx="13.2" ry="3.2" transform="rotate(200.0,-8.7,-3.2)" fill="#484818" opacity="0.7"/><ellipse cx="-4.6" cy="-8.0" rx="13.2" ry="3.2" transform="rotate(240.0,-4.6,-8.0)" fill="#484818" opacity="0.9"/><ellipse cx="1.6" cy="-9.1" rx="13.2" ry="3.2" transform="rotate(280.0,1.6,-9.1)" fill="#484818" opacity="0.7"/><ellipse cx="7.1" cy="-5.9" rx="13.2" ry="3.2" transform="rotate(320.0,7.1,-5.9)" fill="#484818" opacity="0.7"/><circle cx="0" cy="0" r="4.2" fill="#767652" opacity="0.8"/></g>
  <g transform="translate(485.8,135.3)" opacity="0.8"><ellipse cx="6.5" cy="0.0" rx="9.3" ry="3.5" transform="rotate(0.0,6.5,0.0)" fill="#484818" opacity="0.8"/><ellipse cx="4.6" cy="4.6" rx="9.3" ry="3.5" transform="rotate(45.0,4.6,4.6)" fill="#484818" opacity="0.8"/><ellipse cx="0.0" cy="6.5" rx="9.3" ry="3.5" transform="rotate(90.0,0.0,6.5)" fill="#484818" opacity="0.7"/><ellipse cx="-4.6" cy="4.6" rx="9.3" ry="3.5" transform="rotate(135.0,-4.6,4.6)" fill="#484818" opacity="0.8"/><ellipse cx="-6.5" cy="0.0" rx="9.3" ry="3.5" transform="rotate(180.0,-6.5,0.0)" fill="#484818" opacity="0.8"/><ellipse cx="-4.6" cy="-4.6" rx="9.3" ry="3.5" transform="rotate(225.0,-4.6,-4.6)" fill="#484818" opacity="0.9"/><ellipse cx="-0.0" cy="-6.5" rx="9.3" ry="3.5" transform="rotate(270.0,-0.0,-6.5)" fill="#484818" opacity="0.9"/><ellipse cx="4.6" cy="-4.6" rx="9.3" ry="3.5" transform="rotate(315.0,4.6,-4.6)" fill="#484818" opacity="0.7"/><circle cx="0" cy="0" r="4.6" fill="#767652" opacity="0.8"/></g>
</svg>