<svg xmlns="http://www.w3.org/2000/svg" viewBox="0 0 1280 720" width="1280" height="720">
  <defs>
    <linearGradient id="sky1" x1="0" y1="0" x2="0" y2="1">
      <stop offset="0%" stop-color="#060c16"/>
      <stop offset="85%" stop-color="#1e3050"/>
      <stop offset="100%" stop-color="#293f5c"/>
    </linearGradient>
    <linearGradient id="fog1" x1="0" y1="0" x2="0" y2="1">
      <stop offset="0%" stop-color="#344e68" stop-opacity="0"/>
      <stop offset="100%" stop-color="#344e68" stop-opacity="0.5"/>
    </linearGradient>
    <linearGradient id="ground1" x1="0" y1="0" x2="0" y2="1">
      <stop offset="0%" stop-color="#1c2e40"/>
      <stop offset="100%" stop-color="#0e1825"/>
    </linearGradient>
    <filter id="sfar1"><feGaussianBlur stdDeviation="2.5"/></filter>
  </defs>

  <!-- Sky gradient -->
  <rect width="1280" height="720" fill="url(#sky1)"/>

  <!-- Celestial body -->
  <circle cx="710.2" cy="182.0" r="76.4" fill="#a0c0d8" opacity="0.09"/>
  <circle cx="710.2" cy="182.0" r="43.7" fill="#a0c0d8" opacity="0.13"/>
  <circle cx="710.2" cy="182.0" r="27.3" fill="#a0c0d8" opacity="0.50"/>
  

  <!-- Atmospheric haze at horizon -->
  <rect x="0" y="285" width="1280" height="140" fill="url(#fog1)"/>

  <!-- Far terrain silhouette (blurred) -->
  <polygon points="0,720 0.0,411.5 58.2,395.7 116.4,385.9 174.5,380.8 232.7,381.1 290.9,387.4 349.1,393.6 407.3,395.3 465.5,393.3 523.6,387.6 581.8,380.7 640.0,378.5 698.2,381.4 756.4,385.1 814.5,387.8 872.7,389.1 930.9,390.8 989.1,394.7 1047.3,398.4 1105.5,397.8 1163.6,395.1 1221.8,398.4 1280.0,407.8 1280,720" fill="#1c2e40" filter="url(#sfar1)" opacity="0.88"/>

  <!-- Near terrain -->
  <polygon points="0,720 0.0,369.9 71.1,380.7 142.2,385.8 213.3,388.7 284.4,396.2 355.6,411.9 426.7,424.5 497.8,428.7 568.9,429.6 640.0,427.1 711.1,419.1 782.2,410.4 853.3,401.8 924.4,391.6 995.6,384.3 1066.7,382.6 1137.8,382.6 1208.9,386.5 1280.0,394.7 1280,720" fill="#101c2c" opacity="0.96"/>

  <!-- Ground base fill -->
  <rect x="0" y="425" width="1280" height="295" fill="url(#ground1)"/>

  <!-- Ground texture patches -->
  <ellipse cx="1265.6" cy="470.6" rx="26.7" ry="13.3" fill="#2a3543" opacity="0.43"/>
  <ellipse cx="1110.5" cy="575.4" rx="66.1" ry="10.1" fill="#0c1521" opacity="0.48"/>
  <ellipse cx="818.8" cy="641.5" rx="72.9" ry="6.3" fill="#2b3644" opacity="0.30"/>
  <ellipse cx="532.1" cy="631.3" rx="56.0" ry="10.6" fill="#0b141f" opacity="0.34"/>
  <ellipse cx="683.6" cy="557.2" rx="61.4" ry="11.0" fill="#25303e" opacity="0.43"/>
  <ellipse cx="113.1" cy="493.4" rx="51.4" ry="9.7" fill="#0b141f" opacity="0.34"/>
  <ellipse cx="1043.1" cy="676.1" rx="23.3" ry="8.5" fill="#1e2938" opacity="0.44"/>
  <ellipse cx="201.5" cy="563.9" rx="18.8" ry="12.0" fill="#0c1522" opacity="0.40"/>
  <ellipse cx="202.4" cy="606.6" rx="45.9" ry="10.8" fill="#222d3c" opacity="0.36"/>
  <ellipse cx="169.7" cy="623.1" rx="32.1" ry="12.2" fill="#2b3544" opacity="0.43"/>
  <ellipse cx="577.3" cy="481.0" rx="26.9" ry="13.7" fill="#0c1622" opacity="0.35"/>
  <ellipse cx="1235.0" cy="434.8" rx="28.3" ry="11.9" fill="#2c3644" opacity="0.54"/>
  <ellipse cx="589.1" cy="671.1" rx="21.9" ry="9.8" fill="#2e3947" opacity="0.35"/>
  <ellipse cx="953.3" cy="501.2" rx="20.3" ry="6.7" fill="#0a121c" opacity="0.28"/>
  <ellipse cx="364.5" cy="627.4" rx="38.9" ry="5.4" fill="#0a111b" opacity="0.49"/>
  <ellipse cx="89.5" cy="470.4" rx="28.3" ry="10.7" fill="#0c1521" opacity="0.43"/>
  <ellipse cx="155.0" cy="450.3" rx="50.3" ry="4.8" fill="#0d1622" opacity="0.54"/>
  <ellipse cx="1117.8" cy="526.5" rx="49.9" ry="5.7" fill="#0b141f" opacity="0.38"/>
  <ellipse cx="823.9" cy="579.4" rx="63.5" ry="9.8" fill="#273241" opacity="0.45"/>
  <ellipse cx="43.5" cy="471.0" rx="38.6" ry="11.1" fill="#222d3c" opacity="0.30"/>
  <ellipse cx="1019.1" cy="633.2" rx="69.0" ry="6.6" fill="#0c1521" opacity="0.47"/>
  <ellipse cx="1056.9" cy="478.5" rx="49.7" ry="7.5" fill="#242f3d" opacity="0.50"/>
  <ellipse cx="912.9" cy="695.4" rx="62.6" ry="12.7" fill="#0b131e" opacity="0.37"/>
  <ellipse cx="964.1" cy="686.1" rx="28.5" ry="6.6" fill="#25303f" opacity="0.47"/>
  <ellipse cx="248.1" cy="656.5" rx="72.4" ry="13.3" fill="#2d3846" opacity="0.40"/>
  <ellipse cx="190.3" cy="435.0" rx="59.4" ry="7.9" fill="#0c1420" opacity="0.41"/>
  <ellipse cx="682.7" cy="698.1" rx="39.1" ry="13.8" fill="#0b131d" opacity="0.41"/>
  <ellipse cx="859.1" cy="531.8" rx="44.7" ry="8.2" fill="#212c3b" opacity="0.30"/>
  <ellipse cx="47.4" cy="461.9" rx="24.8" ry="13.5" fill="#1f2a39" opacity="0.49"/>
  <ellipse cx="1007.6" cy="667.3" rx="35.2" ry="5.9" fill="#0b131d" opacity="0.54"/>
  <ellipse cx="949.1" cy="537.6" rx="21.6" ry="9.5" fill="#283241" opacity="0.47"/>
  <ellipse cx="398.4" cy="461.0" rx="35.8" ry="10.6" fill="#0c1520" opacity="0.55"/>
  <ellipse cx="1258.4" cy="594.2" rx="49.6" ry="7.8" fill="#0c1420" opacity="0.46"/>
  <ellipse cx="820.6" cy="587.9" rx="67.3" ry="5.6" fill="#232e3d" opacity="0.42"/>
  <ellipse cx="160.2" cy="659.6" rx="26.3" ry="8.5" fill="#212c3b" opacity="0.34"/>
  <ellipse cx="735.1" cy="633.3" rx="63.9" ry="10.2" fill="#1e2938" opacity="0.49"/>
  <ellipse cx="1160.6" cy="502.5" rx="58.6" ry="10.7" fill="#263140" opacity="0.52"/>
  <ellipse cx="427.2" cy="630.2" rx="22.5" ry="10.9" fill="#2b3644" opacity="0.30"/>
  <ellipse cx="345.8" cy="537.8" rx="30.2" ry="11.3" fill="#25303e" opacity="0.48"/>
  <ellipse cx="312.5" cy="640.2" rx="67.2" ry="11.3" fill="#26303f" opacity="0.42"/>
  <ellipse cx="1271.7" cy="594.7" rx="24.9" ry="12.3" fill="#0b131e" opacity="0.32"/>

  <!-- Ground cracks -->
  <path d="M1135.2,622.3 Q1121.4,634.0 1119.4,630.3" stroke="#0a121d" stroke-width="0.5" fill="none" opacity="0.52"/>
  <path d="M979.9,491.9 Q977.6,505.6 989.5,512.6" stroke="#0a121d" stroke-width="1.1" fill="none" opacity="0.34"/>
  <path d="M55.1,524.9 Q87.2,522.4 104.2,526.8" stroke="#0a121d" stroke-width="0.4" fill="none" opacity="0.38"/>
  <path d="M122.6,555.5 Q81.9,568.2 65.8,565.6" stroke="#0a121d" stroke-width="0.6" fill="none" opacity="0.38"/>
  <path d="M598.0,540.6 Q549.3,535.3 523.5,542.4" stroke="#0a121d" stroke-width="0.6" fill="none" opacity="0.44"/>
  <path d="M420.0,449.3 Q450.8,458.1 452.3,460.8" stroke="#0a121d" stroke-width="0.8" fill="none" opacity="0.44"/>
  <path d="M495.7,546.0 Q478.6,563.4 468.6,568.5" stroke="#0a121d" stroke-width="1.0" fill="none" opacity="0.46"/>
  <path d="M71.6,664.5 Q81.7,671.7 72.1,679.8" stroke="#0a121d" stroke-width="1.3" fill="none" opacity="0.34"/>
  <path d="M1196.7,627.1 Q1213.9,624.7 1243.5,629.3" stroke="#0a121d" stroke-width="1.0" fill="none" opacity="0.25"/>

  <!-- Flora -->
  <g transform="translate(470.2,445.1)" opacity="0.58"><line x1="0" y1="0" x2="0" y2="-20.5" stroke="#2c4258" stroke-width="2.4" stroke-linecap="round"/><line x1="0" y1="-2.6" x2="10.7" y2="-12.1" stroke="#566879" stroke-width="1.8" stroke-linecap="round" opacity="0.85"/><line x1="0" y1="-5.1" x2="6.5" y2="-13.1" stroke="#566879" stroke-width="1.8" stroke-linecap="round" opacity="0.85"/><line x1="0" y1="-7.7" x2="8.1" y2="-17.9" stroke="#566879" stroke-width="1.8" stroke-linecap="round" opacity="0.85"/><line x1="0" y1="-10.2" x2="6.6" y2="-19.0" stroke="#566879" stroke-width="1.8" stroke-linecap="round" opacity="0.85"/><line x1="0" y1="-12.8" x2="6.8" y2="-16.1" stroke="#566879" stroke-width="1.8" stroke-linecap="round" opacity="0.85"/><line x1="0" y1="-15.3" x2="12.9" y2="-24.8" stroke="#566879" stroke-width="1.8" stroke-linecap="round" opacity="0.85"/><line x1="0" y1="-17.9" x2="8.0" y2="-23.1" stroke="#566879" stroke-width="1.8" stroke-linecap="round" opacity="0.85"/></g>
  <g transform="translate(283.1,456.3)" opacity="0.56"><rect x="-2.5" y="-25.5" width="5.0" height="25.5" fill="#2c4258"/>
<ellipse cx="0" cy="-25.5" rx="20.4" ry="8.4" fill="#486880"/>
</g>
  <g transform="translate(453.5,428.7)" opacity="0.75"><rect x="-1.6" y="-26.4" width="3.3" height="26.4" fill="#2c4258"/>
<ellipse cx="0" cy="-26.4" rx="17.4" ry="7.7" fill="#486880"/>
<circle cx="-0.6" cy="-29.6" r="3.3" fill="#768ea0" opacity="0.7"/></g>
  <g transform="translate(66.6,430.3)" opacity="0.56"><ellipse cx="0" cy="-5.2" rx="14.0" ry="7.4" fill="#2c4258" opacity="0.9"/>
<ellipse cx="2.8" cy="-8.2" rx="4.9" ry="3.0" fill="#233546" opacity="0.35"/></g>
  <g transform="translate(316.5,407.2)" opacity="0.61"><ellipse cx="0" cy="-12.7" rx="34.2" ry="18.1" fill="#2c4258" opacity="0.9"/>
<ellipse cx="6.8" cy="-19.9" rx="12.0" ry="7.3" fill="#233546" opacity="0.35"/></g>
  <g transform="translate(586.5,431.9)" opacity="0.65"><polygon points="0.4,-13.8 3.9,0 -5.2,0" fill="#486880" opacity="0.76"/><line x1="0.4" y1="-13.8" x2="0.7" y2="0" stroke="#768ea0" stroke-width="0.8" opacity="0.5"/><polygon points="5.5,-21.5 11.5,0 -0.1,0" fill="#486880" opacity="0.92"/><line x1="5.5" y1="-21.5" x2="7.4" y2="0" stroke="#768ea0" stroke-width="0.8" opacity="0.5"/><polygon points="-0.1,-18.2 3.5,0 -8.6,0" fill="#486880" opacity="0.85"/><line x1="-0.1" y1="-18.2" x2="-0.8" y2="0" stroke="#768ea0" stroke-width="0.8" opacity="0.5"/></g>
  <g transform="translate(191.2,472.6)" opacity="0.85"><rect x="-2.2" y="-39.5" width="4.4" height="39.5" fill="#2c4258"/>
<ellipse cx="0" cy="-39.5" rx="32.3" ry="10.2" fill="#486880"/>
<circle cx="1.7" cy="-39.3" r="3.5" fill="#768ea0" opacity="0.7"/><circle cx="14.4" cy="-42.9" r="2.4" fill="#768ea0" opacity="0.7"/><circle cx="-9.2" cy="-44.0" r="2.0" fill="#768ea0" opacity="0.7"/></g>
  <g transform="translate(771.2,435.2)" opacity="0.57"><line x1="0" y1="0" x2="0" y2="-26.2" stroke="#2c4258" stroke-width="1.8" stroke-linecap="round"/><path d="M0,-10.7 C-6.2,-10.7 -20.8,-2.4 -20.8,-2.4" stroke="#4c5e71" stroke-width="0.9" fill="none" stroke-linecap="round" opacity="0.8"/><path d="M0,-17.0 C4.2,-17.0 14.0,-11.4 14.0,-11.4" stroke="#4c5e71" stroke-width="0.9" fill="none" stroke-linecap="round" opacity="0.8"/><path d="M0,-19.7 C3.0,-19.7 10.1,-15.7 10.1,-15.7" stroke="#4c5e71" stroke-width="0.9" fill="none" stroke-linecap="round" opacity="0.8"/><path d="M0,-10.9 C5.1,-10.9 17.1,-4.1 17.1,-4.1" stroke="#4c5e71" stroke-width="0.9" fill="none" stroke-linecap="round" opacity="0.8"/><path d="M0,-8.7 C3.7,-8.7 12.2,-3.8 12.2,-3.8" stroke="#4c5e71" stroke-width="0.9" fill="none" stroke-linecap="round" opacity="0.8"/><path d="M0,-8.2 C-4.4,-8.2 -14.6,-2.4 -14.6,-2.4" stroke="#4c5e71" stroke-width="0.9" fill="none" stroke-linecap="round" opacity="0.8"/></g>
  <g transform="translate(1168.3,451.9)" opacity="0.65"><line x1="0" y1="0" x2="0" y2="-34.4" stroke="#2c4258" stroke-width="2.9" stroke-linecap="round"/><line x1="0" y1="-4.9" x2="7.7" y2="-9.6" stroke="#566879" stroke-width="2.1" stroke-linecap="round" opacity="0.85"/><line x1="0" y1="-9.8" x2="8.1" y2="-19.2" stroke="#566879" stroke-width="2.1" stroke-linecap="round" opacity="0.85"/><line x1="0" y1="-14.7" x2="14.2" y2="-22.0" stroke="#566879" stroke-width="2.1" stroke-linecap="round" opacity="0.85"/><line x1="0" y1="-19.7" x2="17.1" y2="-29.3" stroke="#566879" stroke-width="2.1" stroke-linecap="round" opacity="0.85"/><line x1="0" y1="-24.6" x2="5.6" y2="-30.0" stroke="#566879" stroke-width="2.1" stroke-linecap="round" opacity="0.85"/><line x1="0" y1="-29.5" x2="10.4" y2="-43.4" stroke="#566879" stroke-width="2.1" stroke-linecap="round" opacity="0.85"/></g>
  <g transform="translate(147.5,411.3)" opacity="0.68"><ellipse cx="0" cy="-11.8" rx="26.2" ry="16.9" fill="#2c4258" opacity="0.9"/>
<ellipse cx="5.2" cy="-18.6" rx="9.2" ry="6.8" fill="#233546" opacity="0.35"/></g>
  <g transform="translate(10.9,445.2)" opacity="0.76"><line x1="0" y1="0" x2="0" y2="-40.1" stroke="#2c4258" stroke-width="3.5" stroke-linecap="round"/><line x1="0" y1="-5.0" x2="12.6" y2="-18.5" stroke="#566879" stroke-width="2.6" stroke-linecap="round" opacity="0.85"/><line x1="0" y1="-10.0" x2="16.9" y2="-25.9" stroke="#566879" stroke-width="2.6" stroke-linecap="round" opacity="0.85"/><line x1="0" y1="-15.0" x2="6.7" y2="-21.3" stroke="#566879" stroke-width="2.6" stroke-linecap="round" opacity="0.85"/><line x1="0" y1="-20.0" x2="12.5" y2="-28.6" stroke="#566879" stroke-width="2.6" stroke-linecap="round" opacity="0.85"/><line x1="0" y1="-25.1" x2="14.8" y2="-34.5" stroke="#566879" stroke-width="2.6" stroke-linecap="round" opacity="0.85"/><line x1="0" y1="-30.1" x2="10.7" y2="-38.8" stroke="#566879" stroke-width="2.6" stroke-linecap="round" opacity="0.85"/><line x1="0" y1="-35.1" x2="8.8" y2="-43.0" stroke="#566879" stroke-width="2.6" stroke-linecap="round" opacity="0.85"/></g>
  <g transform="translate(998.8,440.1)" opacity="0.57"><line x1="0" y1="0" x2="0" y2="-16.1" stroke="#2c4258" stroke-width="1.3" stroke-linecap="round"/><line x1="0" y1="-3.2" x2="8.3" y2="-8.5" stroke="#566879" stroke-width="1.0" stroke-linecap="round" opacity="0.85"/><line x1="0" y1="-6.4" x2="5.4" y2="-11.7" stroke="#566879" stroke-width="1.0" stroke-linecap="round" opacity="0.85"/><line x1="0" y1="-9.6" x2="4.4" y2="-15.2" stroke="#566879" stroke-width="1.0" stroke-linecap="round" opacity="0.85"/><line x1="0" y1="-12.9" x2="4.3" y2="-17.8" stroke="#566879" stroke-width="1.0" stroke-linecap="round" opacity="0.85"/></g>
  <g transform="translate(1233.3,426.3)" opacity="0.52"><rect x="-2.1" y="-26.3" width="4.1" height="26.3" fill="#2c4258"/>
<ellipse cx="0" cy="-26.3" rx="17.6" ry="5.7" fill="#486880"/>
<circle cx="-7.0" cy="-27.1" r="1.7" fill="#768ea0" opacity="0.7"/></g>
  <g transform="translate(768.1,406.3)" opacity="0.61"><polygon points="2.9,-32.6 1.2,0 -6.7,0" fill="#486880" opacity="0.89"/><line x1="2.9" y1="-32.6" x2="-1.6" y2="0" stroke="#768ea0" stroke-width="0.8" opacity="0.5"/><polygon points="1.4,-17.6 9.1,0 -2.5,0" fill="#486880" opacity="0.88"/><line x1="1.4" y1="-17.6" x2="5.1" y2="0" stroke="#768ea0" stroke-width="0.8" opacity="0.5"/><polygon points="-16.3,-23.7 -1.9,0 -19.3,0" fill="#486880" opacity="0.91"/><line x1="-16.3" y1="-23.7" x2="-8.0" y2="0" stroke="#768ea0" stroke-width="0.8" opacity="0.5"/></g>
  <g transform="translate(772.8,472.4)" opacity="0.91"><line x1="0" y1="0" x2="0" y2="-37.6" stroke="#2c4258" stroke-width="2.9" stroke-linecap="round"/><line x1="0" y1="-4.7" x2="10.2" y2="-9.5" stroke="#566879" stroke-width="2.2" stroke-linecap="round" opacity="0.85"/><line x1="0" y1="-9.4" x2="10.5" y2="-23.6" stroke="#566879" stroke-width="2.2" stroke-linecap="round" opacity="0.85"/><line x1="0" y1="-14.1" x2="14.7" y2="-25.9" stroke="#566879" stroke-width="2.2" stroke-linecap="round" opacity="0.85"/><line x1="0" y1="-18.8" x2="16.7" y2="-27.0" stroke="#566879" stroke-width="2.2" stroke-linecap="round" opacity="0.85"/><line x1="0" y1="-23.5" x2="10.3" y2="-28.6" stroke="#566879" stroke-width="2.2" stroke-linecap="round" opacity="0.85"/><line x1="0" y1="-28.2" x2="14.4" y2="-41.5" stroke="#566879" stroke-width="2.2" stroke-linecap="round" opacity="0.85"/><line x1="0" y1="-32.9" x2="15.5" y2="-43.6" stroke="#566879" stroke-width="2.2" stroke-linecap="round" opacity="0.85"/></g>
  <g transform="translate(867.5,461.2)" opacity="0.85"><line x1="0" y1="0" x2="0" y2="-41.3" stroke="#2c4258" stroke-width="2.6" stroke-linecap="round"/><path d="M0,-26.4 C4.2,-26.4 14.2,-20.8 14.2,-20.8" stroke="#4c5e71" stroke-width="1.3" fill="none" stroke-linecap="round" opacity="0.8"/><path d="M0,-17.2 C6.3,-17.2 20.9,-8.9 20.9,-8.9" stroke="#4c5e71" stroke-width="1.3" fill="none" stroke-linecap="round" opacity="0.8"/><path d="M0,-35.0 C9.0,-35.0 30.1,-23.0 30.1,-23.0" stroke="#4c5e71" stroke-width="1.3" fill="none" stroke-linecap="round" opacity="0.8"/><path d="M0,-36.1 C7.2,-36.1 24.0,-26.5 24.0,-26.5" stroke="#4c5e71" stroke-width="1.3" fill="none" stroke-linecap="round" opacity="0.8"/><path d="M0,-20.9 C-8.7,-20.9 -29.1,-9.2 -29.1,-9.2" stroke="#4c5e71" stroke-width="1.3" fill="none" stroke-linecap="round" opacity="0.8"/><path d="M0,-31.5 C8.5,-31.5 28.5,-20.2 28.5,-20.2" stroke="#4c5e71" stroke-width="1.3" fill="none" stroke-linecap="round" opacity="0.8"/></g>
  <g transform="translate(8.3,437.8)" opacity="0.56"><polygon points="0.6,-19.0 12.4,0 -2.4,0" fill="#486880" opacity="0.90"/><line x1="0.6" y1="-19.0" x2="7.2" y2="0" stroke="#768ea0" stroke-width="0.8" opacity="0.5"/><polygon points="4.7,-34.6 0.6,0 -7.4,0" fill="#486880" opacity="0.77"/><line x1="4.7" y1="-34.6" x2="-2.2" y2="0" stroke="#768ea0" stroke-width="0.8" opacity="0.5"/><polygon points="-5.2,-29.8 -4.3,0 -17.1,0" fill="#486880" opacity="0.82"/><line x1="-5.2" y1="-29.8" x2="-8.8" y2="0" stroke="#768ea0" stroke-width="0.8" opacity="0.5"/><polygon points="2.6,-26.1 9.4,0 -4.6,0" fill="#486880" opacity="0.85"/><line x1="2.6" y1="-26.1" x2="4.5" y2="0" stroke="#768ea0" stroke-width="0.8" opacity="0.5"/><polygon points="2.6,-46.4 6.2,0 -8.9,0" fill="#486880" opacity="0.90"/><line x1="2.6" y1="-46.4" x2="0.9" y2="0" stroke="#768ea0" stroke-width="0.8" opacity="0.5"/><polygon points="-2.8,-34.8 1.5,0 -7.8,0" fill="#486880" opacity="0.82"/><line x1="-2.8" y1="-34.8" x2="-1.8" y2="0" stroke="#768ea0" stroke-width="0.8" opacity="0.5"/></g>
  <g transform="translate(259.0,458.5)" opacity="0.79"><line x1="0" y1="0" x2="0" y2="-62.3" stroke="#2c4258" stroke-width="3.3" stroke-linecap="round"/><path d="M0,-29.3 C-5.0,-29.3 -16.7,-22.7 -16.7,-22.7" stroke="#4c5e71" stroke-width="1.6" fill="none" stroke-linecap="round" opacity="0.8"/><path d="M0,-31.0 C-8.2,-31.0 -27.3,-20.1 -27.3,-20.1" stroke="#4c5e71" stroke-width="1.6" fill="none" stroke-linecap="round" opacity="0.8"/><path d="M0,-42.8 C-4.8,-42.8 -16.1,-36.3 -16.1,-36.3" stroke="#4c5e71" stroke-width="1.6" fill="none" stroke-linecap="round" opacity="0.8"/></g>

  <!-- Rocks -->
  <g transform="translate(508.2,461.7)"><polygon points="7.2,-29.4 4.5,0 -4.5,0" fill="#0c1620" opacity="0.9"/><polygon points="7.2,-29.4 0.4,0 4.5,0" fill="#080f16" opacity="0.4"/></g>
  <g transform="translate(814.3,410.6)"><polygon points="1.5,-27.8 8.3,0 -8.3,0" fill="#0c1620" opacity="0.9"/><polygon points="1.5,-27.8 0.8,0 8.3,0" fill="#080f16" opacity="0.4"/></g>
  <g transform="translate(334.6,615.3)"><rect x="-18.3" y="-6.2" width="34.8" height="6.2" fill="#0c1620" opacity="0.92" rx="1"/><rect x="-7.7" y="-13.9" width="17.9" height="7.7" fill="#242d36" opacity="0.92" rx="1"/><rect x="-6.3" y="-19.8" width="10.1" height="5.8" fill="#0c1620" opacity="0.92" rx="1"/></g>
  <g transform="translate(101.7,627.9)"><rect x="-14.0" y="-11.1" width="37.5" height="11.1" fill="#0c1620" opacity="0.92" rx="1"/><rect x="-16.9" y="-20.9" width="27.0" height="9.8" fill="#242d36" opacity="0.92" rx="1"/><rect x="-24.4" y="-29.2" width="40.7" height="8.3" fill="#0c1620" opacity="0.92" rx="1"/><rect x="-1.0" y="-39.7" width="14.2" height="10.5" fill="#242d36" opacity="0.92" rx="1"/></g>
  <g transform="translate(1231.9,446.1)"><rect x="-21.6" y="-10.8" width="32.9" height="10.8" fill="#0c1620" opacity="0.92" rx="1"/><rect x="-13.8" y="-25.0" width="29.6" height="14.2" fill="#242d36" opacity="0.92" rx="1"/><rect x="-19.5" y="-39.3" width="38.8" height="14.4" fill="#0c1620" opacity="0.92" rx="1"/><rect x="-16.0" y="-53.4" width="36.6" height="14.0" fill="#242d36" opacity="0.92" rx="1"/></g>
  <g transform="translate(424.7,559.4)"><polygon points="9.3,-36.6 14.2,0 -14.2,0" fill="#0c1620" opacity="0.9"/></g>
  <g transform="translate(482.4,539.5)"><ellipse cx="0" cy="-9.0" rx="25.8" ry="12.8" fill="#0c1620" opacity="0.92"/>
<ellipse cx="6.5" cy="-12.8" rx="9.0" ry="2.6" fill="#091118" opacity="0.3"/>
<ellipse cx="-5.2" cy="-7.7" rx="5.2" ry="1.9" fill="#303941" opacity="0.2"/></g>
  <g transform="translate(705.7,418.5)"><polygon points="22.6,-72.5 13.7,0 -13.7,0" fill="#0c1620" opacity="0.9"/><polygon points="22.6,-72.5 1.4,0 13.7,0" fill="#080f16" opacity="0.4"/></g>
  <g transform="translate(804.8,436.7)"><rect x="-18.6" y="-7.6" width="38.9" height="7.6" fill="#0c1620" opacity="0.92" rx="1"/><rect x="-19.9" y="-23.1" width="47.6" height="15.5" fill="#242d36" opacity="0.92" rx="1"/><rect x="-10.2" y="-35.7" width="16.7" height="12.6" fill="#0c1620" opacity="0.92" rx="1"/><rect x="-5.4" y="-50.0" width="9.8" height="14.2" fill="#242d36" opacity="0.92" rx="1"/></g>
  <g transform="translate(1140.8,659.4)"><rect x="-17.2" y="-12.3" width="30.7" height="12.3" fill="#0c1620" opacity="0.92" rx="1"/><rect x="-20.5" y="-18.7" width="38.3" height="6.4" fill="#242d36" opacity="0.92" rx="1"/><rect x="-8.2" y="-29.5" width="16.8" height="10.8" fill="#0c1620" opacity="0.92" rx="1"/></g>
  <g transform="translate(445.0,610.8)"><ellipse cx="0" cy="-12.0" rx="30.9" ry="17.2" fill="#0c1620" opacity="0.92"/>
<ellipse cx="7.7" cy="-17.2" rx="10.8" ry="3.4" fill="#091118" opacity="0.3"/>
<ellipse cx="-6.2" cy="-10.3" rx="6.2" ry="2.6" fill="#303941" opacity="0.2"/></g>
  <g transform="translate(431.4,417.8)"><rect x="-16.6" y="-13.7" width="32.8" height="13.7" fill="#0c1620" opacity="0.92" rx="1"/><rect x="-10.8" y="-27.9" width="34.7" height="14.2" fill="#242d36" opacity="0.92" rx="1"/><rect x="-23.8" y="-37.0" width="43.1" height="9.1" fill="#0c1620" opacity="0.92" rx="1"/><rect x="-15.5" y="-53.6" width="24.9" height="16.6" fill="#242d36" opacity="0.92" rx="1"/></g>

  <!-- Foreground elements -->
  <g transform="translate(701.0,680.5)" opacity="0.55"><line x1="0" y1="0" x2="0" y2="-61.6" stroke="#2c4258" stroke-width="5.3" stroke-linecap="round"/><path d="M0,-39.3 C14.6,-39.3 48.7,-19.9 48.7,-19.9" stroke="#4c5e71" stroke-width="2.6" fill="none" stroke-linecap="round" opacity="0.8"/><path d="M0,-51.3 C-17.3,-51.3 -57.5,-28.3 -57.5,-28.3" stroke="#4c5e71" stroke-width="2.6" fill="none" stroke-linecap="round" opacity="0.8"/><path d="M0,-45.1 C15.0,-45.1 50.1,-25.0 50.1,-25.0" stroke="#4c5e71" stroke-width="2.6" fill="none" stroke-linecap="round" opacity="0.8"/><path d="M0,-23.1 C12.6,-23.1 41.8,-6.3 41.8,-6.3" stroke="#4c5e71" stroke-width="2.6" fill="none" stroke-linecap="round" opacity="0.8"/><path d="M0,-35.3 C15.0,-35.3 49.9,-15.3 49.9,-15.3" stroke="#4c5e71" stroke-width="2.6" fill="none" stroke-linecap="round" opacity="0.8"/><path d="M0,-28.8 C-12.3,-28.8 -41.0,-12.4 -41.0,-12.4" stroke="#4c5e71" stroke-width="2.6" fill="none" stroke-linecap="round" opacity="0.8"/></g>
  <g transform="translate(319.4,691.1)" opacity="0.76"><rect x="-33.6" y="-28.9" width="64.7" height="28.9" fill="#0c1620" opacity="0.92" rx="1"/><rect x="-29.8" y="-53.4" width="41.6" height="24.5" fill="#242d36" opacity="0.92" rx="1"/><rect x="-21.4" y="-75.7" width="49.5" height="22.3" fill="#0c1620" opacity="0.92" rx="1"/></g>

  <!-- Atmospheric dust -->
  <circle cx="529.6" cy="441.5" r="1.1" fill="#344e68" opacity="0.19"/>
  <circle cx="947.6" cy="384.9" r="1.9" fill="#344e68" opacity="0.16"/>
  <circle cx="660.4" cy="357.9" r="1.5" fill="#344e68" opacity="0.09"/>
  <circle cx="1130.6" cy="435.8" r="1.5" fill="#344e68" opacity="0.14"/>
  <circle cx="675.6" cy="381.1" r="1.0" fill="#344e68" opacity="0.09"/>
  <circle cx="480.9" cy="401.0" r="1.8" fill="#344e68" opacity="0.09"/>
  <circle cx="225.5" cy="439.5" r="2.5" fill="#344e68" opacity="0.11"/>
  <circle cx="33.3" cy="419.1" r="2.2" fill="#344e68" opacity="0.15"/>
  <circle cx="360.3" cy="412.2" r="1.6" fill="#344e68" opacity="0.20"/>
  <circle cx="634.5" cy="446.1" r="1.9" fill="#344e68" opacity="0.14"/>
  <circle cx="161.2" cy="420.7" r="1.4" fill="#344e68" opacity="0.24"/>
  <circle cx="786.7" cy="431.0" r="1.8" fill="#344e68" opacity="0.24"/>
  <circle cx="942.6" cy="442.8" r="2.2" fill="#344e68" opacity="0.13"/>
  <circle cx="1060.4" cy="397.6" r="1.3" fill="#344e68" opacity="0.19"/>
  <circle cx="106.9" cy="398.2" r="0.9" fill="#344e68" opacity="0.18"/>
  <circle cx="600.5" cy="408.9" r="1.9" fill="#344e68" opacity="0.22"/>
  <circle cx="1060.1" cy="386.6" r="0.9" fill="#344e68" opacity="0.25"/>
  <circle cx="388.7" cy="382.2" r="2.1" fill="#344e68" opacity="0.17"/>
  <circle cx="865.0" cy="431.9" r="2.4" fill="#344e68" opacity="0.15"/>
  <circle cx="107.2" cy="401.4" r="1.6" fill="#344e68" opacity="0.16"/>
  <circle cx="1053.1" cy="387.1" r="1.6" fill="#344e68" opacity="0.14"/>
</svg>