<svg xmlns="http://www.w3.org/2000/svg" viewBox="0 0 1280 720" width="1280" height="720">
  <!-- Base ground fill -->
  <rect width="1280" height="720" fill="#2a1008"/>

  <!-- Ground texture blobs -->
  <ellipse cx="353.8" cy="381.2" rx="47.1" ry="24.4" transform="rotate(268,353.8,381.2)" fill="#2b1108" opacity="0.3"/>
  <ellipse cx="243.0" cy="186.9" rx="142.4" ry="85.4" transform="rotate(20,243.0,186.9)" fill="#2f1309" opacity="0.2"/>
  <ellipse cx="886.8" cy="503.9" rx="152.3" ry="36.7" transform="rotate(21,886.8,503.9)" fill="#3c1a0c" opacity="0.2"/>
  <ellipse cx="806.2" cy="305.3" rx="138.3" ry="67.3" transform="rotate(224,806.2,305.3)" fill="#3c1a0c" opacity="0.2"/>
  <ellipse cx="753.6" cy="165.2" rx="41.6" ry="77.8" transform="rotate(307,753.6,165.2)" fill="#3c1a0c" opacity="0.3"/>
  <ellipse cx="973.5" cy="570.9" rx="159.9" ry="58.3" transform="rotate(257,973.5,570.9)" fill="#2f1309" opacity="0.3"/>
  <ellipse cx="72.5" cy="232.2" rx="101.5" ry="72.4" transform="rotate(288,72.5,232.2)" fill="#38180b" opacity="0.1"/>
  <ellipse cx="1217.4" cy="637.9" rx="49.2" ry="88.2" transform="rotate(119,1217.4,637.9)" fill="#2b1108" opacity="0.2"/>
  <ellipse cx="1223.0" cy="592.0" rx="148.4" ry="84.2" transform="rotate(228,1223.0,592.0)" fill="#2b1108" opacity="0.3"/>
  <ellipse cx="967.7" cy="242.7" rx="125.6" ry="78.8" transform="rotate(331,967.7,242.7)" fill="#3c1a0c" opacity="0.3"/>
  <ellipse cx="352.1" cy="269.8" rx="78.9" ry="60.9" transform="rotate(11,352.1,269.8)" fill="#3a190c" opacity="0.2"/>
  <ellipse cx="910.7" cy="96.5" rx="59.2" ry="60.2" transform="rotate(60,910.7,96.5)" fill="#3c1a0c" opacity="0.3"/>
  <ellipse cx="243.9" cy="221.3" rx="127.2" ry="43.3" transform="rotate(107,243.9,221.3)" fill="#3c1a0c" opacity="0.3"/>
  <ellipse cx="1132.8" cy="472.8" rx="48.1" ry="48.0" transform="rotate(259,1132.8,472.8)" fill="#32150a" opacity="0.2"/>
  <ellipse cx="16.1" cy="292.7" rx="94.8" ry="54.4" transform="rotate(242,16.1,292.7)" fill="#2c1108" opacity="0.2"/>
  <ellipse cx="145.6" cy="330.9" rx="99.2" ry="80.2" transform="rotate(18,145.6,330.9)" fill="#3c1a0c" opacity="0.3"/>
  <ellipse cx="1208.9" cy="468.0" rx="120.5" ry="30.3" transform="rotate(352,1208.9,468.0)" fill="#2e1209" opacity="0.2"/>
  <ellipse cx="623.5" cy="45.5" rx="69.5" ry="70.4" transform="rotate(238,623.5,45.5)" fill="#3c1a0c" opacity="0.3"/>
  <ellipse cx="319.8" cy="157.4" rx="86.2" ry="43.7" transform="rotate(342,319.8,157.4)" fill="#3c1a0c" opacity="0.3"/>
  <ellipse cx="1124.2" cy="653.3" rx="98.3" ry="88.3" transform="rotate(181,1124.2,653.3)" fill="#33150a" opacity="0.2"/>
  <ellipse cx="837.1" cy="672.1" rx="155.3" ry="26.7" transform="rotate(300,837.1,672.1)" fill="#38180b" opacity="0.2"/>
  <ellipse cx="524.7" cy="464.0" rx="99.5" ry="31.2" transform="rotate(245,524.7,464.0)" fill="#3c1a0c" opacity="0.3"/>
  <ellipse cx="716.6" cy="531.9" rx="58.5" ry="71.8" transform="rotate(284,716.6,531.9)" fill="#2f1309" opacity="0.3"/>
  <ellipse cx="794.7" cy="122.3" rx="140.6" ry="30.3" transform="rotate(253,794.7,122.3)" fill="#3c1a0c" opacity="0.2"/>
  <ellipse cx="193.4" cy="86.2" rx="118.6" ry="48.7" transform="rotate(343,193.4,86.2)" fill="#34150a" opacity="0.2"/>
  <ellipse cx="1199.4" cy="380.1" rx="151.3" ry="76.3" transform="rotate(116,1199.4,380.1)" fill="#2f1309" opacity="0.1"/>
  <ellipse cx="351.2" cy="391.4" rx="45.5" ry="47.0" transform="rotate(68,351.2,391.4)" fill="#3c1a0c" opacity="0.2"/>
  <ellipse cx="209.5" cy="664.4" rx="69.4" ry="77.6" transform="rotate(87,209.5,664.4)" fill="#3c1a0c" opacity="0.2"/>
  <ellipse cx="719.7" cy="555.2" rx="126.6" ry="61.6" transform="rotate(251,719.7,555.2)" fill="#31140a" opacity="0.3"/>
  <ellipse cx="741.3" cy="440.8" rx="91.1" ry="34.0" transform="rotate(36,741.3,440.8)" fill="#3c1a0c" opacity="0.2"/>
  <ellipse cx="1265.3" cy="296.2" rx="144.1" ry="46.7" transform="rotate(211,1265.3,296.2)" fill="#3c1a0c" opacity="0.3"/>
  <ellipse cx="1069.1" cy="104.9" rx="80.1" ry="49.1" transform="rotate(113,1069.1,104.9)" fill="#3c1a0c" opacity="0.1"/>
  <ellipse cx="775.0" cy="357.7" rx="72.7" ry="45.5" transform="rotate(151,775.0,357.7)" fill="#3c1a0c" opacity="0.2"/>
  <ellipse cx="469.4" cy="223.4" rx="146.4" ry="67.3" transform="rotate(129,469.4,223.4)" fill="#3c1a0c" opacity="0.1"/>
  <ellipse cx="180.7" cy="598.2" rx="93.7" ry="25.6" transform="rotate(347,180.7,598.2)" fill="#36160b" opacity="0.3"/>
  <ellipse cx="1173.2" cy="634.1" rx="158.4" ry="51.2" transform="rotate(115,1173.2,634.1)" fill="#3c1a0c" opacity="0.3"/>
  <ellipse cx="11.8" cy="401.0" rx="75.5" ry="57.8" transform="rotate(156,11.8,401.0)" fill="#301309" opacity="0.3"/>
  <ellipse cx="1210.2" cy="350.9" rx="130.5" ry="56.1" transform="rotate(229,1210.2,350.9)" fill="#301309" opacity="0.3"/>
  <ellipse cx="1275.4" cy="481.4" rx="127.8" ry="40.6" transform="rotate(276,1275.4,481.4)" fill="#3c1a0c" opacity="0.2"/>
  <ellipse cx="1167.5" cy="0.3" rx="133.1" ry="74.8" transform="rotate(330,1167.5,0.3)" fill="#3c1a0c" opacity="0.3"/>
  <ellipse cx="1021.8" cy="459.2" rx="128.2" ry="41.1" transform="rotate(340,1021.8,459.2)" fill="#33150a" opacity="0.2"/>
  <ellipse cx="1228.5" cy="181.5" rx="117.4" ry="80.8" transform="rotate(172,1228.5,181.5)" fill="#3c1a0c" opacity="0.2"/>
  <ellipse cx="985.3" cy="596.2" rx="56.2" ry="71.2" transform="rotate(195,985.3,596.2)" fill="#39180b" opacity="0.1"/>
  <ellipse cx="1270.5" cy="182.6" rx="90.4" ry="83.1" transform="rotate(7,1270.5,182.6)" fill="#3c1a0c" opacity="0.3"/>
  <ellipse cx="720.5" cy="66.2" rx="54.3" ry="86.9" transform="rotate(74,720.5,66.2)" fill="#3c1a0c" opacity="0.3"/>
  <ellipse cx="234.4" cy="520.5" rx="138.9" ry="46.6" transform="rotate(260,234.4,520.5)" fill="#37170b" opacity="0.3"/>
  <ellipse cx="465.4" cy="681.5" rx="125.7" ry="51.4" transform="rotate(254,465.4,681.5)" fill="#3c1a0c" opacity="0.2"/>
  <ellipse cx="723.4" cy="667.0" rx="120.0" ry="61.4" transform="rotate(251,723.4,667.0)" fill="#3c1a0c" opacity="0.2"/>
  <ellipse cx="263.2" cy="118.2" rx="64.9" ry="46.5" transform="rotate(12,263.2,118.2)" fill="#32150a" opacity="0.2"/>
  <ellipse cx="1073.8" cy="269.5" rx="139.3" ry="38.9" transform="rotate(115,1073.8,269.5)" fill="#2d1209" opacity="0.3"/>
  <ellipse cx="1205.5" cy="646.7" rx="122.9" ry="80.9" transform="rotate(38,1205.5,646.7)" fill="#2c1108" opacity="0.1"/>
  <ellipse cx="272.5" cy="285.1" rx="80.8" ry="86.3" transform="rotate(91,272.5,285.1)" fill="#3b190c" opacity="0.3"/>
  <ellipse cx="172.7" cy="41.4" rx="46.6" ry="31.8" transform="rotate(9,172.7,41.4)" fill="#3b1a0c" opacity="0.2"/>
  <ellipse cx="1206.6" cy="112.9" rx="66.2" ry="86.8" transform="rotate(170,1206.6,112.9)" fill="#3c1a0c" opacity="0.3"/>

  <!-- Fine surface stipple -->
  <circle cx="282.1" cy="558.3" r="1.8" fill="#442d26" opacity="0.4"/>
  <circle cx="951.7" cy="582.5" r="1.7" fill="#442d26" opacity="0.2"/>
  <circle cx="1098.3" cy="410.1" r="1.4" fill="#240e07" opacity="0.2"/>
  <circle cx="2.9" cy="59.5" r="0.9" fill="#442d26" opacity="0.2"/>
  <circle cx="287.1" cy="455.8" r="2.0" fill="#240e07" opacity="0.4"/>
  <circle cx="135.8" cy="566.9" r="1.6" fill="#240e07" opacity="0.2"/>
  <circle cx="11.3" cy="655.1" r="0.8" fill="#442d26" opacity="0.3"/>
  <circle cx="395.4" cy="496.3" r="1.0" fill="#442d26" opacity="0.3"/>
  <circle cx="757.4" cy="545.3" r="1.7" fill="#240e07" opacity="0.2"/>
  <circle cx="1247.8" cy="597.6" r="1.2" fill="#442d26" opacity="0.3"/>
  <circle cx="900.1" cy="642.9" r="1.0" fill="#442d26" opacity="0.3"/>
  <circle cx="870.7" cy="407.6" r="0.8" fill="#442d26" opacity="0.2"/>
  <circle cx="731.6" cy="7.0" r="0.9" fill="#442d26" opacity="0.3"/>
  <circle cx="675.6" cy="335.2" r="1.9" fill="#240e07" opacity="0.4"/>
  <circle cx="149.8" cy="427.4" r="0.7" fill="#240e07" opacity="0.4"/>
  <circle cx="846.3" cy="200.5" r="1.4" fill="#442d26" opacity="0.3"/>
  <circle cx="585.9" cy="572.2" r="1.6" fill="#240e07" opacity="0.3"/>
  <circle cx="108.8" cy="218.0" r="1.8" fill="#442d26" opacity="0.2"/>
  <circle cx="744.9" cy="376.7" r="1.5" fill="#240e07" opacity="0.2"/>
  <circle cx="540.0" cy="487.9" r="1.7" fill="#240e07" opacity="0.3"/>
  <circle cx="1138.2" cy="108.8" r="1.0" fill="#442d26" opacity="0.3"/>
  <circle cx="622.6" cy="496.7" r="0.9" fill="#442d26" opacity="0.4"/>
  <circle cx="175.4" cy="492.4" r="1.8" fill="#240e07" opacity="0.3"/>
  <circle cx="1059.4" cy="305.5" r="1.4" fill="#240e07" opacity="0.2"/>
  <circle cx="640.0" cy="593.3" r="1.5" fill="#240e07" opacity="0.4"/>
  <circle cx="91.7" cy="256.5" r="0.8" fill="#240e07" opacity="0.4"/>
  <circle cx="1037.8" cy="204.0" r="1.3" fill="#442d26" opacity="0.2"/>
  <circle cx="466.8" cy="356.9" r="0.9" fill="#240e07" opacity="0.2"/>
  <circle cx="47.1" cy="576.9" r="0.8" fill="#442d26" opacity="0.2"/>
  <circle cx="741.2" cy="325.5" r="1.6" fill="#442d26" opacity="0.4"/>
  <circle cx="899.2" cy="501.9" r="1.2" fill="#442d26" opacity="0.4"/>
  <circle cx="819.7" cy="283.8" r="0.9" fill="#240e07" opacity="0.3"/>
  <circle cx="612.7" cy="542.7" r="1.3" fill="#442d26" opacity="0.2"/>
  <circle cx="661.2" cy="417.6" r="1.0" fill="#442d26" opacity="0.2"/>
  <circle cx="1052.1" cy="517.5" r="1.6" fill="#442d26" opacity="0.3"/>
  <circle cx="269.8" cy="121.5" r="0.7" fill="#442d26" opacity="0.3"/>
  <circle cx="122.3" cy="697.2" r="1.8" fill="#442d26" opacity="0.2"/>
  <circle cx="1251.8" cy="329.5" r="0.9" fill="#240e07" opacity="0.2"/>
  <circle cx="1264.9" cy="16.9" r="1.6" fill="#240e07" opacity="0.4"/>
  <circle cx="249.2" cy="608.2" r="1.9" fill="#240e07" opacity="0.2"/>
  <circle cx="668.4" cy="618.0" r="1.8" fill="#442d26" opacity="0.2"/>
  <circle cx="917.0" cy="223.9" r="1.9" fill="#442d26" opacity="0.2"/>
  <circle cx="61.4" cy="450.7" r="0.7" fill="#240e07" opacity="0.2"/>
  <circle cx="1098.3" cy="571.7" r="1.8" fill="#442d26" opacity="0.2"/>
  <circle cx="1010.9" cy="571.5" r="1.8" fill="#240e07" opacity="0.2"/>
  <circle cx="1109.8" cy="323.5" r="0.7" fill="#240e07" opacity="0.2"/>
  <circle cx="1086.2" cy="311.2" r="1.5" fill="#240e07" opacity="0.2"/>
  <circle cx="988.0" cy="297.4" r="1.5" fill="#240e07" opacity="0.2"/>
  <circle cx="201.2" cy="359.6" r="0.8" fill="#240e07" opacity="0.2"/>
  <circle cx="158.6" cy="113.4" r="1.3" fill="#240e07" opacity="0.2"/>
  <circle cx="581.7" cy="523.8" r="1.4" fill="#240e07" opacity="0.4"/>
  <circle cx="715.0" cy="181.0" r="1.0" fill="#240e07" opacity="0.2"/>
  <circle cx="1062.5" cy="662.5" r="1.7" fill="#240e07" opacity="0.4"/>
  <circle cx="1205.2" cy="33.9" r="1.8" fill="#442d26" opacity="0.2"/>
  <circle cx="206.0" cy="624.4" r="1.2" fill="#442d26" opacity="0.2"/>
  <circle cx="217.3" cy="245.7" r="1.1" fill="#442d26" opacity="0.4"/>
  <circle cx="1013.8" cy="180.1" r="1.7" fill="#442d26" opacity="0.3"/>
  <circle cx="431.9" cy="621.5" r="1.2" fill="#240e07" opacity="0.2"/>
  <circle cx="790.4" cy="213.2" r="0.8" fill="#442d26" opacity="0.3"/>
  <circle cx="666.9" cy="369.1" r="0.8" fill="#240e07" opacity="0.4"/>
  <circle cx="594.3" cy="305.5" r="1.0" fill="#442d26" opacity="0.3"/>
  <circle cx="58.1" cy="345.4" r="1.3" fill="#240e07" opacity="0.2"/>
  <circle cx="982.0" cy="379.7" r="0.7" fill="#442d26" opacity="0.4"/>
  <circle cx="473.1" cy="536.7" r="1.0" fill="#442d26" opacity="0.3"/>
  <circle cx="294.8" cy="152.2" r="1.0" fill="#442d26" opacity="0.3"/>
  <circle cx="565.8" cy="417.6" r="1.3" fill="#442d26" opacity="0.2"/>
  <circle cx="364.3" cy="289.9" r="1.1" fill="#442d26" opacity="0.2"/>
  <circle cx="103.0" cy="143.2" r="0.8" fill="#442d26" opacity="0.2"/>
  <circle cx="211.3" cy="38.2" r="0.8" fill="#240e07" opacity="0.3"/>
  <circle cx="449.6" cy="290.6" r="0.9" fill="#442d26" opacity="0.3"/>
  <circle cx="171.3" cy="328.2" r="1.0" fill="#442d26" opacity="0.3"/>
  <circle cx="675.0" cy="233.4" r="1.6" fill="#240e07" opacity="0.3"/>
  <circle cx="892.3" cy="314.7" r="0.6" fill="#240e07" opacity="0.3"/>
  <circle cx="864.4" cy="470.7" r="0.8" fill="#240e07" opacity="0.4"/>
  <circle cx="1070.8" cy="309.6" r="0.9" fill="#240e07" opacity="0.3"/>
  <circle cx="887.0" cy="508.2" r="0.7" fill="#240e07" opacity="0.3"/>
  <circle cx="1028.1" cy="533.1" r="0.9" fill="#442d26" opacity="0.2"/>
  <circle cx="355.3" cy="411.1" r="1.2" fill="#240e07" opacity="0.3"/>
  <circle cx="286.9" cy="5.7" r="1.7" fill="#240e07" opacity="0.2"/>
  <circle cx="101.2" cy="284.1" r="1.8" fill="#240e07" opacity="0.2"/>
  <circle cx="421.1" cy="148.1" r="1.1" fill="#442d26" opacity="0.3"/>

  <!-- Cracks and fissures -->
  <path d="M1244.5,394.4 Q1272.8,376.9 1363.7,393.3" stroke="#120604" stroke-width="1.8" fill="none" opacity="0.5" stroke-linecap="round"/><path d="M1272.8,376.9 Q1289.7,393.3 1344.3,411.7" stroke="#120604" stroke-width="1.2" fill="none" opacity="0.3" stroke-linecap="round"/><path d="M1289.7,393.3 Q1309.4,411.3 1304.5,441.0" stroke="#120604" stroke-width="1.1" fill="none" opacity="0.5" stroke-linecap="round"/><path d="M1309.4,411.3 Q1317.9,428.9 1309.7,443.1" stroke="#120604" stroke-width="0.5" fill="none" opacity="0.5" stroke-linecap="round"/><path d="M1304.5,441.0 Q1303.8,451.1 1309.4,468.1" stroke="#120604" stroke-width="0.7" fill="none" opacity="0.3" stroke-linecap="round"/>
  <path d="M616.2,450.1 Q583.5,500.1 483.3,571.3" stroke="#120604" stroke-width="2.0" fill="none" opacity="0.5" stroke-linecap="round"/><path d="M583.5,500.1 Q536.7,556.6 541.0,586.4" stroke="#120604" stroke-width="1.6" fill="none" opacity="0.5" stroke-linecap="round"/><path d="M541.0,586.4 Q545.0,628.2 531.0,659.9" stroke="#120604" stroke-width="0.7" fill="none" opacity="0.5" stroke-linecap="round"/><path d="M545.0,628.2 Q523.4,659.6 528.8,681.0" stroke="#120604" stroke-width="1.0" fill="none" opacity="0.5" stroke-linecap="round"/><path d="M531.0,659.9 Q526.6,687.0 513.8,708.4" stroke="#120604" stroke-width="0.5" fill="none" opacity="0.6" stroke-linecap="round"/><path d="M483.3,571.3 Q412.1,579.8 347.6,627.8" stroke="#120604" stroke-width="1.3" fill="none" opacity="0.5" stroke-linecap="round"/><path d="M347.6,627.8 Q290.0,650.8 276.0,677.0" stroke="#120604" stroke-width="0.9" fill="none" opacity="0.3" stroke-linecap="round"/><path d="M276.0,677.0 Q259.6,682.0 218.2,705.6" stroke="#120604" stroke-width="0.6" fill="none" opacity="0.5" stroke-linecap="round"/>
  <path d="M1012.7,179.2 Q1020.3,143.7 1069.9,114.0" stroke="#120604" stroke-width="1.9" fill="none" opacity="0.3" stroke-linecap="round"/><path d="M1069.9,114.0 Q1098.8,90.4 1106.9,76.8" stroke="#120604" stroke-width="1.6" fill="none" opacity="0.5" stroke-linecap="round"/><path d="M1098.8,90.4 Q1108.2,82.1 1119.4,69.2" stroke="#120604" stroke-width="0.8" fill="none" opacity="0.5" stroke-linecap="round"/><path d="M1108.2,82.1 Q1112.3,77.8 1114.2,69.7" stroke="#120604" stroke-width="0.6" fill="none" opacity="0.5" stroke-linecap="round"/><path d="M1106.9,76.8 Q1123.8,72.4 1138.5,58.6" stroke="#120604" stroke-width="1.3" fill="none" opacity="0.5" stroke-linecap="round"/><path d="M1123.8,72.4 Q1129.3,64.8 1127.6,51.0" stroke="#120604" stroke-width="0.8" fill="none" opacity="0.5" stroke-linecap="round"/><path d="M1138.5,58.6 Q1150.4,57.3 1165.5,47.7" stroke="#120604" stroke-width="1.1" fill="none" opacity="0.5" stroke-linecap="round"/>
  <path d="M312.4,171.5 Q218.4,135.5 193.6,70.4" stroke="#120604" stroke-width="1.9" fill="none" opacity="0.5" stroke-linecap="round"/><path d="M193.6,70.4 Q118.1,40.6 100.0,-13.9" stroke="#120604" stroke-width="1.1" fill="none" opacity="0.4" stroke-linecap="round"/><path d="M118.1,40.6 Q144.3,-5.2 122.5,-43.2" stroke="#120604" stroke-width="1.3" fill="none" opacity="0.3" stroke-linecap="round"/><path d="M144.3,-5.2 Q121.3,-26.8 127.0,-51.5" stroke="#120604" stroke-width="0.9" fill="none" opacity="0.4" stroke-linecap="round"/><path d="M122.5,-43.2 Q124.3,-83.7 110.3,-112.7" stroke="#120604" stroke-width="0.7" fill="none" opacity="0.3" stroke-linecap="round"/><path d="M100.0,-13.9 Q86.4,-28.5 28.9,-50.6" stroke="#120604" stroke-width="1.4" fill="none" opacity="0.3" stroke-linecap="round"/><path d="M28.9,-50.6 Q-9.2,-59.8 -31.6,-66.4" stroke="#120604" stroke-width="0.5" fill="none" opacity="0.3" stroke-linecap="round"/>
  <path d="M1077.8,434.6 Q1056.0,372.1 1085.7,320.5" stroke="#120604" stroke-width="1.4" fill="none" opacity="0.3" stroke-linecap="round"/>
  <path d="M532.0,71.4 Q462.8,-2.0 416.6,-39.1" stroke="#120604" stroke-width="1.7" fill="none" opacity="0.4" stroke-linecap="round"/>
  <path d="M75.4,29.5 Q106.7,-15.2 107.4,-42.7" stroke="#120604" stroke-width="1.5" fill="none" opacity="0.5" stroke-linecap="round"/><path d="M106.7,-15.2 Q107.5,-33.3 129.2,-51.2" stroke="#120604" stroke-width="1.6" fill="none" opacity="0.4" stroke-linecap="round"/><path d="M107.5,-33.3 Q120.0,-41.0 126.9,-43.7" stroke="#120604" stroke-width="0.8" fill="none" opacity="0.4" stroke-linecap="round"/><path d="M120.0,-41.0 Q120.8,-44.2 130.2,-51.3" stroke="#120604" stroke-width="0.5" fill="none" opacity="0.4" stroke-linecap="round"/><path d="M126.9,-43.7 Q132.3,-48.1 135.9,-50.4" stroke="#120604" stroke-width="1.0" fill="none" opacity="0.5" stroke-linecap="round"/><path d="M129.2,-51.2 Q133.7,-64.1 151.0,-77.7" stroke="#120604" stroke-width="0.9" fill="none" opacity="0.5" stroke-linecap="round"/><path d="M151.0,-77.7 Q162.1,-87.9 160.9,-100.1" stroke="#120604" stroke-width="1.3" fill="none" opacity="0.3" stroke-linecap="round"/>

  <!-- Liquid pools -->
  <g transform="translate(664.1,1.9)"><g transform="rotate(140)">
<ellipse rx="27.6" ry="17.3" fill="#180d05" opacity="0.4"/>
<ellipse rx="26.1" ry="16.3" fill="#1e1006" opacity="0.75"/>
<ellipse cx="-4.7" cy="-3.3" rx="9.9" ry="4.6" fill="#6d645d" opacity="0.18"/>
</g></g>

  <!-- Craters -->
  <g transform="translate(274.7,168.0)"><circle r="72.8" fill="#804f3b" opacity="0.45"/>
<circle r="67.2" fill="#6a3018" opacity="0.6"/>
<circle r="61.7" fill="#180804" opacity="0.95"/>
<ellipse cx="13.6" cy="17.3" rx="44.4" ry="32.1" fill="#110603" opacity="0.45"/></g>
  <g transform="translate(1020.6,203.1)"><circle r="80.2" fill="#804f3b" opacity="0.45"/>
<circle r="74.0" fill="#6a3018" opacity="0.6"/>
<circle r="67.9" fill="#180804" opacity="0.95"/>
<ellipse cx="14.9" cy="19.0" rx="48.9" ry="35.3" fill="#110603" opacity="0.45"/></g>

  <!-- Lichen / moss patches -->
  <g transform="translate(1204.9,271.3)"><g transform="rotate(76)"><ellipse cx="15.2" cy="0.0" rx="11.4" ry="8.9" fill="#5a2e10" opacity="0.6"/><ellipse cx="4.0" cy="11.1" rx="8.4" ry="6.8" fill="#5a2e10" opacity="0.5"/><ellipse cx="-10.5" cy="7.4" rx="4.6" ry="8.1" fill="#5a2e10" opacity="0.6"/><ellipse cx="-12.6" cy="-7.4" rx="6.5" ry="4.5" fill="#5a2e10" opacity="0.5"/><ellipse cx="3.3" cy="-11.0" rx="11.9" ry="7.1" fill="#5a2e10" opacity="0.5"/></g></g>
  <g transform="translate(850.6,338.5)"><g transform="rotate(245)"><ellipse cx="25.5" cy="0.0" rx="6.9" ry="22.2" fill="#5a2e10" opacity="0.4"/><ellipse cx="19.2" cy="14.7" rx="39.5" ry="13.1" fill="#5a2e10" opacity="0.6"/><ellipse cx="-4.2" cy="12.0" rx="14.2" ry="8.6" fill="#5a2e10" opacity="0.6"/><ellipse cx="-28.2" cy="5.4" rx="32.0" ry="11.3" fill="#5a2e10" opacity="0.5"/><ellipse cx="-23.1" cy="-5.3" rx="19.4" ry="15.1" fill="#5a2e10" opacity="0.5"/><ellipse cx="-5.7" cy="-12.9" rx="6.7" ry="27.5" fill="#5a2e10" opacity="0.6"/><ellipse cx="12.8" cy="-15.6" rx="31.3" ry="20.8" fill="#5a2e10" opacity="0.6"/></g></g>
  <g transform="translate(537.2,616.6)"><g transform="rotate(351)"><ellipse cx="14.0" cy="0.0" rx="18.3" ry="11.4" fill="#5a2e10" opacity="0.6"/><ellipse cx="4.8" cy="7.1" rx="23.0" ry="6.5" fill="#5a2e10" opacity="0.5"/><ellipse cx="-12.7" cy="5.3" rx="7.4" ry="5.2" fill="#5a2e10" opacity="0.4"/><ellipse cx="-13.8" cy="-6.7" rx="17.0" ry="7.4" fill="#5a2e10" opacity="0.6"/><ellipse cx="4.4" cy="-5.6" rx="15.3" ry="7.3" fill="#5a2e10" opacity="0.5"/></g></g>
  <g transform="translate(811.9,448.4)"><g transform="rotate(163)"><ellipse cx="25.7" cy="0.0" rx="17.6" ry="4.0" fill="#5a2e10" opacity="0.5"/><ellipse cx="11.4" cy="6.8" rx="14.6" ry="7.6" fill="#5a2e10" opacity="0.5"/><ellipse cx="-7.4" cy="7.9" rx="21.0" ry="3.9" fill="#5a2e10" opacity="0.5"/><ellipse cx="-23.3" cy="0.0" rx="5.3" ry="4.9" fill="#5a2e10" opacity="0.4"/><ellipse cx="-11.7" cy="-5.7" rx="21.4" ry="6.0" fill="#5a2e10" opacity="0.4"/><ellipse cx="10.2" cy="-8.4" rx="10.8" ry="5.8" fill="#5a2e10" opacity="0.4"/></g></g>
  <g transform="translate(386.6,227.1)"><g transform="rotate(170)"><ellipse cx="13.9" cy="0.0" rx="6.4" ry="7.3" fill="#5a2e10" opacity="0.4"/><ellipse cx="3.5" cy="12.2" rx="6.2" ry="9.3" fill="#5a2e10" opacity="0.6"/><ellipse cx="-11.5" cy="7.7" rx="7.7" ry="6.6" fill="#5a2e10" opacity="0.4"/><ellipse cx="-7.5" cy="-7.2" rx="13.4" ry="5.5" fill="#5a2e10" opacity="0.6"/><ellipse cx="4.2" cy="-6.4" rx="9.3" ry="4.7" fill="#5a2e10" opacity="0.5"/></g></g>
  <g transform="translate(124.1,235.3)"><g transform="rotate(170)"><ellipse cx="12.7" cy="0.0" rx="11.5" ry="12.1" fill="#5a2e10" opacity="0.5"/><ellipse cx="7.4" cy="12.6" rx="12.9" ry="9.0" fill="#5a2e10" opacity="0.6"/><ellipse cx="-7.8" cy="6.0" rx="11.0" ry="5.6" fill="#5a2e10" opacity="0.4"/><ellipse cx="-13.3" cy="0.0" rx="13.1" ry="5.1" fill="#5a2e10" opacity="0.6"/><ellipse cx="-9.7" cy="-8.2" rx="19.5" ry="10.2" fill="#5a2e10" opacity="0.4"/><ellipse cx="6.7" cy="-5.8" rx="8.2" ry="9.3" fill="#5a2e10" opacity="0.6"/></g></g>
  <g transform="translate(236.8,666.1)"><g transform="rotate(112)"><ellipse cx="14.8" cy="0.0" rx="8.1" ry="6.3" fill="#5a2e10" opacity="0.4"/><ellipse cx="0.0" cy="12.4" rx="10.3" ry="4.2" fill="#5a2e10" opacity="0.4"/><ellipse cx="-10.2" cy="0.0" rx="3.4" ry="5.2" fill="#5a2e10" opacity="0.4"/><ellipse cx="-0.0" cy="-8.8" rx="3.5" ry="2.9" fill="#5a2e10" opacity="0.4"/></g></g>
  <g transform="translate(1018.1,309.7)"><g transform="rotate(21)"><ellipse cx="10.3" cy="0.0" rx="26.5" ry="8.0" fill="#5a2e10" opacity="0.4"/><ellipse cx="10.0" cy="6.1" rx="26.0" ry="9.7" fill="#5a2e10" opacity="0.6"/><ellipse cx="-2.5" cy="7.5" rx="10.4" ry="12.9" fill="#5a2e10" opacity="0.5"/><ellipse cx="-10.8" cy="4.3" rx="17.9" ry="15.3" fill="#5a2e10" opacity="0.4"/><ellipse cx="-13.2" cy="-3.1" rx="13.6" ry="10.0" fill="#5a2e10" opacity="0.5"/><ellipse cx="-3.3" cy="-7.8" rx="26.0" ry="14.3" fill="#5a2e10" opacity="0.6"/><ellipse cx="9.0" cy="-9.9" rx="18.2" ry="15.3" fill="#5a2e10" opacity="0.5"/></g></g>

  <!-- Crystal formations -->
  <g transform="translate(1088.0,670.7)"><polygon points="22.1,-1.5 17.4,6.1 24.6,11.3 15.7,10.9 14.8,19.8 10.6,11.9 2.5,15.6 7.2,8.1 -0.0,2.8 8.9,3.2 9.8,-5.7 14.0,2.2" fill="#5a2410" opacity="0.35"/><polygon points="19.1,-5.7 14.4,1.9 21.6,7.1 12.7,6.7 11.8,15.6 7.6,7.7 -0.5,11.4 4.2,3.9 -3.0,-1.4 5.9,-1.0 6.8,-9.9 11.0,-2.0" fill="#8a3818" opacity="0.82"/><polygon points="19.1,-5.7 14.4,1.9 21.6,7.1 12.7,6.7 11.8,15.6 7.6,7.7 -0.5,11.4 4.2,3.9 -3.0,-1.4 5.9,-1.0 6.8,-9.9 11.0,-2.0" fill="#b98874" transform="scale(0.38) translate(24.5,7.5)" opacity="0.45"/><polygon points="30.6,0.7 17.5,8.0 22.4,22.1 11.5,11.9 -0.5,21.0 5.8,7.4 -6.4,-1.2 8.4,0.6 12.8,-13.7 15.6,1.0" fill="#5a2410" opacity="0.35"/><polygon points="27.6,-3.5 14.5,3.8 19.4,17.9 8.5,7.7 -3.5,16.8 2.8,3.2 -9.4,-5.4 5.4,-3.6 9.8,-17.9 12.6,-3.2" fill="#8a3818" opacity="0.82"/><polygon points="27.6,-3.5 14.5,3.8 19.4,17.9 8.5,7.7 -3.5,16.8 2.8,3.2 -9.4,-5.4 5.4,-3.6 9.8,-17.9 12.6,-3.2" fill="#b98874" transform="scale(0.38) translate(23.1,4.2)" opacity="0.45"/><polygon points="13.0,-4.9 3.0,8.4 13.1,21.5 -2.6,16.1 -12.0,29.8 -11.7,13.2 -27.6,8.5 -11.8,3.6 -12.2,-12.9 -2.7,0.6" fill="#5a2410" opacity="0.35"/><polygon points="10.0,-9.1 0.0,4.2 10.1,17.3 -5.6,11.9 -15.0,25.6 -14.7,9.0 -30.6,4.3 -14.8,-0.6 -15.2,-17.1 -5.7,-3.6" fill="#8a3818" opacity="0.82"/><polygon points="10.0,-9.1 0.0,4.2 10.1,17.3 -5.6,11.9 -15.0,25.6 -14.7,9.0 -30.6,4.3 -14.8,-0.6 -15.2,-17.1 -5.7,-3.6" fill="#b98874" transform="scale(0.38) translate(-21.4,11.1)" opacity="0.45"/></g>
  <g transform="translate(304.2,92.4)"><polygon points="5.1,6.4 1.2,8.4 3.6,12.1 -0.4,10.4 -1.8,14.5 -3.0,10.3 -7.1,11.9 -4.5,8.3 -8.2,6.1 -3.9,5.9 -4.5,1.5 -1.6,4.8 1.5,1.6 0.7,6.0" fill="#5a2410" opacity="0.35"/><polygon points="2.1,2.2 -1.8,4.2 0.6,7.9 -3.4,6.2 -4.8,10.3 -6.0,6.1 -10.1,7.7 -7.5,4.1 -11.2,1.9 -6.9,1.7 -7.5,-2.7 -4.6,0.6 -1.5,-2.6 -2.3,1.8" fill="#8a3818" opacity="0.82"/><polygon points="2.1,2.2 -1.8,4.2 0.6,7.9 -3.4,6.2 -4.8,10.3 -6.0,6.1 -10.1,7.7 -7.5,4.1 -11.2,1.9 -6.9,1.7 -7.5,-2.7 -4.6,0.6 -1.5,-2.6 -2.3,1.8" fill="#b98874" transform="scale(0.38) translate(-12.2,9.3)" opacity="0.45"/><polygon points="-4.2,9.1 -0.8,5.4 -4.9,2.4 0.2,2.7 -0.0,-2.4 2.9,1.8 6.7,-1.5 5.2,3.4 10.2,4.3 5.5,6.2 7.9,10.7 3.5,8.1 1.5,12.8 0.7,7.8" fill="#5a2410" opacity="0.35"/><polygon points="-7.2,4.9 -3.8,1.2 -7.9,-1.8 -2.8,-1.5 -3.0,-6.6 -0.1,-2.4 3.7,-5.7 2.2,-0.8 7.2,0.1 2.5,2.0 4.9,6.5 0.5,3.9 -1.5,8.6 -2.3,3.6" fill="#8a3818" opacity="0.82"/><polygon points="-7.2,4.9 -3.8,1.2 -7.9,-1.8 -2.8,-1.5 -3.0,-6.6 -0.1,-2.4 3.7,-5.7 2.2,-0.8 7.2,0.1 2.5,2.0 4.9,6.5 0.5,3.9 -1.5,8.6 -2.3,3.6" fill="#b98874" transform="scale(0.38) translate(-1.4,2.2)" opacity="0.45"/></g>
  <g transform="translate(1084.0,295.8)"><polygon points="-8.6,6.6 -2.9,2.7 -2.6,-4.2 1.2,1.5 8.1,1.8 2.4,5.6 2.1,12.6 -1.7,6.8" fill="#5a2410" opacity="0.35"/><polygon points="-11.6,2.4 -5.9,-1.5 -5.6,-8.4 -1.8,-2.7 5.1,-2.4 -0.6,1.4 -0.9,8.4 -4.7,2.6" fill="#8a3818" opacity="0.82"/><polygon points="-11.6,2.4 -5.9,-1.5 -5.6,-8.4 -1.8,-2.7 5.1,-2.4 -0.6,1.4 -0.9,8.4 -4.7,2.6" fill="#b98874" transform="scale(0.38) translate(-8.5,-0.1)" opacity="0.45"/><polygon points="14.3,11.3 8.6,8.1 4.1,12.9 4.0,6.3 -2.5,4.9 3.2,1.5 1.2,-4.8 7.0,-1.6 11.5,-6.5 11.6,0.1 18.0,1.6 12.4,5.0" fill="#5a2410" opacity="0.35"/><polygon points="11.3,7.1 5.6,3.9 1.1,8.7 1.0,2.1 -5.5,0.7 0.2,-2.7 -1.8,-9.0 4.0,-5.8 8.5,-10.7 8.6,-4.1 15.0,-2.6 9.4,0.8" fill="#8a3818" opacity="0.82"/><polygon points="11.3,7.1 5.6,3.9 1.1,8.7 1.0,2.1 -5.5,0.7 0.2,-2.7 -1.8,-9.0 4.0,-5.8 8.5,-10.7 8.6,-4.1 15.0,-2.6 9.4,0.8" fill="#b98874" transform="scale(0.38) translate(12.6,-2.5)" opacity="0.45"/><polygon points="-1.9,4.2 2.2,-0.2 1.1,-6.2 6.6,-3.7 11.9,-6.6 11.3,-0.6 15.7,3.5 9.7,4.8 7.2,10.3 4.2,5.0" fill="#5a2410" opacity="0.35"/><polygon points="-4.9,0.0 -0.8,-4.4 -1.9,-10.4 3.6,-7.9 8.9,-10.8 8.3,-4.8 12.7,-0.7 6.7,0.6 4.2,6.1 1.2,0.8" fill="#8a3818" opacity="0.82"/><polygon points="-4.9,0.0 -0.8,-4.4 -1.9,-10.4 3.6,-7.9 8.9,-10.8 8.3,-4.8 12.7,-0.7 6.7,0.6 4.2,6.1 1.2,0.8" fill="#b98874" transform="scale(0.38) translate(10.0,-8.3)" opacity="0.45"/></g>
  <g transform="translate(633.2,190.8)"><polygon points="1.9,-11.2 5.1,-3.0 14.0,-3.4 8.4,3.6 13.2,11.0 4.4,9.7 0.4,17.6 -2.9,9.3 -11.7,9.7 -6.2,2.8 -11.0,-4.7 -2.2,-3.3" fill="#5a2410" opacity="0.35"/><polygon points="-1.1,-15.4 2.1,-7.2 11.0,-7.6 5.4,-0.6 10.2,6.8 1.4,5.5 -2.6,13.4 -5.9,5.1 -14.7,5.5 -9.2,-1.4 -14.0,-8.9 -5.2,-7.5" fill="#8a3818" opacity="0.82"/><polygon points="-1.1,-15.4 2.1,-7.2 11.0,-7.6 5.4,-0.6 10.2,6.8 1.4,5.5 -2.6,13.4 -5.9,5.1 -14.7,5.5 -9.2,-1.4 -14.0,-8.9 -5.2,-7.5" fill="#b98874" transform="scale(0.38) translate(-5.0,-2.7)" opacity="0.45"/><polygon points="-1.6,31.4 -10.8,16.3 -25.5,6.7 -10.4,-2.4 -0.8,-17.2 8.3,-2.1 23.1,7.6 8.0,16.7" fill="#5a2410" opacity="0.35"/><polygon points="-4.6,27.2 -13.8,12.1 -28.5,2.5 -13.4,-6.6 -3.8,-21.4 5.3,-6.3 20.1,3.4 5.0,12.5" fill="#8a3818" opacity="0.82"/><polygon points="-4.6,27.2 -13.8,12.1 -28.5,2.5 -13.4,-6.6 -3.8,-21.4 5.3,-6.3 20.1,3.4 5.0,12.5" fill="#b98874" transform="scale(0.38) translate(-11.1,7.7)" opacity="0.45"/><polygon points="19.6,0.5 12.5,4.0 12.4,12.0 6.9,6.3 -0.7,8.7 3.0,1.7 -1.7,-4.8 6.2,-3.4 10.9,-9.9 12.0,-2.0" fill="#5a2410" opacity="0.35"/><polygon points="16.6,-3.7 9.5,-0.2 9.4,7.8 3.9,2.1 -3.7,4.5 -0.0,-2.5 -4.7,-9.0 3.2,-7.6 7.9,-14.1 9.0,-6.2" fill="#8a3818" opacity="0.82"/><polygon points="16.6,-3.7 9.5,-0.2 9.4,7.8 3.9,2.1 -3.7,4.5 -0.0,-2.5 -4.7,-9.0 3.2,-7.6 7.9,-14.1 9.0,-6.2" fill="#b98874" transform="scale(0.38) translate(13.4,-7.6)" opacity="0.45"/></g>

  <!-- Rocks and pebbles -->
  <g transform="translate(143.9,644.7)"><g transform="rotate(176)">
<ellipse cx="5.0" cy="7.0" rx="20.2" ry="17.6" fill="#291209" opacity="0.45"/>
<ellipse rx="18.7" ry="19.6" fill="#4a2010" opacity="0.92"/>
<ellipse cx="-4.1" cy="-5.5" rx="7.1" ry="5.5" fill="#725145" opacity="0.28"/>
</g></g>
  <g transform="translate(375.1,207.6)"><circle cx="3.1" cy="3.9" r="7.7" fill="#2c130a" opacity="0.35"/><circle cx="0.6" cy="0.4" r="7.3" fill="#5c3628" opacity="0.88"/><circle cx="2.5" cy="-4.8" r="7.9" fill="#2c130a" opacity="0.35"/><circle cx="0.0" cy="-8.3" r="7.5" fill="#5c3628" opacity="0.88"/><circle cx="-0.3" cy="1.7" r="4.5" fill="#2c130a" opacity="0.35"/><circle cx="-2.8" cy="-1.8" r="4.3" fill="#431d0e" opacity="0.88"/><circle cx="0.1" cy="10.1" r="6.6" fill="#2c130a" opacity="0.35"/><circle cx="-2.4" cy="6.6" r="6.3" fill="#431d0e" opacity="0.88"/><circle cx="-11.9" cy="-4.8" r="4.0" fill="#2c130a" opacity="0.35"/><circle cx="-14.4" cy="-8.3" r="3.8" fill="#431d0e" opacity="0.88"/><circle cx="1.9" cy="-6.8" r="5.3" fill="#2c130a" opacity="0.35"/><circle cx="-0.6" cy="-10.3" r="5.1" fill="#5c3628" opacity="0.88"/><circle cx="-11.2" cy="-5.0" r="3.3" fill="#2c130a" opacity="0.35"/><circle cx="-13.7" cy="-8.5" r="3.1" fill="#5c3628" opacity="0.88"/></g>
  <g transform="translate(937.6,22.8)"><g transform="rotate(92)">
<ellipse cx="5.0" cy="7.0" rx="33.6" ry="20.7" fill="#291209" opacity="0.45"/>
<ellipse rx="31.1" ry="23.0" fill="#4a2010" opacity="0.92"/>
<ellipse cx="-6.8" cy="-6.4" rx="11.8" ry="6.4" fill="#725145" opacity="0.28"/>
</g></g>
  <g transform="translate(1034.9,335.8)"><g transform="rotate(4)">
<ellipse cx="5.0" cy="7.0" rx="14.0" ry="7.4" fill="#291209" opacity="0.45"/>
<ellipse rx="13.0" ry="8.3" fill="#4a2010" opacity="0.92"/>
<ellipse cx="-2.9" cy="-2.3" rx="4.9" ry="2.3" fill="#725145" opacity="0.28"/>
</g></g>
  <g transform="translate(6.6,181.1)"><circle cx="10.1" cy="1.4" r="6.2" fill="#2c130a" opacity="0.35"/><circle cx="7.6" cy="-2.1" r="5.9" fill="#431d0e" opacity="0.88"/><circle cx="16.4" cy="-4.0" r="6.6" fill="#2c130a" opacity="0.35"/><circle cx="13.9" cy="-7.5" r="6.3" fill="#5c3628" opacity="0.88"/><circle cx="15.2" cy="-3.6" r="3.6" fill="#2c130a" opacity="0.35"/><circle cx="12.7" cy="-7.1" r="3.4" fill="#5c3628" opacity="0.88"/><circle cx="17.0" cy="11.4" r="6.1" fill="#2c130a" opacity="0.35"/><circle cx="14.5" cy="7.9" r="5.8" fill="#431d0e" opacity="0.88"/><circle cx="-7.6" cy="-4.5" r="3.9" fill="#2c130a" opacity="0.35"/><circle cx="-10.1" cy="-8.0" r="3.7" fill="#431d0e" opacity="0.88"/><circle cx="15.8" cy="-4.2" r="6.3" fill="#2c130a" opacity="0.35"/><circle cx="13.3" cy="-7.7" r="6.0" fill="#5c3628" opacity="0.88"/><circle cx="-7.6" cy="13.2" r="9.1" fill="#2c130a" opacity="0.35"/><circle cx="-10.1" cy="9.7" r="8.7" fill="#5c3628" opacity="0.88"/></g>
  <g transform="translate(1101.2,159.9)"><g transform="rotate(27)">
<ellipse cx="5.0" cy="7.0" rx="19.2" ry="17.6" fill="#291209" opacity="0.45"/>
<ellipse rx="17.8" ry="19.5" fill="#4a2010" opacity="0.92"/>
<ellipse cx="-3.9" cy="-5.5" rx="6.8" ry="5.5" fill="#725145" opacity="0.28"/>
</g></g>
  <g transform="translate(738.2,24.9)"><g transform="rotate(96)">
<ellipse cx="5.0" cy="7.0" rx="7.0" ry="5.1" fill="#291209" opacity="0.45"/>
<ellipse rx="6.5" ry="5.7" fill="#4a2010" opacity="0.92"/>
<ellipse cx="-1.4" cy="-1.6" rx="2.5" ry="1.6" fill="#725145" opacity="0.28"/>
</g></g>
  <g transform="translate(540.3,317.4)"><g transform="rotate(186)">
<ellipse cx="5.0" cy="7.0" rx="34.1" ry="25.3" fill="#291209" opacity="0.45"/>
<ellipse rx="31.6" ry="28.1" fill="#4a2010" opacity="0.92"/>
<ellipse cx="-7.0" cy="-7.9" rx="12.0" ry="7.9" fill="#725145" opacity="0.28"/>
</g></g>
  <g transform="translate(1076.7,365.3)"><g transform="rotate(114)">
<ellipse cx="5.0" cy="7.0" rx="13.6" ry="7.6" fill="#291209" opacity="0.45"/>
<ellipse rx="12.6" ry="8.5" fill="#4a2010" opacity="0.92"/>
<ellipse cx="-2.8" cy="-2.4" rx="4.8" ry="2.4" fill="#725145" opacity="0.28"/>
</g></g>
  <g transform="translate(824.4,608.2)"><g transform="rotate(55)">
<ellipse cx="5.0" cy="7.0" rx="30.2" ry="13.3" fill="#291209" opacity="0.45"/>
<ellipse rx="28.0" ry="14.7" fill="#4a2010" opacity="0.92"/>
<ellipse cx="-6.2" cy="-4.1" rx="10.6" ry="4.1" fill="#725145" opacity="0.28"/>
</g></g>
  <g transform="translate(745.8,70.3)"><g transform="rotate(34)">
<ellipse cx="5.0" cy="7.0" rx="17.3" ry="11.2" fill="#291209" opacity="0.45"/>
<ellipse rx="16.0" ry="12.4" fill="#4a2010" opacity="0.92"/>
<ellipse cx="-3.5" cy="-3.5" rx="6.1" ry="3.5" fill="#725145" opacity="0.28"/>
</g></g>
  <g transform="translate(371.5,534.5)"><circle cx="9.6" cy="8.5" r="5.8" fill="#2c130a" opacity="0.35"/><circle cx="7.1" cy="5.0" r="5.5" fill="#5c3628" opacity="0.88"/><circle cx="-2.6" cy="-0.1" r="4.6" fill="#2c130a" opacity="0.35"/><circle cx="-5.1" cy="-3.6" r="4.4" fill="#431d0e" opacity="0.88"/><circle cx="-4.0" cy="4.8" r="5.5" fill="#2c130a" opacity="0.35"/><circle cx="-6.5" cy="1.3" r="5.2" fill="#431d0e" opacity="0.88"/></g>
  <g transform="translate(596.2,63.7)"><circle cx="4.1" cy="-8.1" r="5.4" fill="#2c130a" opacity="0.35"/><circle cx="1.6" cy="-11.6" r="5.2" fill="#431d0e" opacity="0.88"/><circle cx="-0.8" cy="11.7" r="4.3" fill="#2c130a" opacity="0.35"/><circle cx="-3.3" cy="8.2" r="4.1" fill="#431d0e" opacity="0.88"/><circle cx="-0.1" cy="-5.4" r="10.0" fill="#2c130a" opacity="0.35"/><circle cx="-2.6" cy="-8.9" r="9.5" fill="#5c3628" opacity="0.88"/><circle cx="12.7" cy="10.2" r="6.7" fill="#2c130a" opacity="0.35"/><circle cx="10.2" cy="6.7" r="6.4" fill="#5c3628" opacity="0.88"/><circle cx="14.4" cy="-1.4" r="8.6" fill="#2c130a" opacity="0.35"/><circle cx="11.9" cy="-4.9" r="8.2" fill="#431d0e" opacity="0.88"/><circle cx="-2.1" cy="3.7" r="4.9" fill="#2c130a" opacity="0.35"/><circle cx="-4.6" cy="0.2" r="4.7" fill="#5c3628" opacity="0.88"/><circle cx="-0.5" cy="15.4" r="3.6" fill="#2c130a" opacity="0.35"/><circle cx="-3.0" cy="11.9" r="3.4" fill="#5c3628" opacity="0.88"/></g>
  <g transform="translate(502.1,74.2)"><g transform="rotate(247)">
<ellipse cx="5.0" cy="7.0" rx="23.5" ry="13.9" fill="#291209" opacity="0.45"/>
<ellipse rx="21.8" ry="15.4" fill="#4a2010" opacity="0.92"/>
<ellipse cx="-4.8" cy="-4.3" rx="8.3" ry="4.3" fill="#725145" opacity="0.28"/>
</g></g>
  <g transform="translate(768.8,387.4)"><circle cx="-11.4" cy="8.5" r="6.5" fill="#2c130a" opacity="0.35"/><circle cx="-13.9" cy="5.0" r="6.2" fill="#431d0e" opacity="0.88"/><circle cx="-3.2" cy="19.9" r="7.2" fill="#2c130a" opacity="0.35"/><circle cx="-5.7" cy="16.4" r="6.8" fill="#5c3628" opacity="0.88"/><circle cx="23.8" cy="12.1" r="6.6" fill="#2c130a" opacity="0.35"/><circle cx="21.3" cy="8.6" r="6.3" fill="#431d0e" opacity="0.88"/><circle cx="14.9" cy="19.4" r="11.1" fill="#2c130a" opacity="0.35"/><circle cx="12.4" cy="15.9" r="10.6" fill="#431d0e" opacity="0.88"/><circle cx="3.8" cy="11.3" r="11.7" fill="#2c130a" opacity="0.35"/><circle cx="1.3" cy="7.8" r="11.1" fill="#431d0e" opacity="0.88"/><circle cx="-7.9" cy="18.0" r="11.9" fill="#2c130a" opacity="0.35"/><circle cx="-10.4" cy="14.5" r="11.3" fill="#5c3628" opacity="0.88"/></g>

  <!-- Alien rosette flora -->
  <g transform="translate(942.4,417.0)" opacity="0.9"><ellipse cx="11.9" cy="0.0" rx="17.0" ry="4.0" transform="rotate(0.0,11.9,0.0)" fill="#5a2e10" opacity="0.9"/><ellipse cx="9.1" cy="7.6" rx="17.0" ry="4.0" transform="rotate(40.0,9.1,7.6)" fill="#5a2e10" opacity="0.8"/><ellipse cx="2.1" cy="11.7" rx="17.0" ry="4.0" transform="rotate(80.0,2.1,11.7)" fill="#5a2e10" opacity="0.8"/><ellipse cx="-5.9" cy="10.3" rx="17.0" ry="4.0" transform="rotate(120.0,-5.9,10.3)" fill="#5a2e10" opacity="0.7"/><ellipse cx="-11.2" cy="4.1" rx="17.0" ry="4.0" transform="rotate(160.0,-11.2,4.1)" fill="#5a2e10" opacity="0.9"/><ellipse cx="-11.2" cy="-4.1" rx="17.0" ry="4.0" transform="rotate(200.0,-11.2,-4.1)" fill="#5a2e10" opacity="0.9"/><ellipse cx="-5.9" cy="-10.3" rx="17.0" ry="4.0" transform="rotate(240.0,-5.9,-10.3)" fill="#5a2e10" opacity="0.8"/><ellipse cx="2.1" cy="-11.7" rx="17.0" ry="4.0" transform="rotate(280.0,2.1,-11.7)" fill="#5a2e10" opacity="0.7"/><ellipse cx="9.1" cy="-7.6" rx="17.0" ry="4.0" transform="rotate(320.0,9.1,-7.6)" fill="#5a2e10" opacity="0.8"/><circle cx="0" cy="0" r="5.3" fill="#83624c" opacity="0.8"/></g>
  <g transform="translate(389.3,105.8)" opacity="0.7"><ellipse cx="16.2" cy="0.0" rx="23.2" ry="6.3" transform="rotate(0.0,16.2,0.0)" fill="#5a2e10" opacity="0.8"/><ellipse cx="5.0" cy="15.4" rx="23.2" ry="6.3" transform="rotate(72.0,5.0,15.4)" fill="#5a2e10" opacity="0.8"/><ellipse cx="-13.1" cy="9.5" rx="23.2" ry="6.3" transform="rotate(144.0,-13.1,9.5)" fill="#5a2e10" opacity="0.8"/><ellipse cx="-13.1" cy="-9.5" rx="23.2" ry="6.3" transform="rotate(216.0,-13.1,-9.5)" fill="#5a2e10" opacity="0.8"/><ellipse cx="5.0" cy="-15.4" rx="23.2" ry="6.3" transform="rotate(288.0,5.0,-15.4)" fill="#5a2e10" opacity="0.7"/><circle cx="0" cy="0" r="8.3" fill="#83624c" opacity="0.8"/></g>
  <g transform="translate(232.9,48.6)" opacity="0.8"><ellipse cx="15.5" cy="0.0" rx="22.1" ry="8.1" transform="rotate(0.0,15.5,0.0)" fill="#5a2e10" opacity="0.8"/><ellipse cx="11.9" cy="10.0" rx="22.1" ry="8.1" transform="rotate(40.0,11.9,10.0)" fill="#5a2e10" opacity="0.9"/><ellipse cx="2.7" cy="15.3" rx="22.1" ry="8.1" transform="rotate(80.0,2.7,15.3)" fill="#5a2e10" opacity="0.9"/><ellipse cx="-7.7" cy="13.4" rx="22.1" ry="8.1" transform="rotate(120.0,-7.7,13.4)" fill="#5a2e10" opacity="0.7"/><ellipse cx="-14.6" cy="5.3" rx="22.1" ry="8.1" transform="rotate(160.0,-14.6,5.3)" fill="#5a2e10" opacity="0.8"/><ellipse cx="-14.6" cy="-5.3" rx="22.1" ry="8.1" transform="rotate(200.0,-14.6,-5.3)" fill="#5a2e10" opacity="0.8"/><ellipse cx="-7.7" cy="-13.4" rx="22.1" ry="8.1" transform="rotate(240.0,-7.7,-13.4)" fill="#5a2e10" opacity="0.7"/><ellipse cx="2.7" cy="-15.3" rx="22.1" ry="8.1" transform="rotate(280.0,2.7,-15.3)" fill="#5a2e10" opacity="0.7"/><ellipse cx="11.9" cy="-10.0" rx="22.1" ry="8.1" transform="rotate(320.0,11.9,-10.0)" fill="#5a2e10" opacity="0.7"/><circle cx="0" cy="0" r="10.5" fill="#83624c" opacity="0.8"/></g>
  <g transform="translate(108.6,417.7)" opacity="0.6"><ellipse cx="14.8" cy="0.0" rx="21.2" ry="6.9" transform="rotate(0.0,14.8,0.0)" fill="#5a2e10" opacity="0.7"/><ellipse cx="7.4" cy="12.8" rx="21.2" ry="6.9" transform="rotate(60.0,7.4,12.8)" fill="#5a2e10" opacity="0.9"/><ellipse cx="-7.4" cy="12.8" rx="21.2" ry="6.9" transform="rotate(120.0,-7.4,12.8)" fill="#5a2e10" opacity="0.8"/><ellipse cx="-14.8" cy="0.0" rx="21.2" ry="6.9" transform="rotate(180.0,-14.8,0.0)" fill="#5a2e10" opacity="0.8"/><ellipse cx="-7.4" cy="-12.8" rx="21.2" ry="6.9" transform="rotate(240.0,-7.4,-12.8)" fill="#5a2e10" opacity="0.7"/><ellipse cx="7.4" cy="-12.8" rx="21.2" ry="6.9" transform="rotate(300.0,7.4,-12.8)" fill="#5a2e10" opacity="0.8"/><circle cx="0" cy="0" r="9.0" fill="#83624c" opacity="0.8"/></g>
  <g transform="translate(563.1,459.7)" opacity="0.9"><ellipse cx="13.5" cy="0.0" rx="19.3" ry="5.0" transform="rotate(0.0,13.5,0.0)" fill="#5a2e10" opacity="0.8"/><ellipse cx="4.2" cy="12.8" rx="19.3" ry="5.0" transform="rotate(72.0,4.2,12.8)" fill="#5a2e10" opacity="0.8"/><ellipse cx="-10.9" cy="7.9" rx="19.3" ry="5.0" transform="rotate(144.0,-10.9,7.9)" fill="#5a2e10" opacity="0.9"/><ellipse cx="-10.9" cy="-7.9" rx="19.3" ry="5.0" transform="rotate(216.0,-10.9,-7.9)" fill="#5a2e10" opacity="0.9"/><ellipse cx="4.2" cy="-12.8" rx="19.3" ry="5.0" transform="rotate(288.0,4.2,-12.8)" fill="#5a2e10" opacity="0.7"/><circle cx="0" cy="0" r="6.5" fill="#83624c" opacity="0.8"/></g>
  <g transform="translate(557.3,702.3)" opacity="0.9"><ellipse cx="12.6" cy="0.0" rx="18.0" ry="3.6" transform="rotate(0.0,12.6,0.0)" fill="#5a2e10" opacity="0.9"/><ellipse cx="8.9" cy="8.9" rx="18.0" ry="3.6" transform="rotate(45.0,8.9,8.9)" fill="#5a2e10" opacity="0.7"/><ellipse cx="0.0" cy="12.6" rx="18.0" ry="3.6" transform="rotate(90.0,0.0,12.6)" fill="#5a2e10" opacity="0.7"/><ellipse cx="-8.9" cy="8.9" rx="18.0" ry="3.6" transform="rotate(135.0,-8.9,8.9)" fill="#5a2e10" opacity="0.9"/><ellipse cx="-12.6" cy="0.0" rx="18.0" ry="3.6" transform="rotate(180.0,-12.6,0.0)" fill="#5a2e10" opacity="0.9"/><ellipse cx="-8.9" cy="-8.9" rx="18.0" ry="3.6" transform="rotate(225.0,-8.9,-8.9)" fill="#5a2e10" opacity="0.8"/><ellipse cx="-0.0" cy="-12.6" rx="18.0" ry="3.6" transform="rotate(270.0,-0.0,-12.6)" fill="#5a2e10" opacity="0.7"/><ellipse cx="8.9" cy="-8.9" rx="18.0" ry="3.6" transform="rotate(315.0,8.9,-8.9)" fill="#5a2e10" opacity="0.8"/><circle cx="0" cy="0" r="4.7" fill="#83624c" opacity="0.8"/></g>
  <g transform="translate(356.9,403.3)" opacity="0.9"><ellipse cx="7.5" cy="0.0" rx="10.8" ry="2.1" transform="rotate(0.0,7.5,0.0)" fill="#5a2e10" opacity="0.9"/><ellipse cx="2.3" cy="7.2" rx="10.8" ry="2.1" transform="rotate(72.0,2.3,7.2)" fill="#5a2e10" opacity="0.8"/><ellipse cx="-6.1" cy="4.4" rx="10.8" ry="2.1" transform="rotate(144.0,-6.1,4.4)" fill="#5a2e10" opacity="0.7"/><ellipse cx="-6.1" cy="-4.4" rx="10.8" ry="2.1" transform="rotate(216.0,-6.1,-4.4)" fill="#5a2e10" opacity="0.8"/><ellipse cx="2.3" cy="-7.2" rx="10.8" ry="2.1" transform="rotate(288.0,2.3,-7.2)" fill="#5a2e10" opacity="0.8"/><circle cx="0" cy="0" r="2.7" fill="#83624c" opacity="0.8"/></g>
  <g transform="translate(189.9,536.1)" opacity="0.6"><ellipse cx="14.0" cy="0.0" rx="20.0" ry="8.8" transform="rotate(0.0,14.0,0.0)" fill="#5a2e10" opacity="0.9"/><ellipse cx="7.0" cy="12.1" rx="20.0" ry="8.8" transform="rotate(60.0,7.0,12.1)" fill="#5a2e10" opacity="0.9"/><ellipse cx="-7.0" cy="12.1" rx="20.0" ry="8.8" transform="rotate(120.0,-7.0,12.1)" fill="#5a2e10" opacity="0.8"/><ellipse cx="-14.0" cy="0.0" rx="20.0" ry="8.8" transform="rotate(180.0,-14.0,0.0)" fill="#5a2e10" opacity="0.9"/><ellipse cx="-7.0" cy="-12.1" rx="20.0" ry="8.8" transform="rotate(240.0,-7.0,-12.1)" fill="#5a2e10" opacity="0.7"/><ellipse cx="7.0" cy="-12.1" rx="20.0" ry="8.8" transform="rotate(300.0,7.0,-12.1)" fill="#5a2e10" opacity="0.9"/><circle cx="0" cy="0" r="11.4" fill="#83624c" opacity="0.8"/></g>
  <g transform="translate(292.7,600.7)" opacity="0.6"><ellipse cx="8.1" cy="0.0" rx="11.6" ry="6.4" transform="rotate(0.0,8.1,0.0)" fill="#5a2e10" opacity="0.8"/><ellipse cx="4.0" cy="7.0" rx="11.6" ry="6.4" transform="rotate(60.0,4.0,7.0)" fill="#5a2e10" opacity="0.8"/><ellipse cx="-4.0" cy="7.0" rx="11.6" ry="6.4" transform="rotate(120.0,-4.0,7.0)" fill="#5a2e10" opacity="0.7"/><ellipse cx="-8.1" cy="0.0" rx="11.6" ry="6.4" transform="rotate(180.0,-8.1,0.0)" fill="#5a2e10" opacity="0.9"/><ellipse cx="-4.0" cy="-7.0" rx="11.6" ry="6.4" transform="rotate(240.0,-4.0,-7.0)" fill="#5a2e10" opacity="0.8"/><ellipse cx="4.0" cy="-7.0" rx="11.6" ry="6.4" transform="rotate(300.0,4.0,-7.0)" fill="#5a2e10" opacity="0.9"/><circle cx="0" cy="0" r="8.3" fill="#83624c" opacity="0.8"/></g>
  <g transform="translate(401.0,601.7)" opacity="0.9"><ellipse cx="16.7" cy="0.0" rx="23.9" ry="4.3" transform="rotate(0.0,16.7,0.0)" fill="#5a2e10" opacity="0.9"/><ellipse cx="12.8" cy="10.8" rx="23.9" ry="4.3" transform="rotate(40.0,12.8,10.8)" fill="#5a2e10" opacity="0.8"/><ellipse cx="2.9" cy="16.5" rx="23.9" ry="4.3" transform="rotate(80.0,2.9,16.5)" fill="#5a2e10" opacity="0.9"/><ellipse cx="-8.4" cy="14.5" rx="23.9" ry="4.3" transform="rotate(120.0,-8.4,14.5)" fill="#5a2e10" opacity="0.7"/><ellipse cx="-15.7" cy="5.7" rx="23.9" ry="4.3" transform="rotate(160.0,-15.7,5.7)" fill="#5a2e10" opacity="0.8"/><ellipse cx="-15.7" cy="-5.7" rx="23.9" ry="4.3" transform="rotate(200.0,-15.7,-5.7)" fill="#5a2e10" opacity="0.9"/><ellipse cx="-8.4" cy="-14.5" rx="23.9" ry="4.3" transform="rotate(240.0,-8.4,-14.5)" fill="#5a2e10" opacity="0.7"/><ellipse cx="2.9" cy="-16.5" rx="23.9" ry="4.3" transform="rotate(280.0,2.9,-16.5)" fill="#5a2e10" opacity="0.9"/><ellipse cx="12.8" cy="-10.8" rx="23.9" ry="4.3" transform="rotate(320.0,12.8,-10.8)" fill="#5a2e10" opacity="0.9"/><circle cx="0" cy="0" r="5.6" fill="#83624c" opacity="0.8"/></g>
  <g transform="translate(855.2,604.1)" opacity="0.8"><ellipse cx="6.0" cy="0.0" rx="8.6" ry="2.8" transform="rotate(0.0,6.0,0.0)" fill="#5a2e10" opacity="0.8"/><ellipse cx="4.6" cy="3.9" rx="8.6" ry="2.8" transform="rotate(40.0,4.6,3.9)" fill="#5a2e10" opacity="0.7"/><ellipse cx="1.0" cy="5.9" rx="8.6" ry="2.8" transform="rotate(80.0,1.0,5.9)" fill="#5a2e10" opacity="0.8"/><ellipse cx="-3.0" cy="5.2" rx="8.6" ry="2.8" transform="rotate(120.0,-3.0,5.2)" fill="#5a2e10" opacity="0.8"/><ellipse cx="-5.7" cy="2.1" rx="8.6" ry="2.8" transform="rotate(160.0,-5.7,2.1)" fill="#5a2e10" opacity="0.8"/><ellipse cx="-5.7" cy="-2.1" rx="8.6" ry="2.8" transform="rotate(200.0,-5.7,-2.1)" fill="#5a2e10" opacity="0.8"/><ellipse cx="-3.0" cy="-5.2" rx="8.6" ry="2.8" transform="rotate(240.0,-3.0,-5.2)" fill="#5a2e10" opacity="0.9"/><ellipse cx="1.0" cy="-5.9" rx="8.6" ry="2.8" transform="rotate(280.0,1.0,-5.9)" fill="#5a2e10" opacity="0.8"/><ellipse cx="4.6" cy="-3.9" rx="8.6" ry="2.8" transform="rotate(320.0,4.6,-3.9)" fill="#5a2e10" opacity="0.8"/><circle cx="0" cy="0" r="3.6" fill="#83624c" opacity="0.8"/></g>
</svg>