<svg xmlns="http://www.w3.org/2000/svg" viewBox="0 0 1280 720" width="1280" height="720">
  <defs>
    <linearGradient id="sky5" x1="0" y1="0" x2="0" y2="1">
      <stop offset="0%" stop-color="#0c0a18"/>
      <stop offset="85%" stop-color="#26204a"/>
      <stop offset="100%" stop-color="#302756"/>
    </linearGradient>
    <linearGradient id="fog5" x1="0" y1="0" x2="0" y2="1">
      <stop offset="0%" stop-color="#3a2e62" stop-opacity="0"/>
      <stop offset="100%" stop-color="#3a2e62" stop-opacity="0.5"/>
    </linearGradient>
    <linearGradient id="ground5" x1="0" y1="0" x2="0" y2="1">
      <stop offset="0%" stop-color="#201a3a"/>
      <stop offset="100%" stop-color="#0e0c1d"/>
    </linearGradient>
    <filter id="sfar5"><feGaussianBlur stdDeviation="2.5"/></filter>
  </defs>

  <!-- Sky gradient -->
  <rect width="1280" height="720" fill="url(#sky5)"/>

  <!-- Celestial body -->
  <circle cx="513.5" cy="238.6" r="59.3" fill="#a090e0" opacity="0.08"/>
  <circle cx="513.5" cy="238.6" r="33.9" fill="#a090e0" opacity="0.12"/>
  <circle cx="513.5" cy="238.6" r="21.2" fill="#a090e0" opacity="0.46"/>
  

  <!-- Atmospheric haze at horizon -->
  <rect x="0" y="282" width="1280" height="140" fill="url(#fog5)"/>

  <!-- Far terrain silhouette (blurred) -->
  <polygon points="0,720 0.0,387.6 58.2,374.5 116.4,361.3 174.5,351.7 232.7,348.7 290.9,352.0 349.1,357.5 407.3,360.5 465.5,360.5 523.6,360.6 581.8,362.3 640.0,365.8 698.2,371.3 756.4,378.0 814.5,383.1 872.7,384.9 930.9,383.8 989.1,382.1 1047.3,381.2 1105.5,379.1 1163.6,375.6 1221.8,374.3 1280.0,375.5 1280,720" fill="#201a3a" filter="url(#sfar5)" opacity="0.88"/>

  <!-- Near terrain -->
  <polygon points="0,720 0.0,400.8 71.1,401.3 142.2,400.5 213.3,400.5 284.4,406.9 355.6,412.0 426.7,404.4 497.8,393.6 568.9,393.0 640.0,399.8 711.1,405.1 782.2,408.9 853.3,416.5 924.4,420.9 995.6,418.4 1066.7,409.8 1137.8,397.7 1208.9,385.9 1280.0,375.4 1280,720" fill="#100e22" opacity="0.96"/>

  <!-- Ground base fill -->
  <rect x="0" y="422" width="1280" height="298" fill="url(#ground5)"/>

  <!-- Ground texture patches -->
  <ellipse cx="606.5" cy="633.3" rx="44.9" ry="14.0" fill="#0a0916" opacity="0.41"/>
  <ellipse cx="973.9" cy="558.9" rx="45.3" ry="10.2" fill="#2b293b" opacity="0.40"/>
  <ellipse cx="708.7" cy="435.9" rx="64.0" ry="7.8" fill="#2a283a" opacity="0.30"/>
  <ellipse cx="142.5" cy="586.6" rx="45.6" ry="6.8" fill="#242335" opacity="0.31"/>
  <ellipse cx="847.8" cy="446.1" rx="34.6" ry="11.3" fill="#0c0a19" opacity="0.29"/>
  <ellipse cx="538.9" cy="634.9" rx="37.8" ry="6.6" fill="#1c1a2d" opacity="0.47"/>
  <ellipse cx="349.2" cy="441.9" rx="58.9" ry="6.0" fill="#0b0a17" opacity="0.48"/>
  <ellipse cx="1030.8" cy="680.1" rx="28.6" ry="9.0" fill="#0d0b1b" opacity="0.39"/>
  <ellipse cx="1015.3" cy="668.2" rx="24.5" ry="8.1" fill="#0c0b1a" opacity="0.44"/>
  <ellipse cx="141.8" cy="458.1" rx="52.8" ry="12.0" fill="#232134" opacity="0.43"/>
  <ellipse cx="1035.9" cy="546.7" rx="69.5" ry="11.7" fill="#1c1a2d" opacity="0.49"/>
  <ellipse cx="628.0" cy="484.3" rx="30.3" ry="8.0" fill="#1c1a2d" opacity="0.51"/>
  <ellipse cx="1207.3" cy="450.9" rx="21.5" ry="12.8" fill="#201e31" opacity="0.28"/>
  <ellipse cx="1196.1" cy="639.2" rx="65.3" ry="6.7" fill="#1e1c2f" opacity="0.25"/>
  <ellipse cx="731.7" cy="549.4" rx="34.9" ry="6.4" fill="#0c0a19" opacity="0.27"/>
  <ellipse cx="223.0" cy="557.6" rx="35.7" ry="9.7" fill="#201e30" opacity="0.40"/>
  <ellipse cx="143.9" cy="430.2" rx="42.8" ry="8.3" fill="#0d0b1b" opacity="0.55"/>
  <ellipse cx="1136.5" cy="669.7" rx="50.0" ry="5.9" fill="#0d0b1b" opacity="0.55"/>
  <ellipse cx="916.0" cy="426.7" rx="67.3" ry="9.5" fill="#0b0916" opacity="0.37"/>
  <ellipse cx="1189.2" cy="639.4" rx="20.7" ry="7.5" fill="#292839" opacity="0.26"/>
  <ellipse cx="942.4" cy="569.3" rx="73.0" ry="4.3" fill="#0b0a18" opacity="0.40"/>
  <ellipse cx="1199.2" cy="486.5" rx="44.9" ry="7.0" fill="#0c0a19" opacity="0.34"/>
  <ellipse cx="1272.5" cy="538.0" rx="67.4" ry="12.5" fill="#2d2b3d" opacity="0.30"/>
  <ellipse cx="515.1" cy="662.0" rx="61.7" ry="5.7" fill="#0a0916" opacity="0.39"/>
  <ellipse cx="345.4" cy="427.5" rx="48.9" ry="10.2" fill="#0b0a18" opacity="0.35"/>
  <ellipse cx="52.7" cy="534.2" rx="58.0" ry="5.6" fill="#0a0915" opacity="0.39"/>
  <ellipse cx="111.5" cy="493.9" rx="23.1" ry="8.8" fill="#0c0a19" opacity="0.41"/>

  <!-- Ground cracks -->
  <path d="M1054.3,446.8 Q1022.8,458.2 1009.6,459.8" stroke="#0a0916" stroke-width="1.3" fill="none" opacity="0.55"/>
  <path d="M1212.3,530.9 Q1225.2,537.2 1220.4,555.6" stroke="#0a0916" stroke-width="0.6" fill="none" opacity="0.37"/>
  <path d="M75.0,568.7 Q110.5,564.7 120.7,575.5" stroke="#0a0916" stroke-width="1.0" fill="none" opacity="0.45"/>
  <path d="M461.7,450.6 Q504.6,459.1 535.8,451.6" stroke="#0a0916" stroke-width="1.2" fill="none" opacity="0.28"/>
  <path d="M139.2,454.5 Q117.8,463.4 69.1,462.8" stroke="#0a0916" stroke-width="0.9" fill="none" opacity="0.42"/>
  <path d="M682.0,537.2 Q650.8,543.4 643.1,549.7" stroke="#0a0916" stroke-width="1.3" fill="none" opacity="0.57"/>
  <path d="M1017.2,556.0 Q1003.3,555.2 988.0,562.0" stroke="#0a0916" stroke-width="1.2" fill="none" opacity="0.40"/>
  <path d="M467.8,598.6 Q486.3,606.4 504.6,599.5" stroke="#0a0916" stroke-width="0.7" fill="none" opacity="0.31"/>

  <!-- Flora -->
  <g transform="translate(209.3,405.9)" opacity="0.72"><line x1="0" y1="0" x2="0" y2="-40.4" stroke="#302850" stroke-width="2.7" stroke-linecap="round"/><line x1="0" y1="-8.1" x2="12.5" y2="-20.5" stroke="#595373" stroke-width="2.0" stroke-linecap="round" opacity="0.85"/><line x1="0" y1="-16.1" x2="11.9" y2="-23.5" stroke="#595373" stroke-width="2.0" stroke-linecap="round" opacity="0.85"/><line x1="0" y1="-24.2" x2="12.2" y2="-38.8" stroke="#595373" stroke-width="2.0" stroke-linecap="round" opacity="0.85"/><line x1="0" y1="-32.3" x2="11.0" y2="-46.6" stroke="#595373" stroke-width="2.0" stroke-linecap="round" opacity="0.85"/></g>
  <g transform="translate(548.2,457.7)" opacity="0.67"><polygon points="4.4,-21.6 5.0,0 -3.6,0" fill="#463e70" opacity="0.86"/><line x1="4.4" y1="-21.6" x2="2.0" y2="0" stroke="#746e94" stroke-width="0.8" opacity="0.5"/><polygon points="7.7,-20.3 13.4,0 3.0,0" fill="#463e70" opacity="0.81"/><line x1="7.7" y1="-20.3" x2="9.8" y2="0" stroke="#746e94" stroke-width="0.8" opacity="0.5"/><polygon points="3.1,-16.2 10.9,0 0.4,0" fill="#463e70" opacity="0.77"/><line x1="3.1" y1="-16.2" x2="7.2" y2="0" stroke="#746e94" stroke-width="0.8" opacity="0.5"/></g>
  <g transform="translate(1087.1,432.4)" opacity="0.63"><rect x="-2.0" y="-22.8" width="4.0" height="22.8" fill="#302850" rx="1.2"/><rect x="2.0" y="-10.4" width="7.6" height="4.0" fill="#302850" rx="1.2"/><circle cx="9.5" cy="-8.4" r="2.4" fill="#4f486a"/><rect x="-6.4" y="-14.2" width="8.4" height="4.0" fill="#302850" rx="1.2"/><circle cx="-6.4" cy="-12.2" r="2.4" fill="#4f486a"/></g>
  <g transform="translate(1038.6,456.1)" opacity="0.62"><line x1="0" y1="0" x2="0" y2="-31.4" stroke="#302850" stroke-width="2.0" stroke-linecap="round"/><path d="M0,-28.0 C6.4,-28.0 21.5,-19.4 21.5,-19.4" stroke="#4f486a" stroke-width="1.0" fill="none" stroke-linecap="round" opacity="0.8"/><path d="M0,-12.7 C5.0,-12.7 16.7,-6.0 16.7,-6.0" stroke="#4f486a" stroke-width="1.0" fill="none" stroke-linecap="round" opacity="0.8"/><path d="M0,-18.1 C4.2,-18.1 13.9,-12.5 13.9,-12.5" stroke="#4f486a" stroke-width="1.0" fill="none" stroke-linecap="round" opacity="0.8"/></g>
  <g transform="translate(1154.1,442.9)" opacity="0.77"><polygon points="2.4,-22.9 9.4,0 1.5,0" fill="#463e70" opacity="0.85"/><line x1="2.4" y1="-22.9" x2="6.6" y2="0" stroke="#746e94" stroke-width="0.8" opacity="0.5"/><polygon points="0.4,-14.7 4.4,0 -0.2,0" fill="#463e70" opacity="0.86"/><line x1="0.4" y1="-14.7" x2="2.8" y2="0" stroke="#746e94" stroke-width="0.8" opacity="0.5"/><polygon points="1.9,-24.4 0.7,0 -6.0,0" fill="#463e70" opacity="0.81"/><line x1="1.9" y1="-24.4" x2="-1.6" y2="0" stroke="#746e94" stroke-width="0.8" opacity="0.5"/><polygon points="-3.8,-13.0 -0.2,0 -4.4,0" fill="#463e70" opacity="0.90"/><line x1="-3.8" y1="-13.0" x2="-1.6" y2="0" stroke="#746e94" stroke-width="0.8" opacity="0.5"/></g>
  <g transform="translate(160.2,403.6)" opacity="0.74"><ellipse cx="0" cy="-8.1" rx="18.1" ry="11.6" fill="#302850" opacity="0.9"/>
<ellipse cx="3.6" cy="-12.8" rx="6.3" ry="4.6" fill="#262040" opacity="0.35"/></g>
  <g transform="translate(509.6,443.9)" opacity="0.78"><rect x="-2.2" y="-36.0" width="4.4" height="36.0" fill="#302850"/>
<ellipse cx="0" cy="-36.0" rx="17.6" ry="13.1" fill="#463e70"/>
</g>
  <g transform="translate(638.8,429.7)" opacity="0.55"><rect x="-2.2" y="-14.4" width="4.3" height="14.4" fill="#302850" rx="1.3"/><rect x="2.2" y="-12.1" width="6.6" height="4.3" fill="#302850" rx="1.3"/><circle cx="8.8" cy="-10.0" r="2.6" fill="#4f486a"/></g>
  <g transform="translate(1019.6,452.8)" opacity="0.85"><polygon points="7.2,-21.1 6.1,0 0.6,0" fill="#463e70" opacity="0.82"/><line x1="7.2" y1="-21.1" x2="4.2" y2="0" stroke="#746e94" stroke-width="0.8" opacity="0.5"/><polygon points="2.2,-11.0 2.6,0 -1.3,0" fill="#463e70" opacity="0.80"/><line x1="2.2" y1="-11.0" x2="1.2" y2="0" stroke="#746e94" stroke-width="0.8" opacity="0.5"/><polygon points="-2.8,-14.5 3.3,0 -4.3,0" fill="#463e70" opacity="0.78"/><line x1="-2.8" y1="-14.5" x2="0.7" y2="0" stroke="#746e94" stroke-width="0.8" opacity="0.5"/><polygon points="-0.5,-19.7 0.0,0 -6.2,0" fill="#463e70" opacity="0.82"/><line x1="-0.5" y1="-19.7" x2="-2.1" y2="0" stroke="#746e94" stroke-width="0.8" opacity="0.5"/><polygon points="-11.5,-21.9 -4.6,0 -8.1,0" fill="#463e70" opacity="0.84"/><line x1="-11.5" y1="-21.9" x2="-5.8" y2="0" stroke="#746e94" stroke-width="0.8" opacity="0.5"/></g>
  <g transform="translate(900.8,418.6)" opacity="0.88"><ellipse cx="0" cy="-7.2" rx="10.7" ry="10.4" fill="#302850" opacity="0.9"/>
<ellipse cx="2.1" cy="-11.4" rx="3.7" ry="4.1" fill="#262040" opacity="0.35"/></g>
  <g transform="translate(404.4,420.4)" opacity="0.61"><line x1="0" y1="0" x2="0" y2="-33.7" stroke="#302850" stroke-width="3.2" stroke-linecap="round"/><line x1="0" y1="-6.7" x2="13.9" y2="-17.7" stroke="#595373" stroke-width="2.4" stroke-linecap="round" opacity="0.85"/><line x1="0" y1="-13.5" x2="13.0" y2="-21.1" stroke="#595373" stroke-width="2.4" stroke-linecap="round" opacity="0.85"/><line x1="0" y1="-20.2" x2="16.7" y2="-34.9" stroke="#595373" stroke-width="2.4" stroke-linecap="round" opacity="0.85"/><line x1="0" y1="-27.0" x2="9.6" y2="-36.4" stroke="#595373" stroke-width="2.4" stroke-linecap="round" opacity="0.85"/></g>
  <g transform="translate(181.4,452.3)" opacity="0.56"><line x1="0" y1="0" x2="0" y2="-23.1" stroke="#302850" stroke-width="1.8" stroke-linecap="round"/><path d="M0,-10.1 C3.8,-10.1 12.7,-5.0 12.7,-5.0" stroke="#4f486a" stroke-width="0.9" fill="none" stroke-linecap="round" opacity="0.8"/><path d="M0,-8.1 C3.9,-8.1 13.1,-2.8 13.1,-2.8" stroke="#4f486a" stroke-width="0.9" fill="none" stroke-linecap="round" opacity="0.8"/><path d="M0,-18.5 C4.0,-18.5 13.3,-13.2 13.3,-13.2" stroke="#4f486a" stroke-width="0.9" fill="none" stroke-linecap="round" opacity="0.8"/><path d="M0,-8.1 C5.8,-8.1 19.3,-0.4 19.3,-0.4" stroke="#4f486a" stroke-width="0.9" fill="none" stroke-linecap="round" opacity="0.8"/><path d="M0,-11.5 C3.3,-11.5 10.9,-7.1 10.9,-7.1" stroke="#4f486a" stroke-width="0.9" fill="none" stroke-linecap="round" opacity="0.8"/><path d="M0,-18.1 C2.6,-18.1 8.8,-14.6 8.8,-14.6" stroke="#4f486a" stroke-width="0.9" fill="none" stroke-linecap="round" opacity="0.8"/></g>

  <!-- Rocks -->
  <g transform="translate(622.8,481.6)"><rect x="-16.1" y="-16.5" width="46.5" height="16.5" fill="#0a0818" opacity="0.92" rx="1"/><rect x="-6.7" y="-31.5" width="25.0" height="15.0" fill="#23212f" opacity="0.92" rx="1"/><rect x="-11.6" y="-44.5" width="34.5" height="13.1" fill="#0a0818" opacity="0.92" rx="1"/></g>
  <g transform="translate(315.1,600.0)"><polygon points="-7.4,-65.7 16.1,0 -16.1,0" fill="#0a0818" opacity="0.9"/><polygon points="-7.4,-65.7 1.6,0 16.1,0" fill="#070611" opacity="0.4"/></g>
  <g transform="translate(558.6,414.9)"><polygon points="13.1,-42.9 9.7,0 -9.7,0" fill="#0a0818" opacity="0.9"/></g>
  <g transform="translate(227.1,549.5)"><ellipse cx="0" cy="-16.2" rx="38.4" ry="23.1" fill="#0a0818" opacity="0.92"/>
<ellipse cx="9.6" cy="-23.1" rx="13.4" ry="4.6" fill="#080612" opacity="0.3"/>
<ellipse cx="-7.7" cy="-13.9" rx="7.7" ry="3.5" fill="#2f2d3b" opacity="0.2"/></g>
  <g transform="translate(210.1,562.3)"><polygon points="20.7,-70.9 9.2,0 -9.2,0" fill="#0a0818" opacity="0.9"/><polygon points="20.7,-70.9 0.9,0 9.2,0" fill="#070611" opacity="0.4"/></g>
  <g transform="translate(1262.7,586.9)"><polygon points="6.3,-18.8 6.7,0 -6.7,0" fill="#0a0818" opacity="0.9"/><polygon points="6.3,-18.8 0.7,0 6.7,0" fill="#070611" opacity="0.4"/></g>
  <g transform="translate(375.1,602.5)"><ellipse cx="0" cy="-8.8" rx="27.4" ry="12.5" fill="#0a0818" opacity="0.92"/>
<ellipse cx="6.9" cy="-12.5" rx="9.6" ry="2.5" fill="#080612" opacity="0.3"/>
<ellipse cx="-5.5" cy="-7.5" rx="5.5" ry="1.9" fill="#2f2d3b" opacity="0.2"/></g>
  <g transform="translate(162.2,462.9)"><rect x="-32.9" y="-12.5" width="54.3" height="12.5" fill="#0a0818" opacity="0.92" rx="1"/><rect x="-18.4" y="-28.7" width="40.5" height="16.3" fill="#23212f" opacity="0.92" rx="1"/></g>
  <g transform="translate(453.8,580.4)"><ellipse cx="0" cy="-14.0" rx="26.4" ry="19.9" fill="#0a0818" opacity="0.92"/>
<ellipse cx="6.6" cy="-19.9" rx="9.2" ry="4.0" fill="#080612" opacity="0.3"/>
<ellipse cx="-5.3" cy="-12.0" rx="5.3" ry="3.0" fill="#2f2d3b" opacity="0.2"/></g>
  <g transform="translate(198.1,649.7)"><ellipse cx="0" cy="-17.9" rx="33.3" ry="25.6" fill="#0a0818" opacity="0.92"/>
<ellipse cx="8.3" cy="-25.6" rx="11.6" ry="5.1" fill="#080612" opacity="0.3"/>
<ellipse cx="-6.7" cy="-15.3" rx="6.7" ry="3.8" fill="#2f2d3b" opacity="0.2"/></g>
  <g transform="translate(525.3,398.7)"><rect x="-30.3" y="-19.0" width="49.3" height="19.0" fill="#0a0818" opacity="0.92" rx="1"/><rect x="-35.7" y="-27.9" width="57.9" height="8.9" fill="#23212f" opacity="0.92" rx="1"/></g>
  <g transform="translate(593.9,439.7)"><polygon points="1.9,-42.4 11.1,0 -11.1,0" fill="#0a0818" opacity="0.9"/><polygon points="1.9,-42.4 1.1,0 11.1,0" fill="#070611" opacity="0.4"/></g>

  <!-- Foreground elements -->
  <g transform="translate(1084.5,700.5)" opacity="0.68"><line x1="0" y1="0" x2="0" y2="-60.9" stroke="#302850" stroke-width="4.0" stroke-linecap="round"/><line x1="0" y1="-7.6" x2="26.2" y2="-27.9" stroke="#595373" stroke-width="3.0" stroke-linecap="round" opacity="0.85"/><line x1="0" y1="-15.2" x2="13.2" y2="-30.8" stroke="#595373" stroke-width="3.0" stroke-linecap="round" opacity="0.85"/><line x1="0" y1="-22.8" x2="17.4" y2="-31.4" stroke="#595373" stroke-width="3.0" stroke-linecap="round" opacity="0.85"/><line x1="0" y1="-30.5" x2="12.2" y2="-47.7" stroke="#595373" stroke-width="3.0" stroke-linecap="round" opacity="0.85"/><line x1="0" y1="-38.1" x2="14.2" y2="-47.4" stroke="#595373" stroke-width="3.0" stroke-linecap="round" opacity="0.85"/><line x1="0" y1="-45.7" x2="21.7" y2="-61.7" stroke="#595373" stroke-width="3.0" stroke-linecap="round" opacity="0.85"/><line x1="0" y1="-53.3" x2="11.8" y2="-62.6" stroke="#595373" stroke-width="3.0" stroke-linecap="round" opacity="0.85"/></g>
  <g transform="translate(746.9,677.3)" opacity="0.80"><polygon points="32.4,-70.2 31.4,0 -0.3,0" fill="#463e70" opacity="0.81"/><line x1="32.4" y1="-70.2" x2="20.3" y2="0" stroke="#746e94" stroke-width="0.8" opacity="0.5"/><polygon points="-27.2,-36.2 -18.5,0 -32.1,0" fill="#463e70" opacity="0.92"/><line x1="-27.2" y1="-36.2" x2="-23.3" y2="0" stroke="#746e94" stroke-width="0.8" opacity="0.5"/><polygon points="-4.5,-29.5 4.2,0 -27.4,0" fill="#463e70" opacity="0.89"/><line x1="-4.5" y1="-29.5" x2="-6.8" y2="0" stroke="#746e94" stroke-width="0.8" opacity="0.5"/><polygon points="14.7,-47.5 31.2,0 7.0,0" fill="#463e70" opacity="0.82"/><line x1="14.7" y1="-47.5" x2="22.7" y2="0" stroke="#746e94" stroke-width="0.8" opacity="0.5"/></g>
  <g transform="translate(269.2,673.7)" opacity="0.70"><rect x="-41.4" y="-19.9" width="62.8" height="19.9" fill="#0a0818" opacity="0.92" rx="1"/><rect x="-23.2" y="-35.4" width="55.8" height="15.5" fill="#23212f" opacity="0.92" rx="1"/><rect x="-15.5" y="-49.9" width="37.5" height="14.4" fill="#0a0818" opacity="0.92" rx="1"/></g>
  <g transform="translate(958.5,668.1)" opacity="0.75"><ellipse cx="0" cy="-23.9" rx="65.8" ry="34.2" fill="#0a0818" opacity="0.92"/>
<ellipse cx="16.5" cy="-34.2" rx="23.0" ry="6.8" fill="#080612" opacity="0.3"/>
<ellipse cx="-13.2" cy="-20.5" rx="13.2" ry="5.1" fill="#2f2d3b" opacity="0.2"/></g>

  <!-- Atmospheric dust -->
  <circle cx="402.2" cy="422.2" r="2.2" fill="#3a2e62" opacity="0.24"/>
  <circle cx="1260.7" cy="409.9" r="1.5" fill="#3a2e62" opacity="0.22"/>
  <circle cx="397.6" cy="407.1" r="1.8" fill="#3a2e62" opacity="0.19"/>
  <circle cx="20.0" cy="377.7" r="1.0" fill="#3a2e62" opacity="0.17"/>
  <circle cx="621.8" cy="379.4" r="2.0" fill="#3a2e62" opacity="0.23"/>
  <circle cx="1127.5" cy="414.7" r="1.8" fill="#3a2e62" opacity="0.12"/>
  <circle cx="823.2" cy="360.3" r="1.8" fill="#3a2e62" opacity="0.16"/>
  <circle cx="1149.2" cy="374.7" r="1.6" fill="#3a2e62" opacity="0.16"/>
  <circle cx="489.8" cy="403.7" r="1.7" fill="#3a2e62" opacity="0.09"/>
  <circle cx="222.5" cy="356.3" r="1.9" fill="#3a2e62" opacity="0.18"/>
  <circle cx="994.6" cy="443.1" r="0.9" fill="#3a2e62" opacity="0.10"/>
  <circle cx="329.7" cy="448.3" r="1.2" fill="#3a2e62" opacity="0.15"/>
  <circle cx="1063.1" cy="420.6" r="1.7" fill="#3a2e62" opacity="0.26"/>
  <circle cx="1014.0" cy="358.1" r="2.3" fill="#3a2e62" opacity="0.16"/>
  <circle cx="789.8" cy="449.8" r="1.6" fill="#3a2e62" opacity="0.13"/>
  <circle cx="1081.2" cy="423.1" r="2.5" fill="#3a2e62" opacity="0.10"/>
  <circle cx="21.5" cy="430.6" r="0.9" fill="#3a2e62" opacity="0.21"/>
  <circle cx="1074.5" cy="432.9" r="1.8" fill="#3a2e62" opacity="0.11"/>
  <circle cx="376.6" cy="392.7" r="1.2" fill="#3a2e62" opacity="0.18"/>
  <circle cx="793.1" cy="369.5" r="1.3" fill="#3a2e62" opacity="0.11"/>
  <circle cx="113.8" cy="411.6" r="1.7" fill="#3a2e62" opacity="0.22"/>
  <circle cx="334.5" cy="422.7" r="1.2" fill="#3a2e62" opacity="0.22"/>
  <circle cx="812.1" cy="374.7" r="0.9" fill="#3a2e62" opacity="0.14"/>
  <circle cx="1086.6" cy="446.8" r="0.9" fill="#3a2e62" opacity="0.13"/>
  <circle cx="3.9" cy="402.8" r="2.0" fill="#3a2e62" opacity="0.17"/>
  <circle cx="20.6" cy="447.9" r="1.9" fill="#3a2e62" opacity="0.10"/>
  <circle cx="422.3" cy="390.1" r="1.8" fill="#3a2e62" opacity="0.15"/>
  <circle cx="292.9" cy="425.6" r="1.4" fill="#3a2e62" opacity="0.26"/>
  <circle cx="379.3" cy="433.7" r="0.9" fill="#3a2e62" opacity="0.15"/>
  <circle cx="1188.7" cy="369.5" r="1.2" fill="#3a2e62" opacity="0.10"/>
</svg>