<svg xmlns="http://www.w3.org/2000/svg" viewBox="0 0 1280 720" width="1280" height="720">
  <defs>
    <linearGradient id="sky8" x1="0" y1="0" x2="0" y2="1">
      <stop offset="0%" stop-color="#020e0c"/>
      <stop offset="85%" stop-color="#102820"/>
      <stop offset="100%" stop-color="#143024"/>
    </linearGradient>
    <linearGradient id="fog8" x1="0" y1="0" x2="0" y2="1">
      <stop offset="0%" stop-color="#183828" stop-opacity="0"/>
      <stop offset="100%" stop-color="#183828" stop-opacity="0.5"/>
    </linearGradient>
    <linearGradient id="ground8" x1="0" y1="0" x2="0" y2="1">
      <stop offset="0%" stop-color="#0c1e18"/>
      <stop offset="100%" stop-color="#050c0a"/>
    </linearGradient>
    <filter id="sfar8"><feGaussianBlur stdDeviation="2.5"/></filter>
  </defs>

  <!-- Sky gradient -->
  <rect width="1280" height="720" fill="url(#sky8)"/>

  <!-- Celestial body -->
  <circle cx="637.3" cy="99.8" r="90.5" fill="#408060" opacity="0.06"/>
  <circle cx="637.3" cy="99.8" r="51.7" fill="#408060" opacity="0.09"/>
  <circle cx="637.3" cy="99.8" r="32.3" fill="#408060" opacity="0.36"/>
  

  <!-- Atmospheric haze at horizon -->
  <rect x="0" y="226" width="1280" height="140" fill="url(#fog8)"/>

  <!-- Far terrain silhouette (blurred) -->
  <polygon points="0,720 0.0,341.4 58.2,321.7 116.4,311.2 174.5,306.9 232.7,303.0 290.9,300.1 349.1,301.1 407.3,303.3 465.5,303.8 523.6,305.2 581.8,311.2 640.0,321.7 698.2,333.3 756.4,340.8 814.5,342.4 872.7,340.1 930.9,336.5 989.1,334.4 1047.3,334.1 1105.5,329.7 1163.6,316.9 1221.8,298.8 1280.0,279.8 1280,720" fill="#0c1e18" filter="url(#sfar8)" opacity="0.88"/>

  <!-- Near terrain -->
  <polygon points="0,720 0.0,318.4 71.1,328.6 142.2,338.3 213.3,348.6 284.4,357.1 355.6,359.6 426.7,359.4 497.8,361.5 568.9,362.5 640.0,367.1 711.1,375.5 782.2,378.9 853.3,376.6 924.4,369.0 995.6,364.2 1066.7,367.0 1137.8,366.8 1208.9,357.1 1280.0,341.8 1280,720" fill="#060e0c" opacity="0.96"/>

  <!-- Ground base fill -->
  <rect x="0" y="366" width="1280" height="354" fill="url(#ground8)"/>

  <!-- Ground texture patches -->
  <ellipse cx="783.5" cy="385.7" rx="43.8" ry="10.3" fill="#040908" opacity="0.38"/>
  <ellipse cx="1054.6" cy="537.7" rx="35.6" ry="11.2" fill="#222927" opacity="0.53"/>
  <ellipse cx="501.7" cy="691.1" rx="24.7" ry="12.3" fill="#161e1c" opacity="0.27"/>
  <ellipse cx="1027.2" cy="666.9" rx="41.8" ry="11.1" fill="#040908" opacity="0.38"/>
  <ellipse cx="959.8" cy="521.1" rx="21.7" ry="11.7" fill="#040908" opacity="0.51"/>
  <ellipse cx="476.6" cy="617.4" rx="27.6" ry="13.7" fill="#040908" opacity="0.51"/>
  <ellipse cx="1138.0" cy="666.6" rx="37.4" ry="6.6" fill="#040a09" opacity="0.48"/>
  <ellipse cx="1164.5" cy="457.1" rx="53.9" ry="5.2" fill="#040908" opacity="0.53"/>
  <ellipse cx="728.4" cy="577.5" rx="59.7" ry="4.8" fill="#040a09" opacity="0.47"/>
  <ellipse cx="520.7" cy="511.1" rx="24.0" ry="8.0" fill="#202725" opacity="0.37"/>
  <ellipse cx="890.7" cy="392.7" rx="53.5" ry="7.8" fill="#141b1a" opacity="0.42"/>
  <ellipse cx="421.1" cy="405.4" rx="67.7" ry="10.3" fill="#18201e" opacity="0.29"/>
  <ellipse cx="801.5" cy="409.7" rx="31.9" ry="12.5" fill="#141c1a" opacity="0.53"/>
  <ellipse cx="768.8" cy="520.3" rx="66.7" ry="12.0" fill="#1f2624" opacity="0.47"/>
  <ellipse cx="1004.6" cy="694.4" rx="36.7" ry="9.8" fill="#1b2321" opacity="0.52"/>
  <ellipse cx="831.9" cy="414.9" rx="39.4" ry="7.0" fill="#131a18" opacity="0.39"/>
  <ellipse cx="363.6" cy="583.3" rx="38.0" ry="8.5" fill="#040a08" opacity="0.39"/>
  <ellipse cx="77.8" cy="645.6" rx="59.7" ry="11.4" fill="#1a211f" opacity="0.43"/>
  <ellipse cx="910.0" cy="500.7" rx="49.2" ry="6.7" fill="#1e2523" opacity="0.37"/>
  <ellipse cx="1002.3" cy="505.4" rx="30.7" ry="8.2" fill="#050b09" opacity="0.50"/>
  <ellipse cx="38.4" cy="416.6" rx="28.9" ry="4.1" fill="#050b09" opacity="0.26"/>
  <ellipse cx="26.9" cy="386.1" rx="49.8" ry="13.3" fill="#040a09" opacity="0.46"/>
  <ellipse cx="105.1" cy="682.7" rx="40.3" ry="11.4" fill="#171e1c" opacity="0.38"/>
  <ellipse cx="1159.4" cy="662.8" rx="19.4" ry="12.7" fill="#19211f" opacity="0.30"/>
  <ellipse cx="931.9" cy="663.0" rx="65.7" ry="10.9" fill="#050b09" opacity="0.54"/>
  <ellipse cx="636.8" cy="445.9" rx="54.5" ry="10.1" fill="#040a09" opacity="0.33"/>
  <ellipse cx="90.2" cy="422.1" rx="21.6" ry="11.8" fill="#040a09" opacity="0.31"/>
  <ellipse cx="866.3" cy="550.6" rx="50.7" ry="4.5" fill="#262d2b" opacity="0.29"/>
  <ellipse cx="979.1" cy="406.6" rx="32.3" ry="5.8" fill="#040908" opacity="0.26"/>
  <ellipse cx="370.7" cy="465.3" rx="29.8" ry="11.5" fill="#222a28" opacity="0.37"/>
  <ellipse cx="80.5" cy="635.3" rx="70.7" ry="8.7" fill="#1f2624" opacity="0.35"/>
  <ellipse cx="637.1" cy="493.9" rx="22.1" ry="6.6" fill="#151d1b" opacity="0.35"/>
  <ellipse cx="166.2" cy="465.0" rx="46.5" ry="10.6" fill="#050b09" opacity="0.40"/>
  <ellipse cx="107.9" cy="532.0" rx="66.2" ry="7.6" fill="#18201e" opacity="0.44"/>

  <!-- Ground cracks -->
  <path d="M983.7,593.9 Q1002.0,600.3 996.9,611.3" stroke="#040908" stroke-width="0.6" fill="none" opacity="0.29"/>
  <path d="M735.2,412.2 Q709.0,417.1 693.3,435.9" stroke="#040908" stroke-width="0.9" fill="none" opacity="0.50"/>
  <path d="M413.7,461.3 Q439.6,456.6 466.0,466.3" stroke="#040908" stroke-width="0.5" fill="none" opacity="0.28"/>
  <path d="M971.8,557.2 Q994.7,563.4 998.7,584.4" stroke="#040908" stroke-width="1.1" fill="none" opacity="0.58"/>
  <path d="M296.9,515.3 Q308.1,517.9 330.6,515.7" stroke="#040908" stroke-width="0.8" fill="none" opacity="0.53"/>
  <path d="M526.2,627.2 Q488.4,631.9 477.1,629.8" stroke="#040908" stroke-width="1.2" fill="none" opacity="0.27"/>
  <path d="M738.3,482.2 Q773.0,486.3 776.0,492.0" stroke="#040908" stroke-width="0.7" fill="none" opacity="0.37"/>
  <path d="M1001.2,392.7 Q1002.1,395.7 989.6,403.2" stroke="#040908" stroke-width="0.8" fill="none" opacity="0.34"/>
  <path d="M919.0,507.7 Q913.8,519.3 884.3,518.4" stroke="#040908" stroke-width="1.2" fill="none" opacity="0.38"/>
  <path d="M194.3,397.8 Q172.2,402.1 172.1,420.9" stroke="#040908" stroke-width="0.7" fill="none" opacity="0.53"/>
  <path d="M159.5,458.0 Q151.5,472.9 163.8,480.5" stroke="#040908" stroke-width="1.2" fill="none" opacity="0.30"/>
  <path d="M895.8,385.4 Q892.9,401.2 916.4,413.1" stroke="#040908" stroke-width="0.8" fill="none" opacity="0.51"/>
  <path d="M575.1,583.7 Q604.1,590.7 644.7,598.6" stroke="#040908" stroke-width="1.2" fill="none" opacity="0.41"/>

  <!-- Flora -->
  <g transform="translate(167.4,398.3)" opacity="0.55"><rect x="-0.9" y="-16.2" width="1.9" height="16.2" fill="#102018"/>
<ellipse cx="0" cy="-16.2" rx="13.8" ry="4.7" fill="#183028"/>
<circle cx="4.2" cy="-16.0" r="1.0" fill="#52645e" opacity="0.7"/></g>
  <g transform="translate(591.8,400.1)" opacity="0.89"><polygon points="-2.3,-18.0 3.0,0 -8.8,0" fill="#183028" opacity="0.89"/><line x1="-2.3" y1="-18.0" x2="-1.1" y2="0" stroke="#52645e" stroke-width="0.8" opacity="0.5"/><polygon points="-3.3,-24.9 -5.3,0 -10.1,0" fill="#183028" opacity="0.86"/><line x1="-3.3" y1="-24.9" x2="-7.0" y2="0" stroke="#52645e" stroke-width="0.8" opacity="0.5"/><polygon points="-1.1,-10.8 3.2,0 -8.8,0" fill="#183028" opacity="0.79"/><line x1="-1.1" y1="-10.8" x2="-1.0" y2="0" stroke="#52645e" stroke-width="0.8" opacity="0.5"/><polygon points="-1.0,-28.6 2.0,0 -7.5,0" fill="#183028" opacity="0.78"/><line x1="-1.0" y1="-28.6" x2="-1.4" y2="0" stroke="#52645e" stroke-width="0.8" opacity="0.5"/><polygon points="1.7,-20.5 5.0,0 -3.3,0" fill="#183028" opacity="0.87"/><line x1="1.7" y1="-20.5" x2="2.1" y2="0" stroke="#52645e" stroke-width="0.8" opacity="0.5"/></g>
  <g transform="translate(440.8,382.3)" opacity="0.50"><rect x="-2.1" y="-31.7" width="4.1" height="31.7" fill="#102018"/>
<ellipse cx="0" cy="-31.7" rx="12.5" ry="8.7" fill="#183028"/>
</g>
  <g transform="translate(239.7,398.5)" opacity="0.90"><polygon points="8.8,-14.0 11.1,0 2.2,0" fill="#183028" opacity="0.83"/><line x1="8.8" y1="-14.0" x2="8.0" y2="0" stroke="#52645e" stroke-width="0.8" opacity="0.5"/><polygon points="-9.3,-36.3 5.8,0 -6.4,0" fill="#183028" opacity="0.88"/><line x1="-9.3" y1="-36.3" x2="1.5" y2="0" stroke="#52645e" stroke-width="0.8" opacity="0.5"/><polygon points="11.5,-37.7 10.4,0 3.4,0" fill="#183028" opacity="0.81"/><line x1="11.5" y1="-37.7" x2="8.0" y2="0" stroke="#52645e" stroke-width="0.8" opacity="0.5"/><polygon points="2.2,-18.3 6.3,0 -8.0,0" fill="#183028" opacity="0.83"/><line x1="2.2" y1="-18.3" x2="1.3" y2="0" stroke="#52645e" stroke-width="0.8" opacity="0.5"/></g>
  <g transform="translate(204.8,363.8)" opacity="0.88"><rect x="-1.8" y="-18.8" width="3.5" height="18.8" fill="#102018" rx="1.1"/><rect x="1.8" y="-8.8" width="10.4" height="3.5" fill="#102018" rx="1.1"/><circle cx="12.1" cy="-7.0" r="2.1" fill="#34413b"/></g>
  <g transform="translate(1260.8,357.3)" opacity="0.87"><line x1="0" y1="0" x2="0" y2="-47.5" stroke="#102018" stroke-width="3.0" stroke-linecap="round"/><path d="M0,-20.3 C7.2,-20.3 24.0,-10.7 24.0,-10.7" stroke="#34413b" stroke-width="1.4" fill="none" stroke-linecap="round" opacity="0.8"/><path d="M0,-21.0 C8.3,-21.0 27.7,-9.9 27.7,-9.9" stroke="#34413b" stroke-width="1.4" fill="none" stroke-linecap="round" opacity="0.8"/><path d="M0,-22.6 C6.0,-22.6 19.9,-14.6 19.9,-14.6" stroke="#34413b" stroke-width="1.4" fill="none" stroke-linecap="round" opacity="0.8"/><path d="M0,-36.4 C-9.3,-36.4 -30.9,-24.0 -30.9,-24.0" stroke="#34413b" stroke-width="1.4" fill="none" stroke-linecap="round" opacity="0.8"/><path d="M0,-15.4 C-9.9,-15.4 -33.1,-2.2 -33.1,-2.2" stroke="#34413b" stroke-width="1.4" fill="none" stroke-linecap="round" opacity="0.8"/><path d="M0,-18.2 C6.7,-18.2 22.2,-9.3 22.2,-9.3" stroke="#34413b" stroke-width="1.4" fill="none" stroke-linecap="round" opacity="0.8"/></g>
  <g transform="translate(1234.2,407.6)" opacity="0.55"><polygon points="-13.1,-23.9 -1.9,0 -14.5,0" fill="#183028" opacity="0.83"/><line x1="-13.1" y1="-23.9" x2="-6.3" y2="0" stroke="#52645e" stroke-width="0.8" opacity="0.5"/><polygon points="5.4,-17.7 8.0,0 -5.7,0" fill="#183028" opacity="0.81"/><line x1="5.4" y1="-17.7" x2="3.2" y2="0" stroke="#52645e" stroke-width="0.8" opacity="0.5"/><polygon points="-2.4,-39.6 -4.2,0 -17.6,0" fill="#183028" opacity="0.91"/><line x1="-2.4" y1="-39.6" x2="-8.9" y2="0" stroke="#52645e" stroke-width="0.8" opacity="0.5"/><polygon points="-8.9,-12.1 -0.9,0 -12.6,0" fill="#183028" opacity="0.82"/><line x1="-8.9" y1="-12.1" x2="-5.0" y2="0" stroke="#52645e" stroke-width="0.8" opacity="0.5"/><polygon points="5.3,-19.7 13.7,0 4.9,0" fill="#183028" opacity="0.77"/><line x1="5.3" y1="-19.7" x2="10.6" y2="0" stroke="#52645e" stroke-width="0.8" opacity="0.5"/></g>
  <g transform="translate(985.5,380.2)" opacity="0.81"><line x1="0" y1="0" x2="0" y2="-34.8" stroke="#102018" stroke-width="2.7" stroke-linecap="round"/><path d="M0,-24.7 C-9.7,-24.7 -32.2,-11.8 -32.2,-11.8" stroke="#34413b" stroke-width="1.3" fill="none" stroke-linecap="round" opacity="0.8"/><path d="M0,-21.4 C-5.0,-21.4 -16.7,-14.7 -16.7,-14.7" stroke="#34413b" stroke-width="1.3" fill="none" stroke-linecap="round" opacity="0.8"/><path d="M0,-12.3 C5.7,-12.3 19.0,-4.8 19.0,-4.8" stroke="#34413b" stroke-width="1.3" fill="none" stroke-linecap="round" opacity="0.8"/><path d="M0,-30.1 C7.6,-30.1 25.3,-20.0 25.3,-20.0" stroke="#34413b" stroke-width="1.3" fill="none" stroke-linecap="round" opacity="0.8"/></g>
  <g transform="translate(148.2,395.4)" opacity="0.87"><ellipse cx="0" cy="-8.6" rx="20.7" ry="12.3" fill="#102018" opacity="0.9"/>
<ellipse cx="4.1" cy="-13.6" rx="7.2" ry="4.9" fill="#0d1a13" opacity="0.35"/></g>
  <g transform="translate(255.6,371.4)" opacity="0.94"><rect x="-1.1" y="-13.8" width="2.1" height="13.8" fill="#102018"/>
<ellipse cx="0" cy="-13.8" rx="14.0" ry="6.7" fill="#183028"/>
<circle cx="-3.8" cy="-17.3" r="1.4" fill="#52645e" opacity="0.7"/></g>
  <g transform="translate(274.8,347.1)" opacity="0.55"><line x1="0" y1="0" x2="0" y2="-22.1" stroke="#102018" stroke-width="1.3" stroke-linecap="round"/><path d="M0,-19.1 C4.5,-19.1 15.0,-13.1 15.0,-13.1" stroke="#34413b" stroke-width="0.6" fill="none" stroke-linecap="round" opacity="0.8"/><path d="M0,-9.5 C-3.3,-9.5 -10.9,-5.1 -10.9,-5.1" stroke="#34413b" stroke-width="0.6" fill="none" stroke-linecap="round" opacity="0.8"/><path d="M0,-18.5 C2.9,-18.5 9.8,-14.5 9.8,-14.5" stroke="#34413b" stroke-width="0.6" fill="none" stroke-linecap="round" opacity="0.8"/><path d="M0,-13.5 C-3.4,-13.5 -11.3,-9.0 -11.3,-9.0" stroke="#34413b" stroke-width="0.6" fill="none" stroke-linecap="round" opacity="0.8"/><path d="M0,-11.6 C-3.3,-11.6 -11.1,-7.2 -11.1,-7.2" stroke="#34413b" stroke-width="0.6" fill="none" stroke-linecap="round" opacity="0.8"/><path d="M0,-14.0 C-3.6,-14.0 -12.2,-9.2 -12.2,-9.2" stroke="#34413b" stroke-width="0.6" fill="none" stroke-linecap="round" opacity="0.8"/></g>
  <g transform="translate(1144.0,348.5)" opacity="0.82"><line x1="0" y1="0" x2="0" y2="-15.3" stroke="#102018" stroke-width="1.3" stroke-linecap="round"/><line x1="0" y1="-1.9" x2="7.0" y2="-6.6" stroke="#404d46" stroke-width="1.0" stroke-linecap="round" opacity="0.85"/><line x1="0" y1="-3.8" x2="7.1" y2="-11.6" stroke="#404d46" stroke-width="1.0" stroke-linecap="round" opacity="0.85"/><line x1="0" y1="-5.7" x2="3.7" y2="-10.2" stroke="#404d46" stroke-width="1.0" stroke-linecap="round" opacity="0.85"/><line x1="0" y1="-7.7" x2="5.0" y2="-13.2" stroke="#404d46" stroke-width="1.0" stroke-linecap="round" opacity="0.85"/><line x1="0" y1="-9.6" x2="4.6" y2="-12.3" stroke="#404d46" stroke-width="1.0" stroke-linecap="round" opacity="0.85"/><line x1="0" y1="-11.5" x2="7.1" y2="-15.4" stroke="#404d46" stroke-width="1.0" stroke-linecap="round" opacity="0.85"/><line x1="0" y1="-13.4" x2="9.6" y2="-18.0" stroke="#404d46" stroke-width="1.0" stroke-linecap="round" opacity="0.85"/></g>
  <g transform="translate(1136.5,369.3)" opacity="0.64"><rect x="-2.0" y="-34.5" width="4.0" height="34.5" fill="#102018"/>
<ellipse cx="0" cy="-34.5" rx="18.7" ry="8.7" fill="#183028"/>
<circle cx="4.1" cy="-39.6" r="3.0" fill="#52645e" opacity="0.7"/><circle cx="-3.3" cy="-38.7" r="3.1" fill="#52645e" opacity="0.7"/><circle cx="-1.9" cy="-40.4" r="3.3" fill="#52645e" opacity="0.7"/></g>
  <g transform="translate(1250.5,376.7)" opacity="0.64"><polygon points="11.2,-9.9 11.5,0 6.5,0" fill="#183028" opacity="0.92"/><line x1="11.2" y1="-9.9" x2="9.8" y2="0" stroke="#52645e" stroke-width="0.8" opacity="0.5"/><polygon points="6.5,-25.7 8.6,0 2.1,0" fill="#183028" opacity="0.87"/><line x1="6.5" y1="-25.7" x2="6.3" y2="0" stroke="#52645e" stroke-width="0.8" opacity="0.5"/><polygon points="-0.7,-22.3 -1.3,0 -8.8,0" fill="#183028" opacity="0.77"/><line x1="-0.7" y1="-22.3" x2="-3.9" y2="0" stroke="#52645e" stroke-width="0.8" opacity="0.5"/><polygon points="9.3,-33.2 8.8,0 -2.0,0" fill="#183028" opacity="0.77"/><line x1="9.3" y1="-33.2" x2="5.0" y2="0" stroke="#52645e" stroke-width="0.8" opacity="0.5"/><polygon points="8.7,-11.0 12.9,0 2.7,0" fill="#183028" opacity="0.82"/><line x1="8.7" y1="-11.0" x2="9.3" y2="0" stroke="#52645e" stroke-width="0.8" opacity="0.5"/><polygon points="7.7,-21.2 5.4,0 0.4,0" fill="#183028" opacity="0.90"/><line x1="7.7" y1="-21.2" x2="3.6" y2="0" stroke="#52645e" stroke-width="0.8" opacity="0.5"/></g>
  <g transform="translate(457.8,367.9)" opacity="0.88"><rect x="-2.1" y="-18.6" width="4.2" height="18.6" fill="#102018" rx="1.3"/><rect x="2.1" y="-9.3" width="6.9" height="4.2" fill="#102018" rx="1.3"/><circle cx="9.0" cy="-7.2" r="2.5" fill="#34413b"/></g>
  <g transform="translate(2.4,390.3)" opacity="0.87"><rect x="-3.1" y="-57.7" width="6.2" height="57.7" fill="#102018" rx="1.9"/><rect x="3.1" y="-43.1" width="20.4" height="6.2" fill="#102018" rx="1.9"/><circle cx="23.5" cy="-40.0" r="3.7" fill="#34413b"/><rect x="-20.0" y="-38.9" width="23.1" height="6.2" fill="#102018" rx="1.9"/><circle cx="-20.0" cy="-35.8" r="3.7" fill="#34413b"/><rect x="3.1" y="-25.8" width="28.3" height="6.2" fill="#102018" rx="1.9"/><circle cx="31.4" cy="-22.7" r="3.7" fill="#34413b"/></g>
  <g transform="translate(1189.3,388.9)" opacity="0.52"><rect x="-0.9" y="-20.9" width="1.8" height="20.9" fill="#102018"/>
<ellipse cx="0" cy="-20.9" rx="13.1" ry="7.1" fill="#183028"/>
<circle cx="-6.8" cy="-21.3" r="1.3" fill="#52645e" opacity="0.7"/><circle cx="1.6" cy="-23.1" r="1.3" fill="#52645e" opacity="0.7"/><circle cx="-0.2" cy="-21.1" r="1.1" fill="#52645e" opacity="0.7"/></g>
  <g transform="translate(461.6,383.2)" opacity="0.87"><line x1="0" y1="0" x2="0" y2="-21.2" stroke="#102018" stroke-width="1.3" stroke-linecap="round"/><line x1="0" y1="-2.6" x2="6.7" y2="-8.2" stroke="#404d46" stroke-width="0.9" stroke-linecap="round" opacity="0.85"/><line x1="0" y1="-5.3" x2="8.2" y2="-12.9" stroke="#404d46" stroke-width="0.9" stroke-linecap="round" opacity="0.85"/><line x1="0" y1="-7.9" x2="6.4" y2="-13.3" stroke="#404d46" stroke-width="0.9" stroke-linecap="round" opacity="0.85"/><line x1="0" y1="-10.6" x2="12.2" y2="-17.8" stroke="#404d46" stroke-width="0.9" stroke-linecap="round" opacity="0.85"/><line x1="0" y1="-13.2" x2="4.6" y2="-16.9" stroke="#404d46" stroke-width="0.9" stroke-linecap="round" opacity="0.85"/><line x1="0" y1="-15.9" x2="12.8" y2="-22.2" stroke="#404d46" stroke-width="0.9" stroke-linecap="round" opacity="0.85"/><line x1="0" y1="-18.5" x2="5.3" y2="-25.5" stroke="#404d46" stroke-width="0.9" stroke-linecap="round" opacity="0.85"/></g>
  <g transform="translate(91.1,387.2)" opacity="0.51"><polygon points="-3.1,-48.3 12.3,0 2.4,0" fill="#183028" opacity="0.95"/><line x1="-3.1" y1="-48.3" x2="8.8" y2="0" stroke="#52645e" stroke-width="0.8" opacity="0.5"/><polygon points="-5.2,-49.9 6.1,0 -12.3,0" fill="#183028" opacity="0.87"/><line x1="-5.2" y1="-49.9" x2="-0.3" y2="0" stroke="#52645e" stroke-width="0.8" opacity="0.5"/><polygon points="-3.0,-16.4 9.5,0 -9.5,0" fill="#183028" opacity="0.85"/><line x1="-3.0" y1="-16.4" x2="2.8" y2="0" stroke="#52645e" stroke-width="0.8" opacity="0.5"/><polygon points="8.8,-19.7 16.3,0 -4.3,0" fill="#183028" opacity="0.94"/><line x1="8.8" y1="-19.7" x2="9.1" y2="0" stroke="#52645e" stroke-width="0.8" opacity="0.5"/><polygon points="-10.2,-16.0 1.7,0 -14.3,0" fill="#183028" opacity="0.85"/><line x1="-10.2" y1="-16.0" x2="-3.9" y2="0" stroke="#52645e" stroke-width="0.8" opacity="0.5"/><polygon points="-8.0,-40.5 1.8,0 -13.4,0" fill="#183028" opacity="0.77"/><line x1="-8.0" y1="-40.5" x2="-3.5" y2="0" stroke="#52645e" stroke-width="0.8" opacity="0.5"/></g>

  <!-- Rocks -->
  <g transform="translate(215.1,642.3)"><polygon points="-7.1,-40.3 11.0,0 -11.0,0" fill="#040a08" opacity="0.9"/><polygon points="-7.1,-40.3 1.1,0 11.0,0" fill="#030706" opacity="0.4"/></g>
  <g transform="translate(1273.5,467.0)"><ellipse cx="0" cy="-8.8" rx="11.2" ry="12.6" fill="#040a08" opacity="0.92"/>
<ellipse cx="2.8" cy="-12.6" rx="3.9" ry="2.5" fill="#030806" opacity="0.3"/>
<ellipse cx="-2.2" cy="-7.5" rx="2.2" ry="1.9" fill="#2a2f2d" opacity="0.2"/></g>
  <g transform="translate(730.9,644.0)"><rect x="-16.5" y="-7.0" width="31.5" height="7.0" fill="#040a08" opacity="0.92" rx="1"/><rect x="-14.8" y="-13.7" width="28.5" height="6.7" fill="#1d2321" opacity="0.92" rx="1"/><rect x="-9.8" y="-26.0" width="21.7" height="12.3" fill="#040a08" opacity="0.92" rx="1"/><rect x="-12.8" y="-38.6" width="21.0" height="12.6" fill="#1d2321" opacity="0.92" rx="1"/></g>
  <g transform="translate(1238.6,368.5)"><ellipse cx="0" cy="-15.8" rx="32.9" ry="22.6" fill="#040a08" opacity="0.92"/>
<ellipse cx="8.2" cy="-22.6" rx="11.5" ry="4.5" fill="#030806" opacity="0.3"/>
<ellipse cx="-6.6" cy="-13.6" rx="6.6" ry="3.4" fill="#2a2f2d" opacity="0.2"/></g>
  <g transform="translate(317.5,447.1)"><polygon points="-4.4,-71.0 12.7,0 -12.7,0" fill="#040a08" opacity="0.9"/><polygon points="-4.4,-71.0 1.3,0 12.7,0" fill="#030706" opacity="0.4"/></g>
  <g transform="translate(446.2,559.4)"><rect x="-29.7" y="-8.3" width="50.2" height="8.3" fill="#040a08" opacity="0.92" rx="1"/><rect x="-17.6" y="-21.8" width="46.7" height="13.5" fill="#1d2321" opacity="0.92" rx="1"/><rect x="-15.4" y="-37.0" width="17.4" height="15.2" fill="#040a08" opacity="0.92" rx="1"/></g>
  <g transform="translate(878.9,536.1)"><rect x="-20.5" y="-13.1" width="45.9" height="13.1" fill="#040a08" opacity="0.92" rx="1"/><rect x="-15.7" y="-19.5" width="38.7" height="6.4" fill="#1d2321" opacity="0.92" rx="1"/></g>
  <g transform="translate(1228.4,608.1)"><ellipse cx="0" cy="-17.5" rx="32.1" ry="25.0" fill="#040a08" opacity="0.92"/>
<ellipse cx="8.0" cy="-25.0" rx="11.2" ry="5.0" fill="#030806" opacity="0.3"/>
<ellipse cx="-6.4" cy="-15.0" rx="6.4" ry="3.8" fill="#2a2f2d" opacity="0.2"/></g>
  <g transform="translate(27.7,434.3)"><polygon points="6.7,-28.9 10.0,0 -10.0,0" fill="#040a08" opacity="0.9"/><polygon points="6.7,-28.9 1.0,0 10.0,0" fill="#030706" opacity="0.4"/></g>
  <g transform="translate(587.6,658.9)"><ellipse cx="0" cy="-9.5" rx="24.4" ry="13.5" fill="#040a08" opacity="0.92"/>
<ellipse cx="6.1" cy="-13.5" rx="8.5" ry="2.7" fill="#030806" opacity="0.3"/>
<ellipse cx="-4.9" cy="-8.1" rx="4.9" ry="2.0" fill="#2a2f2d" opacity="0.2"/></g>
  <g transform="translate(691.7,548.6)"><rect x="-24.8" y="-20.6" width="62.2" height="20.6" fill="#040a08" opacity="0.92" rx="1"/><rect x="-20.1" y="-42.1" width="45.8" height="21.6" fill="#1d2321" opacity="0.92" rx="1"/></g>
  <g transform="translate(293.1,468.4)"><rect x="-22.6" y="-10.4" width="40.2" height="10.4" fill="#040a08" opacity="0.92" rx="1"/><rect x="-29.2" y="-20.3" width="48.3" height="9.9" fill="#1d2321" opacity="0.92" rx="1"/><rect x="-23.0" y="-36.0" width="37.2" height="15.7" fill="#040a08" opacity="0.92" rx="1"/></g>

  <!-- Foreground elements -->
  <g transform="translate(662.4,691.2)" opacity="0.73"><ellipse cx="0" cy="-21.5" rx="52.9" ry="30.6" fill="#102018" opacity="0.9"/>
<ellipse cx="10.6" cy="-33.7" rx="18.5" ry="12.3" fill="#0d1a13" opacity="0.35"/></g>
  <g transform="translate(1273.0,693.9)" opacity="0.57"><ellipse cx="0" cy="-15.6" rx="26.2" ry="22.3" fill="#040a08" opacity="0.92"/>
<ellipse cx="6.6" cy="-22.3" rx="9.2" ry="4.5" fill="#030806" opacity="0.3"/>
<ellipse cx="-5.2" cy="-13.4" rx="5.2" ry="3.3" fill="#2a2f2d" opacity="0.2"/></g>
  <g transform="translate(487.2,685.8)" opacity="0.62"><polygon points="-0.6,-64.7 12.2,0 -12.2,0" fill="#040a08" opacity="0.9"/></g>
  <g transform="translate(992.6,672.4)" opacity="0.68"><ellipse cx="0" cy="-14.7" rx="39.8" ry="21.0" fill="#102018" opacity="0.9"/>
<ellipse cx="8.0" cy="-23.1" rx="13.9" ry="8.4" fill="#0d1a13" opacity="0.35"/></g>

  <!-- Atmospheric dust -->
  <circle cx="1187.7" cy="314.2" r="0.9" fill="#183828" opacity="0.15"/>
  <circle cx="908.0" cy="358.0" r="2.5" fill="#183828" opacity="0.14"/>
  <circle cx="499.2" cy="309.3" r="2.4" fill="#183828" opacity="0.19"/>
  <circle cx="1127.8" cy="377.7" r="1.2" fill="#183828" opacity="0.23"/>
  <circle cx="20.3" cy="365.1" r="0.8" fill="#183828" opacity="0.23"/>
  <circle cx="179.2" cy="310.8" r="0.9" fill="#183828" opacity="0.21"/>
  <circle cx="1109.8" cy="306.0" r="1.4" fill="#183828" opacity="0.18"/>
  <circle cx="326.1" cy="380.3" r="2.5" fill="#183828" opacity="0.13"/>
  <circle cx="1023.2" cy="381.9" r="2.2" fill="#183828" opacity="0.15"/>
  <circle cx="153.5" cy="378.0" r="1.8" fill="#183828" opacity="0.13"/>
  <circle cx="308.7" cy="368.3" r="1.1" fill="#183828" opacity="0.10"/>
  <circle cx="1134.2" cy="386.0" r="1.6" fill="#183828" opacity="0.25"/>
  <circle cx="1262.4" cy="312.0" r="2.2" fill="#183828" opacity="0.16"/>
  <circle cx="966.9" cy="377.7" r="2.3" fill="#183828" opacity="0.23"/>
  <circle cx="691.5" cy="387.1" r="2.3" fill="#183828" opacity="0.10"/>
  <circle cx="134.3" cy="328.1" r="0.8" fill="#183828" opacity="0.25"/>
  <circle cx="828.4" cy="353.1" r="1.8" fill="#183828" opacity="0.19"/>
  <circle cx="1086.8" cy="326.8" r="1.4" fill="#183828" opacity="0.23"/>
  <circle cx="1051.4" cy="336.3" r="1.9" fill="#183828" opacity="0.09"/>
  <circle cx="428.2" cy="317.3" r="1.4" fill="#183828" opacity="0.26"/>
  <circle cx="284.4" cy="321.9" r="2.4" fill="#183828" opacity="0.15"/>
  <circle cx="1120.6" cy="308.3" r="1.4" fill="#183828" opacity="0.23"/>
  <circle cx="325.5" cy="325.7" r="1.5" fill="#183828" opacity="0.17"/>
  <circle cx="671.5" cy="376.7" r="0.9" fill="#183828" opacity="0.10"/>
  <circle cx="1260.8" cy="345.7" r="1.7" fill="#183828" opacity="0.11"/>
  <circle cx="1271.6" cy="323.9" r="1.1" fill="#183828" opacity="0.24"/>
  <circle cx="627.9" cy="384.3" r="1.6" fill="#183828" opacity="0.12"/>
  <circle cx="694.9" cy="311.8" r="1.2" fill="#183828" opacity="0.08"/>
  <circle cx="496.7" cy="393.7" r="2.3" fill="#183828" opacity="0.24"/>
  <circle cx="128.3" cy="389.2" r="1.2" fill="#183828" opacity="0.16"/>
</svg>