<svg xmlns="http://www.w3.org/2000/svg" viewBox="0 0 1280 720" width="1280" height="720">
  <defs>
    <linearGradient id="sky0" x1="0" y1="0" x2="0" y2="1">
      <stop offset="0%" stop-color="#160a06"/>
      <stop offset="85%" stop-color="#5c2a14"/>
      <stop offset="100%" stop-color="#6b391e"/>
    </linearGradient>
    <linearGradient id="fog0" x1="0" y1="0" x2="0" y2="1">
      <stop offset="0%" stop-color="#7a4828" stop-opacity="0"/>
      <stop offset="100%" stop-color="#7a4828" stop-opacity="0.5"/>
    </linearGradient>
    <linearGradient id="ground0" x1="0" y1="0" x2="0" y2="1">
      <stop offset="0%" stop-color="#3e1c0c"/>
      <stop offset="100%" stop-color="#1f0e07"/>
    </linearGradient>
    <filter id="sfar0"><feGaussianBlur stdDeviation="2.5"/></filter>
  </defs>

  <!-- Sky gradient -->
  <rect width="1280" height="720" fill="url(#sky0)"/>

  <!-- Celestial body -->
  <circle cx="389.6" cy="188.8" r="42.8" fill="#c06040" opacity="0.07"/>
  <circle cx="389.6" cy="188.8" r="24.5" fill="#c06040" opacity="0.09"/>
  <circle cx="389.6" cy="188.8" r="15.3" fill="#c06040" opacity="0.37"/>
  <circle cx="128.8" cy="49.2" r="23.7" fill="#5c5451" opacity="0.07"/>
  <circle cx="128.8" cy="49.2" r="14.8" fill="#5c5451" opacity="0.24"/>

  <!-- Atmospheric haze at horizon -->
  <rect x="0" y="290" width="1280" height="140" fill="url(#fog0)"/>

  <!-- Far terrain silhouette (blurred) -->
  <polygon points="0,720 0.0,416.5 58.2,396.3 116.4,381.3 174.5,374.0 232.7,374.5 290.9,381.0 349.1,388.0 407.3,389.3 465.5,384.3 523.6,379.5 581.8,379.7 640.0,382.0 698.2,384.1 756.4,387.1 814.5,391.3 872.7,395.5 930.9,397.9 989.1,396.7 1047.3,390.6 1105.5,380.2 1163.6,366.2 1221.8,348.8 1280.0,329.7 1280,720" fill="#3e1c0c" filter="url(#sfar0)" opacity="0.88"/>

  <!-- Near terrain -->
  <polygon points="0,720 0.0,450.1 71.1,444.4 142.2,444.5 213.3,445.6 284.4,446.6 355.6,442.2 426.7,432.3 497.8,420.5 568.9,411.5 640.0,409.8 711.1,405.6 782.2,400.5 853.3,406.6 924.4,418.4 995.6,425.1 1066.7,421.6 1137.8,414.1 1208.9,400.3 1280.0,375.6 1280,720" fill="#251008" opacity="0.96"/>

  <!-- Ground base fill -->
  <rect x="0" y="430" width="1280" height="290" fill="url(#ground0)"/>

  <!-- Ground texture patches -->
  <ellipse cx="1134.0" cy="446.1" rx="71.6" ry="7.3" fill="#311d15" opacity="0.38"/>
  <ellipse cx="1223.0" cy="651.1" rx="67.7" ry="13.2" fill="#1d0d06" opacity="0.27"/>
  <ellipse cx="1008.6" cy="632.9" rx="36.5" ry="11.1" fill="#180a05" opacity="0.54"/>
  <ellipse cx="1210.4" cy="500.6" rx="38.6" ry="7.2" fill="#1e0d07" opacity="0.37"/>
  <ellipse cx="1172.6" cy="548.8" rx="57.1" ry="5.3" fill="#3a2720" opacity="0.30"/>
  <ellipse cx="968.9" cy="659.9" rx="28.5" ry="7.1" fill="#1c0c06" opacity="0.34"/>
  <ellipse cx="649.8" cy="654.8" rx="66.7" ry="10.6" fill="#37241c" opacity="0.47"/>
  <ellipse cx="324.1" cy="549.6" rx="32.6" ry="4.1" fill="#38251d" opacity="0.40"/>
  <ellipse cx="860.2" cy="518.6" rx="24.9" ry="5.8" fill="#38251d" opacity="0.40"/>
  <ellipse cx="1100.2" cy="438.4" rx="60.5" ry="12.2" fill="#1a0b06" opacity="0.45"/>
  <ellipse cx="188.9" cy="694.1" rx="31.7" ry="6.3" fill="#1b0c06" opacity="0.27"/>
  <ellipse cx="314.8" cy="623.0" rx="54.4" ry="9.6" fill="#1c0c06" opacity="0.32"/>
  <ellipse cx="492.6" cy="518.0" rx="70.3" ry="12.5" fill="#180a05" opacity="0.52"/>
  <ellipse cx="621.5" cy="693.3" rx="45.7" ry="9.0" fill="#342019" opacity="0.45"/>
  <ellipse cx="1194.9" cy="689.1" rx="23.3" ry="12.3" fill="#3e2b24" opacity="0.40"/>
  <ellipse cx="524.7" cy="602.2" rx="45.3" ry="5.6" fill="#190b05" opacity="0.55"/>
  <ellipse cx="716.6" cy="628.2" rx="26.5" ry="11.4" fill="#1d0d06" opacity="0.34"/>
  <ellipse cx="982.1" cy="595.7" rx="27.3" ry="12.4" fill="#3c2922" opacity="0.47"/>
  <ellipse cx="276.7" cy="466.5" rx="24.6" ry="10.5" fill="#412e27" opacity="0.39"/>
  <ellipse cx="690.2" cy="487.4" rx="69.5" ry="9.3" fill="#180b05" opacity="0.35"/>
  <ellipse cx="31.9" cy="504.5" rx="20.3" ry="6.7" fill="#1e0d06" opacity="0.37"/>
  <ellipse cx="240.1" cy="645.3" rx="27.3" ry="5.6" fill="#1d0c06" opacity="0.50"/>
  <ellipse cx="310.4" cy="655.0" rx="34.1" ry="9.6" fill="#190b05" opacity="0.43"/>
  <ellipse cx="892.8" cy="558.6" rx="40.6" ry="12.7" fill="#1a0b06" opacity="0.38"/>
  <ellipse cx="255.8" cy="452.6" rx="56.5" ry="6.2" fill="#1b0c06" opacity="0.51"/>
  <ellipse cx="487.5" cy="586.3" rx="60.8" ry="12.3" fill="#1d0d06" opacity="0.35"/>
  <ellipse cx="531.4" cy="511.3" rx="66.7" ry="5.1" fill="#1b0c06" opacity="0.33"/>
  <ellipse cx="465.5" cy="540.1" rx="52.3" ry="5.8" fill="#35221a" opacity="0.52"/>
  <ellipse cx="864.3" cy="523.4" rx="62.4" ry="4.7" fill="#3e2c25" opacity="0.38"/>
  <ellipse cx="102.0" cy="689.7" rx="31.1" ry="10.4" fill="#180a05" opacity="0.51"/>
  <ellipse cx="1263.2" cy="547.7" rx="35.6" ry="10.5" fill="#1e0d07" opacity="0.42"/>
  <ellipse cx="379.0" cy="573.5" rx="41.8" ry="8.6" fill="#3f2d26" opacity="0.53"/>
  <ellipse cx="623.8" cy="632.5" rx="46.4" ry="10.4" fill="#36231b" opacity="0.48"/>
  <ellipse cx="1275.4" cy="608.9" rx="58.2" ry="6.9" fill="#1a0b06" opacity="0.30"/>
  <ellipse cx="1167.5" cy="425.1" rx="60.7" ry="11.8" fill="#180a05" opacity="0.47"/>
  <ellipse cx="1021.8" cy="600.4" rx="58.4" ry="7.0" fill="#1d0d06" opacity="0.39"/>
  <ellipse cx="187.3" cy="688.9" rx="31.9" ry="10.4" fill="#1b0c06" opacity="0.44"/>
  <ellipse cx="229.8" cy="636.7" rx="63.5" ry="5.4" fill="#1a0b06" opacity="0.34"/>
  <ellipse cx="1045.0" cy="426.3" rx="72.6" ry="6.5" fill="#402d26" opacity="0.26"/>
  <ellipse cx="1226.2" cy="614.9" rx="49.0" ry="4.9" fill="#412e27" opacity="0.31"/>
  <ellipse cx="861.1" cy="615.7" rx="28.1" ry="11.2" fill="#1c0c06" opacity="0.47"/>
  <ellipse cx="14.8" cy="628.6" rx="71.2" ry="7.6" fill="#190b05" opacity="0.38"/>
  <ellipse cx="903.7" cy="663.7" rx="44.4" ry="9.7" fill="#190b05" opacity="0.43"/>
  <ellipse cx="894.2" cy="636.0" rx="34.2" ry="6.1" fill="#342018" opacity="0.36"/>

  <!-- Ground cracks -->
  <path d="M186.5,552.7 Q162.5,562.3 147.5,561.4" stroke="#180a05" stroke-width="0.6" fill="none" opacity="0.36"/>
  <path d="M265.2,473.3 Q247.9,478.7 201.9,478.0" stroke="#180a05" stroke-width="1.2" fill="none" opacity="0.29"/>
  <path d="M586.3,458.9 Q592.8,459.6 606.7,465.4" stroke="#180a05" stroke-width="1.3" fill="none" opacity="0.34"/>
  <path d="M175.0,673.4 Q188.6,671.7 234.2,684.1" stroke="#180a05" stroke-width="0.6" fill="none" opacity="0.26"/>
  <path d="M566.0,679.2 Q528.9,676.5 516.6,682.8" stroke="#180a05" stroke-width="1.3" fill="none" opacity="0.41"/>
  <path d="M753.7,624.8 Q736.0,633.4 714.9,626.1" stroke="#180a05" stroke-width="0.8" fill="none" opacity="0.27"/>

  <!-- Flora -->
  <g transform="translate(695.5,464.0)" opacity="0.84"><line x1="0" y1="0" x2="0" y2="-29.5" stroke="#6a2e12" stroke-width="2.3" stroke-linecap="round"/><line x1="0" y1="-4.9" x2="6.7" y2="-14.2" stroke="#885841" stroke-width="1.7" stroke-linecap="round" opacity="0.85"/><line x1="0" y1="-9.8" x2="17.7" y2="-26.2" stroke="#885841" stroke-width="1.7" stroke-linecap="round" opacity="0.85"/><line x1="0" y1="-14.7" x2="20.7" y2="-25.8" stroke="#885841" stroke-width="1.7" stroke-linecap="round" opacity="0.85"/><line x1="0" y1="-19.6" x2="9.4" y2="-31.4" stroke="#885841" stroke-width="1.7" stroke-linecap="round" opacity="0.85"/><line x1="0" y1="-24.6" x2="17.1" y2="-41.6" stroke="#885841" stroke-width="1.7" stroke-linecap="round" opacity="0.85"/></g>
  <g transform="translate(801.8,473.4)" opacity="0.53"><line x1="0" y1="0" x2="0" y2="-49.5" stroke="#6a2e12" stroke-width="2.8" stroke-linecap="round"/><path d="M0,-19.4 C-5.9,-19.4 -19.6,-11.5 -19.6,-11.5" stroke="#804d36" stroke-width="1.3" fill="none" stroke-linecap="round" opacity="0.8"/><path d="M0,-25.2 C-4.6,-25.2 -15.5,-19.0 -15.5,-19.0" stroke="#804d36" stroke-width="1.3" fill="none" stroke-linecap="round" opacity="0.8"/><path d="M0,-24.6 C6.9,-24.6 23.0,-15.3 23.0,-15.3" stroke="#804d36" stroke-width="1.3" fill="none" stroke-linecap="round" opacity="0.8"/><path d="M0,-26.2 C10.0,-26.2 33.4,-12.8 33.4,-12.8" stroke="#804d36" stroke-width="1.3" fill="none" stroke-linecap="round" opacity="0.8"/><path d="M0,-23.9 C8.4,-23.9 27.9,-12.7 27.9,-12.7" stroke="#804d36" stroke-width="1.3" fill="none" stroke-linecap="round" opacity="0.8"/></g>
  <g transform="translate(991.9,428.5)" opacity="0.53"><line x1="0" y1="0" x2="0" y2="-30.4" stroke="#6a2e12" stroke-width="1.9" stroke-linecap="round"/><path d="M0,-11.6 C-5.2,-11.6 -17.4,-4.7 -17.4,-4.7" stroke="#804d36" stroke-width="0.9" fill="none" stroke-linecap="round" opacity="0.8"/><path d="M0,-23.2 C5.6,-23.2 18.6,-15.8 18.6,-15.8" stroke="#804d36" stroke-width="0.9" fill="none" stroke-linecap="round" opacity="0.8"/><path d="M0,-9.5 C5.8,-9.5 19.5,-1.7 19.5,-1.7" stroke="#804d36" stroke-width="0.9" fill="none" stroke-linecap="round" opacity="0.8"/><path d="M0,-19.9 C-6.7,-19.9 -22.4,-11.0 -22.4,-11.0" stroke="#804d36" stroke-width="0.9" fill="none" stroke-linecap="round" opacity="0.8"/><path d="M0,-23.8 C5.3,-23.8 17.5,-16.8 17.5,-16.8" stroke="#804d36" stroke-width="0.9" fill="none" stroke-linecap="round" opacity="0.8"/><path d="M0,-17.4 C6.0,-17.4 19.8,-9.4 19.8,-9.4" stroke="#804d36" stroke-width="0.9" fill="none" stroke-linecap="round" opacity="0.8"/></g>
  <g transform="translate(813.0,456.0)" opacity="0.95"><ellipse cx="0" cy="-6.7" rx="15.7" ry="9.6" fill="#6a2e12" opacity="0.9"/>
<ellipse cx="3.1" cy="-10.6" rx="5.5" ry="3.9" fill="#55250e" opacity="0.35"/></g>
  <g transform="translate(591.6,411.6)" opacity="0.87"><rect x="-1.4" y="-22.7" width="2.7" height="22.7" fill="#6a2e12"/>
<ellipse cx="0" cy="-22.7" rx="13.7" ry="5.2" fill="#904030"/>
<circle cx="-3.8" cy="-26.0" r="1.6" fill="#ac7064" opacity="0.7"/></g>
  <g transform="translate(578.9,457.2)" opacity="0.87"><rect x="-2.7" y="-29.3" width="5.4" height="29.3" fill="#6a2e12"/>
<ellipse cx="0" cy="-29.3" rx="26.4" ry="8.7" fill="#904030"/>
<circle cx="-8.8" cy="-34.7" r="2.6" fill="#ac7064" opacity="0.7"/><circle cx="6.5" cy="-35.0" r="1.7" fill="#ac7064" opacity="0.7"/><circle cx="1.8" cy="-31.3" r="2.4" fill="#ac7064" opacity="0.7"/></g>
  <g transform="translate(1062.8,421.0)" opacity="0.86"><line x1="0" y1="0" x2="0" y2="-43.4" stroke="#6a2e12" stroke-width="2.9" stroke-linecap="round"/><path d="M0,-24.7 C-8.8,-24.7 -29.3,-12.9 -29.3,-12.9" stroke="#804d36" stroke-width="1.4" fill="none" stroke-linecap="round" opacity="0.8"/><path d="M0,-37.7 C-8.6,-37.7 -28.6,-26.2 -28.6,-26.2" stroke="#804d36" stroke-width="1.4" fill="none" stroke-linecap="round" opacity="0.8"/><path d="M0,-14.4 C8.1,-14.4 27.0,-3.7 27.0,-3.7" stroke="#804d36" stroke-width="1.4" fill="none" stroke-linecap="round" opacity="0.8"/><path d="M0,-19.1 C-8.3,-19.1 -27.5,-8.1 -27.5,-8.1" stroke="#804d36" stroke-width="1.4" fill="none" stroke-linecap="round" opacity="0.8"/></g>
  <g transform="translate(1248.1,469.6)" opacity="0.75"><line x1="0" y1="0" x2="0" y2="-41.2" stroke="#6a2e12" stroke-width="2.5" stroke-linecap="round"/><path d="M0,-23.7 C-3.7,-23.7 -12.2,-18.8 -12.2,-18.8" stroke="#804d36" stroke-width="1.2" fill="none" stroke-linecap="round" opacity="0.8"/><path d="M0,-31.7 C-8.8,-31.7 -29.4,-19.9 -29.4,-19.9" stroke="#804d36" stroke-width="1.2" fill="none" stroke-linecap="round" opacity="0.8"/><path d="M0,-32.6 C7.6,-32.6 25.2,-22.6 25.2,-22.6" stroke="#804d36" stroke-width="1.2" fill="none" stroke-linecap="round" opacity="0.8"/><path d="M0,-33.4 C5.8,-33.4 19.3,-25.7 19.3,-25.7" stroke="#804d36" stroke-width="1.2" fill="none" stroke-linecap="round" opacity="0.8"/><path d="M0,-31.1 C-8.6,-31.1 -28.7,-19.6 -28.7,-19.6" stroke="#804d36" stroke-width="1.2" fill="none" stroke-linecap="round" opacity="0.8"/><path d="M0,-18.3 C6.9,-18.3 23.0,-9.1 23.0,-9.1" stroke="#804d36" stroke-width="1.2" fill="none" stroke-linecap="round" opacity="0.8"/></g>
  <g transform="translate(166.7,464.7)" opacity="0.78"><polygon points="-4.7,-31.5 -1.9,0 -17.7,0" fill="#904030" opacity="0.76"/><line x1="-4.7" y1="-31.5" x2="-7.4" y2="0" stroke="#ac7064" stroke-width="0.8" opacity="0.5"/><polygon points="15.2,-22.3 18.9,0 6.6,0" fill="#904030" opacity="0.95"/><line x1="15.2" y1="-22.3" x2="14.6" y2="0" stroke="#ac7064" stroke-width="0.8" opacity="0.5"/><polygon points="-10.9,-24.8 -4.7,0 -18.8,0" fill="#904030" opacity="0.80"/><line x1="-10.9" y1="-24.8" x2="-9.6" y2="0" stroke="#ac7064" stroke-width="0.8" opacity="0.5"/><polygon points="3.0,-28.8 6.0,0 -0.7,0" fill="#904030" opacity="0.83"/><line x1="3.0" y1="-28.8" x2="3.6" y2="0" stroke="#ac7064" stroke-width="0.8" opacity="0.5"/><polygon points="16.5,-45.3 16.4,0 8.0,0" fill="#904030" opacity="0.80"/><line x1="16.5" y1="-45.3" x2="13.5" y2="0" stroke="#ac7064" stroke-width="0.8" opacity="0.5"/><polygon points="3.2,-24.0 10.9,0 4.2,0" fill="#904030" opacity="0.83"/><line x1="3.2" y1="-24.0" x2="8.6" y2="0" stroke="#ac7064" stroke-width="0.8" opacity="0.5"/></g>
  <g transform="translate(1223.4,453.8)" opacity="0.58"><rect x="-2.0" y="-42.1" width="4.1" height="42.1" fill="#6a2e12"/>
<ellipse cx="0" cy="-42.1" rx="28.7" ry="9.8" fill="#904030"/>
<circle cx="-14.5" cy="-48.9" r="3.9" fill="#ac7064" opacity="0.7"/></g>

  <!-- Rocks -->
  <g transform="translate(974.0,524.4)"><polygon points="-4.0,-17.3 4.7,0 -4.7,0" fill="#1a0a04" opacity="0.9"/></g>
  <g transform="translate(532.0,428.7)"><rect x="-14.6" y="-11.0" width="29.4" height="11.0" fill="#1a0a04" opacity="0.92" rx="1"/><rect x="-17.3" y="-20.0" width="23.3" height="9.0" fill="#31231d" opacity="0.92" rx="1"/><rect x="-11.4" y="-34.8" width="14.1" height="14.8" fill="#1a0a04" opacity="0.92" rx="1"/></g>
  <g transform="translate(1053.8,438.4)"><rect x="-16.9" y="-5.9" width="27.2" height="5.9" fill="#1a0a04" opacity="0.92" rx="1"/><rect x="-12.7" y="-14.5" width="21.6" height="8.6" fill="#31231d" opacity="0.92" rx="1"/><rect x="-14.9" y="-23.6" width="25.6" height="9.1" fill="#1a0a04" opacity="0.92" rx="1"/><rect x="-12.2" y="-28.4" width="17.7" height="4.8" fill="#31231d" opacity="0.92" rx="1"/></g>
  <g transform="translate(630.1,667.0)"><rect x="-21.1" y="-5.5" width="41.2" height="5.5" fill="#1a0a04" opacity="0.92" rx="1"/><rect x="-23.4" y="-12.7" width="37.4" height="7.2" fill="#31231d" opacity="0.92" rx="1"/></g>
  <g transform="translate(795.4,449.4)"><rect x="-27.2" y="-15.4" width="46.5" height="15.4" fill="#1a0a04" opacity="0.92" rx="1"/><rect x="-15.9" y="-23.9" width="35.3" height="8.5" fill="#31231d" opacity="0.92" rx="1"/><rect x="-14.3" y="-37.0" width="18.6" height="13.1" fill="#1a0a04" opacity="0.92" rx="1"/><rect x="-10.9" y="-52.7" width="25.3" height="15.8" fill="#31231d" opacity="0.92" rx="1"/></g>
  <g transform="translate(1278.4,412.1)"><ellipse cx="0" cy="-5.7" rx="20.6" ry="8.2" fill="#1a0a04" opacity="0.92"/>
<ellipse cx="5.2" cy="-8.2" rx="7.2" ry="1.6" fill="#140803" opacity="0.3"/>
<ellipse cx="-4.1" cy="-4.9" rx="4.1" ry="1.2" fill="#3c2f2a" opacity="0.2"/></g>
  <g transform="translate(620.3,430.0)"><polygon points="-4.7,-25.3 5.6,0 -5.6,0" fill="#1a0a04" opacity="0.9"/><polygon points="-4.7,-25.3 0.6,0 5.6,0" fill="#120703" opacity="0.4"/></g>
  <g transform="translate(404.2,617.3)"><polygon points="11.5,-37.1 4.6,0 -4.6,0" fill="#1a0a04" opacity="0.9"/></g>
  <g transform="translate(256.5,551.5)"><ellipse cx="0" cy="-23.3" rx="34.0" ry="33.4" fill="#1a0a04" opacity="0.92"/>
<ellipse cx="8.5" cy="-33.4" rx="11.9" ry="6.7" fill="#140803" opacity="0.3"/>
<ellipse cx="-6.8" cy="-20.0" rx="6.8" ry="5.0" fill="#3c2f2a" opacity="0.2"/></g>
  <g transform="translate(228.7,647.0)"><rect x="-27.7" y="-15.9" width="60.4" height="15.9" fill="#1a0a04" opacity="0.92" rx="1"/><rect x="-14.6" y="-32.2" width="39.0" height="16.3" fill="#31231d" opacity="0.92" rx="1"/><rect x="-7.9" y="-51.8" width="22.2" height="19.6" fill="#1a0a04" opacity="0.92" rx="1"/></g>

  <!-- Foreground elements -->
  <g transform="translate(1013.5,692.3)" opacity="0.85"><polygon points="12.7,-74.4 17.8,0 -4.6,0" fill="#904030" opacity="0.84"/><line x1="12.7" y1="-74.4" x2="10.0" y2="0" stroke="#ac7064" stroke-width="0.8" opacity="0.5"/><polygon points="15.7,-69.4 19.6,0 -0.8,0" fill="#904030" opacity="0.91"/><line x1="15.7" y1="-69.4" x2="12.5" y2="0" stroke="#ac7064" stroke-width="0.8" opacity="0.5"/><polygon points="-13.8,-52.2 -11.7,0 -29.1,0" fill="#904030" opacity="0.79"/><line x1="-13.8" y1="-52.2" x2="-17.8" y2="0" stroke="#ac7064" stroke-width="0.8" opacity="0.5"/><polygon points="13.5,-73.4 28.7,0 8.6,0" fill="#904030" opacity="0.89"/><line x1="13.5" y1="-73.4" x2="21.7" y2="0" stroke="#ac7064" stroke-width="0.8" opacity="0.5"/><polygon points="-16.1,-25.5 -5.7,0 -17.7,0" fill="#904030" opacity="0.95"/><line x1="-16.1" y1="-25.5" x2="-9.9" y2="0" stroke="#ac7064" stroke-width="0.8" opacity="0.5"/></g>
  <g transform="translate(133.4,673.5)" opacity="0.85"><rect x="-4.7" y="-43.5" width="9.3" height="43.5" fill="#6a2e12" rx="2.8"/><rect x="4.7" y="-26.0" width="28.8" height="9.3" fill="#6a2e12" rx="2.8"/><circle cx="33.4" cy="-21.3" r="5.6" fill="#804d36"/><rect x="-12.4" y="-22.3" width="17.1" height="9.3" fill="#6a2e12" rx="2.8"/><circle cx="-12.4" cy="-17.6" r="5.6" fill="#804d36"/></g>
  <g transform="translate(1032.9,699.3)" opacity="0.73"><rect x="-25.1" y="-25.0" width="63.4" height="25.0" fill="#1a0a04" opacity="0.92" rx="1"/><rect x="-8.1" y="-36.5" width="36.1" height="11.5" fill="#31231d" opacity="0.92" rx="1"/><rect x="-16.7" y="-53.9" width="43.6" height="17.4" fill="#1a0a04" opacity="0.92" rx="1"/><rect x="-13.4" y="-75.0" width="40.9" height="21.0" fill="#31231d" opacity="0.92" rx="1"/></g>
  <g transform="translate(383.0,668.1)" opacity="0.78"><polygon points="-17.5,-54.7 8.5,0 -8.5,0" fill="#1a0a04" opacity="0.9"/></g>

  <!-- Atmospheric dust -->
  <circle cx="688.1" cy="385.0" r="2.5" fill="#7a4828" opacity="0.16"/>
  <circle cx="73.5" cy="405.3" r="1.2" fill="#7a4828" opacity="0.15"/>
  <circle cx="811.9" cy="422.3" r="1.5" fill="#7a4828" opacity="0.24"/>
  <circle cx="272.9" cy="405.3" r="1.9" fill="#7a4828" opacity="0.26"/>
  <circle cx="797.6" cy="431.8" r="1.0" fill="#7a4828" opacity="0.18"/>
  <circle cx="943.7" cy="417.1" r="1.8" fill="#7a4828" opacity="0.21"/>
  <circle cx="538.7" cy="364.5" r="2.3" fill="#7a4828" opacity="0.24"/>
  <circle cx="143.4" cy="405.6" r="2.2" fill="#7a4828" opacity="0.22"/>
  <circle cx="68.3" cy="387.7" r="1.0" fill="#7a4828" opacity="0.22"/>
  <circle cx="442.7" cy="451.8" r="1.6" fill="#7a4828" opacity="0.11"/>
  <circle cx="679.3" cy="449.4" r="1.4" fill="#7a4828" opacity="0.16"/>
  <circle cx="348.2" cy="390.2" r="1.4" fill="#7a4828" opacity="0.13"/>
  <circle cx="446.1" cy="426.2" r="1.6" fill="#7a4828" opacity="0.13"/>
  <circle cx="1029.7" cy="418.1" r="1.3" fill="#7a4828" opacity="0.19"/>
  <circle cx="140.0" cy="403.4" r="2.4" fill="#7a4828" opacity="0.12"/>
  <circle cx="1117.9" cy="449.9" r="2.3" fill="#7a4828" opacity="0.24"/>
  <circle cx="505.4" cy="410.9" r="1.3" fill="#7a4828" opacity="0.10"/>
  <circle cx="1037.9" cy="458.2" r="1.4" fill="#7a4828" opacity="0.22"/>
  <circle cx="993.9" cy="368.3" r="1.8" fill="#7a4828" opacity="0.13"/>
  <circle cx="811.7" cy="369.7" r="1.4" fill="#7a4828" opacity="0.19"/>
  <circle cx="396.8" cy="400.1" r="1.7" fill="#7a4828" opacity="0.18"/>
  <circle cx="239.3" cy="443.3" r="1.5" fill="#7a4828" opacity="0.22"/>
  <circle cx="530.8" cy="403.1" r="2.5" fill="#7a4828" opacity="0.16"/>
  <circle cx="601.1" cy="453.1" r="1.7" fill="#7a4828" opacity="0.09"/>
  <circle cx="431.2" cy="375.6" r="1.1" fill="#7a4828" opacity="0.13"/>
  <circle cx="334.5" cy="405.8" r="1.0" fill="#7a4828" opacity="0.25"/>
  <circle cx="1207.6" cy="393.8" r="2.3" fill="#7a4828" opacity="0.18"/>
  <circle cx="120.7" cy="386.3" r="0.8" fill="#7a4828" opacity="0.11"/>
  <circle cx="630.5" cy="457.5" r="1.1" fill="#7a4828" opacity="0.25"/>
  <circle cx="149.2" cy="438.8" r="2.5" fill="#7a4828" opacity="0.14"/>
  <circle cx="117.1" cy="438.8" r="2.1" fill="#7a4828" opacity="0.20"/>
  <circle cx="1001.2" cy="373.8" r="2.4" fill="#7a4828" opacity="0.25"/>
  <circle cx="1157.2" cy="396.7" r="1.0" fill="#7a4828" opacity="0.11"/>
  <circle cx="1254.7" cy="365.2" r="1.8" fill="#7a4828" opacity="0.12"/>
  <circle cx="1004.4" cy="404.0" r="0.9" fill="#7a4828" opacity="0.10"/>
  <circle cx="269.5" cy="439.5" r="1.6" fill="#7a4828" opacity="0.24"/>
  <circle cx="2.2" cy="366.0" r="0.9" fill="#7a4828" opacity="0.24"/>
  <circle cx="24.4" cy="430.2" r="2.6" fill="#7a4828" opacity="0.12"/>
  <circle cx="236.7" cy="432.7" r="1.3" fill="#7a4828" opacity="0.25"/>
  <circle cx="486.1" cy="454.4" r="1.0" fill="#7a4828" opacity="0.12"/>
  <circle cx="230.6" cy="423.4" r="1.7" fill="#7a4828" opacity="0.12"/>
</svg>