<svg xmlns="http://www.w3.org/2000/svg" viewBox="0 0 1280 720" width="1280" height="720">
  <defs>
    <linearGradient id="sky19" x1="0" y1="0" x2="0" y2="1">
      <stop offset="0%" stop-color="#0a0614"/>
      <stop offset="85%" stop-color="#241032"/>
      <stop offset="100%" stop-color="#2b143a"/>
    </linearGradient>
    <linearGradient id="fog19" x1="0" y1="0" x2="0" y2="1">
      <stop offset="0%" stop-color="#321842" stop-opacity="0"/>
      <stop offset="100%" stop-color="#321842" stop-opacity="0.5"/>
    </linearGradient>
    <linearGradient id="ground19" x1="0" y1="0" x2="0" y2="1">
      <stop offset="0%" stop-color="#1a0c26"/>
      <stop offset="100%" stop-color="#0c0514"/>
    </linearGradient>
    <filter id="sfar19"><feGaussianBlur stdDeviation="2.5"/></filter>
  </defs>

  <!-- Sky gradient -->
  <rect width="1280" height="720" fill="url(#sky19)"/>

  <!-- Celestial body -->
  <circle cx="281.4" cy="191.2" r="50.2" fill="#c06020" opacity="0.08"/>
  <circle cx="281.4" cy="191.2" r="28.7" fill="#c06020" opacity="0.12"/>
  <circle cx="281.4" cy="191.2" r="17.9" fill="#c06020" opacity="0.46"/>
  <circle cx="816.6" cy="105.4" r="13.1" fill="#54515b" opacity="0.09"/>
  <circle cx="816.6" cy="105.4" r="8.2" fill="#54515b" opacity="0.31"/>

  <!-- Atmospheric haze at horizon -->
  <rect x="0" y="220" width="1280" height="140" fill="url(#fog19)"/>

  <!-- Far terrain silhouette (blurred) -->
  <polygon points="0,720 0.0,314.5 58.2,307.6 116.4,305.8 174.5,311.7 232.7,317.2 290.9,313.8 349.1,304.8 407.3,299.9 465.5,300.4 523.6,301.2 581.8,302.9 640.0,309.3 698.2,316.7 756.4,319.7 814.5,317.9 872.7,314.1 930.9,311.9 989.1,313.2 1047.3,317.7 1105.5,322.1 1163.6,322.3 1221.8,316.6 1280.0,307.9 1280,720" fill="#1a0c26" filter="url(#sfar19)" opacity="0.88"/>

  <!-- Near terrain -->
  <polygon points="0,720 0.0,314.1 71.1,334.6 142.2,339.2 213.3,341.0 284.4,340.9 355.6,334.2 426.7,329.0 497.8,328.2 568.9,329.5 640.0,333.2 711.1,336.5 782.2,336.5 853.3,334.6 924.4,339.7 995.6,341.6 1066.7,335.6 1137.8,334.1 1208.9,344.8 1280.0,366.5 1280,720" fill="#0e0618" opacity="0.96"/>

  <!-- Ground base fill -->
  <rect x="0" y="360" width="1280" height="360" fill="url(#ground19)"/>

  <!-- Ground texture patches -->
  <ellipse cx="306.4" cy="661.0" rx="30.6" ry="14.0" fill="#201829" opacity="0.36"/>
  <ellipse cx="961.9" cy="695.5" rx="48.0" ry="8.4" fill="#09040f" opacity="0.28"/>
  <ellipse cx="996.4" cy="506.8" rx="63.5" ry="10.1" fill="#0a0412" opacity="0.36"/>
  <ellipse cx="992.4" cy="514.4" rx="26.8" ry="8.8" fill="#0b0513" opacity="0.39"/>
  <ellipse cx="739.8" cy="681.4" rx="49.2" ry="11.4" fill="#2a2333" opacity="0.37"/>
  <ellipse cx="923.5" cy="446.8" rx="68.0" ry="12.0" fill="#0b0513" opacity="0.55"/>
  <ellipse cx="77.8" cy="536.7" rx="59.7" ry="10.3" fill="#292232" opacity="0.32"/>
  <ellipse cx="487.1" cy="506.4" rx="65.7" ry="9.0" fill="#2b2434" opacity="0.47"/>
  <ellipse cx="31.7" cy="522.3" rx="60.1" ry="4.0" fill="#1c1526" opacity="0.29"/>
  <ellipse cx="525.7" cy="588.8" rx="68.8" ry="5.3" fill="#211a2a" opacity="0.51"/>
  <ellipse cx="1123.8" cy="368.2" rx="35.4" ry="10.4" fill="#2a2232" opacity="0.40"/>
  <ellipse cx="298.8" cy="532.3" rx="33.2" ry="10.4" fill="#0a0410" opacity="0.51"/>
  <ellipse cx="577.3" cy="556.9" rx="39.0" ry="4.8" fill="#221b2b" opacity="0.40"/>
  <ellipse cx="769.3" cy="691.2" rx="36.5" ry="13.9" fill="#1b1425" opacity="0.29"/>
  <ellipse cx="164.3" cy="515.7" rx="51.7" ry="9.1" fill="#292232" opacity="0.48"/>
  <ellipse cx="727.6" cy="643.8" rx="58.7" ry="9.4" fill="#2c2535" opacity="0.46"/>
  <ellipse cx="1007.3" cy="493.1" rx="22.9" ry="9.9" fill="#0a0411" opacity="0.28"/>
  <ellipse cx="779.8" cy="577.0" rx="27.1" ry="8.1" fill="#251e2e" opacity="0.36"/>
  <ellipse cx="707.8" cy="494.5" rx="39.5" ry="13.0" fill="#090410" opacity="0.51"/>
  <ellipse cx="294.1" cy="699.9" rx="24.2" ry="4.2" fill="#09040f" opacity="0.32"/>
  <ellipse cx="421.9" cy="496.9" rx="66.7" ry="4.5" fill="#1e1727" opacity="0.46"/>
  <ellipse cx="205.5" cy="523.8" rx="33.4" ry="12.5" fill="#2d2636" opacity="0.27"/>
  <ellipse cx="912.5" cy="491.0" rx="53.8" ry="10.5" fill="#090410" opacity="0.49"/>
  <ellipse cx="957.5" cy="467.1" rx="52.1" ry="7.9" fill="#09040f" opacity="0.32"/>
  <ellipse cx="500.7" cy="381.5" rx="46.2" ry="4.6" fill="#221b2b" opacity="0.51"/>
  <ellipse cx="596.4" cy="549.8" rx="49.7" ry="7.3" fill="#241d2e" opacity="0.42"/>
  <ellipse cx="347.7" cy="448.3" rx="26.8" ry="4.1" fill="#09040f" opacity="0.55"/>
  <ellipse cx="141.9" cy="549.9" rx="18.4" ry="11.0" fill="#1b1324" opacity="0.47"/>
  <ellipse cx="1032.4" cy="574.7" rx="39.1" ry="13.1" fill="#272030" opacity="0.26"/>
  <ellipse cx="962.4" cy="656.8" rx="62.8" ry="7.3" fill="#2c2535" opacity="0.28"/>
  <ellipse cx="473.9" cy="631.7" rx="39.1" ry="11.0" fill="#231b2c" opacity="0.41"/>
  <ellipse cx="1255.2" cy="539.2" rx="25.7" ry="9.5" fill="#0a0411" opacity="0.29"/>
  <ellipse cx="90.4" cy="630.5" rx="31.2" ry="11.1" fill="#0b0512" opacity="0.37"/>
  <ellipse cx="4.2" cy="634.5" rx="52.4" ry="13.7" fill="#0b0513" opacity="0.29"/>

  <!-- Ground cracks -->
  <path d="M1180.4,479.7 Q1161.0,484.4 1140.6,481.1" stroke="#090410" stroke-width="1.2" fill="none" opacity="0.33"/>
  <path d="M820.9,604.2 Q820.4,613.3 825.2,632.6" stroke="#090410" stroke-width="0.5" fill="none" opacity="0.48"/>
  <path d="M615.2,594.1 Q608.0,599.1 589.3,603.6" stroke="#090410" stroke-width="1.3" fill="none" opacity="0.27"/>
  <path d="M376.4,529.0 Q356.8,539.1 348.4,533.7" stroke="#090410" stroke-width="0.8" fill="none" opacity="0.37"/>
  <path d="M779.9,423.8 Q758.0,436.2 722.0,440.1" stroke="#090410" stroke-width="0.6" fill="none" opacity="0.31"/>
  <path d="M1221.8,374.4 Q1203.3,395.3 1202.7,401.6" stroke="#090410" stroke-width="1.1" fill="none" opacity="0.58"/>
  <path d="M140.7,464.3 Q149.4,462.9 168.1,471.3" stroke="#090410" stroke-width="0.5" fill="none" opacity="0.47"/>

  <!-- Flora -->
  <g transform="translate(9.7,387.6)" opacity="0.73"><rect x="-1.9" y="-32.9" width="3.9" height="32.9" fill="#1e1030"/>
<ellipse cx="0" cy="-32.9" rx="14.9" ry="11.1" fill="#2c1840"/>
<circle cx="-8.5" cy="-35.5" r="2.3" fill="#615270" opacity="0.7"/></g>
  <g transform="translate(348.9,355.2)" opacity="0.57"><polygon points="4.3,-22.6 9.7,0 4.5,0" fill="#2c1840" opacity="0.95"/><line x1="4.3" y1="-22.6" x2="7.9" y2="0" stroke="#615270" stroke-width="0.8" opacity="0.5"/><polygon points="-2.0,-18.0 -2.4,0 -9.5,0" fill="#2c1840" opacity="0.85"/><line x1="-2.0" y1="-18.0" x2="-4.9" y2="0" stroke="#615270" stroke-width="0.8" opacity="0.5"/><polygon points="-3.6,-21.6 4.2,0 -2.0,0" fill="#2c1840" opacity="0.84"/><line x1="-3.6" y1="-21.6" x2="2.0" y2="0" stroke="#615270" stroke-width="0.8" opacity="0.5"/><polygon points="0.8,-13.0 6.2,0 1.5,0" fill="#2c1840" opacity="0.88"/><line x1="0.8" y1="-13.0" x2="4.6" y2="0" stroke="#615270" stroke-width="0.8" opacity="0.5"/><polygon points="4.5,-14.6 4.9,0 0.3,0" fill="#2c1840" opacity="0.80"/><line x1="4.5" y1="-14.6" x2="3.3" y2="0" stroke="#615270" stroke-width="0.8" opacity="0.5"/><polygon points="-7.8,-17.6 -2.4,0 -12.4,0" fill="#2c1840" opacity="0.95"/><line x1="-7.8" y1="-17.6" x2="-5.9" y2="0" stroke="#615270" stroke-width="0.8" opacity="0.5"/></g>
  <g transform="translate(1074.3,403.7)" opacity="0.73"><ellipse cx="0" cy="-7.3" rx="17.8" ry="10.5" fill="#1e1030" opacity="0.9"/>
<ellipse cx="3.6" cy="-11.5" rx="6.2" ry="4.2" fill="#180d26" opacity="0.35"/></g>
  <g transform="translate(267.9,339.2)" opacity="0.51"><line x1="0" y1="0" x2="0" y2="-30.7" stroke="#1e1030" stroke-width="2.0" stroke-linecap="round"/><path d="M0,-20.6 C-7.2,-20.6 -23.9,-11.1 -23.9,-11.1" stroke="#40344f" stroke-width="1.0" fill="none" stroke-linecap="round" opacity="0.8"/><path d="M0,-9.2 C-4.4,-9.2 -14.8,-3.3 -14.8,-3.3" stroke="#40344f" stroke-width="1.0" fill="none" stroke-linecap="round" opacity="0.8"/><path d="M0,-13.7 C6.1,-13.7 20.2,-5.6 20.2,-5.6" stroke="#40344f" stroke-width="1.0" fill="none" stroke-linecap="round" opacity="0.8"/><path d="M0,-26.5 C6.8,-26.5 22.8,-17.4 22.8,-17.4" stroke="#40344f" stroke-width="1.0" fill="none" stroke-linecap="round" opacity="0.8"/><path d="M0,-24.0 C-3.6,-24.0 -12.0,-19.2 -12.0,-19.2" stroke="#40344f" stroke-width="1.0" fill="none" stroke-linecap="round" opacity="0.8"/><path d="M0,-9.6 C5.8,-9.6 19.3,-1.9 19.3,-1.9" stroke="#40344f" stroke-width="1.0" fill="none" stroke-linecap="round" opacity="0.8"/></g>
  <g transform="translate(580.3,340.7)" opacity="0.80"><ellipse cx="0" cy="-6.1" rx="16.0" ry="8.7" fill="#1e1030" opacity="0.9"/>
<ellipse cx="3.2" cy="-9.6" rx="5.6" ry="3.5" fill="#180d26" opacity="0.35"/></g>
  <g transform="translate(725.7,338.4)" opacity="0.82"><ellipse cx="0" cy="-6.9" rx="15.0" ry="9.9" fill="#1e1030" opacity="0.9"/>
<ellipse cx="3.0" cy="-10.9" rx="5.2" ry="4.0" fill="#180d26" opacity="0.35"/></g>
  <g transform="translate(362.7,407.4)" opacity="0.59"><ellipse cx="0" cy="-14.8" rx="30.5" ry="21.1" fill="#1e1030" opacity="0.9"/>
<ellipse cx="6.1" cy="-23.2" rx="10.7" ry="8.4" fill="#180d26" opacity="0.35"/></g>
  <g transform="translate(1230.6,365.5)" opacity="0.52"><rect x="-2.7" y="-17.6" width="5.5" height="17.6" fill="#1e1030" rx="1.6"/><rect x="2.7" y="-12.6" width="10.2" height="5.5" fill="#1e1030" rx="1.6"/><circle cx="12.9" cy="-9.8" r="3.3" fill="#40344f"/></g>
  <g transform="translate(594.7,406.2)" opacity="0.90"><line x1="0" y1="0" x2="0" y2="-31.9" stroke="#1e1030" stroke-width="2.5" stroke-linecap="round"/><line x1="0" y1="-4.6" x2="9.7" y2="-13.0" stroke="#4b4059" stroke-width="1.9" stroke-linecap="round" opacity="0.85"/><line x1="0" y1="-9.1" x2="11.0" y2="-16.1" stroke="#4b4059" stroke-width="1.9" stroke-linecap="round" opacity="0.85"/><line x1="0" y1="-13.7" x2="14.9" y2="-24.0" stroke="#4b4059" stroke-width="1.9" stroke-linecap="round" opacity="0.85"/><line x1="0" y1="-18.2" x2="13.5" y2="-26.1" stroke="#4b4059" stroke-width="1.9" stroke-linecap="round" opacity="0.85"/><line x1="0" y1="-22.8" x2="8.2" y2="-26.7" stroke="#4b4059" stroke-width="1.9" stroke-linecap="round" opacity="0.85"/><line x1="0" y1="-27.3" x2="8.6" y2="-36.8" stroke="#4b4059" stroke-width="1.9" stroke-linecap="round" opacity="0.85"/></g>
  <g transform="translate(1038.9,381.3)" opacity="0.53"><ellipse cx="0" cy="-6.9" rx="15.7" ry="9.9" fill="#1e1030" opacity="0.9"/>
<ellipse cx="3.1" cy="-10.9" rx="5.5" ry="4.0" fill="#180d26" opacity="0.35"/></g>
  <g transform="translate(1099.8,389.4)" opacity="0.91"><line x1="0" y1="0" x2="0" y2="-24.6" stroke="#1e1030" stroke-width="1.5" stroke-linecap="round"/><path d="M0,-16.1 C4.3,-16.1 14.5,-10.3 14.5,-10.3" stroke="#40344f" stroke-width="0.7" fill="none" stroke-linecap="round" opacity="0.8"/><path d="M0,-11.1 C4.8,-11.1 16.1,-4.7 16.1,-4.7" stroke="#40344f" stroke-width="0.7" fill="none" stroke-linecap="round" opacity="0.8"/><path d="M0,-21.3 C3.3,-21.3 11.1,-16.9 11.1,-16.9" stroke="#40344f" stroke-width="0.7" fill="none" stroke-linecap="round" opacity="0.8"/><path d="M0,-9.5 C4.6,-9.5 15.5,-3.3 15.5,-3.3" stroke="#40344f" stroke-width="0.7" fill="none" stroke-linecap="round" opacity="0.8"/><path d="M0,-17.4 C5.4,-17.4 18.1,-10.1 18.1,-10.1" stroke="#40344f" stroke-width="0.7" fill="none" stroke-linecap="round" opacity="0.8"/></g>
  <g transform="translate(1006.6,394.9)" opacity="0.60"><line x1="0" y1="0" x2="0" y2="-31.0" stroke="#1e1030" stroke-width="1.7" stroke-linecap="round"/><path d="M0,-12.6 C6.2,-12.6 20.6,-4.4 20.6,-4.4" stroke="#40344f" stroke-width="0.8" fill="none" stroke-linecap="round" opacity="0.8"/><path d="M0,-16.8 C6.1,-16.8 20.4,-8.6 20.4,-8.6" stroke="#40344f" stroke-width="0.8" fill="none" stroke-linecap="round" opacity="0.8"/><path d="M0,-27.5 C4.0,-27.5 13.4,-22.1 13.4,-22.1" stroke="#40344f" stroke-width="0.8" fill="none" stroke-linecap="round" opacity="0.8"/><path d="M0,-26.9 C-2.8,-26.9 -9.2,-23.2 -9.2,-23.2" stroke="#40344f" stroke-width="0.8" fill="none" stroke-linecap="round" opacity="0.8"/><path d="M0,-15.6 C-2.8,-15.6 -9.2,-12.0 -9.2,-12.0" stroke="#40344f" stroke-width="0.8" fill="none" stroke-linecap="round" opacity="0.8"/><path d="M0,-9.6 C-3.6,-9.6 -12.0,-4.8 -12.0,-4.8" stroke="#40344f" stroke-width="0.8" fill="none" stroke-linecap="round" opacity="0.8"/></g>
  <g transform="translate(811.3,384.2)" opacity="0.90"><rect x="-1.2" y="-12.1" width="2.4" height="12.1" fill="#1e1030"/>
<ellipse cx="0" cy="-12.1" rx="12.8" ry="5.4" fill="#2c1840"/>
</g>

  <!-- Rocks -->
  <g transform="translate(124.8,508.5)"><ellipse cx="0" cy="-11.7" rx="27.1" ry="16.7" fill="#080412" opacity="0.92"/>
<ellipse cx="6.8" cy="-16.7" rx="9.5" ry="3.3" fill="#06030e" opacity="0.3"/>
<ellipse cx="-5.4" cy="-10.0" rx="5.4" ry="2.5" fill="#2d2a36" opacity="0.2"/></g>
  <g transform="translate(848.6,378.7)"><rect x="-24.3" y="-13.0" width="60.9" height="13.0" fill="#080412" opacity="0.92" rx="1"/><rect x="-9.1" y="-27.9" width="23.9" height="14.9" fill="#211d2a" opacity="0.92" rx="1"/><rect x="-15.6" y="-36.7" width="21.8" height="8.8" fill="#080412" opacity="0.92" rx="1"/></g>
  <g transform="translate(533.5,652.3)"><rect x="-10.1" y="-10.2" width="21.9" height="10.2" fill="#080412" opacity="0.92" rx="1"/><rect x="-8.7" y="-22.0" width="22.3" height="11.9" fill="#211d2a" opacity="0.92" rx="1"/></g>
  <g transform="translate(311.1,432.4)"><rect x="-30.4" y="-15.3" width="49.4" height="15.3" fill="#080412" opacity="0.92" rx="1"/><rect x="-15.7" y="-29.1" width="22.6" height="13.8" fill="#211d2a" opacity="0.92" rx="1"/></g>
  <g transform="translate(822.1,431.0)"><polygon points="6.1,-29.3 4.8,0 -4.8,0" fill="#080412" opacity="0.9"/></g>
  <g transform="translate(1176.5,476.3)"><polygon points="-5.8,-21.3 5.3,0 -5.3,0" fill="#080412" opacity="0.9"/></g>
  <g transform="translate(647.4,539.7)"><ellipse cx="0" cy="-25.7" rx="36.4" ry="36.7" fill="#080412" opacity="0.92"/>
<ellipse cx="9.1" cy="-36.7" rx="12.8" ry="7.3" fill="#06030e" opacity="0.3"/>
<ellipse cx="-7.3" cy="-22.0" rx="7.3" ry="5.5" fill="#2d2a36" opacity="0.2"/></g>
  <g transform="translate(35.4,549.5)"><rect x="-21.7" y="-12.1" width="40.0" height="12.1" fill="#080412" opacity="0.92" rx="1"/><rect x="-13.3" y="-21.0" width="24.1" height="8.9" fill="#211d2a" opacity="0.92" rx="1"/><rect x="-16.6" y="-27.8" width="34.8" height="6.8" fill="#080412" opacity="0.92" rx="1"/></g>
  <g transform="translate(897.5,454.2)"><rect x="-31.8" y="-11.1" width="50.4" height="11.1" fill="#080412" opacity="0.92" rx="1"/><rect x="-11.7" y="-19.4" width="28.1" height="8.3" fill="#211d2a" opacity="0.92" rx="1"/><rect x="-7.1" y="-35.8" width="26.4" height="16.4" fill="#080412" opacity="0.92" rx="1"/></g>
  <g transform="translate(1203.0,382.1)"><ellipse cx="0" cy="-21.0" rx="46.9" ry="30.0" fill="#080412" opacity="0.92"/>
<ellipse cx="11.7" cy="-30.0" rx="16.4" ry="6.0" fill="#06030e" opacity="0.3"/>
<ellipse cx="-9.4" cy="-18.0" rx="9.4" ry="4.5" fill="#2d2a36" opacity="0.2"/></g>
  <g transform="translate(994.5,619.4)"><polygon points="1.6,-27.6 6.7,0 -6.7,0" fill="#080412" opacity="0.9"/></g>
  <g transform="translate(841.7,382.6)"><polygon points="7.3,-47.7 10.5,0 -10.5,0" fill="#080412" opacity="0.9"/><polygon points="7.3,-47.7 1.0,0 10.5,0" fill="#06030d" opacity="0.4"/></g>

  <!-- Foreground elements -->
  <g transform="translate(689.6,710.0)" opacity="0.57"><rect x="-35.2" y="-25.5" width="76.7" height="25.5" fill="#080412" opacity="0.92" rx="1"/><rect x="-33.6" y="-47.3" width="51.2" height="21.8" fill="#211d2a" opacity="0.92" rx="1"/></g>
  <g transform="translate(1132.2,678.8)" opacity="0.72"><polygon points="-11.3,-96.5 -3.0,0 -36.2,0" fill="#2c1840" opacity="0.83"/><line x1="-11.3" y1="-96.5" x2="-14.6" y2="0" stroke="#615270" stroke-width="0.8" opacity="0.5"/><polygon points="-12.0,-59.4 -6.3,0 -26.6,0" fill="#2c1840" opacity="0.89"/><line x1="-12.0" y1="-59.4" x2="-13.4" y2="0" stroke="#615270" stroke-width="0.8" opacity="0.5"/><polygon points="28.0,-33.7 37.5,0 12.0,0" fill="#2c1840" opacity="0.82"/><line x1="28.0" y1="-33.7" x2="28.5" y2="0" stroke="#615270" stroke-width="0.8" opacity="0.5"/><polygon points="-21.8,-87.3 -5.5,0 -29.8,0" fill="#2c1840" opacity="0.90"/><line x1="-21.8" y1="-87.3" x2="-14.0" y2="0" stroke="#615270" stroke-width="0.8" opacity="0.5"/><polygon points="-20.1,-57.5 -8.8,0 -34.6,0" fill="#2c1840" opacity="0.82"/><line x1="-20.1" y1="-57.5" x2="-17.9" y2="0" stroke="#615270" stroke-width="0.8" opacity="0.5"/><polygon points="-8.4,-36.9 5.6,0 -12.4,0" fill="#2c1840" opacity="0.84"/><line x1="-8.4" y1="-36.9" x2="-0.7" y2="0" stroke="#615270" stroke-width="0.8" opacity="0.5"/></g>

  <!-- Atmospheric dust -->
  <circle cx="317.0" cy="372.3" r="1.2" fill="#321842" opacity="0.11"/>
  <circle cx="87.3" cy="350.2" r="0.8" fill="#321842" opacity="0.19"/>
  <circle cx="839.2" cy="331.6" r="1.1" fill="#321842" opacity="0.08"/>
  <circle cx="107.0" cy="334.0" r="2.2" fill="#321842" opacity="0.26"/>
  <circle cx="1053.8" cy="366.4" r="1.4" fill="#321842" opacity="0.10"/>
  <circle cx="723.4" cy="291.3" r="2.1" fill="#321842" opacity="0.25"/>
  <circle cx="876.4" cy="382.8" r="2.5" fill="#321842" opacity="0.25"/>
  <circle cx="15.9" cy="388.2" r="1.4" fill="#321842" opacity="0.21"/>
  <circle cx="400.2" cy="312.7" r="2.4" fill="#321842" opacity="0.15"/>
  <circle cx="51.5" cy="337.9" r="2.3" fill="#321842" opacity="0.18"/>
  <circle cx="1168.4" cy="360.8" r="0.9" fill="#321842" opacity="0.16"/>
  <circle cx="260.8" cy="372.1" r="2.5" fill="#321842" opacity="0.24"/>
  <circle cx="1075.6" cy="335.1" r="1.2" fill="#321842" opacity="0.15"/>
  <circle cx="492.4" cy="364.5" r="1.8" fill="#321842" opacity="0.17"/>
  <circle cx="950.3" cy="311.3" r="1.2" fill="#321842" opacity="0.19"/>
  <circle cx="35.5" cy="334.0" r="1.6" fill="#321842" opacity="0.09"/>
  <circle cx="920.3" cy="299.1" r="1.1" fill="#321842" opacity="0.13"/>
  <circle cx="1236.5" cy="325.9" r="2.0" fill="#321842" opacity="0.17"/>
  <circle cx="984.1" cy="389.0" r="1.8" fill="#321842" opacity="0.14"/>
  <circle cx="871.3" cy="386.8" r="1.9" fill="#321842" opacity="0.25"/>
  <circle cx="756.0" cy="367.5" r="1.6" fill="#321842" opacity="0.18"/>
  <circle cx="1011.6" cy="299.3" r="2.6" fill="#321842" opacity="0.22"/>
  <circle cx="336.3" cy="293.5" r="1.2" fill="#321842" opacity="0.17"/>
  <circle cx="889.8" cy="388.4" r="1.8" fill="#321842" opacity="0.20"/>
  <circle cx="1178.3" cy="385.2" r="1.4" fill="#321842" opacity="0.11"/>
  <circle cx="96.5" cy="342.8" r="1.2" fill="#321842" opacity="0.22"/>
  <circle cx="1141.8" cy="309.1" r="2.5" fill="#321842" opacity="0.25"/>
  <circle cx="967.2" cy="324.8" r="1.9" fill="#321842" opacity="0.22"/>
</svg>