<svg xmlns="http://www.w3.org/2000/svg" viewBox="0 0 1280 720" width="1280" height="720">
  <defs>
    <linearGradient id="sky17" x1="0" y1="0" x2="0" y2="1">
      <stop offset="0%" stop-color="#030604"/>
      <stop offset="85%" stop-color="#0c1a0e"/>
      <stop offset="100%" stop-color="#0e1c10"/>
    </linearGradient>
    <linearGradient id="fog17" x1="0" y1="0" x2="0" y2="1">
      <stop offset="0%" stop-color="#101e12" stop-opacity="0"/>
      <stop offset="100%" stop-color="#101e12" stop-opacity="0.5"/>
    </linearGradient>
    <linearGradient id="ground17" x1="0" y1="0" x2="0" y2="1">
      <stop offset="0%" stop-color="#081008"/>
      <stop offset="100%" stop-color="#030903"/>
    </linearGradient>
    <filter id="sfar17"><feGaussianBlur stdDeviation="2.5"/></filter>
  </defs>

  <!-- Sky gradient -->
  <rect width="1280" height="720" fill="url(#sky17)"/>

  <!-- Celestial body -->
  <circle cx="499.8" cy="76.6" r="54.5" fill="#204020" opacity="0.08"/>
  <circle cx="499.8" cy="76.6" r="31.1" fill="#204020" opacity="0.11"/>
  <circle cx="499.8" cy="76.6" r="19.5" fill="#204020" opacity="0.43"/>
  <circle cx="561.0" cy="134.8" r="11.2" fill="#4f514f" opacity="0.11"/>
  <circle cx="561.0" cy="134.8" r="7.0" fill="#4f514f" opacity="0.36"/>

  <!-- Atmospheric haze at horizon -->
  <rect x="0" y="252" width="1280" height="140" fill="url(#fog17)"/>

  <!-- Far terrain silhouette (blurred) -->
  <polygon points="0,720 0.0,355.0 58.2,354.8 116.4,352.4 174.5,350.8 232.7,351.7 290.9,351.5 349.1,347.6 407.3,343.0 465.5,342.0 523.6,345.8 581.8,351.6 640.0,353.9 698.2,350.3 756.4,344.8 814.5,341.5 872.7,342.2 930.9,346.7 989.1,351.0 1047.3,352.6 1105.5,352.3 1163.6,350.7 1221.8,347.2 1280.0,342.4 1280,720" fill="#081008" filter="url(#sfar17)" opacity="0.88"/>

  <!-- Near terrain -->
  <polygon points="0,720 0.0,333.9 71.1,358.0 142.2,367.1 213.3,372.0 284.4,380.2 355.6,389.8 426.7,398.6 497.8,398.4 568.9,390.4 640.0,381.8 711.1,379.2 782.2,382.0 853.3,384.8 924.4,386.2 995.6,381.8 1066.7,378.0 1137.8,381.4 1208.9,389.9 1280.0,406.2 1280,720" fill="#040a04" opacity="0.96"/>

  <!-- Ground base fill -->
  <rect x="0" y="392" width="1280" height="328" fill="url(#ground17)"/>

  <!-- Ground texture patches -->
  <ellipse cx="919.5" cy="582.0" rx="34.6" ry="11.5" fill="#030703" opacity="0.50"/>
  <ellipse cx="48.3" cy="587.8" rx="24.8" ry="13.6" fill="#131813" opacity="0.49"/>
  <ellipse cx="874.6" cy="646.6" rx="55.4" ry="5.6" fill="#030803" opacity="0.34"/>
  <ellipse cx="471.7" cy="448.4" rx="65.7" ry="8.4" fill="#030703" opacity="0.48"/>
  <ellipse cx="39.1" cy="594.4" rx="55.3" ry="9.4" fill="#242a24" opacity="0.47"/>
  <ellipse cx="739.9" cy="573.0" rx="28.4" ry="12.5" fill="#161c16" opacity="0.27"/>
  <ellipse cx="195.4" cy="410.4" rx="22.1" ry="8.5" fill="#030803" opacity="0.52"/>
  <ellipse cx="129.8" cy="457.3" rx="72.2" ry="9.7" fill="#030803" opacity="0.51"/>
  <ellipse cx="24.1" cy="438.0" rx="21.4" ry="9.6" fill="#030703" opacity="0.50"/>
  <ellipse cx="484.0" cy="653.4" rx="55.1" ry="13.4" fill="#030703" opacity="0.53"/>
  <ellipse cx="633.7" cy="597.8" rx="23.8" ry="11.1" fill="#1c211c" opacity="0.32"/>
  <ellipse cx="566.8" cy="619.8" rx="31.1" ry="9.0" fill="#1a1f1a" opacity="0.30"/>
  <ellipse cx="78.5" cy="563.7" rx="23.6" ry="12.4" fill="#030803" opacity="0.33"/>
  <ellipse cx="981.3" cy="464.8" rx="20.3" ry="5.6" fill="#171c17" opacity="0.45"/>
  <ellipse cx="178.7" cy="419.7" rx="35.3" ry="5.9" fill="#1c211c" opacity="0.37"/>
  <ellipse cx="981.2" cy="438.7" rx="25.4" ry="9.9" fill="#030703" opacity="0.52"/>
  <ellipse cx="1023.9" cy="527.3" rx="55.3" ry="9.3" fill="#030803" opacity="0.39"/>
  <ellipse cx="544.0" cy="509.6" rx="63.6" ry="10.3" fill="#131913" opacity="0.49"/>
  <ellipse cx="50.6" cy="422.4" rx="47.7" ry="12.8" fill="#030803" opacity="0.42"/>
  <ellipse cx="956.3" cy="531.5" rx="47.6" ry="12.1" fill="#1d221d" opacity="0.29"/>
  <ellipse cx="294.4" cy="605.7" rx="67.1" ry="12.5" fill="#030703" opacity="0.41"/>
  <ellipse cx="1278.9" cy="443.6" rx="64.3" ry="13.7" fill="#030603" opacity="0.36"/>
  <ellipse cx="1054.1" cy="396.6" rx="58.7" ry="7.7" fill="#030703" opacity="0.46"/>
  <ellipse cx="281.5" cy="559.6" rx="31.1" ry="8.8" fill="#161c16" opacity="0.34"/>
  <ellipse cx="192.8" cy="407.9" rx="29.6" ry="14.0" fill="#1a1f1a" opacity="0.48"/>
  <ellipse cx="15.3" cy="467.9" rx="29.6" ry="5.2" fill="#242924" opacity="0.45"/>
  <ellipse cx="850.5" cy="630.8" rx="52.9" ry="12.7" fill="#030703" opacity="0.51"/>
  <ellipse cx="826.6" cy="553.7" rx="62.1" ry="11.2" fill="#161b16" opacity="0.32"/>
  <ellipse cx="364.4" cy="592.5" rx="43.2" ry="10.1" fill="#202620" opacity="0.32"/>
  <ellipse cx="76.7" cy="651.5" rx="55.0" ry="9.2" fill="#020602" opacity="0.48"/>
  <ellipse cx="1032.4" cy="535.1" rx="23.7" ry="7.7" fill="#030803" opacity="0.26"/>
  <ellipse cx="576.3" cy="685.1" rx="53.7" ry="11.3" fill="#222722" opacity="0.33"/>
  <ellipse cx="571.3" cy="519.3" rx="61.3" ry="5.4" fill="#131913" opacity="0.35"/>
  <ellipse cx="43.9" cy="655.1" rx="71.5" ry="4.3" fill="#1d221d" opacity="0.35"/>
  <ellipse cx="1144.7" cy="471.9" rx="25.7" ry="13.9" fill="#1a1f1a" opacity="0.53"/>
  <ellipse cx="852.5" cy="530.5" rx="28.3" ry="13.7" fill="#202520" opacity="0.46"/>
  <ellipse cx="67.8" cy="454.6" rx="58.9" ry="5.8" fill="#030703" opacity="0.43"/>
  <ellipse cx="357.0" cy="547.6" rx="52.1" ry="13.1" fill="#1d221d" opacity="0.44"/>

  <!-- Ground cracks -->
  <path d="M1051.1,607.9 Q1047.9,621.0 1027.2,632.9" stroke="#030703" stroke-width="1.1" fill="none" opacity="0.51"/>
  <path d="M949.0,555.2 Q929.8,558.6 908.8,557.1" stroke="#030703" stroke-width="1.3" fill="none" opacity="0.35"/>
  <path d="M259.3,549.3 Q261.2,550.9 278.0,557.6" stroke="#030703" stroke-width="0.7" fill="none" opacity="0.54"/>
  <path d="M24.9,545.6 Q60.3,542.2 100.1,550.7" stroke="#030703" stroke-width="0.8" fill="none" opacity="0.44"/>
  <path d="M1130.4,521.9 Q1144.6,522.4 1151.7,532.4" stroke="#030703" stroke-width="0.9" fill="none" opacity="0.49"/>
  <path d="M776.6,392.2 Q789.3,392.0 801.7,392.8" stroke="#030703" stroke-width="1.0" fill="none" opacity="0.51"/>
  <path d="M50.9,663.2 Q20.0,677.3 23.1,689.0" stroke="#030703" stroke-width="0.5" fill="none" opacity="0.32"/>
  <path d="M93.9,675.9 Q122.2,684.9 127.8,689.4" stroke="#030703" stroke-width="1.2" fill="none" opacity="0.38"/>
  <path d="M1236.9,519.1 Q1254.0,535.6 1270.7,537.5" stroke="#030703" stroke-width="0.7" fill="none" opacity="0.58"/>
  <path d="M1004.3,614.9 Q1025.0,627.2 1042.5,633.1" stroke="#030703" stroke-width="0.7" fill="none" opacity="0.51"/>
  <path d="M112.4,602.4 Q76.2,604.6 59.6,622.6" stroke="#030703" stroke-width="1.3" fill="none" opacity="0.48"/>

  <!-- Flora -->
  <g transform="translate(65.5,371.1)" opacity="0.55"><line x1="0" y1="0" x2="0" y2="-23.0" stroke="#0e1a0e" stroke-width="1.6" stroke-linecap="round"/><line x1="0" y1="-4.6" x2="14.0" y2="-15.5" stroke="#3e483e" stroke-width="1.2" stroke-linecap="round" opacity="0.85"/><line x1="0" y1="-9.2" x2="7.4" y2="-14.7" stroke="#3e483e" stroke-width="1.2" stroke-linecap="round" opacity="0.85"/><line x1="0" y1="-13.8" x2="11.4" y2="-21.1" stroke="#3e483e" stroke-width="1.2" stroke-linecap="round" opacity="0.85"/><line x1="0" y1="-18.4" x2="6.2" y2="-23.3" stroke="#3e483e" stroke-width="1.2" stroke-linecap="round" opacity="0.85"/></g>
  <g transform="translate(617.1,392.1)" opacity="0.58"><ellipse cx="0" cy="-4.2" rx="11.5" ry="6.0" fill="#0e1a0e" opacity="0.9"/>
<ellipse cx="2.3" cy="-6.6" rx="4.0" ry="2.4" fill="#0b150b" opacity="0.35"/></g>
  <g transform="translate(1245.5,425.6)" opacity="0.84"><ellipse cx="0" cy="-6.7" rx="10.9" ry="9.5" fill="#0e1a0e" opacity="0.9"/>
<ellipse cx="2.2" cy="-10.5" rx="3.8" ry="3.8" fill="#0b150b" opacity="0.35"/></g>
  <g transform="translate(971.7,414.6)" opacity="0.86"><polygon points="6.2,-18.1 9.2,0 -2.7,0" fill="#162214" opacity="0.95"/><line x1="6.2" y1="-18.1" x2="5.0" y2="0" stroke="#50594f" stroke-width="0.8" opacity="0.5"/><polygon points="-1.1,-25.1 5.6,0 -10.4,0" fill="#162214" opacity="0.93"/><line x1="-1.1" y1="-25.1" x2="0.0" y2="0" stroke="#50594f" stroke-width="0.8" opacity="0.5"/><polygon points="-7.4,-16.3 0.7,0 -15.0,0" fill="#162214" opacity="0.76"/><line x1="-7.4" y1="-16.3" x2="-4.8" y2="0" stroke="#50594f" stroke-width="0.8" opacity="0.5"/><polygon points="1.2,-24.8 8.0,0 -6.6,0" fill="#162214" opacity="0.95"/><line x1="1.2" y1="-24.8" x2="2.9" y2="0" stroke="#50594f" stroke-width="0.8" opacity="0.5"/></g>
  <g transform="translate(326.0,406.5)" opacity="0.93"><line x1="0" y1="0" x2="0" y2="-35.9" stroke="#0e1a0e" stroke-width="2.7" stroke-linecap="round"/><path d="M0,-21.1 C8.4,-21.1 27.9,-10.0 27.9,-10.0" stroke="#323c32" stroke-width="1.3" fill="none" stroke-linecap="round" opacity="0.8"/><path d="M0,-21.8 C-5.6,-21.8 -18.7,-14.4 -18.7,-14.4" stroke="#323c32" stroke-width="1.3" fill="none" stroke-linecap="round" opacity="0.8"/><path d="M0,-28.1 C-4.6,-28.1 -15.2,-22.0 -15.2,-22.0" stroke="#323c32" stroke-width="1.3" fill="none" stroke-linecap="round" opacity="0.8"/><path d="M0,-22.8 C4.3,-22.8 14.3,-17.1 14.3,-17.1" stroke="#323c32" stroke-width="1.3" fill="none" stroke-linecap="round" opacity="0.8"/><path d="M0,-22.6 C8.4,-22.6 28.0,-11.4 28.0,-11.4" stroke="#323c32" stroke-width="1.3" fill="none" stroke-linecap="round" opacity="0.8"/></g>
  <g transform="translate(110.2,431.7)" opacity="0.86"><line x1="0" y1="0" x2="0" y2="-20.2" stroke="#0e1a0e" stroke-width="1.0" stroke-linecap="round"/><line x1="0" y1="-3.4" x2="8.6" y2="-10.7" stroke="#3e483e" stroke-width="0.8" stroke-linecap="round" opacity="0.85"/><line x1="0" y1="-6.7" x2="6.5" y2="-12.0" stroke="#3e483e" stroke-width="0.8" stroke-linecap="round" opacity="0.85"/><line x1="0" y1="-10.1" x2="5.3" y2="-15.5" stroke="#3e483e" stroke-width="0.8" stroke-linecap="round" opacity="0.85"/><line x1="0" y1="-13.5" x2="6.9" y2="-18.5" stroke="#3e483e" stroke-width="0.8" stroke-linecap="round" opacity="0.85"/><line x1="0" y1="-16.8" x2="4.4" y2="-21.8" stroke="#3e483e" stroke-width="0.8" stroke-linecap="round" opacity="0.85"/></g>
  <g transform="translate(227.0,401.2)" opacity="0.71"><rect x="-1.2" y="-17.8" width="2.3" height="17.8" fill="#0e1a0e"/>
<ellipse cx="0" cy="-17.8" rx="9.1" ry="6.3" fill="#162214"/>
<circle cx="5.2" cy="-20.9" r="1.2" fill="#50594f" opacity="0.7"/><circle cx="-3.6" cy="-21.0" r="1.8" fill="#50594f" opacity="0.7"/><circle cx="1.9" cy="-18.2" r="1.0" fill="#50594f" opacity="0.7"/></g>
  <g transform="translate(799.4,376.1)" opacity="0.65"><polygon points="13.6,-55.9 9.1,0 -5.4,0" fill="#162214" opacity="0.77"/><line x1="13.6" y1="-55.9" x2="4.0" y2="0" stroke="#50594f" stroke-width="0.8" opacity="0.5"/><polygon points="-10.0,-22.5 -6.1,0 -20.4,0" fill="#162214" opacity="0.81"/><line x1="-10.0" y1="-22.5" x2="-11.1" y2="0" stroke="#50594f" stroke-width="0.8" opacity="0.5"/><polygon points="-6.2,-30.2 7.8,0 -12.3,0" fill="#162214" opacity="0.92"/><line x1="-6.2" y1="-30.2" x2="0.7" y2="0" stroke="#50594f" stroke-width="0.8" opacity="0.5"/></g>
  <g transform="translate(128.8,409.5)" opacity="0.80"><ellipse cx="0" cy="-5.4" rx="8.1" ry="7.6" fill="#0e1a0e" opacity="0.9"/>
<ellipse cx="1.6" cy="-8.4" rx="2.8" ry="3.1" fill="#0b150b" opacity="0.35"/></g>
  <g transform="translate(217.5,384.5)" opacity="0.51"><rect x="-2.9" y="-38.8" width="5.7" height="38.8" fill="#0e1a0e" rx="1.7"/><rect x="2.9" y="-28.8" width="13.9" height="5.7" fill="#0e1a0e" rx="1.7"/><circle cx="16.7" cy="-25.9" r="3.4" fill="#323c32"/><rect x="-17.8" y="-23.8" width="20.7" height="5.7" fill="#0e1a0e" rx="1.7"/><circle cx="-17.8" cy="-21.0" r="3.4" fill="#323c32"/><rect x="2.9" y="-29.2" width="20.1" height="5.7" fill="#0e1a0e" rx="1.7"/><circle cx="22.9" cy="-26.4" r="3.4" fill="#323c32"/></g>

  <!-- Rocks -->
  <g transform="translate(1231.0,631.7)"><polygon points="1.3,-27.8 10.5,0 -10.5,0" fill="#030804" opacity="0.9"/></g>
  <g transform="translate(153.4,650.7)"><ellipse cx="0" cy="-18.9" rx="43.0" ry="26.9" fill="#030804" opacity="0.92"/>
<ellipse cx="10.8" cy="-26.9" rx="15.1" ry="5.4" fill="#020603" opacity="0.3"/>
<ellipse cx="-8.6" cy="-16.2" rx="8.6" ry="4.0" fill="#292d2a" opacity="0.2"/></g>
  <g transform="translate(999.3,427.8)"><polygon points="9.0,-42.5 8.0,0 -8.0,0" fill="#030804" opacity="0.9"/><polygon points="9.0,-42.5 0.8,0 8.0,0" fill="#020603" opacity="0.4"/></g>
  <g transform="translate(159.9,638.5)"><rect x="-17.7" y="-8.1" width="47.0" height="8.1" fill="#030804" opacity="0.92" rx="1"/><rect x="-22.8" y="-24.6" width="46.1" height="16.5" fill="#1c211d" opacity="0.92" rx="1"/></g>
  <g transform="translate(828.5,643.2)"><rect x="-15.3" y="-12.5" width="35.4" height="12.5" fill="#030804" opacity="0.92" rx="1"/><rect x="-10.2" y="-18.0" width="25.1" height="5.5" fill="#1c211d" opacity="0.92" rx="1"/></g>
  <g transform="translate(203.5,380.9)"><polygon points="2.6,-25.7 11.6,0 -11.6,0" fill="#030804" opacity="0.9"/></g>
  <g transform="translate(1167.2,626.3)"><ellipse cx="0" cy="-11.3" rx="43.3" ry="16.1" fill="#030804" opacity="0.92"/>
<ellipse cx="10.8" cy="-16.1" rx="15.2" ry="3.2" fill="#020603" opacity="0.3"/>
<ellipse cx="-8.7" cy="-9.7" rx="8.7" ry="2.4" fill="#292d2a" opacity="0.2"/></g>
  <g transform="translate(252.2,658.3)"><rect x="-22.8" y="-15.6" width="57.3" height="15.6" fill="#030804" opacity="0.92" rx="1"/><rect x="-22.4" y="-25.2" width="30.2" height="9.5" fill="#1c211d" opacity="0.92" rx="1"/></g>
  <g transform="translate(88.8,566.0)"><ellipse cx="0" cy="-14.6" rx="34.6" ry="20.8" fill="#030804" opacity="0.92"/>
<ellipse cx="8.6" cy="-20.8" rx="12.1" ry="4.2" fill="#020603" opacity="0.3"/>
<ellipse cx="-6.9" cy="-12.5" rx="6.9" ry="3.1" fill="#292d2a" opacity="0.2"/></g>
  <g transform="translate(1194.1,533.6)"><polygon points="-4.5,-29.5 6.6,0 -6.6,0" fill="#030804" opacity="0.9"/><polygon points="-4.5,-29.5 0.7,0 6.6,0" fill="#020603" opacity="0.4"/></g>
  <g transform="translate(1255.9,665.7)"><ellipse cx="0" cy="-15.5" rx="32.5" ry="22.1" fill="#030804" opacity="0.92"/>
<ellipse cx="8.1" cy="-22.1" rx="11.4" ry="4.4" fill="#020603" opacity="0.3"/>
<ellipse cx="-6.5" cy="-13.2" rx="6.5" ry="3.3" fill="#292d2a" opacity="0.2"/></g>
  <g transform="translate(445.8,522.7)"><ellipse cx="0" cy="-11.1" rx="13.4" ry="15.9" fill="#030804" opacity="0.92"/>
<ellipse cx="3.4" cy="-15.9" rx="4.7" ry="3.2" fill="#020603" opacity="0.3"/>
<ellipse cx="-2.7" cy="-9.5" rx="2.7" ry="2.4" fill="#292d2a" opacity="0.2"/></g>
  <g transform="translate(774.7,653.6)"><polygon points="-5.9,-18.6 8.6,0 -8.6,0" fill="#030804" opacity="0.9"/><polygon points="-5.9,-18.6 0.9,0 8.6,0" fill="#020603" opacity="0.4"/></g>

  <!-- Foreground elements -->
  <g transform="translate(988.2,708.7)" opacity="0.71"><polygon points="-6.9,-68.8 5.9,0 -11.0,0" fill="#162214" opacity="0.83"/><line x1="-6.9" y1="-68.8" x2="-0.0" y2="0" stroke="#50594f" stroke-width="0.8" opacity="0.5"/><polygon points="9.5,-59.2 7.0,0 -10.7,0" fill="#162214" opacity="0.86"/><line x1="9.5" y1="-59.2" x2="0.8" y2="0" stroke="#50594f" stroke-width="0.8" opacity="0.5"/><polygon points="-1.1,-37.2 4.4,0 -16.5,0" fill="#162214" opacity="0.89"/><line x1="-1.1" y1="-37.2" x2="-3.0" y2="0" stroke="#50594f" stroke-width="0.8" opacity="0.5"/><polygon points="-5.2,-44.4 10.7,0 -10.2,0" fill="#162214" opacity="0.88"/><line x1="-5.2" y1="-44.4" x2="3.4" y2="0" stroke="#50594f" stroke-width="0.8" opacity="0.5"/><polygon points="14.1,-38.4 16.7,0 -6.5,0" fill="#162214" opacity="0.91"/><line x1="14.1" y1="-38.4" x2="8.6" y2="0" stroke="#50594f" stroke-width="0.8" opacity="0.5"/></g>
  <g transform="translate(226.4,700.5)" opacity="0.68"><line x1="0" y1="0" x2="0" y2="-57.3" stroke="#0e1a0e" stroke-width="4.3" stroke-linecap="round"/><path d="M0,-35.9 C-7.8,-35.9 -25.8,-25.5 -25.8,-25.5" stroke="#323c32" stroke-width="2.1" fill="none" stroke-linecap="round" opacity="0.8"/><path d="M0,-51.0 C-12.2,-51.0 -40.8,-34.7 -40.8,-34.7" stroke="#323c32" stroke-width="2.1" fill="none" stroke-linecap="round" opacity="0.8"/><path d="M0,-50.7 C10.1,-50.7 33.5,-37.3 33.5,-37.3" stroke="#323c32" stroke-width="2.1" fill="none" stroke-linecap="round" opacity="0.8"/><path d="M0,-40.0 C9.4,-40.0 31.3,-27.4 31.3,-27.4" stroke="#323c32" stroke-width="2.1" fill="none" stroke-linecap="round" opacity="0.8"/><path d="M0,-26.0 C15.3,-26.0 50.9,-5.7 50.9,-5.7" stroke="#323c32" stroke-width="2.1" fill="none" stroke-linecap="round" opacity="0.8"/></g>
  <g transform="translate(1064.0,690.7)" opacity="0.64"><rect x="-4.7" y="-66.4" width="9.4" height="66.4" fill="#0e1a0e"/>
<ellipse cx="0" cy="-66.4" rx="43.4" ry="23.8" fill="#162214"/>
<circle cx="15.6" cy="-79.1" r="3.7" fill="#50594f" opacity="0.7"/></g>

  <!-- Atmospheric dust -->
  <circle cx="657.7" cy="416.7" r="2.1" fill="#101e12" opacity="0.18"/>
  <circle cx="1011.0" cy="384.9" r="0.8" fill="#101e12" opacity="0.14"/>
  <circle cx="1200.3" cy="415.0" r="1.4" fill="#101e12" opacity="0.17"/>
  <circle cx="986.4" cy="385.3" r="1.3" fill="#101e12" opacity="0.25"/>
  <circle cx="228.1" cy="398.3" r="1.5" fill="#101e12" opacity="0.25"/>
  <circle cx="1267.4" cy="411.6" r="1.4" fill="#101e12" opacity="0.08"/>
  <circle cx="478.7" cy="348.1" r="1.3" fill="#101e12" opacity="0.24"/>
  <circle cx="868.5" cy="340.4" r="1.0" fill="#101e12" opacity="0.25"/>
  <circle cx="916.2" cy="409.4" r="2.5" fill="#101e12" opacity="0.23"/>
  <circle cx="437.4" cy="403.2" r="2.5" fill="#101e12" opacity="0.26"/>
  <circle cx="890.8" cy="396.7" r="2.2" fill="#101e12" opacity="0.23"/>
  <circle cx="36.7" cy="345.3" r="1.4" fill="#101e12" opacity="0.19"/>
  <circle cx="740.2" cy="349.8" r="1.1" fill="#101e12" opacity="0.20"/>
  <circle cx="418.0" cy="417.3" r="2.4" fill="#101e12" opacity="0.21"/>
  <circle cx="550.2" cy="337.1" r="1.0" fill="#101e12" opacity="0.10"/>
  <circle cx="854.5" cy="351.4" r="0.9" fill="#101e12" opacity="0.17"/>
  <circle cx="1088.4" cy="420.6" r="1.1" fill="#101e12" opacity="0.13"/>
  <circle cx="290.7" cy="347.9" r="2.4" fill="#101e12" opacity="0.10"/>
  <circle cx="259.4" cy="383.3" r="2.5" fill="#101e12" opacity="0.23"/>
  <circle cx="1113.7" cy="396.5" r="2.2" fill="#101e12" opacity="0.18"/>
  <circle cx="600.8" cy="370.5" r="1.7" fill="#101e12" opacity="0.09"/>
  <circle cx="1092.4" cy="399.6" r="1.1" fill="#101e12" opacity="0.13"/>
  <circle cx="926.7" cy="415.0" r="2.1" fill="#101e12" opacity="0.22"/>
  <circle cx="1201.0" cy="379.1" r="1.3" fill="#101e12" opacity="0.13"/>
  <circle cx="175.9" cy="419.7" r="1.3" fill="#101e12" opacity="0.15"/>
  <circle cx="908.0" cy="404.8" r="1.6" fill="#101e12" opacity="0.12"/>
  <circle cx="891.0" cy="373.3" r="2.2" fill="#101e12" opacity="0.10"/>
  <circle cx="385.7" cy="380.4" r="2.5" fill="#101e12" opacity="0.08"/>
</svg>