<svg xmlns="http://www.w3.org/2000/svg" viewBox="0 0 1280 720" width="1280" height="720">
  <defs>
    <linearGradient id="sky15" x1="0" y1="0" x2="0" y2="1">
      <stop offset="0%" stop-color="#060e1a"/>
      <stop offset="85%" stop-color="#14263e"/>
      <stop offset="100%" stop-color="#192e48"/>
    </linearGradient>
    <linearGradient id="fog15" x1="0" y1="0" x2="0" y2="1">
      <stop offset="0%" stop-color="#1e3652" stop-opacity="0"/>
      <stop offset="100%" stop-color="#1e3652" stop-opacity="0.5"/>
    </linearGradient>
    <linearGradient id="ground15" x1="0" y1="0" x2="0" y2="1">
      <stop offset="0%" stop-color="#102032"/>
      <stop offset="100%" stop-color="#070c16"/>
    </linearGradient>
    <filter id="sfar15"><feGaussianBlur stdDeviation="2.5"/></filter>
  </defs>

  <!-- Sky gradient -->
  <rect width="1280" height="720" fill="url(#sky15)"/>

  <!-- Celestial body -->
  <circle cx="258.5" cy="269.0" r="59.7" fill="#60c0e0" opacity="0.10"/>
  <circle cx="258.5" cy="269.0" r="34.1" fill="#60c0e0" opacity="0.13"/>
  <circle cx="258.5" cy="269.0" r="21.3" fill="#60c0e0" opacity="0.54"/>
  <circle cx="671.6" cy="317.7" r="18.5" fill="#51565f" opacity="0.11"/>
  <circle cx="671.6" cy="317.7" r="11.5" fill="#51565f" opacity="0.38"/>

  <!-- Atmospheric haze at horizon -->
  <rect x="0" y="276" width="1280" height="140" fill="url(#fog15)"/>

  <!-- Far terrain silhouette (blurred) -->
  <polygon points="0,720 0.0,409.4 58.2,390.1 116.4,381.4 174.5,377.4 232.7,369.8 290.9,362.1 349.1,359.6 407.3,359.1 465.5,355.3 523.6,347.4 581.8,341.8 640.0,344.6 698.2,348.6 756.4,344.3 814.5,336.6 872.7,337.8 930.9,352.2 989.1,372.6 1047.3,388.1 1105.5,394.5 1163.6,396.6 1221.8,400.4 1280.0,406.7 1280,720" fill="#102032" filter="url(#sfar15)" opacity="0.88"/>

  <!-- Near terrain -->
  <polygon points="0,720 0.0,401.6 71.1,397.7 142.2,397.5 213.3,395.7 284.4,392.1 355.6,392.3 426.7,393.5 497.8,394.9 568.9,401.7 640.0,410.0 711.1,412.4 782.2,409.1 853.3,408.3 924.4,412.2 995.6,415.3 1066.7,414.9 1137.8,410.8 1208.9,405.4 1280.0,399.9 1280,720" fill="#080e1a" opacity="0.96"/>

  <!-- Ground base fill -->
  <rect x="0" y="416" width="1280" height="304" fill="url(#ground15)"/>

  <!-- Ground texture patches -->
  <ellipse cx="577.4" cy="639.6" rx="64.6" ry="9.0" fill="#171d28" opacity="0.45"/>
  <ellipse cx="1270.5" cy="419.3" rx="52.3" ry="7.7" fill="#060b14" opacity="0.39"/>
  <ellipse cx="507.6" cy="558.6" rx="20.9" ry="8.6" fill="#060a13" opacity="0.46"/>
  <ellipse cx="502.3" cy="680.2" rx="67.6" ry="9.3" fill="#151a26" opacity="0.43"/>
  <ellipse cx="582.4" cy="613.8" rx="61.6" ry="4.8" fill="#050911" opacity="0.41"/>
  <ellipse cx="504.8" cy="426.0" rx="19.1" ry="11.7" fill="#060b15" opacity="0.49"/>
  <ellipse cx="912.5" cy="560.5" rx="61.7" ry="9.6" fill="#1b212c" opacity="0.34"/>
  <ellipse cx="166.0" cy="484.5" rx="19.7" ry="13.5" fill="#242934" opacity="0.48"/>
  <ellipse cx="724.3" cy="589.9" rx="34.6" ry="4.7" fill="#050912" opacity="0.27"/>
  <ellipse cx="995.2" cy="612.2" rx="36.8" ry="13.3" fill="#050911" opacity="0.55"/>
  <ellipse cx="250.6" cy="512.4" rx="36.5" ry="4.4" fill="#242a34" opacity="0.48"/>
  <ellipse cx="132.0" cy="640.8" rx="23.9" ry="7.2" fill="#1d232e" opacity="0.43"/>
  <ellipse cx="161.0" cy="454.0" rx="18.6" ry="4.3" fill="#222732" opacity="0.43"/>
  <ellipse cx="336.6" cy="470.0" rx="54.2" ry="11.3" fill="#060a12" opacity="0.46"/>
  <ellipse cx="1210.2" cy="637.4" rx="44.5" ry="10.2" fill="#181e29" opacity="0.30"/>
  <ellipse cx="18.4" cy="633.1" rx="53.1" ry="10.1" fill="#252b35" opacity="0.53"/>
  <ellipse cx="137.7" cy="507.1" rx="60.8" ry="9.2" fill="#050911" opacity="0.34"/>
  <ellipse cx="962.9" cy="654.1" rx="61.1" ry="8.8" fill="#242934" opacity="0.30"/>
  <ellipse cx="757.5" cy="526.6" rx="55.7" ry="5.9" fill="#050912" opacity="0.46"/>
  <ellipse cx="593.5" cy="571.3" rx="51.1" ry="13.3" fill="#050911" opacity="0.27"/>
  <ellipse cx="197.3" cy="681.7" rx="45.7" ry="11.5" fill="#050911" opacity="0.44"/>
  <ellipse cx="631.6" cy="614.5" rx="63.7" ry="13.2" fill="#242a34" opacity="0.31"/>
  <ellipse cx="620.9" cy="584.7" rx="28.3" ry="13.2" fill="#252a35" opacity="0.33"/>
  <ellipse cx="1161.4" cy="432.1" rx="20.9" ry="9.8" fill="#050a12" opacity="0.41"/>
  <ellipse cx="848.7" cy="663.6" rx="33.4" ry="6.1" fill="#060a13" opacity="0.50"/>
  <ellipse cx="534.9" cy="560.2" rx="27.9" ry="5.6" fill="#050911" opacity="0.35"/>
  <ellipse cx="94.9" cy="493.2" rx="60.2" ry="8.2" fill="#060b14" opacity="0.32"/>
  <ellipse cx="523.8" cy="533.6" rx="54.9" ry="11.7" fill="#1c222d" opacity="0.43"/>
  <ellipse cx="722.6" cy="454.7" rx="39.9" ry="12.4" fill="#1e232e" opacity="0.37"/>
  <ellipse cx="419.8" cy="691.0" rx="65.5" ry="12.7" fill="#1f242f" opacity="0.55"/>
  <ellipse cx="887.9" cy="422.8" rx="60.1" ry="8.6" fill="#181d28" opacity="0.29"/>
  <ellipse cx="796.4" cy="445.4" rx="19.1" ry="5.0" fill="#272c37" opacity="0.42"/>
  <ellipse cx="425.8" cy="624.5" rx="41.6" ry="12.2" fill="#1a202b" opacity="0.52"/>
  <ellipse cx="741.2" cy="591.7" rx="47.1" ry="12.9" fill="#050a12" opacity="0.39"/>
  <ellipse cx="979.6" cy="620.2" rx="28.0" ry="11.0" fill="#050911" opacity="0.36"/>
  <ellipse cx="21.9" cy="488.3" rx="54.0" ry="7.7" fill="#060a13" opacity="0.27"/>
  <ellipse cx="545.6" cy="515.5" rx="29.0" ry="4.5" fill="#222832" opacity="0.32"/>

  <!-- Ground cracks -->
  <path d="M760.6,427.7 Q792.0,422.3 819.8,430.8" stroke="#050911" stroke-width="1.1" fill="none" opacity="0.53"/>
  <path d="M13.4,591.1 Q-7.9,603.8 0.4,606.4" stroke="#050911" stroke-width="0.5" fill="none" opacity="0.49"/>
  <path d="M62.1,666.7 Q87.9,671.7 92.1,684.5" stroke="#050911" stroke-width="1.1" fill="none" opacity="0.38"/>
  <path d="M1171.2,573.0 Q1191.4,572.4 1195.0,576.5" stroke="#050911" stroke-width="0.7" fill="none" opacity="0.29"/>
  <path d="M694.0,575.2 Q708.6,581.8 742.0,583.0" stroke="#050911" stroke-width="0.8" fill="none" opacity="0.51"/>
  <path d="M445.6,607.0 Q412.3,615.2 397.8,609.1" stroke="#050911" stroke-width="1.0" fill="none" opacity="0.38"/>
  <path d="M1149.8,454.1 Q1179.7,465.5 1217.0,464.0" stroke="#050911" stroke-width="1.2" fill="none" opacity="0.28"/>
  <path d="M303.6,533.0 Q275.0,529.2 272.5,537.5" stroke="#050911" stroke-width="0.8" fill="none" opacity="0.47"/>
  <path d="M185.8,689.0 Q181.8,694.9 199.9,703.8" stroke="#050911" stroke-width="0.6" fill="none" opacity="0.43"/>
  <path d="M115.9,462.2 Q113.6,479.1 115.1,480.7" stroke="#050911" stroke-width="0.7" fill="none" opacity="0.56"/>
  <path d="M218.2,464.1 Q258.0,470.6 288.0,466.1" stroke="#050911" stroke-width="1.1" fill="none" opacity="0.41"/>
  <path d="M584.1,530.2 Q581.8,547.7 604.1,560.0" stroke="#050911" stroke-width="0.7" fill="none" opacity="0.54"/>
  <path d="M788.9,482.6 Q777.7,503.1 769.3,512.9" stroke="#050911" stroke-width="1.0" fill="none" opacity="0.50"/>

  <!-- Flora -->
  <g transform="translate(542.1,406.0)" opacity="0.64"><line x1="0" y1="0" x2="0" y2="-33.2" stroke="#183248" stroke-width="3.8" stroke-linecap="round"/><line x1="0" y1="-6.6" x2="17.4" y2="-15.4" stroke="#465b6d" stroke-width="2.9" stroke-linecap="round" opacity="0.85"/><line x1="0" y1="-13.3" x2="10.2" y2="-18.5" stroke="#465b6d" stroke-width="2.9" stroke-linecap="round" opacity="0.85"/><line x1="0" y1="-19.9" x2="15.4" y2="-29.7" stroke="#465b6d" stroke-width="2.9" stroke-linecap="round" opacity="0.85"/><line x1="0" y1="-26.5" x2="9.6" y2="-39.3" stroke="#465b6d" stroke-width="2.9" stroke-linecap="round" opacity="0.85"/></g>
  <g transform="translate(1103.0,446.1)" opacity="0.93"><polygon points="17.1,-30.9 16.7,0 5.6,0" fill="#224a60" opacity="0.85"/><line x1="17.1" y1="-30.9" x2="12.8" y2="0" stroke="#597788" stroke-width="0.8" opacity="0.5"/><polygon points="-14.1,-31.1 -5.8,0 -17.4,0" fill="#224a60" opacity="0.86"/><line x1="-14.1" y1="-31.1" x2="-9.8" y2="0" stroke="#597788" stroke-width="0.8" opacity="0.5"/><polygon points="8.9,-35.7 17.0,0 5.9,0" fill="#224a60" opacity="0.88"/><line x1="8.9" y1="-35.7" x2="13.1" y2="0" stroke="#597788" stroke-width="0.8" opacity="0.5"/><polygon points="1.4,-26.8 8.7,0 -5.2,0" fill="#224a60" opacity="0.89"/><line x1="1.4" y1="-26.8" x2="3.9" y2="0" stroke="#597788" stroke-width="0.8" opacity="0.5"/><polygon points="3.9,-38.4 12.2,0 1.0,0" fill="#224a60" opacity="0.85"/><line x1="3.9" y1="-38.4" x2="8.3" y2="0" stroke="#597788" stroke-width="0.8" opacity="0.5"/><polygon points="17.4,-39.0 16.7,0 2.3,0" fill="#224a60" opacity="0.82"/><line x1="17.4" y1="-39.0" x2="11.7" y2="0" stroke="#597788" stroke-width="0.8" opacity="0.5"/></g>
  <g transform="translate(855.9,419.8)" opacity="0.58"><ellipse cx="0" cy="-5.4" rx="13.0" ry="7.8" fill="#183248" opacity="0.9"/>
<ellipse cx="2.6" cy="-8.5" rx="4.6" ry="3.1" fill="#13283a" opacity="0.35"/></g>
  <g transform="translate(1232.8,421.9)" opacity="0.85"><line x1="0" y1="0" x2="0" y2="-17.9" stroke="#183248" stroke-width="1.4" stroke-linecap="round"/><path d="M0,-15.6 C2.0,-15.6 6.8,-12.9 6.8,-12.9" stroke="#3b5163" stroke-width="0.7" fill="none" stroke-linecap="round" opacity="0.8"/><path d="M0,-10.1 C3.1,-10.1 10.3,-6.0 10.3,-6.0" stroke="#3b5163" stroke-width="0.7" fill="none" stroke-linecap="round" opacity="0.8"/><path d="M0,-7.0 C4.7,-7.0 15.8,-0.7 15.8,-0.7" stroke="#3b5163" stroke-width="0.7" fill="none" stroke-linecap="round" opacity="0.8"/></g>
  <g transform="translate(134.4,461.5)" opacity="0.53"><ellipse cx="0" cy="-8.9" rx="13.5" ry="12.8" fill="#183248" opacity="0.9"/>
<ellipse cx="2.7" cy="-14.1" rx="4.7" ry="5.1" fill="#13283a" opacity="0.35"/></g>
  <g transform="translate(185.3,416.5)" opacity="0.91"><rect x="-2.8" y="-44.7" width="5.5" height="44.7" fill="#183248"/>
<ellipse cx="0" cy="-44.7" rx="17.5" ry="12.0" fill="#224a60"/>
<circle cx="-5.4" cy="-50.9" r="2.9" fill="#597788" opacity="0.7"/></g>
  <g transform="translate(1053.9,424.3)" opacity="0.94"><ellipse cx="0" cy="-4.6" rx="13.4" ry="6.6" fill="#183248" opacity="0.9"/>
<ellipse cx="2.7" cy="-7.3" rx="4.7" ry="2.6" fill="#13283a" opacity="0.35"/></g>
  <g transform="translate(1167.4,433.4)" opacity="0.76"><ellipse cx="0" cy="-5.0" rx="9.4" ry="7.2" fill="#183248" opacity="0.9"/>
<ellipse cx="1.9" cy="-7.9" rx="3.3" ry="2.9" fill="#13283a" opacity="0.35"/></g>
  <g transform="translate(1054.6,438.9)" opacity="0.78"><rect x="-2.0" y="-40.3" width="3.9" height="40.3" fill="#183248" rx="1.2"/><rect x="2.0" y="-21.8" width="12.8" height="3.9" fill="#183248" rx="1.2"/><circle cx="14.8" cy="-19.9" r="2.4" fill="#3b5163"/><rect x="-13.0" y="-27.8" width="14.9" height="3.9" fill="#183248" rx="1.2"/><circle cx="-13.0" cy="-25.8" r="2.4" fill="#3b5163"/><rect x="2.0" y="-24.9" width="13.8" height="3.9" fill="#183248" rx="1.2"/><circle cx="15.7" cy="-22.9" r="2.4" fill="#3b5163"/></g>
  <g transform="translate(917.8,446.2)" opacity="0.73"><ellipse cx="0" cy="-9.5" rx="24.4" ry="13.5" fill="#183248" opacity="0.9"/>
<ellipse cx="4.9" cy="-14.9" rx="8.6" ry="5.4" fill="#13283a" opacity="0.35"/></g>
  <g transform="translate(484.6,433.8)" opacity="0.73"><ellipse cx="0" cy="-9.5" rx="23.4" ry="13.5" fill="#183248" opacity="0.9"/>
<ellipse cx="4.7" cy="-14.9" rx="8.2" ry="5.4" fill="#13283a" opacity="0.35"/></g>
  <g transform="translate(1022.3,418.5)" opacity="0.87"><ellipse cx="0" cy="-9.3" rx="23.4" ry="13.3" fill="#183248" opacity="0.9"/>
<ellipse cx="4.7" cy="-14.7" rx="8.2" ry="5.3" fill="#13283a" opacity="0.35"/></g>
  <g transform="translate(190.3,434.5)" opacity="0.84"><rect x="-3.1" y="-41.9" width="6.2" height="41.9" fill="#183248"/>
<ellipse cx="0" cy="-41.9" rx="34.1" ry="11.6" fill="#224a60"/>
<circle cx="5.4" cy="-42.6" r="2.7" fill="#597788" opacity="0.7"/></g>

  <!-- Rocks -->
  <g transform="translate(22.6,647.9)"><polygon points="-5.0,-32.0 9.4,0 -9.4,0" fill="#060c16" opacity="0.9"/></g>
  <g transform="translate(678.2,430.2)"><polygon points="-13.5,-50.1 10.7,0 -10.7,0" fill="#060c16" opacity="0.9"/><polygon points="-13.5,-50.1 1.1,0 10.7,0" fill="#04080f" opacity="0.4"/></g>
  <g transform="translate(1192.2,406.0)"><polygon points="22.5,-70.4 15.9,0 -15.9,0" fill="#060c16" opacity="0.9"/></g>
  <g transform="translate(705.8,608.0)"><ellipse cx="0" cy="-7.5" rx="25.0" ry="10.7" fill="#060c16" opacity="0.92"/>
<ellipse cx="6.2" cy="-10.7" rx="8.7" ry="2.1" fill="#050911" opacity="0.3"/>
<ellipse cx="-5.0" cy="-6.4" rx="5.0" ry="1.6" fill="#2b3039" opacity="0.2"/></g>
  <g transform="translate(463.8,440.4)"><polygon points="3.0,-28.6 8.2,0 -8.2,0" fill="#060c16" opacity="0.9"/><polygon points="3.0,-28.6 0.8,0 8.2,0" fill="#04080f" opacity="0.4"/></g>
  <g transform="translate(246.3,473.2)"><rect x="-17.7" y="-10.6" width="31.8" height="10.6" fill="#060c16" opacity="0.92" rx="1"/><rect x="-24.9" y="-19.7" width="46.5" height="9.0" fill="#1f242d" opacity="0.92" rx="1"/></g>
  <g transform="translate(767.8,414.3)"><rect x="-19.9" y="-14.1" width="43.4" height="14.1" fill="#060c16" opacity="0.92" rx="1"/><rect x="-21.5" y="-22.2" width="39.2" height="8.1" fill="#1f242d" opacity="0.92" rx="1"/><rect x="-16.0" y="-30.9" width="26.5" height="8.6" fill="#060c16" opacity="0.92" rx="1"/></g>
  <g transform="translate(1165.0,517.2)"><ellipse cx="0" cy="-7.3" rx="22.6" ry="10.4" fill="#060c16" opacity="0.92"/>
<ellipse cx="5.7" cy="-10.4" rx="7.9" ry="2.1" fill="#050911" opacity="0.3"/>
<ellipse cx="-4.5" cy="-6.2" rx="4.5" ry="1.6" fill="#2b3039" opacity="0.2"/></g>
  <g transform="translate(892.9,589.1)"><rect x="-28.8" y="-8.3" width="58.5" height="8.3" fill="#060c16" opacity="0.92" rx="1"/><rect x="-18.1" y="-18.0" width="23.7" height="9.7" fill="#1f242d" opacity="0.92" rx="1"/></g>
  <g transform="translate(285.0,562.5)"><rect x="-17.6" y="-9.2" width="28.9" height="9.2" fill="#060c16" opacity="0.92" rx="1"/><rect x="-14.7" y="-13.2" width="27.0" height="4.1" fill="#1f242d" opacity="0.92" rx="1"/><rect x="-7.5" y="-18.8" width="10.1" height="5.6" fill="#060c16" opacity="0.92" rx="1"/><rect x="-5.3" y="-25.5" width="13.7" height="6.7" fill="#1f242d" opacity="0.92" rx="1"/></g>
  <g transform="translate(441.5,554.0)"><rect x="-11.1" y="-8.2" width="21.3" height="8.2" fill="#060c16" opacity="0.92" rx="1"/><rect x="-16.9" y="-13.9" width="28.0" height="5.8" fill="#1f242d" opacity="0.92" rx="1"/></g>

  <!-- Foreground elements -->
  <g transform="translate(724.8,664.1)" opacity="0.65"><rect x="-8.4" y="-60.2" width="16.8" height="60.2" fill="#183248" rx="5.0"/><rect x="8.4" y="-44.4" width="32.3" height="16.8" fill="#183248" rx="5.0"/><circle cx="40.7" cy="-36.1" r="10.1" fill="#3b5163"/><rect x="-25.8" y="-43.1" width="34.2" height="16.8" fill="#183248" rx="5.0"/><circle cx="-25.8" cy="-34.8" r="10.1" fill="#3b5163"/><rect x="8.4" y="-30.0" width="23.8" height="16.8" fill="#183248" rx="5.0"/><circle cx="32.1" cy="-21.6" r="10.1" fill="#3b5163"/></g>
  <g transform="translate(428.4,664.3)" opacity="0.56"><ellipse cx="0" cy="-15.8" rx="57.2" ry="22.6" fill="#060c16" opacity="0.92"/>
<ellipse cx="14.3" cy="-22.6" rx="20.0" ry="4.5" fill="#050911" opacity="0.3"/>
<ellipse cx="-11.4" cy="-13.5" rx="11.4" ry="3.4" fill="#2b3039" opacity="0.2"/></g>
  <g transform="translate(106.2,697.7)" opacity="0.74"><ellipse cx="0" cy="-19.0" rx="73.4" ry="27.1" fill="#060c16" opacity="0.92"/>
<ellipse cx="18.4" cy="-27.1" rx="25.7" ry="5.4" fill="#050911" opacity="0.3"/>
<ellipse cx="-14.7" cy="-16.2" rx="14.7" ry="4.1" fill="#2b3039" opacity="0.2"/></g>

  <!-- Atmospheric dust -->
  <circle cx="841.1" cy="414.9" r="2.3" fill="#1e3652" opacity="0.08"/>
  <circle cx="1011.2" cy="385.4" r="2.6" fill="#1e3652" opacity="0.17"/>
  <circle cx="268.3" cy="439.0" r="1.9" fill="#1e3652" opacity="0.13"/>
  <circle cx="943.5" cy="367.5" r="1.4" fill="#1e3652" opacity="0.10"/>
  <circle cx="1244.6" cy="391.8" r="1.9" fill="#1e3652" opacity="0.18"/>
  <circle cx="783.2" cy="420.7" r="1.3" fill="#1e3652" opacity="0.18"/>
  <circle cx="373.4" cy="366.8" r="1.2" fill="#1e3652" opacity="0.08"/>
  <circle cx="676.0" cy="403.8" r="2.3" fill="#1e3652" opacity="0.11"/>
  <circle cx="1248.7" cy="411.1" r="1.3" fill="#1e3652" opacity="0.20"/>
  <circle cx="211.5" cy="394.4" r="1.8" fill="#1e3652" opacity="0.23"/>
  <circle cx="777.6" cy="370.8" r="2.5" fill="#1e3652" opacity="0.25"/>
  <circle cx="373.1" cy="403.0" r="2.3" fill="#1e3652" opacity="0.16"/>
  <circle cx="108.8" cy="387.3" r="1.0" fill="#1e3652" opacity="0.19"/>
  <circle cx="580.4" cy="418.6" r="2.0" fill="#1e3652" opacity="0.20"/>
  <circle cx="672.4" cy="395.1" r="2.3" fill="#1e3652" opacity="0.15"/>
  <circle cx="909.2" cy="406.7" r="2.2" fill="#1e3652" opacity="0.25"/>
  <circle cx="923.4" cy="393.3" r="2.4" fill="#1e3652" opacity="0.08"/>
  <circle cx="959.5" cy="400.4" r="2.3" fill="#1e3652" opacity="0.15"/>
  <circle cx="124.3" cy="351.9" r="2.5" fill="#1e3652" opacity="0.17"/>
  <circle cx="394.9" cy="405.1" r="1.8" fill="#1e3652" opacity="0.18"/>
  <circle cx="1053.5" cy="412.8" r="2.2" fill="#1e3652" opacity="0.23"/>
  <circle cx="1058.1" cy="402.3" r="1.7" fill="#1e3652" opacity="0.09"/>
  <circle cx="962.2" cy="350.0" r="1.0" fill="#1e3652" opacity="0.19"/>
  <circle cx="675.7" cy="386.3" r="0.9" fill="#1e3652" opacity="0.18"/>
  <circle cx="1018.0" cy="406.9" r="2.3" fill="#1e3652" opacity="0.16"/>
  <circle cx="62.2" cy="373.8" r="0.9" fill="#1e3652" opacity="0.23"/>
  <circle cx="129.3" cy="363.8" r="1.4" fill="#1e3652" opacity="0.10"/>
  <circle cx="268.2" cy="423.5" r="2.0" fill="#1e3652" opacity="0.22"/>
  <circle cx="377.7" cy="440.3" r="1.6" fill="#1e3652" opacity="0.21"/>
  <circle cx="1014.3" cy="420.7" r="2.3" fill="#1e3652" opacity="0.22"/>
  <circle cx="827.0" cy="415.1" r="1.3" fill="#1e3652" opacity="0.18"/>
  <circle cx="304.4" cy="357.5" r="1.8" fill="#1e3652" opacity="0.19"/>
  <circle cx="1051.5" cy="410.6" r="2.0" fill="#1e3652" opacity="0.22"/>
</svg>