<svg xmlns="http://www.w3.org/2000/svg" viewBox="0 0 1280 720" width="1280" height="720">
  <defs>
    <linearGradient id="sky16" x1="0" y1="0" x2="0" y2="1">
      <stop offset="0%" stop-color="#1a1208"/>
      <stop offset="85%" stop-color="#4e3418"/>
      <stop offset="100%" stop-color="#583c20"/>
    </linearGradient>
    <linearGradient id="fog16" x1="0" y1="0" x2="0" y2="1">
      <stop offset="0%" stop-color="#624428" stop-opacity="0"/>
      <stop offset="100%" stop-color="#624428" stop-opacity="0.5"/>
    </linearGradient>
    <linearGradient id="ground16" x1="0" y1="0" x2="0" y2="1">
      <stop offset="0%" stop-color="#3c2610"/>
      <stop offset="100%" stop-color="#1d1107"/>
    </linearGradient>
    <filter id="sfar16"><feGaussianBlur stdDeviation="2.5"/></filter>
  </defs>

  <!-- Sky gradient -->
  <rect width="1280" height="720" fill="url(#sky16)"/>

  <!-- Celestial body -->
  <circle cx="111.8" cy="154.2" r="82.7" fill="#e0a050" opacity="0.11"/>
  <circle cx="111.8" cy="154.2" r="47.3" fill="#e0a050" opacity="0.15"/>
  <circle cx="111.8" cy="154.2" r="29.5" fill="#e0a050" opacity="0.61"/>
  

  <!-- Atmospheric haze at horizon -->
  <rect x="0" y="275" width="1280" height="140" fill="url(#fog16)"/>

  <!-- Far terrain silhouette (blurred) -->
  <polygon points="0,720 0.0,398.3 58.2,391.4 116.4,388.9 174.5,386.5 232.7,381.4 290.9,374.9 349.1,368.7 407.3,363.1 465.5,360.4 523.6,362.1 581.8,365.9 640.0,368.3 698.2,367.9 756.4,366.0 814.5,364.6 872.7,364.2 930.9,365.9 989.1,368.2 1047.3,367.8 1105.5,365.1 1163.6,360.4 1221.8,352.5 1280.0,342.3 1280,720" fill="#3c2610" filter="url(#sfar16)" opacity="0.88"/>

  <!-- Near terrain -->
  <polygon points="0,720 0.0,409.6 71.1,395.9 142.2,389.8 213.3,390.7 284.4,397.0 355.6,401.1 426.7,402.2 497.8,399.4 568.9,394.8 640.0,395.7 711.1,398.0 782.2,396.4 853.3,391.0 924.4,389.5 995.6,393.6 1066.7,401.6 1137.8,403.8 1208.9,392.4 1280.0,368.8 1280,720" fill="#221408" opacity="0.96"/>

  <!-- Ground base fill -->
  <rect x="0" y="415" width="1280" height="305" fill="url(#ground16)"/>

  <!-- Ground texture patches -->
  <ellipse cx="918.0" cy="666.2" rx="44.7" ry="4.8" fill="#2f2116" opacity="0.28"/>
  <ellipse cx="219.6" cy="671.0" rx="63.8" ry="12.3" fill="#1b1006" opacity="0.45"/>
  <ellipse cx="483.0" cy="686.9" rx="62.0" ry="7.3" fill="#190e06" opacity="0.25"/>
  <ellipse cx="724.3" cy="617.7" rx="49.7" ry="10.3" fill="#180e06" opacity="0.41"/>
  <ellipse cx="129.2" cy="576.0" rx="44.7" ry="5.5" fill="#150d05" opacity="0.53"/>
  <ellipse cx="502.9" cy="533.8" rx="32.7" ry="9.3" fill="#382c21" opacity="0.53"/>
  <ellipse cx="24.3" cy="563.0" rx="61.5" ry="9.6" fill="#3b2f24" opacity="0.45"/>
  <ellipse cx="1259.3" cy="621.0" rx="66.1" ry="4.1" fill="#190f06" opacity="0.49"/>
  <ellipse cx="1079.3" cy="472.7" rx="47.5" ry="7.1" fill="#34271c" opacity="0.41"/>
  <ellipse cx="1248.2" cy="546.1" rx="73.0" ry="6.0" fill="#3c3026" opacity="0.48"/>
  <ellipse cx="766.4" cy="465.4" rx="22.2" ry="12.5" fill="#35281d" opacity="0.33"/>
  <ellipse cx="524.7" cy="447.4" rx="52.1" ry="8.1" fill="#190f06" opacity="0.39"/>
  <ellipse cx="1229.6" cy="414.4" rx="73.0" ry="12.7" fill="#3c3026" opacity="0.47"/>
  <ellipse cx="1269.2" cy="453.1" rx="31.6" ry="11.5" fill="#170e06" opacity="0.51"/>
  <ellipse cx="646.5" cy="517.6" rx="29.4" ry="6.4" fill="#3e3127" opacity="0.31"/>
  <ellipse cx="1232.6" cy="410.5" rx="46.4" ry="9.8" fill="#160d05" opacity="0.43"/>
  <ellipse cx="201.0" cy="553.6" rx="42.7" ry="8.1" fill="#3e3227" opacity="0.49"/>
  <ellipse cx="517.8" cy="700.0" rx="49.2" ry="9.9" fill="#180e06" opacity="0.49"/>
  <ellipse cx="1225.6" cy="618.1" rx="53.3" ry="13.0" fill="#1b1006" opacity="0.37"/>
  <ellipse cx="953.0" cy="455.3" rx="62.3" ry="10.9" fill="#382b20" opacity="0.40"/>
  <ellipse cx="197.6" cy="453.9" rx="25.1" ry="6.2" fill="#1b1006" opacity="0.41"/>
  <ellipse cx="207.6" cy="537.3" rx="19.2" ry="8.2" fill="#2f2116" opacity="0.52"/>
  <ellipse cx="665.3" cy="430.2" rx="32.8" ry="6.6" fill="#36291e" opacity="0.31"/>
  <ellipse cx="996.6" cy="623.6" rx="51.0" ry="4.2" fill="#190f06" opacity="0.30"/>
  <ellipse cx="649.9" cy="689.4" rx="39.9" ry="7.5" fill="#190e06" opacity="0.33"/>
  <ellipse cx="1039.8" cy="435.1" rx="20.0" ry="14.0" fill="#1b1006" opacity="0.36"/>
  <ellipse cx="811.1" cy="428.1" rx="42.6" ry="9.6" fill="#190f06" opacity="0.47"/>
  <ellipse cx="494.4" cy="553.4" rx="42.1" ry="6.1" fill="#1b1006" opacity="0.46"/>
  <ellipse cx="595.5" cy="622.4" rx="32.0" ry="6.7" fill="#3a2d22" opacity="0.30"/>
  <ellipse cx="1241.9" cy="486.1" rx="40.4" ry="9.8" fill="#35281e" opacity="0.45"/>
  <ellipse cx="419.0" cy="608.3" rx="65.0" ry="9.9" fill="#36291e" opacity="0.29"/>
  <ellipse cx="1225.6" cy="647.2" rx="59.6" ry="5.0" fill="#322519" opacity="0.51"/>
  <ellipse cx="996.6" cy="446.0" rx="25.2" ry="12.5" fill="#190f06" opacity="0.34"/>
  <ellipse cx="132.9" cy="555.9" rx="72.0" ry="12.8" fill="#382c21" opacity="0.34"/>
  <ellipse cx="401.3" cy="613.5" rx="72.8" ry="5.9" fill="#35291e" opacity="0.27"/>

  <!-- Ground cracks -->
  <path d="M1059.3,605.4 Q1091.1,617.3 1116.3,625.2" stroke="#160d05" stroke-width="0.4" fill="none" opacity="0.54"/>
  <path d="M1033.7,558.0 Q1035.4,574.4 1056.1,578.6" stroke="#160d05" stroke-width="0.7" fill="none" opacity="0.29"/>
  <path d="M1250.7,417.7 Q1236.8,430.0 1252.7,434.1" stroke="#160d05" stroke-width="1.0" fill="none" opacity="0.39"/>
  <path d="M92.1,417.0 Q95.3,422.2 79.6,428.1" stroke="#160d05" stroke-width="1.3" fill="none" opacity="0.32"/>
  <path d="M151.1,439.4 Q196.3,452.0 220.7,449.9" stroke="#160d05" stroke-width="1.2" fill="none" opacity="0.45"/>
  <path d="M133.3,588.4 Q171.5,584.2 180.6,588.7" stroke="#160d05" stroke-width="0.6" fill="none" opacity="0.51"/>
  <path d="M624.1,611.2 Q639.4,613.3 636.0,624.3" stroke="#160d05" stroke-width="0.5" fill="none" opacity="0.43"/>
  <path d="M261.2,518.7 Q261.6,520.1 283.3,529.4" stroke="#160d05" stroke-width="0.8" fill="none" opacity="0.46"/>
  <path d="M159.8,594.6 Q198.2,591.9 214.9,600.3" stroke="#160d05" stroke-width="0.5" fill="none" opacity="0.27"/>
  <path d="M1036.1,420.2 Q1031.7,435.8 1030.7,436.8" stroke="#160d05" stroke-width="1.3" fill="none" opacity="0.39"/>

  <!-- Flora -->
  <g transform="translate(767.8,460.3)" opacity="0.80"><line x1="0" y1="0" x2="0" y2="-33.2" stroke="#3c2c12" stroke-width="3.1" stroke-linecap="round"/><line x1="0" y1="-5.5" x2="14.9" y2="-18.4" stroke="#635641" stroke-width="2.3" stroke-linecap="round" opacity="0.85"/><line x1="0" y1="-11.1" x2="8.3" y2="-15.5" stroke="#635641" stroke-width="2.3" stroke-linecap="round" opacity="0.85"/><line x1="0" y1="-16.6" x2="11.9" y2="-26.5" stroke="#635641" stroke-width="2.3" stroke-linecap="round" opacity="0.85"/><line x1="0" y1="-22.1" x2="18.6" y2="-39.5" stroke="#635641" stroke-width="2.3" stroke-linecap="round" opacity="0.85"/><line x1="0" y1="-27.6" x2="8.7" y2="-32.6" stroke="#635641" stroke-width="2.3" stroke-linecap="round" opacity="0.85"/></g>
  <g transform="translate(422.8,412.3)" opacity="0.65"><rect x="-3.3" y="-48.2" width="6.6" height="48.2" fill="#3c2c12" rx="2.0"/><rect x="3.3" y="-32.8" width="23.3" height="6.6" fill="#3c2c12" rx="2.0"/><circle cx="26.6" cy="-29.5" r="3.9" fill="#594c36"/></g>
  <g transform="translate(628.7,458.7)" opacity="0.95"><line x1="0" y1="0" x2="0" y2="-37.8" stroke="#3c2c12" stroke-width="3.4" stroke-linecap="round"/><line x1="0" y1="-6.3" x2="7.2" y2="-14.3" stroke="#635641" stroke-width="2.5" stroke-linecap="round" opacity="0.85"/><line x1="0" y1="-12.6" x2="6.9" y2="-19.0" stroke="#635641" stroke-width="2.5" stroke-linecap="round" opacity="0.85"/><line x1="0" y1="-18.9" x2="14.0" y2="-28.8" stroke="#635641" stroke-width="2.5" stroke-linecap="round" opacity="0.85"/><line x1="0" y1="-25.2" x2="16.0" y2="-41.2" stroke="#635641" stroke-width="2.5" stroke-linecap="round" opacity="0.85"/><line x1="0" y1="-31.5" x2="11.6" y2="-40.2" stroke="#635641" stroke-width="2.5" stroke-linecap="round" opacity="0.85"/></g>
  <g transform="translate(1147.2,404.1)" opacity="0.64"><rect x="-3.0" y="-36.9" width="6.1" height="36.9" fill="#3c2c12" rx="1.8"/><rect x="3.0" y="-20.0" width="16.1" height="6.1" fill="#3c2c12" rx="1.8"/><circle cx="19.2" cy="-16.9" r="3.6" fill="#594c36"/></g>
  <g transform="translate(224.0,422.4)" opacity="0.64"><line x1="0" y1="0" x2="0" y2="-30.1" stroke="#3c2c12" stroke-width="2.2" stroke-linecap="round"/><path d="M0,-17.6 C-4.3,-17.6 -14.2,-11.9 -14.2,-11.9" stroke="#594c36" stroke-width="1.1" fill="none" stroke-linecap="round" opacity="0.8"/><path d="M0,-9.3 C-4.4,-9.3 -14.5,-3.5 -14.5,-3.5" stroke="#594c36" stroke-width="1.1" fill="none" stroke-linecap="round" opacity="0.8"/><path d="M0,-25.8 C-3.6,-25.8 -12.0,-21.0 -12.0,-21.0" stroke="#594c36" stroke-width="1.1" fill="none" stroke-linecap="round" opacity="0.8"/><path d="M0,-11.9 C-4.5,-11.9 -15.0,-5.9 -15.0,-5.9" stroke="#594c36" stroke-width="1.1" fill="none" stroke-linecap="round" opacity="0.8"/><path d="M0,-10.3 C4.1,-10.3 13.7,-4.8 13.7,-4.8" stroke="#594c36" stroke-width="1.1" fill="none" stroke-linecap="round" opacity="0.8"/></g>
  <g transform="translate(926.3,440.8)" opacity="0.63"><line x1="0" y1="0" x2="0" y2="-32.7" stroke="#3c2c12" stroke-width="2.5" stroke-linecap="round"/><path d="M0,-17.1 C-6.9,-17.1 -23.1,-7.9 -23.1,-7.9" stroke="#594c36" stroke-width="1.2" fill="none" stroke-linecap="round" opacity="0.8"/><path d="M0,-11.0 C-7.9,-11.0 -26.3,-0.5 -26.3,-0.5" stroke="#594c36" stroke-width="1.2" fill="none" stroke-linecap="round" opacity="0.8"/><path d="M0,-17.0 C5.6,-17.0 18.7,-9.5 18.7,-9.5" stroke="#594c36" stroke-width="1.2" fill="none" stroke-linecap="round" opacity="0.8"/></g>
  <g transform="translate(1098.8,410.8)" opacity="0.57"><polygon points="-6.3,-23.9 1.9,0 -10.9,0" fill="#52401e" opacity="0.79"/><line x1="-6.3" y1="-23.9" x2="-2.6" y2="0" stroke="#7d7056" stroke-width="0.8" opacity="0.5"/><polygon points="-4.3,-14.8 3.0,0 -8.7,0" fill="#52401e" opacity="0.76"/><line x1="-4.3" y1="-14.8" x2="-1.1" y2="0" stroke="#7d7056" stroke-width="0.8" opacity="0.5"/><polygon points="-4.4,-33.8 5.8,0 -9.0,0" fill="#52401e" opacity="0.92"/><line x1="-4.4" y1="-33.8" x2="0.6" y2="0" stroke="#7d7056" stroke-width="0.8" opacity="0.5"/><polygon points="3.2,-31.9 7.7,0 -4.4,0" fill="#52401e" opacity="0.75"/><line x1="3.2" y1="-31.9" x2="3.5" y2="0" stroke="#7d7056" stroke-width="0.8" opacity="0.5"/><polygon points="-4.7,-40.5 -2.1,0 -13.0,0" fill="#52401e" opacity="0.82"/><line x1="-4.7" y1="-40.5" x2="-5.9" y2="0" stroke="#7d7056" stroke-width="0.8" opacity="0.5"/><polygon points="1.9,-32.1 2.3,0 -6.4,0" fill="#52401e" opacity="0.93"/><line x1="1.9" y1="-32.1" x2="-0.7" y2="0" stroke="#7d7056" stroke-width="0.8" opacity="0.5"/></g>
  <g transform="translate(347.5,443.2)" opacity="0.94"><ellipse cx="0" cy="-12.6" rx="27.2" ry="18.0" fill="#3c2c12" opacity="0.9"/>
<ellipse cx="5.4" cy="-19.8" rx="9.5" ry="7.2" fill="#30230e" opacity="0.35"/></g>
  <g transform="translate(382.3,436.0)" opacity="0.52"><polygon points="7.3,-20.9 7.4,0 1.5,0" fill="#52401e" opacity="0.76"/><line x1="7.3" y1="-20.9" x2="5.3" y2="0" stroke="#7d7056" stroke-width="0.8" opacity="0.5"/><polygon points="8.0,-22.2 8.5,0 0.5,0" fill="#52401e" opacity="0.78"/><line x1="8.0" y1="-22.2" x2="5.7" y2="0" stroke="#7d7056" stroke-width="0.8" opacity="0.5"/><polygon points="-0.5,-21.4 7.4,0 1.7,0" fill="#52401e" opacity="0.78"/><line x1="-0.5" y1="-21.4" x2="5.4" y2="0" stroke="#7d7056" stroke-width="0.8" opacity="0.5"/></g>
  <g transform="translate(1133.1,433.8)" opacity="0.95"><rect x="-1.2" y="-18.6" width="2.4" height="18.6" fill="#3c2c12"/>
<ellipse cx="0" cy="-18.6" rx="14.9" ry="6.7" fill="#52401e"/>
<circle cx="8.5" cy="-21.0" r="2.2" fill="#7d7056" opacity="0.7"/></g>
  <g transform="translate(909.1,401.4)" opacity="0.86"><rect x="-1.2" y="-14.4" width="2.5" height="14.4" fill="#3c2c12"/>
<ellipse cx="0" cy="-14.4" rx="15.0" ry="7.9" fill="#52401e"/>
<circle cx="-7.2" cy="-16.4" r="1.3" fill="#7d7056" opacity="0.7"/><circle cx="-1.4" cy="-18.7" r="1.3" fill="#7d7056" opacity="0.7"/><circle cx="2.7" cy="-17.2" r="1.3" fill="#7d7056" opacity="0.7"/></g>
  <g transform="translate(156.8,423.5)" opacity="0.59"><line x1="0" y1="0" x2="0" y2="-23.8" stroke="#3c2c12" stroke-width="2.9" stroke-linecap="round"/><line x1="0" y1="-3.4" x2="11.8" y2="-15.4" stroke="#635641" stroke-width="2.2" stroke-linecap="round" opacity="0.85"/><line x1="0" y1="-6.8" x2="5.7" y2="-11.4" stroke="#635641" stroke-width="2.2" stroke-linecap="round" opacity="0.85"/><line x1="0" y1="-10.2" x2="10.4" y2="-17.4" stroke="#635641" stroke-width="2.2" stroke-linecap="round" opacity="0.85"/><line x1="0" y1="-13.6" x2="7.3" y2="-23.7" stroke="#635641" stroke-width="2.2" stroke-linecap="round" opacity="0.85"/><line x1="0" y1="-17.0" x2="5.5" y2="-22.9" stroke="#635641" stroke-width="2.2" stroke-linecap="round" opacity="0.85"/><line x1="0" y1="-20.4" x2="12.2" y2="-26.4" stroke="#635641" stroke-width="2.2" stroke-linecap="round" opacity="0.85"/></g>
  <g transform="translate(90.5,460.9)" opacity="0.55"><rect x="-3.1" y="-37.0" width="6.3" height="37.0" fill="#3c2c12" rx="1.9"/><rect x="3.1" y="-18.4" width="11.2" height="6.3" fill="#3c2c12" rx="1.9"/><circle cx="14.3" cy="-15.2" r="3.8" fill="#594c36"/><rect x="-10.6" y="-26.3" width="13.8" height="6.3" fill="#3c2c12" rx="1.9"/><circle cx="-10.6" cy="-23.2" r="3.8" fill="#594c36"/></g>
  <g transform="translate(659.9,434.8)" opacity="0.61"><line x1="0" y1="0" x2="0" y2="-53.8" stroke="#3c2c12" stroke-width="3.0" stroke-linecap="round"/><path d="M0,-33.5 C7.2,-33.5 23.8,-24.0 23.8,-24.0" stroke="#594c36" stroke-width="1.4" fill="none" stroke-linecap="round" opacity="0.8"/><path d="M0,-45.3 C9.9,-45.3 32.9,-32.2 32.9,-32.2" stroke="#594c36" stroke-width="1.4" fill="none" stroke-linecap="round" opacity="0.8"/><path d="M0,-16.3 C6.0,-16.3 20.1,-8.2 20.1,-8.2" stroke="#594c36" stroke-width="1.4" fill="none" stroke-linecap="round" opacity="0.8"/><path d="M0,-42.0 C-9.5,-42.0 -31.7,-29.4 -31.7,-29.4" stroke="#594c36" stroke-width="1.4" fill="none" stroke-linecap="round" opacity="0.8"/></g>
  <g transform="translate(874.1,412.1)" opacity="0.74"><polygon points="-4.2,-12.7 2.3,0 -7.7,0" fill="#52401e" opacity="0.83"/><line x1="-4.2" y1="-12.7" x2="-1.2" y2="0" stroke="#7d7056" stroke-width="0.8" opacity="0.5"/><polygon points="-2.2,-19.1 0.1,0 -6.5,0" fill="#52401e" opacity="0.83"/><line x1="-2.2" y1="-19.1" x2="-2.2" y2="0" stroke="#7d7056" stroke-width="0.8" opacity="0.5"/><polygon points="-13.9,-26.7 -4.4,0 -10.9,0" fill="#52401e" opacity="0.79"/><line x1="-13.9" y1="-26.7" x2="-6.6" y2="0" stroke="#7d7056" stroke-width="0.8" opacity="0.5"/><polygon points="4.9,-12.1 10.6,0 -1.0,0" fill="#52401e" opacity="0.79"/><line x1="4.9" y1="-12.1" x2="6.5" y2="0" stroke="#7d7056" stroke-width="0.8" opacity="0.5"/><polygon points="3.2,-16.8 12.9,0 1.8,0" fill="#52401e" opacity="0.79"/><line x1="3.2" y1="-16.8" x2="9.0" y2="0" stroke="#7d7056" stroke-width="0.8" opacity="0.5"/></g>
  <g transform="translate(1109.4,448.7)" opacity="0.76"><polygon points="0.3,-22.5 8.0,0 -1.8,0" fill="#52401e" opacity="0.93"/><line x1="0.3" y1="-22.5" x2="4.6" y2="0" stroke="#7d7056" stroke-width="0.8" opacity="0.5"/><polygon points="-19.5,-37.3 -6.0,0 -17.8,0" fill="#52401e" opacity="0.93"/><line x1="-19.5" y1="-37.3" x2="-10.1" y2="0" stroke="#7d7056" stroke-width="0.8" opacity="0.5"/><polygon points="9.9,-21.5 14.1,0 6.5,0" fill="#52401e" opacity="0.83"/><line x1="9.9" y1="-21.5" x2="11.4" y2="0" stroke="#7d7056" stroke-width="0.8" opacity="0.5"/><polygon points="-7.6,-34.0 3.8,0 -6.8,0" fill="#52401e" opacity="0.86"/><line x1="-7.6" y1="-34.0" x2="0.1" y2="0" stroke="#7d7056" stroke-width="0.8" opacity="0.5"/><polygon points="-11.0,-23.2 -1.9,0 -9.3,0" fill="#52401e" opacity="0.86"/><line x1="-11.0" y1="-23.2" x2="-4.5" y2="0" stroke="#7d7056" stroke-width="0.8" opacity="0.5"/><polygon points="-19.3,-38.5 -2.2,0 -17.9,0" fill="#52401e" opacity="0.92"/><line x1="-19.3" y1="-38.5" x2="-7.7" y2="0" stroke="#7d7056" stroke-width="0.8" opacity="0.5"/></g>

  <!-- Rocks -->
  <g transform="translate(93.1,464.7)"><polygon points="-3.0,-18.5 7.3,0 -7.3,0" fill="#160e06" opacity="0.9"/></g>
  <g transform="translate(1257.7,649.2)"><rect x="-15.0" y="-10.6" width="27.8" height="10.6" fill="#160e06" opacity="0.92" rx="1"/><rect x="-21.7" y="-21.4" width="35.2" height="10.7" fill="#2d261f" opacity="0.92" rx="1"/><rect x="-2.8" y="-26.8" width="9.5" height="5.5" fill="#160e06" opacity="0.92" rx="1"/></g>
  <g transform="translate(1217.2,619.0)"><ellipse cx="0" cy="-9.9" rx="22.2" ry="14.2" fill="#160e06" opacity="0.92"/>
<ellipse cx="5.6" cy="-14.2" rx="7.8" ry="2.8" fill="#110b05" opacity="0.3"/>
<ellipse cx="-4.4" cy="-8.5" rx="4.4" ry="2.1" fill="#39322b" opacity="0.2"/></g>
  <g transform="translate(987.7,522.5)"><rect x="-26.0" y="-5.8" width="46.0" height="5.8" fill="#160e06" opacity="0.92" rx="1"/><rect x="-10.2" y="-15.3" width="18.0" height="9.5" fill="#2d261f" opacity="0.92" rx="1"/><rect x="-16.1" y="-24.9" width="36.5" height="9.6" fill="#160e06" opacity="0.92" rx="1"/></g>
  <g transform="translate(523.8,478.9)"><ellipse cx="0" cy="-14.6" rx="39.1" ry="20.8" fill="#160e06" opacity="0.92"/>
<ellipse cx="9.8" cy="-20.8" rx="13.7" ry="4.2" fill="#110b05" opacity="0.3"/>
<ellipse cx="-7.8" cy="-12.5" rx="7.8" ry="3.1" fill="#39322b" opacity="0.2"/></g>
  <g transform="translate(180.3,668.4)"><ellipse cx="0" cy="-7.0" rx="23.1" ry="10.1" fill="#160e06" opacity="0.92"/>
<ellipse cx="5.8" cy="-10.1" rx="8.1" ry="2.0" fill="#110b05" opacity="0.3"/>
<ellipse cx="-4.6" cy="-6.0" rx="4.6" ry="1.5" fill="#39322b" opacity="0.2"/></g>
  <g transform="translate(519.6,651.2)"><ellipse cx="0" cy="-8.2" rx="24.5" ry="11.7" fill="#160e06" opacity="0.92"/>
<ellipse cx="6.1" cy="-11.7" rx="8.6" ry="2.3" fill="#110b05" opacity="0.3"/>
<ellipse cx="-4.9" cy="-7.0" rx="4.9" ry="1.8" fill="#39322b" opacity="0.2"/></g>
  <g transform="translate(989.4,509.0)"><ellipse cx="0" cy="-13.9" rx="24.9" ry="19.9" fill="#160e06" opacity="0.92"/>
<ellipse cx="6.2" cy="-19.9" rx="8.7" ry="4.0" fill="#110b05" opacity="0.3"/>
<ellipse cx="-5.0" cy="-11.9" rx="5.0" ry="3.0" fill="#39322b" opacity="0.2"/></g>
  <g transform="translate(575.7,566.5)"><ellipse cx="0" cy="-15.5" rx="33.7" ry="22.1" fill="#160e06" opacity="0.92"/>
<ellipse cx="8.4" cy="-22.1" rx="11.8" ry="4.4" fill="#110b05" opacity="0.3"/>
<ellipse cx="-6.7" cy="-13.3" rx="6.7" ry="3.3" fill="#39322b" opacity="0.2"/></g>
  <g transform="translate(313.2,620.7)"><polygon points="10.3,-72.0 13.9,0 -13.9,0" fill="#160e06" opacity="0.9"/><polygon points="10.3,-72.0 1.4,0 13.9,0" fill="#0f0a04" opacity="0.4"/></g>
  <g transform="translate(255.7,630.5)"><ellipse cx="0" cy="-13.0" rx="34.5" ry="18.5" fill="#160e06" opacity="0.92"/>
<ellipse cx="8.6" cy="-18.5" rx="12.1" ry="3.7" fill="#110b05" opacity="0.3"/>
<ellipse cx="-6.9" cy="-11.1" rx="6.9" ry="2.8" fill="#39322b" opacity="0.2"/></g>
  <g transform="translate(1118.5,590.8)"><rect x="-30.6" y="-18.4" width="57.1" height="18.4" fill="#160e06" opacity="0.92" rx="1"/><rect x="-28.6" y="-27.3" width="52.8" height="9.0" fill="#2d261f" opacity="0.92" rx="1"/></g>
  <g transform="translate(22.4,481.3)"><polygon points="12.9,-45.2 9.6,0 -9.6,0" fill="#160e06" opacity="0.9"/></g>

  <!-- Foreground elements -->
  <g transform="translate(251.4,674.3)" opacity="0.82"><line x1="0" y1="0" x2="0" y2="-41.8" stroke="#3c2c12" stroke-width="3.2" stroke-linecap="round"/><line x1="0" y1="-5.2" x2="11.6" y2="-14.1" stroke="#635641" stroke-width="2.4" stroke-linecap="round" opacity="0.85"/><line x1="0" y1="-10.5" x2="17.0" y2="-25.3" stroke="#635641" stroke-width="2.4" stroke-linecap="round" opacity="0.85"/><line x1="0" y1="-15.7" x2="23.0" y2="-36.1" stroke="#635641" stroke-width="2.4" stroke-linecap="round" opacity="0.85"/><line x1="0" y1="-20.9" x2="14.2" y2="-32.9" stroke="#635641" stroke-width="2.4" stroke-linecap="round" opacity="0.85"/><line x1="0" y1="-26.1" x2="18.8" y2="-45.6" stroke="#635641" stroke-width="2.4" stroke-linecap="round" opacity="0.85"/><line x1="0" y1="-31.4" x2="18.7" y2="-56.9" stroke="#635641" stroke-width="2.4" stroke-linecap="round" opacity="0.85"/><line x1="0" y1="-36.6" x2="23.8" y2="-56.6" stroke="#635641" stroke-width="2.4" stroke-linecap="round" opacity="0.85"/></g>
  <g transform="translate(318.9,706.1)" opacity="0.82"><ellipse cx="0" cy="-27.5" rx="76.9" ry="39.3" fill="#160e06" opacity="0.92"/>
<ellipse cx="19.2" cy="-39.3" rx="26.9" ry="7.9" fill="#110b05" opacity="0.3"/>
<ellipse cx="-15.4" cy="-23.6" rx="15.4" ry="5.9" fill="#39322b" opacity="0.2"/></g>

  <!-- Atmospheric dust -->
  <circle cx="644.3" cy="400.7" r="2.2" fill="#624428" opacity="0.09"/>
  <circle cx="363.5" cy="375.9" r="2.5" fill="#624428" opacity="0.24"/>
  <circle cx="503.2" cy="356.2" r="1.1" fill="#624428" opacity="0.22"/>
  <circle cx="803.5" cy="410.2" r="1.2" fill="#624428" opacity="0.23"/>
  <circle cx="437.2" cy="388.2" r="1.4" fill="#624428" opacity="0.11"/>
  <circle cx="728.0" cy="357.9" r="1.2" fill="#624428" opacity="0.19"/>
  <circle cx="289.7" cy="421.9" r="1.7" fill="#624428" opacity="0.21"/>
  <circle cx="640.2" cy="362.5" r="1.8" fill="#624428" opacity="0.18"/>
  <circle cx="348.4" cy="362.9" r="2.0" fill="#624428" opacity="0.20"/>
  <circle cx="144.0" cy="405.9" r="1.4" fill="#624428" opacity="0.20"/>
  <circle cx="1222.8" cy="388.0" r="2.6" fill="#624428" opacity="0.17"/>
  <circle cx="1240.7" cy="417.6" r="1.2" fill="#624428" opacity="0.26"/>
  <circle cx="251.4" cy="346.2" r="1.1" fill="#624428" opacity="0.10"/>
  <circle cx="691.1" cy="416.7" r="2.0" fill="#624428" opacity="0.14"/>
  <circle cx="1092.6" cy="441.9" r="1.3" fill="#624428" opacity="0.22"/>
  <circle cx="1200.7" cy="358.9" r="0.8" fill="#624428" opacity="0.09"/>
  <circle cx="521.5" cy="389.8" r="2.2" fill="#624428" opacity="0.14"/>
  <circle cx="1213.2" cy="380.2" r="1.8" fill="#624428" opacity="0.15"/>
  <circle cx="337.4" cy="395.5" r="2.6" fill="#624428" opacity="0.20"/>
  <circle cx="379.8" cy="370.6" r="2.3" fill="#624428" opacity="0.21"/>
  <circle cx="628.3" cy="355.6" r="2.0" fill="#624428" opacity="0.24"/>
  <circle cx="574.3" cy="402.1" r="1.8" fill="#624428" opacity="0.09"/>
  <circle cx="987.3" cy="363.4" r="1.2" fill="#624428" opacity="0.09"/>
  <circle cx="802.3" cy="437.2" r="1.7" fill="#624428" opacity="0.19"/>
  <circle cx="1073.1" cy="346.7" r="2.5" fill="#624428" opacity="0.12"/>
  <circle cx="134.4" cy="384.8" r="1.4" fill="#624428" opacity="0.18"/>
</svg>