<svg xmlns="http://www.w3.org/2000/svg" viewBox="0 0 1280 720" width="1280" height="720">
  <defs>
    <linearGradient id="sky18" x1="0" y1="0" x2="0" y2="1">
      <stop offset="0%" stop-color="#060c18"/>
      <stop offset="85%" stop-color="#141e32"/>
      <stop offset="100%" stop-color="#1a253a"/>
    </linearGradient>
    <linearGradient id="fog18" x1="0" y1="0" x2="0" y2="1">
      <stop offset="0%" stop-color="#202c42" stop-opacity="0"/>
      <stop offset="100%" stop-color="#202c42" stop-opacity="0.5"/>
    </linearGradient>
    <linearGradient id="ground18" x1="0" y1="0" x2="0" y2="1">
      <stop offset="0%" stop-color="#101824"/>
      <stop offset="100%" stop-color="#070a13"/>
    </linearGradient>
    <filter id="sfar18"><feGaussianBlur stdDeviation="2.5"/></filter>
  </defs>

  <!-- Sky gradient -->
  <rect width="1280" height="720" fill="url(#sky18)"/>

  <!-- Celestial body -->
  <circle cx="1131.4" cy="51.7" r="53.6" fill="#4060a0" opacity="0.11"/>
  <circle cx="1131.4" cy="51.7" r="30.7" fill="#4060a0" opacity="0.15"/>
  <circle cx="1131.4" cy="51.7" r="19.2" fill="#4060a0" opacity="0.59"/>
  

  <!-- Atmospheric haze at horizon -->
  <rect x="0" y="287" width="1280" height="140" fill="url(#fog18)"/>

  <!-- Far terrain silhouette (blurred) -->
  <polygon points="0,720 0.0,414.2 58.2,397.0 116.4,382.2 174.5,370.2 232.7,364.8 290.9,366.8 349.1,371.7 407.3,374.4 465.5,374.3 523.6,373.1 581.8,369.2 640.0,361.5 698.2,353.3 756.4,349.4 814.5,350.5 872.7,354.8 930.9,362.1 989.1,370.9 1047.3,378.6 1105.5,383.7 1163.6,383.6 1221.8,376.7 1280.0,366.2 1280,720" fill="#101824" filter="url(#sfar18)" opacity="0.88"/>

  <!-- Near terrain -->
  <polygon points="0,720 0.0,423.9 71.1,413.8 142.2,413.9 213.3,420.0 284.4,423.5 355.6,422.4 426.7,418.8 497.8,414.1 568.9,411.8 640.0,414.3 711.1,418.1 782.2,417.6 853.3,413.1 924.4,412.7 995.6,414.6 1066.7,409.9 1137.8,404.0 1208.9,405.9 1280.0,413.5 1280,720" fill="#080c16" opacity="0.96"/>

  <!-- Ground base fill -->
  <rect x="0" y="427" width="1280" height="293" fill="url(#ground18)"/>

  <!-- Ground texture patches -->
  <ellipse cx="915.3" cy="528.4" rx="62.1" ry="7.5" fill="#22252e" opacity="0.50"/>
  <ellipse cx="796.3" cy="687.2" rx="50.8" ry="4.4" fill="#06080f" opacity="0.52"/>
  <ellipse cx="61.3" cy="560.9" rx="35.0" ry="5.0" fill="#060911" opacity="0.47"/>
  <ellipse cx="1103.1" cy="495.6" rx="49.6" ry="5.1" fill="#1b1f28" opacity="0.47"/>
  <ellipse cx="596.3" cy="570.6" rx="51.1" ry="13.9" fill="#1f232c" opacity="0.54"/>
  <ellipse cx="1175.8" cy="535.6" rx="55.5" ry="4.2" fill="#060910" opacity="0.45"/>
  <ellipse cx="160.2" cy="493.7" rx="52.5" ry="11.0" fill="#23262f" opacity="0.49"/>
  <ellipse cx="883.8" cy="695.5" rx="30.0" ry="11.5" fill="#1c1f28" opacity="0.39"/>
  <ellipse cx="979.5" cy="578.7" rx="36.0" ry="5.8" fill="#05080f" opacity="0.51"/>
  <ellipse cx="357.0" cy="577.6" rx="29.9" ry="4.5" fill="#1c2029" opacity="0.25"/>
  <ellipse cx="461.4" cy="585.9" rx="34.4" ry="13.7" fill="#05080f" opacity="0.45"/>
  <ellipse cx="295.7" cy="674.2" rx="26.0" ry="6.9" fill="#060a12" opacity="0.31"/>
  <ellipse cx="1271.5" cy="593.5" rx="46.2" ry="13.0" fill="#262932" opacity="0.45"/>
  <ellipse cx="648.7" cy="651.2" rx="34.1" ry="8.1" fill="#151822" opacity="0.47"/>
  <ellipse cx="298.7" cy="688.4" rx="28.8" ry="5.3" fill="#22262f" opacity="0.33"/>
  <ellipse cx="448.4" cy="547.9" rx="33.2" ry="8.2" fill="#232730" opacity="0.42"/>
  <ellipse cx="961.9" cy="621.5" rx="69.5" ry="8.6" fill="#060910" opacity="0.46"/>
  <ellipse cx="5.0" cy="627.9" rx="66.5" ry="4.3" fill="#262932" opacity="0.37"/>
  <ellipse cx="1073.0" cy="576.8" rx="63.9" ry="8.5" fill="#1a1e27" opacity="0.40"/>
  <ellipse cx="460.6" cy="462.9" rx="62.7" ry="13.6" fill="#060911" opacity="0.45"/>
  <ellipse cx="624.5" cy="480.1" rx="39.5" ry="5.5" fill="#181c25" opacity="0.51"/>
  <ellipse cx="335.4" cy="568.0" rx="20.1" ry="4.6" fill="#060911" opacity="0.43"/>
  <ellipse cx="856.3" cy="468.9" rx="33.5" ry="9.7" fill="#060910" opacity="0.33"/>
  <ellipse cx="690.3" cy="510.9" rx="46.9" ry="9.9" fill="#191d26" opacity="0.43"/>
  <ellipse cx="682.1" cy="608.0" rx="42.8" ry="4.8" fill="#05080e" opacity="0.26"/>
  <ellipse cx="829.4" cy="453.0" rx="37.3" ry="5.4" fill="#06080f" opacity="0.46"/>
  <ellipse cx="1092.8" cy="643.0" rx="53.5" ry="11.3" fill="#060a12" opacity="0.54"/>
  <ellipse cx="453.0" cy="682.0" rx="36.7" ry="5.7" fill="#06080f" opacity="0.52"/>

  <!-- Ground cracks -->
  <path d="M243.7,444.6 Q218.1,458.8 222.4,474.4" stroke="#05080e" stroke-width="0.5" fill="none" opacity="0.54"/>
  <path d="M1258.1,537.6 Q1251.6,545.0 1217.3,560.2" stroke="#05080e" stroke-width="0.6" fill="none" opacity="0.29"/>
  <path d="M1027.5,482.0 Q1018.1,488.0 1017.5,493.4" stroke="#05080e" stroke-width="0.6" fill="none" opacity="0.38"/>
  <path d="M1181.2,510.1 Q1154.9,520.1 1114.1,527.2" stroke="#05080e" stroke-width="0.4" fill="none" opacity="0.58"/>
  <path d="M146.4,459.1 Q158.2,470.5 189.7,480.6" stroke="#05080e" stroke-width="0.5" fill="none" opacity="0.38"/>
  <path d="M397.9,509.2 Q404.0,506.7 419.3,517.9" stroke="#05080e" stroke-width="1.1" fill="none" opacity="0.47"/>
  <path d="M1079.5,676.4 Q1083.9,678.0 1108.2,687.8" stroke="#05080e" stroke-width="1.1" fill="none" opacity="0.55"/>
  <path d="M1005.8,638.1 Q978.5,654.9 980.9,656.3" stroke="#05080e" stroke-width="1.2" fill="none" opacity="0.33"/>
  <path d="M976.5,525.8 Q950.1,527.2 904.6,538.7" stroke="#05080e" stroke-width="1.2" fill="none" opacity="0.54"/>

  <!-- Flora -->
  <g transform="translate(34.7,466.5)" opacity="0.72"><line x1="0" y1="0" x2="0" y2="-29.5" stroke="#141e2c" stroke-width="2.9" stroke-linecap="round"/><line x1="0" y1="-3.7" x2="8.9" y2="-13.9" stroke="#434b56" stroke-width="2.2" stroke-linecap="round" opacity="0.85"/><line x1="0" y1="-7.4" x2="11.4" y2="-16.4" stroke="#434b56" stroke-width="2.2" stroke-linecap="round" opacity="0.85"/><line x1="0" y1="-11.1" x2="7.4" y2="-17.8" stroke="#434b56" stroke-width="2.2" stroke-linecap="round" opacity="0.85"/><line x1="0" y1="-14.7" x2="11.4" y2="-22.5" stroke="#434b56" stroke-width="2.2" stroke-linecap="round" opacity="0.85"/><line x1="0" y1="-18.4" x2="12.4" y2="-33.6" stroke="#434b56" stroke-width="2.2" stroke-linecap="round" opacity="0.85"/><line x1="0" y1="-22.1" x2="12.2" y2="-31.7" stroke="#434b56" stroke-width="2.2" stroke-linecap="round" opacity="0.85"/><line x1="0" y1="-25.8" x2="8.0" y2="-32.8" stroke="#434b56" stroke-width="2.2" stroke-linecap="round" opacity="0.85"/></g>
  <g transform="translate(1145.5,439.3)" opacity="0.71"><ellipse cx="0" cy="-10.3" rx="21.2" ry="14.7" fill="#141e2c" opacity="0.9"/>
<ellipse cx="4.2" cy="-16.1" rx="7.4" ry="5.9" fill="#101823" opacity="0.35"/></g>
  <g transform="translate(801.9,458.1)" opacity="0.62"><line x1="0" y1="0" x2="0" y2="-48.9" stroke="#141e2c" stroke-width="2.9" stroke-linecap="round"/><path d="M0,-38.8 C6.2,-38.8 20.6,-30.6 20.6,-30.6" stroke="#37404c" stroke-width="1.4" fill="none" stroke-linecap="round" opacity="0.8"/><path d="M0,-18.9 C-7.0,-18.9 -23.3,-9.6 -23.3,-9.6" stroke="#37404c" stroke-width="1.4" fill="none" stroke-linecap="round" opacity="0.8"/><path d="M0,-36.1 C10.5,-36.1 35.1,-22.0 35.1,-22.0" stroke="#37404c" stroke-width="1.4" fill="none" stroke-linecap="round" opacity="0.8"/></g>
  <g transform="translate(483.9,459.9)" opacity="0.70"><ellipse cx="0" cy="-7.2" rx="27.2" ry="10.3" fill="#141e2c" opacity="0.9"/>
<ellipse cx="5.4" cy="-11.3" rx="9.5" ry="4.1" fill="#101823" opacity="0.35"/></g>
  <g transform="translate(999.7,423.8)" opacity="0.82"><rect x="-2.2" y="-44.9" width="4.4" height="44.9" fill="#141e2c" rx="1.3"/><rect x="2.2" y="-31.4" width="20.3" height="4.4" fill="#141e2c" rx="1.3"/><circle cx="22.6" cy="-29.2" r="2.7" fill="#37404c"/><rect x="-19.1" y="-22.8" width="21.3" height="4.4" fill="#141e2c" rx="1.3"/><circle cx="-19.1" cy="-20.5" r="2.7" fill="#37404c"/></g>
  <g transform="translate(1234.1,409.6)" opacity="0.55"><rect x="-2.2" y="-42.9" width="4.5" height="42.9" fill="#141e2c"/>
<ellipse cx="0" cy="-42.9" rx="21.1" ry="16.2" fill="#1e2c3e"/>
<circle cx="6.1" cy="-51.8" r="3.0" fill="#56616e" opacity="0.7"/><circle cx="6.8" cy="-43.2" r="3.0" fill="#56616e" opacity="0.7"/></g>
  <g transform="translate(1111.4,452.5)" opacity="0.85"><polygon points="-4.6,-18.9 -0.0,0 -6.1,0" fill="#1e2c3e" opacity="0.93"/><line x1="-4.6" y1="-18.9" x2="-2.1" y2="0" stroke="#56616e" stroke-width="0.8" opacity="0.5"/><polygon points="-3.2,-23.4 -0.2,0 -13.1,0" fill="#1e2c3e" opacity="0.83"/><line x1="-3.2" y1="-23.4" x2="-4.7" y2="0" stroke="#56616e" stroke-width="0.8" opacity="0.5"/><polygon points="5.4,-18.2 5.3,0 -0.7,0" fill="#1e2c3e" opacity="0.94"/><line x1="5.4" y1="-18.2" x2="3.2" y2="0" stroke="#56616e" stroke-width="0.8" opacity="0.5"/><polygon points="-1.9,-36.0 9.7,0 -0.8,0" fill="#1e2c3e" opacity="0.83"/><line x1="-1.9" y1="-36.0" x2="6.0" y2="0" stroke="#56616e" stroke-width="0.8" opacity="0.5"/><polygon points="-8.6,-24.0 -2.0,0 -8.7,0" fill="#1e2c3e" opacity="0.86"/><line x1="-8.6" y1="-24.0" x2="-4.3" y2="0" stroke="#56616e" stroke-width="0.8" opacity="0.5"/></g>
  <g transform="translate(316.2,447.0)" opacity="0.91"><rect x="-2.8" y="-43.3" width="5.5" height="43.3" fill="#141e2c"/>
<ellipse cx="0" cy="-43.3" rx="16.9" ry="12.8" fill="#1e2c3e"/>
<circle cx="-7.9" cy="-42.1" r="3.1" fill="#56616e" opacity="0.7"/></g>
  <g transform="translate(780.2,421.7)" opacity="0.72"><ellipse cx="0" cy="-14.0" rx="28.8" ry="20.0" fill="#141e2c" opacity="0.9"/>
<ellipse cx="5.8" cy="-22.0" rx="10.1" ry="8.0" fill="#101823" opacity="0.35"/></g>
  <g transform="translate(57.8,461.8)" opacity="0.72"><line x1="0" y1="0" x2="0" y2="-39.9" stroke="#141e2c" stroke-width="3.1" stroke-linecap="round"/><path d="M0,-33.5 C-6.5,-33.5 -21.8,-24.7 -21.8,-24.7" stroke="#37404c" stroke-width="1.5" fill="none" stroke-linecap="round" opacity="0.8"/><path d="M0,-22.5 C6.0,-22.5 20.1,-14.5 20.1,-14.5" stroke="#37404c" stroke-width="1.5" fill="none" stroke-linecap="round" opacity="0.8"/><path d="M0,-32.0 C-9.7,-32.0 -32.4,-19.1 -32.4,-19.1" stroke="#37404c" stroke-width="1.5" fill="none" stroke-linecap="round" opacity="0.8"/><path d="M0,-24.3 C-10.5,-24.3 -35.0,-10.3 -35.0,-10.3" stroke="#37404c" stroke-width="1.5" fill="none" stroke-linecap="round" opacity="0.8"/><path d="M0,-31.4 C-9.0,-31.4 -30.1,-19.4 -30.1,-19.4" stroke="#37404c" stroke-width="1.5" fill="none" stroke-linecap="round" opacity="0.8"/><path d="M0,-31.2 C5.1,-31.2 17.0,-24.4 17.0,-24.4" stroke="#37404c" stroke-width="1.5" fill="none" stroke-linecap="round" opacity="0.8"/></g>
  <g transform="translate(269.3,435.7)" opacity="0.90"><polygon points="19.6,-33.6 18.7,0 10.8,0" fill="#1e2c3e" opacity="0.80"/><line x1="19.6" y1="-33.6" x2="15.9" y2="0" stroke="#56616e" stroke-width="0.8" opacity="0.5"/><polygon points="-21.2,-32.4 -9.1,0 -18.6,0" fill="#1e2c3e" opacity="0.80"/><line x1="-21.2" y1="-32.4" x2="-12.4" y2="0" stroke="#56616e" stroke-width="0.8" opacity="0.5"/><polygon points="-0.4,-31.7 2.5,0 -10.7,0" fill="#1e2c3e" opacity="0.77"/><line x1="-0.4" y1="-31.7" x2="-2.2" y2="0" stroke="#56616e" stroke-width="0.8" opacity="0.5"/><polygon points="17.0,-26.3 22.9,0 4.2,0" fill="#1e2c3e" opacity="0.84"/><line x1="17.0" y1="-26.3" x2="16.3" y2="0" stroke="#56616e" stroke-width="0.8" opacity="0.5"/><polygon points="8.1,-20.2 10.5,0 -2.8,0" fill="#1e2c3e" opacity="0.86"/><line x1="8.1" y1="-20.2" x2="5.9" y2="0" stroke="#56616e" stroke-width="0.8" opacity="0.5"/></g>

  <!-- Rocks -->
  <g transform="translate(1129.3,660.8)"><rect x="-9.3" y="-11.8" width="25.9" height="11.8" fill="#060a10" opacity="0.92" rx="1"/><rect x="-10.7" y="-26.1" width="18.1" height="14.3" fill="#1f2328" opacity="0.92" rx="1"/><rect x="-12.7" y="-34.0" width="33.9" height="8.0" fill="#060a10" opacity="0.92" rx="1"/><rect x="-9.3" y="-42.0" width="17.2" height="7.9" fill="#1f2328" opacity="0.92" rx="1"/></g>
  <g transform="translate(1037.8,638.3)"><polygon points="6.9,-31.4 9.3,0 -9.3,0" fill="#060a10" opacity="0.9"/></g>
  <g transform="translate(487.8,543.4)"><rect x="-10.7" y="-5.5" width="26.6" height="5.5" fill="#060a10" opacity="0.92" rx="1"/><rect x="-9.9" y="-16.4" width="13.9" height="10.9" fill="#1f2328" opacity="0.92" rx="1"/></g>
  <g transform="translate(849.9,500.1)"><polygon points="-9.9,-58.9 12.9,0 -12.9,0" fill="#060a10" opacity="0.9"/><polygon points="-9.9,-58.9 1.3,0 12.9,0" fill="#04070b" opacity="0.4"/></g>
  <g transform="translate(287.9,615.3)"><ellipse cx="0" cy="-8.3" rx="23.3" ry="11.9" fill="#060a10" opacity="0.92"/>
<ellipse cx="5.8" cy="-11.9" rx="8.1" ry="2.4" fill="#05080c" opacity="0.3"/>
<ellipse cx="-4.7" cy="-7.2" rx="4.7" ry="1.8" fill="#2b2f34" opacity="0.2"/></g>
  <g transform="translate(955.9,624.7)"><ellipse cx="0" cy="-11.4" rx="39.3" ry="16.3" fill="#060a10" opacity="0.92"/>
<ellipse cx="9.8" cy="-16.3" rx="13.7" ry="3.3" fill="#05080c" opacity="0.3"/>
<ellipse cx="-7.9" cy="-9.8" rx="7.9" ry="2.4" fill="#2b2f34" opacity="0.2"/></g>
  <g transform="translate(1233.9,525.4)"><polygon points="-14.7,-68.5 10.1,0 -10.1,0" fill="#060a10" opacity="0.9"/></g>
  <g transform="translate(756.5,634.4)"><ellipse cx="0" cy="-10.9" rx="26.6" ry="15.5" fill="#060a10" opacity="0.92"/>
<ellipse cx="6.7" cy="-15.5" rx="9.3" ry="3.1" fill="#05080c" opacity="0.3"/>
<ellipse cx="-5.3" cy="-9.3" rx="5.3" ry="2.3" fill="#2b2f34" opacity="0.2"/></g>

  <!-- Foreground elements -->
  <g transform="translate(93.9,697.0)" opacity="0.75"><ellipse cx="0" cy="-23.2" rx="65.9" ry="33.1" fill="#060a10" opacity="0.92"/>
<ellipse cx="16.5" cy="-33.1" rx="23.1" ry="6.6" fill="#05080c" opacity="0.3"/>
<ellipse cx="-13.2" cy="-19.9" rx="13.2" ry="5.0" fill="#2b2f34" opacity="0.2"/></g>
  <g transform="translate(1108.9,672.2)" opacity="0.72"><rect x="-32.6" y="-13.4" width="62.2" height="13.4" fill="#060a10" opacity="0.92" rx="1"/><rect x="-18.6" y="-41.7" width="53.7" height="28.3" fill="#1f2328" opacity="0.92" rx="1"/></g>

  <!-- Atmospheric dust -->
  <circle cx="43.2" cy="419.3" r="1.5" fill="#202c42" opacity="0.22"/>
  <circle cx="587.6" cy="364.4" r="1.3" fill="#202c42" opacity="0.19"/>
  <circle cx="380.7" cy="365.6" r="2.0" fill="#202c42" opacity="0.10"/>
  <circle cx="948.5" cy="370.4" r="2.3" fill="#202c42" opacity="0.17"/>
  <circle cx="578.8" cy="406.0" r="2.1" fill="#202c42" opacity="0.17"/>
  <circle cx="736.1" cy="380.4" r="1.7" fill="#202c42" opacity="0.17"/>
  <circle cx="199.8" cy="449.2" r="1.4" fill="#202c42" opacity="0.20"/>
  <circle cx="704.7" cy="375.2" r="0.9" fill="#202c42" opacity="0.21"/>
  <circle cx="146.6" cy="411.8" r="1.5" fill="#202c42" opacity="0.22"/>
  <circle cx="1124.2" cy="445.2" r="2.3" fill="#202c42" opacity="0.20"/>
  <circle cx="177.7" cy="405.2" r="2.0" fill="#202c42" opacity="0.20"/>
  <circle cx="118.4" cy="444.2" r="1.6" fill="#202c42" opacity="0.09"/>
  <circle cx="554.6" cy="418.9" r="2.3" fill="#202c42" opacity="0.13"/>
  <circle cx="1019.0" cy="397.3" r="1.4" fill="#202c42" opacity="0.24"/>
  <circle cx="619.8" cy="415.8" r="1.5" fill="#202c42" opacity="0.24"/>
  <circle cx="531.3" cy="375.4" r="1.7" fill="#202c42" opacity="0.24"/>
  <circle cx="1206.4" cy="433.9" r="2.2" fill="#202c42" opacity="0.21"/>
  <circle cx="598.9" cy="364.0" r="2.4" fill="#202c42" opacity="0.20"/>
  <circle cx="1109.6" cy="368.7" r="2.2" fill="#202c42" opacity="0.08"/>
  <circle cx="384.5" cy="452.4" r="2.4" fill="#202c42" opacity="0.10"/>
  <circle cx="608.8" cy="407.1" r="1.3" fill="#202c42" opacity="0.18"/>
  <circle cx="583.2" cy="426.3" r="1.1" fill="#202c42" opacity="0.10"/>
  <circle cx="99.6" cy="424.8" r="2.2" fill="#202c42" opacity="0.15"/>
  <circle cx="356.9" cy="421.1" r="2.4" fill="#202c42" opacity="0.21"/>
  <circle cx="79.7" cy="394.5" r="2.5" fill="#202c42" opacity="0.16"/>
  <circle cx="988.4" cy="358.9" r="1.9" fill="#202c42" opacity="0.24"/>
  <circle cx="642.1" cy="363.5" r="2.2" fill="#202c42" opacity="0.17"/>
</svg>