<svg xmlns="http://www.w3.org/2000/svg"
     viewBox="0 0 96 96" width="96" height="96">

  <!-- Triple engine glow (trailing side) -->
  <ellipse cx="48" cy="73.25" rx="12" ry="7"  fill="#ff1133" opacity="0.70"/>
  <ellipse cx="48" cy="73.25" rx="20" ry="12" fill="#ff1133" opacity="0.22"/>
  <ellipse cx="48" cy="73.25" rx="30" ry="18" fill="#ff1133" opacity="0.07"/>

  <!-- Disc drop shadow -->
  <ellipse cx="48" cy="70" rx="39" ry="13" fill="black" opacity="0.28"/>

  <!-- Disc — 4 depth layers (dark outer rim → bright inner plateau) -->
  <ellipse cx="48" cy="65"   rx="38"    ry="11"     fill="#2a0812"/>
  <ellipse cx="48" cy="64" rx="32"  ry="9.5" fill="#5c1828"/>
  <ellipse cx="48" cy="63" rx="24" ry="8"   fill="#8c2e42"/>
  <ellipse cx="48" cy="62" rx="16" ry="6.5" fill="#c04455"/>

  <!-- Weapon pods (3 emitters, fixed — do not rotate with frog) -->
  <circle cx="74.6" cy="65" r="4.5" fill="#2a0812"/>
  <circle cx="74.6" cy="65" r="2.5" fill="#ff1133" opacity="0.72"/>
  <circle cx="74.6" cy="65" r="1"   fill="white"       opacity="0.60"/>
  <circle cx="34.7" cy="71.67" r="4.5" fill="#2a0812"/>
  <circle cx="34.7" cy="71.67" r="2.5" fill="#ff1133" opacity="0.72"/>
  <circle cx="34.7" cy="71.67" r="1"   fill="white"       opacity="0.60"/>
  <circle cx="34.7" cy="58.33" r="4.5" fill="#2a0812"/>
  <circle cx="34.7" cy="58.33" r="2.5" fill="#ff1133" opacity="0.72"/>
  <circle cx="34.7" cy="58.33" r="1"   fill="white"       opacity="0.60"/>

  <!-- 12 rim accent lights -->
  <circle cx="81.06" cy="65" r="2.2" fill="#ff3344" opacity="0.95"/>
  <circle cx="76.63" cy="69.78" r="2.2" fill="#ffcc00" opacity="0.95"/>
  <circle cx="64.53" cy="73.29" r="2.2" fill="#ff4455" opacity="0.95"/>
  <circle cx="48" cy="74.57" r="2.2" fill="#ffaa00" opacity="0.95"/>
  <circle cx="31.47" cy="73.29" r="2.2" fill="#ff2233" opacity="0.95"/>
  <circle cx="19.37" cy="69.78" r="2.2" fill="#ffdd11" opacity="0.95"/>
  <circle cx="14.94" cy="65" r="2.2" fill="#ff5566" opacity="0.95"/>
  <circle cx="19.37" cy="60.21" r="2.2" fill="#ffbb00" opacity="0.95"/>
  <circle cx="31.47" cy="56.71" r="2.2" fill="#ff3344" opacity="0.95"/>
  <circle cx="48" cy="55.43" r="2.2" fill="#ffcc00" opacity="0.95"/>
  <circle cx="64.53" cy="56.71" r="2.2" fill="#ff4455" opacity="0.95"/>
  <circle cx="76.63" cy="60.21" r="2.2" fill="#ffaa00" opacity="0.95"/>

  <!-- Dome interior (dark cavity behind glass) -->
  <circle cx="48" cy="40" r="20" fill="#140008" opacity="0.84"/>

  <!-- Boss frog (rotated to face travel direction) -->
  <g transform="rotate(270, 48, 40)">
    <circle cx="48" cy="40" r="10" fill="#2eaa2e"/>
    <ellipse cx="46" cy="40" rx="6" ry="8" fill="#4acc4a" opacity="0.30"/>
    <ellipse cx="53" cy="40" rx="9" ry="7.5" fill="#2eaa2e"/>
    <ellipse cx="55" cy="40" rx="5" ry="4"   fill="#4acc4a" opacity="0.22"/>
    <ellipse cx="44" cy="31" rx="4" ry="2.5" fill="#155a15"
             transform="rotate(-35,44,31)"/>
    <ellipse cx="44" cy="49" rx="4" ry="2.5" fill="#155a15"
             transform="rotate(35,44,49)"/>
    <circle  cx="41" cy="29" r="1.8" fill="#2eaa2e"/>
    <circle  cx="41" cy="51" r="1.8" fill="#2eaa2e"/>
    <circle cx="57"  cy="32"  r="4.5" fill="#dde840"/>
    <circle cx="58" cy="33"  r="2.2" fill="#cc1111"/>
    <circle cx="56"  cy="30.5" r="1"  fill="white"/>
    <path d="M 52 26 L 59 30"
          stroke="#155a15" stroke-width="2.2" stroke-linecap="round" fill="none"/>
    <circle cx="57"  cy="48"  r="4.5" fill="#dde840"/>
    <circle cx="58" cy="49"  r="2.2" fill="#cc1111"/>
    <circle cx="56"  cy="46.5" r="1"  fill="white"/>
    <path d="M 52 54 L 59 50"
          stroke="#155a15" stroke-width="2.2" stroke-linecap="round" fill="none"/>
    <circle cx="53" cy="37.5" r="1.5" fill="#155a15"/>
    <circle cx="53" cy="42.5" r="1.5" fill="#155a15"/>
    <path d="M 54 43 Q 59 44.5 57 48"
          stroke="#155a15" stroke-width="1.8" fill="none" stroke-linecap="round"/>
  </g>

  <!-- Dome glass — outer ring, inner ring, shine highlight -->
  <circle cx="48" cy="40" r="20"
          fill="none" stroke="#ff2244" stroke-width="2.5" opacity="0.88"/>
  <circle cx="48" cy="40" r="17"
          fill="none" stroke="#ff2244" stroke-width="0.9" opacity="0.30"/>
  <ellipse cx="43" cy="33" rx="6" ry="4"
           fill="white" opacity="0.12"/>

</svg>