<svg xmlns="http://www.w3.org/2000/svg" viewBox="0 0 48 48" width="48" height="48">

  <g transform="translate(48, 0) scale(-1, 1)">

  <!-- shell -->
  <circle cx="18" cy="24" r="12" fill="#8B5E3C"/>
  <circle cx="19" cy="24" r="8"  fill="#A0714F"/>
  <circle cx="20" cy="24" r="4"  fill="#BD8C64"/>

  <!-- body (wavy foot) -->
  <path d="M 18 30 C 18 25 42 25 42 30 L 42.0 31.1 L 40.0 32.8 L 38.0 32.6 L 36.0 33.2 L 34.0 34.7 L 32.0 36.1 L 30.0 36.1 L 28.0 34.9 L 26.0 33.6 L 24.0 33.2 L 22.0 33.7 L 20.0 33.9 L 18.0 31.1 Z" fill="#E8D44D"/>

  <!-- slime trail -->
  <ellipse cx="16" cy="33" rx="4" ry="1.2" fill="#E8D44D" opacity="0.3"/>

  <!-- antenna left — eye at tip -->
  <line x1="32" y1="26" x2="28.0" y2="15.3" stroke="#E8D44D" stroke-width="1.5" stroke-linecap="round"/>
  <circle cx="28.0" cy="15.3" r="2" fill="#1a1a1a"/>
  <circle cx="28.5" cy="14.6" r="0.6" fill="white"/>

  <!-- antenna right — eye at tip -->
  <line x1="36" y1="26" x2="38.0" y2="13.3" stroke="#E8D44D" stroke-width="1.5" stroke-linecap="round"/>
  <circle cx="38.0" cy="13.3" r="2" fill="#1a1a1a"/>
  <circle cx="38.6" cy="12.6" r="0.6" fill="white"/>
  </g>

</svg>