<svg xmlns="http://www.w3.org/2000/svg" viewBox="0 0 48 48" width="48" height="48">

  <!-- foot prism peeking below shell -->
  <path d="M 19 38.7 L 29 38.7 L 29.0 43.0 L 28.2 42.9 L 27.3 42.7 L 26.5 42.5 L 25.7 42.4 L 24.8 42.3 L 24.0 42.4 L 23.2 42.5 L 22.3 42.7 L 21.5 42.9 L 20.7 43.0 L 19.8 43.1 L 19.0 43.0 Z" fill="#E8D44D"/>

  <!-- shell (bobs with stride) — drawn over foot -->
  <circle cx="24" cy="26.7"     r="13" fill="#8B5E3C"/>
  <circle cx="24" cy="25.7" r="9"  fill="#A0714F"/>
  <circle cx="24" cy="24.7" r="5"  fill="#BD8C64"/>

  <!-- head body peeking above shell — drawn after shell -->
  <ellipse cx="24" cy="14.3" rx="6" ry="4" fill="#E8D44D"/>

  <!-- slime trail -->
  <ellipse cx="24" cy="43" rx="3" ry="1.5" fill="#E8D44D" opacity="0.25"/>

  <!-- antenna left — eye at tip (bobs) -->
  <line x1="20" y1="12.5" x2="12" y2="5.0" stroke="#E8D44D" stroke-width="1.5" stroke-linecap="round"/>
  <circle cx="12" cy="5.0" r="2" fill="#1a1a1a"/>

  <!-- antenna right — eye at tip (bobs) -->
  <line x1="28" y1="12.5" x2="36" y2="5.0" stroke="#E8D44D" stroke-width="1.5" stroke-linecap="round"/>
  <circle cx="36" cy="5.0" r="2" fill="#1a1a1a"/>

</svg>