<svg xmlns="http://www.w3.org/2000/svg" viewBox="0 0 64 64" width="64" height="64">

  <!-- ── Desk unit top face (oblique strip directly above front) ── -->
  <polygon points="8,42 56,42 56,35 8,35"
           fill="#ccc9c1" stroke="#555045" stroke-width="1"/>
  <!-- Desk front face -->
  <rect x="8" y="42" width="48" height="18" fill="#b8b5ad" stroke="#555045" stroke-width="1"/>
  <!-- Drive bay slots on desk front -->
  <rect x="12"  y="46"  width="16" height="3" rx="0.5" fill="#3a3730" stroke="#999488" stroke-width="0.5"/>
  <rect x="12"  y="51"  width="16" height="3" rx="0.5" fill="#3a3730" stroke="#999488" stroke-width="0.5"/>
  <!-- Drive LED -->
  <circle cx="32" cy="47.5" r="1.5" fill="#ffaa22" opacity="0.9"/>
  <circle cx="32" cy="47.5" r="3"   fill="#ffaa22" opacity="0.2"/>
  <!-- Vent grille on desk front right -->
  <line x1="42" y1="45"  x2="52" y2="45"  stroke="#999488" stroke-width="0.7"/>
  <line x1="42" y1="48"  x2="52" y2="48"  stroke="#999488" stroke-width="0.7"/>
  <line x1="42" y1="51"  x2="52" y2="51"  stroke="#999488" stroke-width="0.7"/>
  <line x1="42" y1="54" x2="52" y2="54" stroke="#999488" stroke-width="0.7"/>

  <!-- ── Monitor top face (oblique strip directly above front) ── -->
  <polygon points="10,14 54,14 54,8 10,8"
           fill="#d8d5cc" stroke="#555045" stroke-width="1"/>
  <!-- Monitor front face (bezel) -->
  <rect x="10" y="14" width="44" height="26" fill="#c0bdb5" stroke="#555045" stroke-width="1"/>
  <!-- CRT bezel inset -->
  <rect x="13" y="17" width="38" height="19" rx="2"
        fill="#3a3730" stroke="#555045" stroke-width="0.8"/>
  <!-- CRT screen -->
  <rect x="15" y="19" width="34" height="15" rx="1"
        fill="#001a12" stroke="#ffaa22" stroke-width="0.8"/>

  <!-- Scan-line glow on screen -->
  <rect x="16" y="21"  width="32" height="1.2" fill="#ffaa22" opacity="0.55"/>
  <rect x="16" y="24" width="32" height="1.2" fill="#ffaa22" opacity="0.4"/>
  <rect x="16" y="27" width="32" height="1.2" fill="#ffaa22" opacity="0.55"/>
  <rect x="16" y="30" width="30" height="1.2" fill="#ffaa22" opacity="0.3"/>
  <!-- Screen ambient glow -->
  <rect x="15" y="19" width="34" height="15" rx="1"
        fill="#ffaa22" opacity="0.05"/>

  <!-- Screen glare highlight (top-left) -->
  <rect x="16" y="19" width="7" height="3" rx="1"
        fill="white" opacity="0.12"/>

  <!-- Indicator LED on bezel (bottom-right) -->
  <circle cx="48" cy="35" r="1.8" fill="#ffaa22"/>
  <circle cx="48" cy="35" r="3.5" fill="#ffaa22" opacity="0.2"/>

  <!-- Monitor brand badge (embossed strip) -->
  <rect x="24" y="35" width="16" height="2.5" rx="0.5"
        fill="#d8d5cc" opacity="0.6"/>

  <!-- Type-specific accent detail -->
  
  <rect x="18" y="33" width="12" height="3" rx="0.5" fill="#ffaa22" opacity="0.7"/>
  <rect x="30" y="33.5" width="6" height="2" rx="0.5" fill="#ffaa22" opacity="0.7"/>
  <!-- Target crosshair on desk front -->
  <circle cx="46" cy="50" r="4" fill="none" stroke="#ffaa22" stroke-width="0.9"/>
  <line x1="42" y1="50" x2="44" y2="50" stroke="#ffaa22" stroke-width="0.9"/>
  <line x1="48" y1="50" x2="50" y2="50" stroke="#ffaa22" stroke-width="0.9"/>
  <line x1="46" y1="46" x2="46" y2="48" stroke="#ffaa22" stroke-width="0.9"/>
  <line x1="46" y1="52" x2="46" y2="54" stroke="#ffaa22" stroke-width="0.9"/>

</svg>