<svg xmlns="http://www.w3.org/2000/svg" viewBox="0 0 64 64" width="64" height="64">

  <!-- Desk top face -->
  <polygon points="8,42 56,42 56,35 8,35" fill="#ccc9c1" stroke="#555045" stroke-width="1"/>
  <rect x="8" y="42" width="48" height="18" fill="#b8b5ad" stroke="#555045" stroke-width="1"/>
  <rect x="12"  y="46" width="16" height="3" rx="0.5" fill="#3a3730" stroke="#999488" stroke-width="0.5"/>
  <rect x="12"  y="51" width="16" height="3" rx="0.5" fill="#3a3730" stroke="#999488" stroke-width="0.5"/>
  <circle cx="32" cy="47.5" r="1.5" fill="#dd8800" opacity="0.9"/>
  <circle cx="32" cy="47.5" r="3"   fill="#dd8800" opacity="0.2"/>
  <line x1="42" y1="45"  x2="52" y2="45"  stroke="#999488" stroke-width="0.7"/>
  <line x1="42" y1="48"  x2="52" y2="48"  stroke="#999488" stroke-width="0.7"/>
  <line x1="42" y1="51"  x2="52" y2="51"  stroke="#999488" stroke-width="0.7"/>
  <line x1="42" y1="54" x2="52" y2="54" stroke="#999488" stroke-width="0.7"/>

  <!-- Monitor top face -->
  <polygon points="10,14 54,14 54,8 10,8" fill="#d8d5cc" stroke="#555045" stroke-width="1"/>
  <rect x="10" y="14" width="44" height="26" fill="#c0bdb5" stroke="#555045" stroke-width="1"/>
  <rect x="13" y="17" width="38" height="19" rx="2" fill="#3a3730" stroke="#555045" stroke-width="0.8"/>
  <rect x="15" y="19" width="34" height="15" rx="1" fill="#001a12" stroke="#dd8800" stroke-width="0.8"/>
  <rect x="16" y="21"  width="32" height="1.2" fill="#dd8800" opacity="0.55"/>
  <rect x="16" y="24" width="32" height="1.2" fill="#dd8800" opacity="0.4"/>
  <rect x="16" y="27" width="32" height="1.2" fill="#dd8800" opacity="0.55"/>
  <rect x="15" y="19" width="34" height="15" rx="1" fill="#dd8800" opacity="0.05"/>
  <rect x="16" y="19" width="7" height="3" rx="1" fill="white" opacity="0.12"/>
  <circle cx="48" cy="35" r="1.8" fill="#dd8800"/>
  <circle cx="48" cy="35" r="3.5" fill="#dd8800" opacity="0.2"/>
  <rect x="24" y="35" width="16" height="2.5" rx="0.5" fill="#d8d5cc" opacity="0.6"/>

  
  <!-- Mongoose silhouette on screen (body + head + tail) -->
  <!-- Body -->
  <ellipse cx="30" cy="28" rx="9" ry="4.5" fill="#dd8800" opacity="0.8"/>
  <!-- Head -->
  <ellipse cx="39" cy="26" rx="4.5" ry="3.5" fill="#dd8800" opacity="0.8"/>
  <!-- Snout -->
  <ellipse cx="43" cy="27" rx="2.5" ry="1.8" fill="#dd8800" opacity="0.8"/>
  <!-- Ear -->
  <ellipse cx="39" cy="23" rx="1.5" ry="2"   fill="#dd8800" opacity="0.8"/>
  <!-- Tail (curved up) -->
  <path d="M21,29 Q15,24 18,20" fill="none" stroke="#dd8800" stroke-width="2" stroke-linecap="round" opacity="0.8"/>
  <!-- Legs -->
  <line x1="26"  y1="32" x2="25"  y2="36" stroke="#dd8800" stroke-width="1.5" stroke-linecap="round" opacity="0.7"/>
  <line x1="32" y1="32" x2="33" y2="36" stroke="#dd8800" stroke-width="1.5" stroke-linecap="round" opacity="0.7"/>
  <!-- Paw print on desk -->
  <!-- Main pad -->
  <ellipse cx="46" cy="57" rx="3.5" ry="2.5" fill="#dd8800" opacity="0.85"/>
  <!-- Toe pads -->
  <circle cx="43"  cy="54"  r="1.4" fill="#dd8800" opacity="0.85"/>
  <circle cx="46"  cy="53"  r="1.4" fill="#dd8800" opacity="0.85"/>
  <circle cx="49"  cy="54"  r="1.4" fill="#dd8800" opacity="0.85"/>
  <circle cx="51"  cy="56"  r="1.2" fill="#dd8800" opacity="0.75"/>

</svg>